%FSLAX45Y45*%
G04 Gerber Fmt 4.5, Leading zero omitted, Abs format (unit mm)*
G04 Created by KiCad (PCBNEW (5.1.10)-1) date 2022-03-26 18:39:03*
%MOMM*%
%LPD*%
G01*
G04 APERTURE LIST*
%TA.AperFunction,Profile*%
%ADD10C,0.100000*%
%TD*%
%ADD11C,0.200000*%
%ADD12C,0.300000*%
G04 APERTURE END LIST*
D10*
X5850000Y-9400000D02*
X3450000Y-9400000D01*
X5850000Y-10900000D02*
X5850000Y-9400000D01*
X7500000Y-10900000D02*
X5850000Y-10900000D01*
X3450000Y-10900000D02*
X3450000Y-9400000D01*
X1800000Y-10900000D02*
X3450000Y-10900000D01*
X7500000Y-3420000D02*
X7500000Y-10900000D01*
X1800000Y-3420000D02*
X7500000Y-3420000D01*
X1800000Y-10900000D02*
X1800000Y-3420000D01*
D11*
X2180000Y-7080000D02*
X2220000Y-7120000D01*
X2220000Y-7080000D02*
X2180000Y-7120000D01*
X2620000Y-8320000D02*
X2660000Y-8360000D01*
X2660000Y-8320000D02*
X2620000Y-8360000D01*
X2660000Y-7140000D02*
X2700000Y-7180000D01*
X2700000Y-7140000D02*
X2660000Y-7180000D01*
X2790000Y-8630000D02*
X2830000Y-8670000D01*
X2830000Y-8630000D02*
X2790000Y-8670000D01*
X3660000Y-9180000D02*
X3700000Y-9220000D01*
X3700000Y-9180000D02*
X3660000Y-9220000D01*
X3920000Y-7200000D02*
X3960000Y-7240000D01*
X3960000Y-7200000D02*
X3920000Y-7240000D01*
X3980000Y-8720000D02*
X4020000Y-8760000D01*
X4020000Y-8720000D02*
X3980000Y-8760000D01*
X4560000Y-7660000D02*
X4600000Y-7700000D01*
X4600000Y-7660000D02*
X4560000Y-7700000D01*
X4566500Y-5000000D02*
X4606500Y-5040000D01*
X4606500Y-5000000D02*
X4566500Y-5040000D01*
X4700000Y-8900000D02*
X4740000Y-8940000D01*
X4740000Y-8900000D02*
X4700000Y-8940000D01*
X4728000Y-7240000D02*
X4768000Y-7280000D01*
X4768000Y-7240000D02*
X4728000Y-7280000D01*
X4740000Y-7520000D02*
X4780000Y-7560000D01*
X4780000Y-7520000D02*
X4740000Y-7560000D01*
X4980000Y-6060000D02*
X5020000Y-6100000D01*
X5020000Y-6060000D02*
X4980000Y-6100000D01*
X5420000Y-8120000D02*
X5460000Y-8160000D01*
X5460000Y-8120000D02*
X5420000Y-8160000D01*
X6560000Y-6640000D02*
X6600000Y-6680000D01*
X6600000Y-6640000D02*
X6560000Y-6680000D01*
X6780000Y-6520000D02*
X6820000Y-6560000D01*
X6820000Y-6520000D02*
X6780000Y-6560000D01*
X3915000Y-5550000D02*
G75*
G03*
X3915000Y-5550000I-35000J0D01*
G01*
X3915000Y-5800000D02*
G75*
G03*
X3915000Y-5800000I-35000J0D01*
G01*
X1958000Y-9450000D02*
X1958000Y-9530000D01*
X1918000Y-9490000D02*
X1998000Y-9490000D01*
X1966000Y-8906000D02*
X1966000Y-8986000D01*
X1926000Y-8946000D02*
X2006000Y-8946000D01*
X1980000Y-9910000D02*
X1980000Y-9990000D01*
X1940000Y-9950000D02*
X2020000Y-9950000D01*
X1980000Y-10510000D02*
X1980000Y-10590000D01*
X1940000Y-10550000D02*
X2020000Y-10550000D01*
X1998000Y-4680000D02*
X1998000Y-4760000D01*
X1958000Y-4720000D02*
X2038000Y-4720000D01*
X1998000Y-5020000D02*
X1998000Y-5100000D01*
X1958000Y-5060000D02*
X2038000Y-5060000D01*
X1998000Y-5700000D02*
X1998000Y-5780000D01*
X1958000Y-5740000D02*
X2038000Y-5740000D01*
X1998000Y-6380000D02*
X1998000Y-6460000D01*
X1958000Y-6420000D02*
X2038000Y-6420000D01*
X2000000Y-3840000D02*
X2000000Y-3920000D01*
X1960000Y-3880000D02*
X2040000Y-3880000D01*
X2000000Y-4340000D02*
X2000000Y-4420000D01*
X1960000Y-4380000D02*
X2040000Y-4380000D01*
X2020000Y-5360000D02*
X2020000Y-5440000D01*
X1980000Y-5400000D02*
X2060000Y-5400000D01*
X2020000Y-6040000D02*
X2020000Y-6120000D01*
X1980000Y-6080000D02*
X2060000Y-6080000D01*
X2220000Y-8652000D02*
X2220000Y-8732000D01*
X2180000Y-8692000D02*
X2260000Y-8692000D01*
X2220000Y-9160000D02*
X2220000Y-9240000D01*
X2180000Y-9200000D02*
X2260000Y-9200000D01*
X2240000Y-7300000D02*
X2240000Y-7380000D01*
X2200000Y-7340000D02*
X2280000Y-7340000D01*
X2240000Y-7500000D02*
X2240000Y-7580000D01*
X2200000Y-7540000D02*
X2280000Y-7540000D01*
X2260000Y-8020000D02*
X2260000Y-8100000D01*
X2220000Y-8060000D02*
X2300000Y-8060000D01*
X2260000Y-8220000D02*
X2260000Y-8300000D01*
X2220000Y-8260000D02*
X2300000Y-8260000D01*
X2360000Y-3540000D02*
X2360000Y-3620000D01*
X2320000Y-3580000D02*
X2400000Y-3580000D01*
X2480000Y-9910000D02*
X2480000Y-9990000D01*
X2440000Y-9950000D02*
X2520000Y-9950000D01*
X2480000Y-10510000D02*
X2480000Y-10590000D01*
X2440000Y-10550000D02*
X2520000Y-10550000D01*
X2520000Y-5360000D02*
X2520000Y-5440000D01*
X2480000Y-5400000D02*
X2560000Y-5400000D01*
X2520000Y-6040000D02*
X2520000Y-6120000D01*
X2480000Y-6080000D02*
X2560000Y-6080000D01*
X2680000Y-7420000D02*
X2680000Y-7500000D01*
X2640000Y-7460000D02*
X2720000Y-7460000D01*
X2720000Y-9450000D02*
X2720000Y-9530000D01*
X2680000Y-9490000D02*
X2760000Y-9490000D01*
X2760000Y-4680000D02*
X2760000Y-4760000D01*
X2720000Y-4720000D02*
X2800000Y-4720000D01*
X2760000Y-5020000D02*
X2760000Y-5100000D01*
X2720000Y-5060000D02*
X2800000Y-5060000D01*
X2760000Y-5700000D02*
X2760000Y-5780000D01*
X2720000Y-5740000D02*
X2800000Y-5740000D01*
X2760000Y-6380000D02*
X2760000Y-6460000D01*
X2720000Y-6420000D02*
X2800000Y-6420000D01*
X2850000Y-9853000D02*
X2850000Y-9933000D01*
X2810000Y-9893000D02*
X2890000Y-9893000D01*
X2850000Y-10615000D02*
X2850000Y-10695000D01*
X2810000Y-10655000D02*
X2890000Y-10655000D01*
X2975000Y-9085000D02*
X2975000Y-9165000D01*
X2935000Y-9125000D02*
X3015000Y-9125000D01*
X3010000Y-8300000D02*
X3010000Y-8380000D01*
X2970000Y-8340000D02*
X3050000Y-8340000D01*
X3040000Y-6380000D02*
X3040000Y-6460000D01*
X3000000Y-6420000D02*
X3080000Y-6420000D01*
X3120000Y-5560000D02*
X3120000Y-5640000D01*
X3080000Y-5600000D02*
X3160000Y-5600000D01*
X3120000Y-6060000D02*
X3120000Y-6140000D01*
X3080000Y-6100000D02*
X3160000Y-6100000D01*
X3122000Y-3540000D02*
X3122000Y-3620000D01*
X3082000Y-3580000D02*
X3162000Y-3580000D01*
X3175000Y-9085000D02*
X3175000Y-9165000D01*
X3135000Y-9125000D02*
X3215000Y-9125000D01*
X3190000Y-9855000D02*
X3190000Y-9935000D01*
X3150000Y-9895000D02*
X3230000Y-9895000D01*
X3190000Y-10617000D02*
X3190000Y-10697000D01*
X3150000Y-10657000D02*
X3230000Y-10657000D01*
X3260000Y-8300000D02*
X3260000Y-8380000D01*
X3220000Y-8340000D02*
X3300000Y-8340000D01*
X3442000Y-7420000D02*
X3442000Y-7500000D01*
X3402000Y-7460000D02*
X3482000Y-7460000D01*
X3802000Y-6380000D02*
X3802000Y-6460000D01*
X3762000Y-6420000D02*
X3842000Y-6420000D01*
X3940000Y-7960000D02*
X3940000Y-8040000D01*
X3900000Y-8000000D02*
X3980000Y-8000000D01*
X3940000Y-8460000D02*
X3940000Y-8540000D01*
X3900000Y-8500000D02*
X3980000Y-8500000D01*
X4000000Y-3540000D02*
X4000000Y-3620000D01*
X3960000Y-3580000D02*
X4040000Y-3580000D01*
X4000000Y-4302000D02*
X4000000Y-4382000D01*
X3960000Y-4342000D02*
X4040000Y-4342000D01*
X4100000Y-4600000D02*
X4100000Y-4680000D01*
X4060000Y-4640000D02*
X4140000Y-4640000D01*
X4100000Y-5100000D02*
X4100000Y-5180000D01*
X4060000Y-5140000D02*
X4140000Y-5140000D01*
X4160000Y-6620000D02*
X4160000Y-6700000D01*
X4120000Y-6660000D02*
X4200000Y-6660000D01*
X4160000Y-7120000D02*
X4160000Y-7200000D01*
X4120000Y-7160000D02*
X4200000Y-7160000D01*
X4200000Y-6210000D02*
X4200000Y-6290000D01*
X4160000Y-6250000D02*
X4240000Y-6250000D01*
X4700000Y-6210000D02*
X4700000Y-6290000D01*
X4660000Y-6250000D02*
X4740000Y-6250000D01*
X4780000Y-8680000D02*
X4780000Y-8760000D01*
X4740000Y-8720000D02*
X4820000Y-8720000D01*
X5160000Y-7540000D02*
X5160000Y-7620000D01*
X5120000Y-7580000D02*
X5200000Y-7580000D01*
X5160000Y-7790000D02*
X5160000Y-7870000D01*
X5120000Y-7830000D02*
X5200000Y-7830000D01*
X5200000Y-5380000D02*
X5200000Y-5460000D01*
X5160000Y-5420000D02*
X5240000Y-5420000D01*
X5200000Y-5630000D02*
X5200000Y-5710000D01*
X5160000Y-5670000D02*
X5240000Y-5670000D01*
X5260000Y-6580000D02*
X5260000Y-6660000D01*
X5220000Y-6620000D02*
X5300000Y-6620000D01*
X5260000Y-7080000D02*
X5260000Y-7160000D01*
X5220000Y-7120000D02*
X5300000Y-7120000D01*
X5280000Y-8680000D02*
X5280000Y-8760000D01*
X5240000Y-8720000D02*
X5320000Y-8720000D01*
X5320000Y-6040000D02*
X5320000Y-6120000D01*
X5280000Y-6080000D02*
X5360000Y-6080000D01*
X5320000Y-6240000D02*
X5320000Y-6320000D01*
X5280000Y-6280000D02*
X5360000Y-6280000D01*
X5700000Y-4900000D02*
X5700000Y-4980000D01*
X5660000Y-4940000D02*
X5740000Y-4940000D01*
X5700000Y-7598000D02*
X5700000Y-7678000D01*
X5660000Y-7638000D02*
X5740000Y-7638000D01*
X5700000Y-7852000D02*
X5700000Y-7932000D01*
X5660000Y-7892000D02*
X5740000Y-7892000D01*
X5700000Y-8106000D02*
X5700000Y-8186000D01*
X5660000Y-8146000D02*
X5740000Y-8146000D01*
X5700000Y-8360000D02*
X5700000Y-8440000D01*
X5660000Y-8400000D02*
X5740000Y-8400000D01*
X5800000Y-5900000D02*
X5800000Y-5980000D01*
X5760000Y-5940000D02*
X5840000Y-5940000D01*
X5800000Y-6240000D02*
X5800000Y-6320000D01*
X5760000Y-6280000D02*
X5840000Y-6280000D01*
X5800000Y-8985000D02*
X5800000Y-9065000D01*
X5760000Y-9025000D02*
X5840000Y-9025000D01*
X6000000Y-8985000D02*
X6000000Y-9065000D01*
X5960000Y-9025000D02*
X6040000Y-9025000D01*
X6200000Y-4900000D02*
X6200000Y-4980000D01*
X6160000Y-4940000D02*
X6240000Y-4940000D01*
X6440000Y-9040000D02*
X6440000Y-9120000D01*
X6400000Y-9080000D02*
X6480000Y-9080000D01*
X6562000Y-5900000D02*
X6562000Y-5980000D01*
X6522000Y-5940000D02*
X6602000Y-5940000D01*
X6562000Y-6240000D02*
X6562000Y-6320000D01*
X6522000Y-6280000D02*
X6602000Y-6280000D01*
X6598000Y-3580000D02*
X6598000Y-3660000D01*
X6558000Y-3620000D02*
X6638000Y-3620000D01*
X6600000Y-3860000D02*
X6600000Y-3940000D01*
X6560000Y-3900000D02*
X6640000Y-3900000D01*
X6716000Y-7598000D02*
X6716000Y-7678000D01*
X6676000Y-7638000D02*
X6756000Y-7638000D01*
X6716000Y-7852000D02*
X6716000Y-7932000D01*
X6676000Y-7892000D02*
X6756000Y-7892000D01*
X6716000Y-8106000D02*
X6716000Y-8186000D01*
X6676000Y-8146000D02*
X6756000Y-8146000D01*
X6716000Y-8360000D02*
X6716000Y-8440000D01*
X6676000Y-8400000D02*
X6756000Y-8400000D01*
X6840000Y-4760000D02*
X6840000Y-4840000D01*
X6800000Y-4800000D02*
X6880000Y-4800000D01*
X6840000Y-5260000D02*
X6840000Y-5340000D01*
X6800000Y-5300000D02*
X6880000Y-5300000D01*
X7100000Y-9720000D02*
X7100000Y-9800000D01*
X7060000Y-9760000D02*
X7140000Y-9760000D01*
X7100000Y-9920000D02*
X7100000Y-10000000D01*
X7060000Y-9960000D02*
X7140000Y-9960000D01*
X7180000Y-8040000D02*
X7180000Y-8120000D01*
X7140000Y-8080000D02*
X7220000Y-8080000D01*
X7180000Y-8240000D02*
X7180000Y-8320000D01*
X7140000Y-8280000D02*
X7220000Y-8280000D01*
X7202000Y-9040000D02*
X7202000Y-9120000D01*
X7162000Y-9080000D02*
X7242000Y-9080000D01*
X7300000Y-4720000D02*
X7300000Y-4800000D01*
X7260000Y-4760000D02*
X7340000Y-4760000D01*
X7300000Y-5482000D02*
X7300000Y-5562000D01*
X7260000Y-5522000D02*
X7340000Y-5522000D01*
X7360000Y-3580000D02*
X7360000Y-3660000D01*
X7320000Y-3620000D02*
X7400000Y-3620000D01*
X7362000Y-3860000D02*
X7362000Y-3940000D01*
X7322000Y-3900000D02*
X7402000Y-3900000D01*
X4524820Y-4210820D02*
X4524820Y-4147180D01*
X4461180Y-4147180D01*
X4461180Y-4210820D01*
X4524820Y-4210820D01*
X4778820Y-4210820D02*
X4778820Y-4147180D01*
X4715180Y-4147180D01*
X4715180Y-4210820D01*
X4778820Y-4210820D01*
X2359000Y-3950000D02*
X2409000Y-3900000D01*
X2359000Y-3850000D01*
X2309000Y-3900000D01*
X2359000Y-3950000D01*
X2699000Y-7810000D02*
X2749000Y-7760000D01*
X2699000Y-7710000D01*
X2649000Y-7760000D01*
X2699000Y-7810000D01*
X3039000Y-4890000D02*
X3089000Y-4840000D01*
X3039000Y-4790000D01*
X2989000Y-4840000D01*
X3039000Y-4890000D01*
X3121000Y-3950000D02*
X3171000Y-3900000D01*
X3121000Y-3850000D01*
X3071000Y-3900000D01*
X3121000Y-3950000D01*
X3420000Y-5409000D02*
X3470000Y-5359000D01*
X3420000Y-5309000D01*
X3370000Y-5359000D01*
X3420000Y-5409000D01*
X3420000Y-6171000D02*
X3470000Y-6121000D01*
X3420000Y-6071000D01*
X3370000Y-6121000D01*
X3420000Y-6171000D01*
X3461000Y-7810000D02*
X3511000Y-7760000D01*
X3461000Y-7710000D01*
X3411000Y-7760000D01*
X3461000Y-7810000D01*
X3801000Y-4890000D02*
X3851000Y-4840000D01*
X3801000Y-4790000D01*
X3751000Y-4840000D01*
X3801000Y-4890000D01*
X4486000Y-3650000D02*
X4536000Y-3600000D01*
X4486000Y-3550000D01*
X4436000Y-3600000D01*
X4486000Y-3650000D01*
X4486000Y-4750000D02*
X4536000Y-4700000D01*
X4486000Y-4650000D01*
X4436000Y-4700000D01*
X4486000Y-4750000D01*
X4526000Y-9170000D02*
X4576000Y-9120000D01*
X4526000Y-9070000D01*
X4476000Y-9120000D01*
X4526000Y-9170000D01*
X4740000Y-3650000D02*
X4790000Y-3600000D01*
X4740000Y-3550000D01*
X4690000Y-3600000D01*
X4740000Y-3650000D01*
X4740000Y-4750000D02*
X4790000Y-4700000D01*
X4740000Y-4650000D01*
X4690000Y-4700000D01*
X4740000Y-4750000D01*
X4780000Y-9170000D02*
X4830000Y-9120000D01*
X4780000Y-9070000D01*
X4730000Y-9120000D01*
X4780000Y-9170000D01*
X5799000Y-5670000D02*
X5849000Y-5620000D01*
X5799000Y-5570000D01*
X5749000Y-5620000D01*
X5799000Y-5670000D01*
X6100000Y-9950000D02*
X6150000Y-9900000D01*
X6100000Y-9850000D01*
X6050000Y-9900000D01*
X6100000Y-9950000D01*
X6100000Y-10325000D02*
X6150000Y-10275000D01*
X6100000Y-10225000D01*
X6050000Y-10275000D01*
X6100000Y-10325000D01*
X6100000Y-10700000D02*
X6150000Y-10650000D01*
X6100000Y-10600000D01*
X6050000Y-10650000D01*
X6100000Y-10700000D01*
X6319000Y-7330000D02*
X6369000Y-7280000D01*
X6319000Y-7230000D01*
X6269000Y-7280000D01*
X6319000Y-7330000D01*
X6439000Y-8830000D02*
X6489000Y-8780000D01*
X6439000Y-8730000D01*
X6389000Y-8780000D01*
X6439000Y-8830000D01*
X6561000Y-5670000D02*
X6611000Y-5620000D01*
X6561000Y-5570000D01*
X6511000Y-5620000D01*
X6561000Y-5670000D01*
X7081000Y-7330000D02*
X7131000Y-7280000D01*
X7081000Y-7230000D01*
X7031000Y-7280000D01*
X7081000Y-7330000D01*
X7201000Y-8830000D02*
X7251000Y-8780000D01*
X7201000Y-8730000D01*
X7151000Y-8780000D01*
X7201000Y-8830000D01*
X7260000Y-6229000D02*
X7310000Y-6179000D01*
X7260000Y-6129000D01*
X7210000Y-6179000D01*
X7260000Y-6229000D01*
X7260000Y-6991000D02*
X7310000Y-6941000D01*
X7260000Y-6891000D01*
X7210000Y-6941000D01*
X7260000Y-6991000D01*
X7325000Y-4425000D02*
X7375000Y-4375000D01*
X7325000Y-4325000D01*
X7275000Y-4375000D01*
X7325000Y-4425000D01*
X5165000Y-4049000D02*
X5275000Y-4159000D01*
X5275000Y-4049000D02*
X5165000Y-4159000D01*
X5275000Y-4104000D02*
G75*
G03*
X5275000Y-4104000I-55000J0D01*
G01*
X5165000Y-5065000D02*
X5275000Y-5175000D01*
X5275000Y-5065000D02*
X5165000Y-5175000D01*
X5275000Y-5120000D02*
G75*
G03*
X5275000Y-5120000I-55000J0D01*
G01*
X5209000Y-3645000D02*
X5319000Y-3755000D01*
X5319000Y-3645000D02*
X5209000Y-3755000D01*
X5319000Y-3700000D02*
G75*
G03*
X5319000Y-3700000I-55000J0D01*
G01*
X6225000Y-3645000D02*
X6335000Y-3755000D01*
X6335000Y-3645000D02*
X6225000Y-3755000D01*
X6335000Y-3700000D02*
G75*
G03*
X6335000Y-3700000I-55000J0D01*
G01*
X6495000Y-9509000D02*
X6605000Y-9619000D01*
X6605000Y-9509000D02*
X6495000Y-9619000D01*
X6605000Y-9564000D02*
G75*
G03*
X6605000Y-9564000I-55000J0D01*
G01*
X6495000Y-10525000D02*
X6605000Y-10635000D01*
X6605000Y-10525000D02*
X6495000Y-10635000D01*
X6605000Y-10580000D02*
G75*
G03*
X6605000Y-10580000I-55000J0D01*
G01*
X2392000Y-4300000D02*
X2532000Y-4440000D01*
X2532000Y-4300000D02*
X2392000Y-4440000D01*
X2462000Y-4300000D02*
X2462000Y-4440000D01*
X2392000Y-4370000D02*
X2532000Y-4370000D01*
X2392000Y-6840000D02*
X2532000Y-6980000D01*
X2532000Y-6840000D02*
X2392000Y-6980000D01*
X2462000Y-6840000D02*
X2462000Y-6980000D01*
X2392000Y-6910000D02*
X2532000Y-6910000D01*
X2900000Y-4300000D02*
X3040000Y-4440000D01*
X3040000Y-4300000D02*
X2900000Y-4440000D01*
X2970000Y-4300000D02*
X2970000Y-4440000D01*
X2900000Y-4370000D02*
X3040000Y-4370000D01*
X2900000Y-6840000D02*
X3040000Y-6980000D01*
X3040000Y-6840000D02*
X2900000Y-6980000D01*
X2970000Y-6840000D02*
X2970000Y-6980000D01*
X2900000Y-6910000D02*
X3040000Y-6910000D01*
X3408000Y-4300000D02*
X3548000Y-4440000D01*
X3548000Y-4300000D02*
X3408000Y-4440000D01*
X3478000Y-4300000D02*
X3478000Y-4440000D01*
X3408000Y-4370000D02*
X3548000Y-4370000D01*
X3408000Y-6840000D02*
X3548000Y-6980000D01*
X3548000Y-6840000D02*
X3408000Y-6980000D01*
X3478000Y-6840000D02*
X3478000Y-6980000D01*
X3408000Y-6910000D02*
X3548000Y-6910000D01*
X5692000Y-4300000D02*
X5832000Y-4440000D01*
X5832000Y-4300000D02*
X5692000Y-4440000D01*
X5762000Y-4300000D02*
X5762000Y-4440000D01*
X5692000Y-4370000D02*
X5832000Y-4370000D01*
X5692000Y-6840000D02*
X5832000Y-6980000D01*
X5832000Y-6840000D02*
X5692000Y-6980000D01*
X5762000Y-6840000D02*
X5762000Y-6980000D01*
X5692000Y-6910000D02*
X5832000Y-6910000D01*
X6200000Y-4300000D02*
X6340000Y-4440000D01*
X6340000Y-4300000D02*
X6200000Y-4440000D01*
X6270000Y-4300000D02*
X6270000Y-4440000D01*
X6200000Y-4370000D02*
X6340000Y-4370000D01*
X6200000Y-6840000D02*
X6340000Y-6980000D01*
X6340000Y-6840000D02*
X6200000Y-6980000D01*
X6270000Y-6840000D02*
X6270000Y-6980000D01*
X6200000Y-6910000D02*
X6340000Y-6910000D01*
X6708000Y-4300000D02*
X6848000Y-4440000D01*
X6848000Y-4300000D02*
X6708000Y-4440000D01*
X6778000Y-4300000D02*
X6778000Y-4440000D01*
X6708000Y-4370000D02*
X6848000Y-4370000D01*
X6708000Y-6840000D02*
X6848000Y-6980000D01*
X6848000Y-6840000D02*
X6708000Y-6980000D01*
X6778000Y-6840000D02*
X6778000Y-6980000D01*
X6708000Y-6910000D02*
X6848000Y-6910000D01*
D12*
X2081428Y-11370714D02*
X2081428Y-11070714D01*
X2152857Y-11070714D01*
X2195714Y-11085000D01*
X2224286Y-11113572D01*
X2238571Y-11142143D01*
X2252857Y-11199286D01*
X2252857Y-11242143D01*
X2238571Y-11299286D01*
X2224286Y-11327857D01*
X2195714Y-11356429D01*
X2152857Y-11370714D01*
X2081428Y-11370714D01*
X2381428Y-11370714D02*
X2381428Y-11170714D01*
X2381428Y-11227857D02*
X2395714Y-11199286D01*
X2410000Y-11185000D01*
X2438571Y-11170714D01*
X2467143Y-11170714D01*
X2567143Y-11370714D02*
X2567143Y-11170714D01*
X2567143Y-11070714D02*
X2552857Y-11085000D01*
X2567143Y-11099286D01*
X2581428Y-11085000D01*
X2567143Y-11070714D01*
X2567143Y-11099286D01*
X2752857Y-11370714D02*
X2724286Y-11356429D01*
X2710000Y-11327857D01*
X2710000Y-11070714D01*
X2910000Y-11370714D02*
X2881428Y-11356429D01*
X2867143Y-11327857D01*
X2867143Y-11070714D01*
X3252857Y-11370714D02*
X3252857Y-11070714D01*
X3352857Y-11285000D01*
X3452857Y-11070714D01*
X3452857Y-11370714D01*
X3724286Y-11370714D02*
X3724286Y-11213571D01*
X3710000Y-11185000D01*
X3681428Y-11170714D01*
X3624286Y-11170714D01*
X3595714Y-11185000D01*
X3724286Y-11356429D02*
X3695714Y-11370714D01*
X3624286Y-11370714D01*
X3595714Y-11356429D01*
X3581428Y-11327857D01*
X3581428Y-11299286D01*
X3595714Y-11270714D01*
X3624286Y-11256429D01*
X3695714Y-11256429D01*
X3724286Y-11242143D01*
X3867143Y-11170714D02*
X3867143Y-11470714D01*
X3867143Y-11185000D02*
X3895714Y-11170714D01*
X3952857Y-11170714D01*
X3981428Y-11185000D01*
X3995714Y-11199286D01*
X4010000Y-11227857D01*
X4010000Y-11313571D01*
X3995714Y-11342143D01*
X3981428Y-11356429D01*
X3952857Y-11370714D01*
X3895714Y-11370714D01*
X3867143Y-11356429D01*
X4138571Y-11342143D02*
X4152857Y-11356429D01*
X4138571Y-11370714D01*
X4124286Y-11356429D01*
X4138571Y-11342143D01*
X4138571Y-11370714D01*
X4138571Y-11185000D02*
X4152857Y-11199286D01*
X4138571Y-11213571D01*
X4124286Y-11199286D01*
X4138571Y-11185000D01*
X4138571Y-11213571D01*
X1755000Y-11845000D02*
X1795000Y-11885000D01*
X1795000Y-11845000D02*
X1755000Y-11885000D01*
X2138571Y-11700714D02*
X2167143Y-11700714D01*
X2195714Y-11715000D01*
X2210000Y-11729286D01*
X2224286Y-11757857D01*
X2238571Y-11815000D01*
X2238571Y-11886429D01*
X2224286Y-11943571D01*
X2210000Y-11972143D01*
X2195714Y-11986429D01*
X2167143Y-12000714D01*
X2138571Y-12000714D01*
X2110000Y-11986429D01*
X2095714Y-11972143D01*
X2081428Y-11943571D01*
X2067143Y-11886429D01*
X2067143Y-11815000D01*
X2081428Y-11757857D01*
X2095714Y-11729286D01*
X2110000Y-11715000D01*
X2138571Y-11700714D01*
X2367143Y-11972143D02*
X2381428Y-11986429D01*
X2367143Y-12000714D01*
X2352857Y-11986429D01*
X2367143Y-11972143D01*
X2367143Y-12000714D01*
X2638571Y-11800714D02*
X2638571Y-12000714D01*
X2567143Y-11686429D02*
X2495714Y-11900714D01*
X2681428Y-11900714D01*
X2852857Y-11700714D02*
X2881428Y-11700714D01*
X2910000Y-11715000D01*
X2924286Y-11729286D01*
X2938571Y-11757857D01*
X2952857Y-11815000D01*
X2952857Y-11886429D01*
X2938571Y-11943571D01*
X2924286Y-11972143D01*
X2910000Y-11986429D01*
X2881428Y-12000714D01*
X2852857Y-12000714D01*
X2824286Y-11986429D01*
X2810000Y-11972143D01*
X2795714Y-11943571D01*
X2781428Y-11886429D01*
X2781428Y-11815000D01*
X2795714Y-11757857D01*
X2810000Y-11729286D01*
X2824286Y-11715000D01*
X2852857Y-11700714D01*
X3138571Y-11700714D02*
X3167143Y-11700714D01*
X3195714Y-11715000D01*
X3210000Y-11729286D01*
X3224286Y-11757857D01*
X3238571Y-11815000D01*
X3238571Y-11886429D01*
X3224286Y-11943571D01*
X3210000Y-11972143D01*
X3195714Y-11986429D01*
X3167143Y-12000714D01*
X3138571Y-12000714D01*
X3110000Y-11986429D01*
X3095714Y-11972143D01*
X3081428Y-11943571D01*
X3067143Y-11886429D01*
X3067143Y-11815000D01*
X3081428Y-11757857D01*
X3095714Y-11729286D01*
X3110000Y-11715000D01*
X3138571Y-11700714D01*
X3367143Y-12000714D02*
X3367143Y-11800714D01*
X3367143Y-11829286D02*
X3381428Y-11815000D01*
X3410000Y-11800714D01*
X3452857Y-11800714D01*
X3481428Y-11815000D01*
X3495714Y-11843571D01*
X3495714Y-12000714D01*
X3495714Y-11843571D02*
X3510000Y-11815000D01*
X3538571Y-11800714D01*
X3581428Y-11800714D01*
X3610000Y-11815000D01*
X3624286Y-11843571D01*
X3624286Y-12000714D01*
X3767143Y-12000714D02*
X3767143Y-11800714D01*
X3767143Y-11829286D02*
X3781428Y-11815000D01*
X3810000Y-11800714D01*
X3852857Y-11800714D01*
X3881428Y-11815000D01*
X3895714Y-11843571D01*
X3895714Y-12000714D01*
X3895714Y-11843571D02*
X3910000Y-11815000D01*
X3938571Y-11800714D01*
X3981428Y-11800714D01*
X4010000Y-11815000D01*
X4024286Y-11843571D01*
X4024286Y-12000714D01*
X4610000Y-11686429D02*
X4352857Y-12072143D01*
X4995714Y-11700714D02*
X5024286Y-11700714D01*
X5052857Y-11715000D01*
X5067143Y-11729286D01*
X5081428Y-11757857D01*
X5095714Y-11815000D01*
X5095714Y-11886429D01*
X5081428Y-11943571D01*
X5067143Y-11972143D01*
X5052857Y-11986429D01*
X5024286Y-12000714D01*
X4995714Y-12000714D01*
X4967143Y-11986429D01*
X4952857Y-11972143D01*
X4938571Y-11943571D01*
X4924286Y-11886429D01*
X4924286Y-11815000D01*
X4938571Y-11757857D01*
X4952857Y-11729286D01*
X4967143Y-11715000D01*
X4995714Y-11700714D01*
X5224286Y-11972143D02*
X5238571Y-11986429D01*
X5224286Y-12000714D01*
X5210000Y-11986429D01*
X5224286Y-11972143D01*
X5224286Y-12000714D01*
X5424286Y-11700714D02*
X5452857Y-11700714D01*
X5481428Y-11715000D01*
X5495714Y-11729286D01*
X5510000Y-11757857D01*
X5524286Y-11815000D01*
X5524286Y-11886429D01*
X5510000Y-11943571D01*
X5495714Y-11972143D01*
X5481428Y-11986429D01*
X5452857Y-12000714D01*
X5424286Y-12000714D01*
X5395714Y-11986429D01*
X5381428Y-11972143D01*
X5367143Y-11943571D01*
X5352857Y-11886429D01*
X5352857Y-11815000D01*
X5367143Y-11757857D01*
X5381428Y-11729286D01*
X5395714Y-11715000D01*
X5424286Y-11700714D01*
X5810000Y-12000714D02*
X5638571Y-12000714D01*
X5724286Y-12000714D02*
X5724286Y-11700714D01*
X5695714Y-11743571D01*
X5667143Y-11772143D01*
X5638571Y-11786429D01*
X6081428Y-11700714D02*
X5938571Y-11700714D01*
X5924286Y-11843571D01*
X5938571Y-11829286D01*
X5967143Y-11815000D01*
X6038571Y-11815000D01*
X6067143Y-11829286D01*
X6081428Y-11843571D01*
X6095714Y-11872143D01*
X6095714Y-11943571D01*
X6081428Y-11972143D01*
X6067143Y-11986429D01*
X6038571Y-12000714D01*
X5967143Y-12000714D01*
X5938571Y-11986429D01*
X5924286Y-11972143D01*
X6195714Y-11700714D02*
X6395714Y-11700714D01*
X6267143Y-12000714D01*
X6495714Y-11700714D02*
X6495714Y-11757857D01*
X6610000Y-11700714D02*
X6610000Y-11757857D01*
X7052857Y-12115000D02*
X7038571Y-12100714D01*
X7010000Y-12057857D01*
X6995714Y-12029286D01*
X6981428Y-11986429D01*
X6967143Y-11915000D01*
X6967143Y-11857857D01*
X6981428Y-11786429D01*
X6995714Y-11743571D01*
X7010000Y-11715000D01*
X7038571Y-11672143D01*
X7052857Y-11657857D01*
X7324286Y-12000714D02*
X7152857Y-12000714D01*
X7238571Y-12000714D02*
X7238571Y-11700714D01*
X7210000Y-11743571D01*
X7181428Y-11772143D01*
X7152857Y-11786429D01*
X7581428Y-11700714D02*
X7524286Y-11700714D01*
X7495714Y-11715000D01*
X7481428Y-11729286D01*
X7452857Y-11772143D01*
X7438571Y-11829286D01*
X7438571Y-11943571D01*
X7452857Y-11972143D01*
X7467143Y-11986429D01*
X7495714Y-12000714D01*
X7552857Y-12000714D01*
X7581428Y-11986429D01*
X7595714Y-11972143D01*
X7610000Y-11943571D01*
X7610000Y-11872143D01*
X7595714Y-11843571D01*
X7581428Y-11829286D01*
X7552857Y-11815000D01*
X7495714Y-11815000D01*
X7467143Y-11829286D01*
X7452857Y-11843571D01*
X7438571Y-11872143D01*
X7967143Y-12000714D02*
X7967143Y-11700714D01*
X8095714Y-12000714D02*
X8095714Y-11843571D01*
X8081428Y-11815000D01*
X8052857Y-11800714D01*
X8010000Y-11800714D01*
X7981428Y-11815000D01*
X7967143Y-11829286D01*
X8281428Y-12000714D02*
X8252857Y-11986429D01*
X8238571Y-11972143D01*
X8224286Y-11943571D01*
X8224286Y-11857857D01*
X8238571Y-11829286D01*
X8252857Y-11815000D01*
X8281428Y-11800714D01*
X8324286Y-11800714D01*
X8352857Y-11815000D01*
X8367143Y-11829286D01*
X8381428Y-11857857D01*
X8381428Y-11943571D01*
X8367143Y-11972143D01*
X8352857Y-11986429D01*
X8324286Y-12000714D01*
X8281428Y-12000714D01*
X8552857Y-12000714D02*
X8524286Y-11986429D01*
X8510000Y-11957857D01*
X8510000Y-11700714D01*
X8781428Y-11986429D02*
X8752857Y-12000714D01*
X8695714Y-12000714D01*
X8667143Y-11986429D01*
X8652857Y-11957857D01*
X8652857Y-11843571D01*
X8667143Y-11815000D01*
X8695714Y-11800714D01*
X8752857Y-11800714D01*
X8781428Y-11815000D01*
X8795714Y-11843571D01*
X8795714Y-11872143D01*
X8652857Y-11900714D01*
X8910000Y-11986429D02*
X8938571Y-12000714D01*
X8995714Y-12000714D01*
X9024286Y-11986429D01*
X9038571Y-11957857D01*
X9038571Y-11943571D01*
X9024286Y-11915000D01*
X8995714Y-11900714D01*
X8952857Y-11900714D01*
X8924286Y-11886429D01*
X8910000Y-11857857D01*
X8910000Y-11843571D01*
X8924286Y-11815000D01*
X8952857Y-11800714D01*
X8995714Y-11800714D01*
X9024286Y-11815000D01*
X9138571Y-12115000D02*
X9152857Y-12100714D01*
X9181428Y-12057857D01*
X9195714Y-12029286D01*
X9210000Y-11986429D01*
X9224286Y-11915000D01*
X9224286Y-11857857D01*
X9210000Y-11786429D01*
X9195714Y-11743571D01*
X9181428Y-11715000D01*
X9152857Y-11672143D01*
X9138571Y-11657857D01*
X1795000Y-12261000D02*
G75*
G03*
X1795000Y-12261000I-35000J0D01*
G01*
X2138571Y-12096714D02*
X2167143Y-12096714D01*
X2195714Y-12111000D01*
X2210000Y-12125286D01*
X2224286Y-12153857D01*
X2238571Y-12211000D01*
X2238571Y-12282429D01*
X2224286Y-12339571D01*
X2210000Y-12368143D01*
X2195714Y-12382429D01*
X2167143Y-12396714D01*
X2138571Y-12396714D01*
X2110000Y-12382429D01*
X2095714Y-12368143D01*
X2081428Y-12339571D01*
X2067143Y-12282429D01*
X2067143Y-12211000D01*
X2081428Y-12153857D01*
X2095714Y-12125286D01*
X2110000Y-12111000D01*
X2138571Y-12096714D01*
X2367143Y-12368143D02*
X2381428Y-12382429D01*
X2367143Y-12396714D01*
X2352857Y-12382429D01*
X2367143Y-12368143D01*
X2367143Y-12396714D01*
X2481428Y-12096714D02*
X2681428Y-12096714D01*
X2552857Y-12396714D01*
X2852857Y-12096714D02*
X2881428Y-12096714D01*
X2910000Y-12111000D01*
X2924286Y-12125286D01*
X2938571Y-12153857D01*
X2952857Y-12211000D01*
X2952857Y-12282429D01*
X2938571Y-12339571D01*
X2924286Y-12368143D01*
X2910000Y-12382429D01*
X2881428Y-12396714D01*
X2852857Y-12396714D01*
X2824286Y-12382429D01*
X2810000Y-12368143D01*
X2795714Y-12339571D01*
X2781428Y-12282429D01*
X2781428Y-12211000D01*
X2795714Y-12153857D01*
X2810000Y-12125286D01*
X2824286Y-12111000D01*
X2852857Y-12096714D01*
X3138571Y-12096714D02*
X3167143Y-12096714D01*
X3195714Y-12111000D01*
X3210000Y-12125286D01*
X3224286Y-12153857D01*
X3238571Y-12211000D01*
X3238571Y-12282429D01*
X3224286Y-12339571D01*
X3210000Y-12368143D01*
X3195714Y-12382429D01*
X3167143Y-12396714D01*
X3138571Y-12396714D01*
X3110000Y-12382429D01*
X3095714Y-12368143D01*
X3081428Y-12339571D01*
X3067143Y-12282429D01*
X3067143Y-12211000D01*
X3081428Y-12153857D01*
X3095714Y-12125286D01*
X3110000Y-12111000D01*
X3138571Y-12096714D01*
X3367143Y-12396714D02*
X3367143Y-12196714D01*
X3367143Y-12225286D02*
X3381428Y-12211000D01*
X3410000Y-12196714D01*
X3452857Y-12196714D01*
X3481428Y-12211000D01*
X3495714Y-12239571D01*
X3495714Y-12396714D01*
X3495714Y-12239571D02*
X3510000Y-12211000D01*
X3538571Y-12196714D01*
X3581428Y-12196714D01*
X3610000Y-12211000D01*
X3624286Y-12239571D01*
X3624286Y-12396714D01*
X3767143Y-12396714D02*
X3767143Y-12196714D01*
X3767143Y-12225286D02*
X3781428Y-12211000D01*
X3810000Y-12196714D01*
X3852857Y-12196714D01*
X3881428Y-12211000D01*
X3895714Y-12239571D01*
X3895714Y-12396714D01*
X3895714Y-12239571D02*
X3910000Y-12211000D01*
X3938571Y-12196714D01*
X3981428Y-12196714D01*
X4010000Y-12211000D01*
X4024286Y-12239571D01*
X4024286Y-12396714D01*
X4610000Y-12082429D02*
X4352857Y-12468143D01*
X4995714Y-12096714D02*
X5024286Y-12096714D01*
X5052857Y-12111000D01*
X5067143Y-12125286D01*
X5081428Y-12153857D01*
X5095714Y-12211000D01*
X5095714Y-12282429D01*
X5081428Y-12339571D01*
X5067143Y-12368143D01*
X5052857Y-12382429D01*
X5024286Y-12396714D01*
X4995714Y-12396714D01*
X4967143Y-12382429D01*
X4952857Y-12368143D01*
X4938571Y-12339571D01*
X4924286Y-12282429D01*
X4924286Y-12211000D01*
X4938571Y-12153857D01*
X4952857Y-12125286D01*
X4967143Y-12111000D01*
X4995714Y-12096714D01*
X5224286Y-12368143D02*
X5238571Y-12382429D01*
X5224286Y-12396714D01*
X5210000Y-12382429D01*
X5224286Y-12368143D01*
X5224286Y-12396714D01*
X5424286Y-12096714D02*
X5452857Y-12096714D01*
X5481428Y-12111000D01*
X5495714Y-12125286D01*
X5510000Y-12153857D01*
X5524286Y-12211000D01*
X5524286Y-12282429D01*
X5510000Y-12339571D01*
X5495714Y-12368143D01*
X5481428Y-12382429D01*
X5452857Y-12396714D01*
X5424286Y-12396714D01*
X5395714Y-12382429D01*
X5381428Y-12368143D01*
X5367143Y-12339571D01*
X5352857Y-12282429D01*
X5352857Y-12211000D01*
X5367143Y-12153857D01*
X5381428Y-12125286D01*
X5395714Y-12111000D01*
X5424286Y-12096714D01*
X5638571Y-12125286D02*
X5652857Y-12111000D01*
X5681428Y-12096714D01*
X5752857Y-12096714D01*
X5781428Y-12111000D01*
X5795714Y-12125286D01*
X5810000Y-12153857D01*
X5810000Y-12182429D01*
X5795714Y-12225286D01*
X5624286Y-12396714D01*
X5810000Y-12396714D01*
X5910000Y-12096714D02*
X6110000Y-12096714D01*
X5981428Y-12396714D01*
X6352857Y-12096714D02*
X6295714Y-12096714D01*
X6267143Y-12111000D01*
X6252857Y-12125286D01*
X6224286Y-12168143D01*
X6210000Y-12225286D01*
X6210000Y-12339571D01*
X6224286Y-12368143D01*
X6238571Y-12382429D01*
X6267143Y-12396714D01*
X6324286Y-12396714D01*
X6352857Y-12382429D01*
X6367143Y-12368143D01*
X6381428Y-12339571D01*
X6381428Y-12268143D01*
X6367143Y-12239571D01*
X6352857Y-12225286D01*
X6324286Y-12211000D01*
X6267143Y-12211000D01*
X6238571Y-12225286D01*
X6224286Y-12239571D01*
X6210000Y-12268143D01*
X6495714Y-12096714D02*
X6495714Y-12153857D01*
X6610000Y-12096714D02*
X6610000Y-12153857D01*
X7052857Y-12511000D02*
X7038571Y-12496714D01*
X7010000Y-12453857D01*
X6995714Y-12425286D01*
X6981428Y-12382429D01*
X6967143Y-12311000D01*
X6967143Y-12253857D01*
X6981428Y-12182429D01*
X6995714Y-12139571D01*
X7010000Y-12111000D01*
X7038571Y-12068143D01*
X7052857Y-12053857D01*
X7152857Y-12125286D02*
X7167143Y-12111000D01*
X7195714Y-12096714D01*
X7267143Y-12096714D01*
X7295714Y-12111000D01*
X7310000Y-12125286D01*
X7324286Y-12153857D01*
X7324286Y-12182429D01*
X7310000Y-12225286D01*
X7138571Y-12396714D01*
X7324286Y-12396714D01*
X7681428Y-12396714D02*
X7681428Y-12096714D01*
X7810000Y-12396714D02*
X7810000Y-12239571D01*
X7795714Y-12211000D01*
X7767143Y-12196714D01*
X7724286Y-12196714D01*
X7695714Y-12211000D01*
X7681428Y-12225286D01*
X7995714Y-12396714D02*
X7967143Y-12382429D01*
X7952857Y-12368143D01*
X7938571Y-12339571D01*
X7938571Y-12253857D01*
X7952857Y-12225286D01*
X7967143Y-12211000D01*
X7995714Y-12196714D01*
X8038571Y-12196714D01*
X8067143Y-12211000D01*
X8081428Y-12225286D01*
X8095714Y-12253857D01*
X8095714Y-12339571D01*
X8081428Y-12368143D01*
X8067143Y-12382429D01*
X8038571Y-12396714D01*
X7995714Y-12396714D01*
X8267143Y-12396714D02*
X8238571Y-12382429D01*
X8224286Y-12353857D01*
X8224286Y-12096714D01*
X8495714Y-12382429D02*
X8467143Y-12396714D01*
X8410000Y-12396714D01*
X8381428Y-12382429D01*
X8367143Y-12353857D01*
X8367143Y-12239571D01*
X8381428Y-12211000D01*
X8410000Y-12196714D01*
X8467143Y-12196714D01*
X8495714Y-12211000D01*
X8510000Y-12239571D01*
X8510000Y-12268143D01*
X8367143Y-12296714D01*
X8624286Y-12382429D02*
X8652857Y-12396714D01*
X8710000Y-12396714D01*
X8738571Y-12382429D01*
X8752857Y-12353857D01*
X8752857Y-12339571D01*
X8738571Y-12311000D01*
X8710000Y-12296714D01*
X8667143Y-12296714D01*
X8638571Y-12282429D01*
X8624286Y-12253857D01*
X8624286Y-12239571D01*
X8638571Y-12211000D01*
X8667143Y-12196714D01*
X8710000Y-12196714D01*
X8738571Y-12211000D01*
X8852857Y-12511000D02*
X8867143Y-12496714D01*
X8895714Y-12453857D01*
X8910000Y-12425286D01*
X8924286Y-12382429D01*
X8938571Y-12311000D01*
X8938571Y-12253857D01*
X8924286Y-12182429D01*
X8910000Y-12139571D01*
X8895714Y-12111000D01*
X8867143Y-12068143D01*
X8852857Y-12053857D01*
X1755000Y-12617000D02*
X1755000Y-12697000D01*
X1715000Y-12657000D02*
X1795000Y-12657000D01*
X2138571Y-12492714D02*
X2167143Y-12492714D01*
X2195714Y-12507000D01*
X2210000Y-12521286D01*
X2224286Y-12549857D01*
X2238571Y-12607000D01*
X2238571Y-12678429D01*
X2224286Y-12735571D01*
X2210000Y-12764143D01*
X2195714Y-12778429D01*
X2167143Y-12792714D01*
X2138571Y-12792714D01*
X2110000Y-12778429D01*
X2095714Y-12764143D01*
X2081428Y-12735571D01*
X2067143Y-12678429D01*
X2067143Y-12607000D01*
X2081428Y-12549857D01*
X2095714Y-12521286D01*
X2110000Y-12507000D01*
X2138571Y-12492714D01*
X2367143Y-12764143D02*
X2381428Y-12778429D01*
X2367143Y-12792714D01*
X2352857Y-12778429D01*
X2367143Y-12764143D01*
X2367143Y-12792714D01*
X2552857Y-12621286D02*
X2524286Y-12607000D01*
X2510000Y-12592714D01*
X2495714Y-12564143D01*
X2495714Y-12549857D01*
X2510000Y-12521286D01*
X2524286Y-12507000D01*
X2552857Y-12492714D01*
X2610000Y-12492714D01*
X2638571Y-12507000D01*
X2652857Y-12521286D01*
X2667143Y-12549857D01*
X2667143Y-12564143D01*
X2652857Y-12592714D01*
X2638571Y-12607000D01*
X2610000Y-12621286D01*
X2552857Y-12621286D01*
X2524286Y-12635571D01*
X2510000Y-12649857D01*
X2495714Y-12678429D01*
X2495714Y-12735571D01*
X2510000Y-12764143D01*
X2524286Y-12778429D01*
X2552857Y-12792714D01*
X2610000Y-12792714D01*
X2638571Y-12778429D01*
X2652857Y-12764143D01*
X2667143Y-12735571D01*
X2667143Y-12678429D01*
X2652857Y-12649857D01*
X2638571Y-12635571D01*
X2610000Y-12621286D01*
X2852857Y-12492714D02*
X2881428Y-12492714D01*
X2910000Y-12507000D01*
X2924286Y-12521286D01*
X2938571Y-12549857D01*
X2952857Y-12607000D01*
X2952857Y-12678429D01*
X2938571Y-12735571D01*
X2924286Y-12764143D01*
X2910000Y-12778429D01*
X2881428Y-12792714D01*
X2852857Y-12792714D01*
X2824286Y-12778429D01*
X2810000Y-12764143D01*
X2795714Y-12735571D01*
X2781428Y-12678429D01*
X2781428Y-12607000D01*
X2795714Y-12549857D01*
X2810000Y-12521286D01*
X2824286Y-12507000D01*
X2852857Y-12492714D01*
X3138571Y-12492714D02*
X3167143Y-12492714D01*
X3195714Y-12507000D01*
X3210000Y-12521286D01*
X3224286Y-12549857D01*
X3238571Y-12607000D01*
X3238571Y-12678429D01*
X3224286Y-12735571D01*
X3210000Y-12764143D01*
X3195714Y-12778429D01*
X3167143Y-12792714D01*
X3138571Y-12792714D01*
X3110000Y-12778429D01*
X3095714Y-12764143D01*
X3081428Y-12735571D01*
X3067143Y-12678429D01*
X3067143Y-12607000D01*
X3081428Y-12549857D01*
X3095714Y-12521286D01*
X3110000Y-12507000D01*
X3138571Y-12492714D01*
X3367143Y-12792714D02*
X3367143Y-12592714D01*
X3367143Y-12621286D02*
X3381428Y-12607000D01*
X3410000Y-12592714D01*
X3452857Y-12592714D01*
X3481428Y-12607000D01*
X3495714Y-12635571D01*
X3495714Y-12792714D01*
X3495714Y-12635571D02*
X3510000Y-12607000D01*
X3538571Y-12592714D01*
X3581428Y-12592714D01*
X3610000Y-12607000D01*
X3624286Y-12635571D01*
X3624286Y-12792714D01*
X3767143Y-12792714D02*
X3767143Y-12592714D01*
X3767143Y-12621286D02*
X3781428Y-12607000D01*
X3810000Y-12592714D01*
X3852857Y-12592714D01*
X3881428Y-12607000D01*
X3895714Y-12635571D01*
X3895714Y-12792714D01*
X3895714Y-12635571D02*
X3910000Y-12607000D01*
X3938571Y-12592714D01*
X3981428Y-12592714D01*
X4010000Y-12607000D01*
X4024286Y-12635571D01*
X4024286Y-12792714D01*
X4610000Y-12478429D02*
X4352857Y-12864143D01*
X4995714Y-12492714D02*
X5024286Y-12492714D01*
X5052857Y-12507000D01*
X5067143Y-12521286D01*
X5081428Y-12549857D01*
X5095714Y-12607000D01*
X5095714Y-12678429D01*
X5081428Y-12735571D01*
X5067143Y-12764143D01*
X5052857Y-12778429D01*
X5024286Y-12792714D01*
X4995714Y-12792714D01*
X4967143Y-12778429D01*
X4952857Y-12764143D01*
X4938571Y-12735571D01*
X4924286Y-12678429D01*
X4924286Y-12607000D01*
X4938571Y-12549857D01*
X4952857Y-12521286D01*
X4967143Y-12507000D01*
X4995714Y-12492714D01*
X5224286Y-12764143D02*
X5238571Y-12778429D01*
X5224286Y-12792714D01*
X5210000Y-12778429D01*
X5224286Y-12764143D01*
X5224286Y-12792714D01*
X5424286Y-12492714D02*
X5452857Y-12492714D01*
X5481428Y-12507000D01*
X5495714Y-12521286D01*
X5510000Y-12549857D01*
X5524286Y-12607000D01*
X5524286Y-12678429D01*
X5510000Y-12735571D01*
X5495714Y-12764143D01*
X5481428Y-12778429D01*
X5452857Y-12792714D01*
X5424286Y-12792714D01*
X5395714Y-12778429D01*
X5381428Y-12764143D01*
X5367143Y-12735571D01*
X5352857Y-12678429D01*
X5352857Y-12607000D01*
X5367143Y-12549857D01*
X5381428Y-12521286D01*
X5395714Y-12507000D01*
X5424286Y-12492714D01*
X5624286Y-12492714D02*
X5810000Y-12492714D01*
X5710000Y-12607000D01*
X5752857Y-12607000D01*
X5781428Y-12621286D01*
X5795714Y-12635571D01*
X5810000Y-12664143D01*
X5810000Y-12735571D01*
X5795714Y-12764143D01*
X5781428Y-12778429D01*
X5752857Y-12792714D01*
X5667143Y-12792714D01*
X5638571Y-12778429D01*
X5624286Y-12764143D01*
X6095714Y-12792714D02*
X5924286Y-12792714D01*
X6010000Y-12792714D02*
X6010000Y-12492714D01*
X5981428Y-12535571D01*
X5952857Y-12564143D01*
X5924286Y-12578429D01*
X6367143Y-12492714D02*
X6224286Y-12492714D01*
X6210000Y-12635571D01*
X6224286Y-12621286D01*
X6252857Y-12607000D01*
X6324286Y-12607000D01*
X6352857Y-12621286D01*
X6367143Y-12635571D01*
X6381428Y-12664143D01*
X6381428Y-12735571D01*
X6367143Y-12764143D01*
X6352857Y-12778429D01*
X6324286Y-12792714D01*
X6252857Y-12792714D01*
X6224286Y-12778429D01*
X6210000Y-12764143D01*
X6495714Y-12492714D02*
X6495714Y-12549857D01*
X6610000Y-12492714D02*
X6610000Y-12549857D01*
X7052857Y-12907000D02*
X7038571Y-12892714D01*
X7010000Y-12849857D01*
X6995714Y-12821286D01*
X6981428Y-12778429D01*
X6967143Y-12707000D01*
X6967143Y-12649857D01*
X6981428Y-12578429D01*
X6995714Y-12535571D01*
X7010000Y-12507000D01*
X7038571Y-12464143D01*
X7052857Y-12449857D01*
X7181428Y-12792714D02*
X7238571Y-12792714D01*
X7267143Y-12778429D01*
X7281428Y-12764143D01*
X7310000Y-12721286D01*
X7324286Y-12664143D01*
X7324286Y-12549857D01*
X7310000Y-12521286D01*
X7295714Y-12507000D01*
X7267143Y-12492714D01*
X7210000Y-12492714D01*
X7181428Y-12507000D01*
X7167143Y-12521286D01*
X7152857Y-12549857D01*
X7152857Y-12621286D01*
X7167143Y-12649857D01*
X7181428Y-12664143D01*
X7210000Y-12678429D01*
X7267143Y-12678429D01*
X7295714Y-12664143D01*
X7310000Y-12649857D01*
X7324286Y-12621286D01*
X7424286Y-12492714D02*
X7610000Y-12492714D01*
X7510000Y-12607000D01*
X7552857Y-12607000D01*
X7581428Y-12621286D01*
X7595714Y-12635571D01*
X7610000Y-12664143D01*
X7610000Y-12735571D01*
X7595714Y-12764143D01*
X7581428Y-12778429D01*
X7552857Y-12792714D01*
X7467143Y-12792714D01*
X7438571Y-12778429D01*
X7424286Y-12764143D01*
X7967143Y-12792714D02*
X7967143Y-12492714D01*
X8095714Y-12792714D02*
X8095714Y-12635571D01*
X8081428Y-12607000D01*
X8052857Y-12592714D01*
X8010000Y-12592714D01*
X7981428Y-12607000D01*
X7967143Y-12621286D01*
X8281428Y-12792714D02*
X8252857Y-12778429D01*
X8238571Y-12764143D01*
X8224286Y-12735571D01*
X8224286Y-12649857D01*
X8238571Y-12621286D01*
X8252857Y-12607000D01*
X8281428Y-12592714D01*
X8324286Y-12592714D01*
X8352857Y-12607000D01*
X8367143Y-12621286D01*
X8381428Y-12649857D01*
X8381428Y-12735571D01*
X8367143Y-12764143D01*
X8352857Y-12778429D01*
X8324286Y-12792714D01*
X8281428Y-12792714D01*
X8552857Y-12792714D02*
X8524286Y-12778429D01*
X8510000Y-12749857D01*
X8510000Y-12492714D01*
X8781428Y-12778429D02*
X8752857Y-12792714D01*
X8695714Y-12792714D01*
X8667143Y-12778429D01*
X8652857Y-12749857D01*
X8652857Y-12635571D01*
X8667143Y-12607000D01*
X8695714Y-12592714D01*
X8752857Y-12592714D01*
X8781428Y-12607000D01*
X8795714Y-12635571D01*
X8795714Y-12664143D01*
X8652857Y-12692714D01*
X8910000Y-12778429D02*
X8938571Y-12792714D01*
X8995714Y-12792714D01*
X9024286Y-12778429D01*
X9038571Y-12749857D01*
X9038571Y-12735571D01*
X9024286Y-12707000D01*
X8995714Y-12692714D01*
X8952857Y-12692714D01*
X8924286Y-12678429D01*
X8910000Y-12649857D01*
X8910000Y-12635571D01*
X8924286Y-12607000D01*
X8952857Y-12592714D01*
X8995714Y-12592714D01*
X9024286Y-12607000D01*
X9138571Y-12907000D02*
X9152857Y-12892714D01*
X9181428Y-12849857D01*
X9195714Y-12821286D01*
X9210000Y-12778429D01*
X9224286Y-12707000D01*
X9224286Y-12649857D01*
X9210000Y-12578429D01*
X9195714Y-12535571D01*
X9181428Y-12507000D01*
X9152857Y-12464143D01*
X9138571Y-12449857D01*
X1781820Y-13084820D02*
X1781820Y-13021180D01*
X1718180Y-13021180D01*
X1718180Y-13084820D01*
X1781820Y-13084820D01*
X2138571Y-12888714D02*
X2167143Y-12888714D01*
X2195714Y-12903000D01*
X2210000Y-12917286D01*
X2224286Y-12945857D01*
X2238571Y-13003000D01*
X2238571Y-13074429D01*
X2224286Y-13131571D01*
X2210000Y-13160143D01*
X2195714Y-13174429D01*
X2167143Y-13188714D01*
X2138571Y-13188714D01*
X2110000Y-13174429D01*
X2095714Y-13160143D01*
X2081428Y-13131571D01*
X2067143Y-13074429D01*
X2067143Y-13003000D01*
X2081428Y-12945857D01*
X2095714Y-12917286D01*
X2110000Y-12903000D01*
X2138571Y-12888714D01*
X2367143Y-13160143D02*
X2381428Y-13174429D01*
X2367143Y-13188714D01*
X2352857Y-13174429D01*
X2367143Y-13160143D01*
X2367143Y-13188714D01*
X2524286Y-13188714D02*
X2581428Y-13188714D01*
X2610000Y-13174429D01*
X2624286Y-13160143D01*
X2652857Y-13117286D01*
X2667143Y-13060143D01*
X2667143Y-12945857D01*
X2652857Y-12917286D01*
X2638571Y-12903000D01*
X2610000Y-12888714D01*
X2552857Y-12888714D01*
X2524286Y-12903000D01*
X2510000Y-12917286D01*
X2495714Y-12945857D01*
X2495714Y-13017286D01*
X2510000Y-13045857D01*
X2524286Y-13060143D01*
X2552857Y-13074429D01*
X2610000Y-13074429D01*
X2638571Y-13060143D01*
X2652857Y-13045857D01*
X2667143Y-13017286D01*
X2852857Y-12888714D02*
X2881428Y-12888714D01*
X2910000Y-12903000D01*
X2924286Y-12917286D01*
X2938571Y-12945857D01*
X2952857Y-13003000D01*
X2952857Y-13074429D01*
X2938571Y-13131571D01*
X2924286Y-13160143D01*
X2910000Y-13174429D01*
X2881428Y-13188714D01*
X2852857Y-13188714D01*
X2824286Y-13174429D01*
X2810000Y-13160143D01*
X2795714Y-13131571D01*
X2781428Y-13074429D01*
X2781428Y-13003000D01*
X2795714Y-12945857D01*
X2810000Y-12917286D01*
X2824286Y-12903000D01*
X2852857Y-12888714D01*
X3138571Y-12888714D02*
X3167143Y-12888714D01*
X3195714Y-12903000D01*
X3210000Y-12917286D01*
X3224286Y-12945857D01*
X3238571Y-13003000D01*
X3238571Y-13074429D01*
X3224286Y-13131571D01*
X3210000Y-13160143D01*
X3195714Y-13174429D01*
X3167143Y-13188714D01*
X3138571Y-13188714D01*
X3110000Y-13174429D01*
X3095714Y-13160143D01*
X3081428Y-13131571D01*
X3067143Y-13074429D01*
X3067143Y-13003000D01*
X3081428Y-12945857D01*
X3095714Y-12917286D01*
X3110000Y-12903000D01*
X3138571Y-12888714D01*
X3367143Y-13188714D02*
X3367143Y-12988714D01*
X3367143Y-13017286D02*
X3381428Y-13003000D01*
X3410000Y-12988714D01*
X3452857Y-12988714D01*
X3481428Y-13003000D01*
X3495714Y-13031571D01*
X3495714Y-13188714D01*
X3495714Y-13031571D02*
X3510000Y-13003000D01*
X3538571Y-12988714D01*
X3581428Y-12988714D01*
X3610000Y-13003000D01*
X3624286Y-13031571D01*
X3624286Y-13188714D01*
X3767143Y-13188714D02*
X3767143Y-12988714D01*
X3767143Y-13017286D02*
X3781428Y-13003000D01*
X3810000Y-12988714D01*
X3852857Y-12988714D01*
X3881428Y-13003000D01*
X3895714Y-13031571D01*
X3895714Y-13188714D01*
X3895714Y-13031571D02*
X3910000Y-13003000D01*
X3938571Y-12988714D01*
X3981428Y-12988714D01*
X4010000Y-13003000D01*
X4024286Y-13031571D01*
X4024286Y-13188714D01*
X4610000Y-12874429D02*
X4352857Y-13260143D01*
X4995714Y-12888714D02*
X5024286Y-12888714D01*
X5052857Y-12903000D01*
X5067143Y-12917286D01*
X5081428Y-12945857D01*
X5095714Y-13003000D01*
X5095714Y-13074429D01*
X5081428Y-13131571D01*
X5067143Y-13160143D01*
X5052857Y-13174429D01*
X5024286Y-13188714D01*
X4995714Y-13188714D01*
X4967143Y-13174429D01*
X4952857Y-13160143D01*
X4938571Y-13131571D01*
X4924286Y-13074429D01*
X4924286Y-13003000D01*
X4938571Y-12945857D01*
X4952857Y-12917286D01*
X4967143Y-12903000D01*
X4995714Y-12888714D01*
X5224286Y-13160143D02*
X5238571Y-13174429D01*
X5224286Y-13188714D01*
X5210000Y-13174429D01*
X5224286Y-13160143D01*
X5224286Y-13188714D01*
X5424286Y-12888714D02*
X5452857Y-12888714D01*
X5481428Y-12903000D01*
X5495714Y-12917286D01*
X5510000Y-12945857D01*
X5524286Y-13003000D01*
X5524286Y-13074429D01*
X5510000Y-13131571D01*
X5495714Y-13160143D01*
X5481428Y-13174429D01*
X5452857Y-13188714D01*
X5424286Y-13188714D01*
X5395714Y-13174429D01*
X5381428Y-13160143D01*
X5367143Y-13131571D01*
X5352857Y-13074429D01*
X5352857Y-13003000D01*
X5367143Y-12945857D01*
X5381428Y-12917286D01*
X5395714Y-12903000D01*
X5424286Y-12888714D01*
X5624286Y-12888714D02*
X5810000Y-12888714D01*
X5710000Y-13003000D01*
X5752857Y-13003000D01*
X5781428Y-13017286D01*
X5795714Y-13031571D01*
X5810000Y-13060143D01*
X5810000Y-13131571D01*
X5795714Y-13160143D01*
X5781428Y-13174429D01*
X5752857Y-13188714D01*
X5667143Y-13188714D01*
X5638571Y-13174429D01*
X5624286Y-13160143D01*
X6081428Y-12888714D02*
X5938571Y-12888714D01*
X5924286Y-13031571D01*
X5938571Y-13017286D01*
X5967143Y-13003000D01*
X6038571Y-13003000D01*
X6067143Y-13017286D01*
X6081428Y-13031571D01*
X6095714Y-13060143D01*
X6095714Y-13131571D01*
X6081428Y-13160143D01*
X6067143Y-13174429D01*
X6038571Y-13188714D01*
X5967143Y-13188714D01*
X5938571Y-13174429D01*
X5924286Y-13160143D01*
X6352857Y-12988714D02*
X6352857Y-13188714D01*
X6281428Y-12874429D02*
X6210000Y-13088714D01*
X6395714Y-13088714D01*
X6495714Y-12888714D02*
X6495714Y-12945857D01*
X6610000Y-12888714D02*
X6610000Y-12945857D01*
X7052857Y-13303000D02*
X7038571Y-13288714D01*
X7010000Y-13245857D01*
X6995714Y-13217286D01*
X6981428Y-13174429D01*
X6967143Y-13103000D01*
X6967143Y-13045857D01*
X6981428Y-12974429D01*
X6995714Y-12931571D01*
X7010000Y-12903000D01*
X7038571Y-12860143D01*
X7052857Y-12845857D01*
X7152857Y-12917286D02*
X7167143Y-12903000D01*
X7195714Y-12888714D01*
X7267143Y-12888714D01*
X7295714Y-12903000D01*
X7310000Y-12917286D01*
X7324286Y-12945857D01*
X7324286Y-12974429D01*
X7310000Y-13017286D01*
X7138571Y-13188714D01*
X7324286Y-13188714D01*
X7681428Y-13188714D02*
X7681428Y-12888714D01*
X7810000Y-13188714D02*
X7810000Y-13031571D01*
X7795714Y-13003000D01*
X7767143Y-12988714D01*
X7724286Y-12988714D01*
X7695714Y-13003000D01*
X7681428Y-13017286D01*
X7995714Y-13188714D02*
X7967143Y-13174429D01*
X7952857Y-13160143D01*
X7938571Y-13131571D01*
X7938571Y-13045857D01*
X7952857Y-13017286D01*
X7967143Y-13003000D01*
X7995714Y-12988714D01*
X8038571Y-12988714D01*
X8067143Y-13003000D01*
X8081428Y-13017286D01*
X8095714Y-13045857D01*
X8095714Y-13131571D01*
X8081428Y-13160143D01*
X8067143Y-13174429D01*
X8038571Y-13188714D01*
X7995714Y-13188714D01*
X8267143Y-13188714D02*
X8238571Y-13174429D01*
X8224286Y-13145857D01*
X8224286Y-12888714D01*
X8495714Y-13174429D02*
X8467143Y-13188714D01*
X8410000Y-13188714D01*
X8381428Y-13174429D01*
X8367143Y-13145857D01*
X8367143Y-13031571D01*
X8381428Y-13003000D01*
X8410000Y-12988714D01*
X8467143Y-12988714D01*
X8495714Y-13003000D01*
X8510000Y-13031571D01*
X8510000Y-13060143D01*
X8367143Y-13088714D01*
X8624286Y-13174429D02*
X8652857Y-13188714D01*
X8710000Y-13188714D01*
X8738571Y-13174429D01*
X8752857Y-13145857D01*
X8752857Y-13131571D01*
X8738571Y-13103000D01*
X8710000Y-13088714D01*
X8667143Y-13088714D01*
X8638571Y-13074429D01*
X8624286Y-13045857D01*
X8624286Y-13031571D01*
X8638571Y-13003000D01*
X8667143Y-12988714D01*
X8710000Y-12988714D01*
X8738571Y-13003000D01*
X8852857Y-13303000D02*
X8867143Y-13288714D01*
X8895714Y-13245857D01*
X8910000Y-13217286D01*
X8924286Y-13174429D01*
X8938571Y-13103000D01*
X8938571Y-13045857D01*
X8924286Y-12974429D01*
X8910000Y-12931571D01*
X8895714Y-12903000D01*
X8867143Y-12860143D01*
X8852857Y-12845857D01*
X1745000Y-13499000D02*
X1795000Y-13449000D01*
X1745000Y-13399000D01*
X1695000Y-13449000D01*
X1745000Y-13499000D01*
X2238571Y-13584714D02*
X2067143Y-13584714D01*
X2152857Y-13584714D02*
X2152857Y-13284714D01*
X2124286Y-13327571D01*
X2095714Y-13356143D01*
X2067143Y-13370429D01*
X2367143Y-13556143D02*
X2381428Y-13570429D01*
X2367143Y-13584714D01*
X2352857Y-13570429D01*
X2367143Y-13556143D01*
X2367143Y-13584714D01*
X2567143Y-13284714D02*
X2595714Y-13284714D01*
X2624286Y-13299000D01*
X2638571Y-13313286D01*
X2652857Y-13341857D01*
X2667143Y-13399000D01*
X2667143Y-13470429D01*
X2652857Y-13527571D01*
X2638571Y-13556143D01*
X2624286Y-13570429D01*
X2595714Y-13584714D01*
X2567143Y-13584714D01*
X2538571Y-13570429D01*
X2524286Y-13556143D01*
X2510000Y-13527571D01*
X2495714Y-13470429D01*
X2495714Y-13399000D01*
X2510000Y-13341857D01*
X2524286Y-13313286D01*
X2538571Y-13299000D01*
X2567143Y-13284714D01*
X2852857Y-13284714D02*
X2881428Y-13284714D01*
X2910000Y-13299000D01*
X2924286Y-13313286D01*
X2938571Y-13341857D01*
X2952857Y-13399000D01*
X2952857Y-13470429D01*
X2938571Y-13527571D01*
X2924286Y-13556143D01*
X2910000Y-13570429D01*
X2881428Y-13584714D01*
X2852857Y-13584714D01*
X2824286Y-13570429D01*
X2810000Y-13556143D01*
X2795714Y-13527571D01*
X2781428Y-13470429D01*
X2781428Y-13399000D01*
X2795714Y-13341857D01*
X2810000Y-13313286D01*
X2824286Y-13299000D01*
X2852857Y-13284714D01*
X3138571Y-13284714D02*
X3167143Y-13284714D01*
X3195714Y-13299000D01*
X3210000Y-13313286D01*
X3224286Y-13341857D01*
X3238571Y-13399000D01*
X3238571Y-13470429D01*
X3224286Y-13527571D01*
X3210000Y-13556143D01*
X3195714Y-13570429D01*
X3167143Y-13584714D01*
X3138571Y-13584714D01*
X3110000Y-13570429D01*
X3095714Y-13556143D01*
X3081428Y-13527571D01*
X3067143Y-13470429D01*
X3067143Y-13399000D01*
X3081428Y-13341857D01*
X3095714Y-13313286D01*
X3110000Y-13299000D01*
X3138571Y-13284714D01*
X3367143Y-13584714D02*
X3367143Y-13384714D01*
X3367143Y-13413286D02*
X3381428Y-13399000D01*
X3410000Y-13384714D01*
X3452857Y-13384714D01*
X3481428Y-13399000D01*
X3495714Y-13427571D01*
X3495714Y-13584714D01*
X3495714Y-13427571D02*
X3510000Y-13399000D01*
X3538571Y-13384714D01*
X3581428Y-13384714D01*
X3610000Y-13399000D01*
X3624286Y-13427571D01*
X3624286Y-13584714D01*
X3767143Y-13584714D02*
X3767143Y-13384714D01*
X3767143Y-13413286D02*
X3781428Y-13399000D01*
X3810000Y-13384714D01*
X3852857Y-13384714D01*
X3881428Y-13399000D01*
X3895714Y-13427571D01*
X3895714Y-13584714D01*
X3895714Y-13427571D02*
X3910000Y-13399000D01*
X3938571Y-13384714D01*
X3981428Y-13384714D01*
X4010000Y-13399000D01*
X4024286Y-13427571D01*
X4024286Y-13584714D01*
X4610000Y-13270429D02*
X4352857Y-13656143D01*
X4995714Y-13284714D02*
X5024286Y-13284714D01*
X5052857Y-13299000D01*
X5067143Y-13313286D01*
X5081428Y-13341857D01*
X5095714Y-13399000D01*
X5095714Y-13470429D01*
X5081428Y-13527571D01*
X5067143Y-13556143D01*
X5052857Y-13570429D01*
X5024286Y-13584714D01*
X4995714Y-13584714D01*
X4967143Y-13570429D01*
X4952857Y-13556143D01*
X4938571Y-13527571D01*
X4924286Y-13470429D01*
X4924286Y-13399000D01*
X4938571Y-13341857D01*
X4952857Y-13313286D01*
X4967143Y-13299000D01*
X4995714Y-13284714D01*
X5224286Y-13556143D02*
X5238571Y-13570429D01*
X5224286Y-13584714D01*
X5210000Y-13570429D01*
X5224286Y-13556143D01*
X5224286Y-13584714D01*
X5424286Y-13284714D02*
X5452857Y-13284714D01*
X5481428Y-13299000D01*
X5495714Y-13313286D01*
X5510000Y-13341857D01*
X5524286Y-13399000D01*
X5524286Y-13470429D01*
X5510000Y-13527571D01*
X5495714Y-13556143D01*
X5481428Y-13570429D01*
X5452857Y-13584714D01*
X5424286Y-13584714D01*
X5395714Y-13570429D01*
X5381428Y-13556143D01*
X5367143Y-13527571D01*
X5352857Y-13470429D01*
X5352857Y-13399000D01*
X5367143Y-13341857D01*
X5381428Y-13313286D01*
X5395714Y-13299000D01*
X5424286Y-13284714D01*
X5624286Y-13284714D02*
X5810000Y-13284714D01*
X5710000Y-13399000D01*
X5752857Y-13399000D01*
X5781428Y-13413286D01*
X5795714Y-13427571D01*
X5810000Y-13456143D01*
X5810000Y-13527571D01*
X5795714Y-13556143D01*
X5781428Y-13570429D01*
X5752857Y-13584714D01*
X5667143Y-13584714D01*
X5638571Y-13570429D01*
X5624286Y-13556143D01*
X5952857Y-13584714D02*
X6010000Y-13584714D01*
X6038571Y-13570429D01*
X6052857Y-13556143D01*
X6081428Y-13513286D01*
X6095714Y-13456143D01*
X6095714Y-13341857D01*
X6081428Y-13313286D01*
X6067143Y-13299000D01*
X6038571Y-13284714D01*
X5981428Y-13284714D01*
X5952857Y-13299000D01*
X5938571Y-13313286D01*
X5924286Y-13341857D01*
X5924286Y-13413286D01*
X5938571Y-13441857D01*
X5952857Y-13456143D01*
X5981428Y-13470429D01*
X6038571Y-13470429D01*
X6067143Y-13456143D01*
X6081428Y-13441857D01*
X6095714Y-13413286D01*
X6352857Y-13384714D02*
X6352857Y-13584714D01*
X6281428Y-13270429D02*
X6210000Y-13484714D01*
X6395714Y-13484714D01*
X6495714Y-13284714D02*
X6495714Y-13341857D01*
X6610000Y-13284714D02*
X6610000Y-13341857D01*
X7052857Y-13699000D02*
X7038571Y-13684714D01*
X7010000Y-13641857D01*
X6995714Y-13613286D01*
X6981428Y-13570429D01*
X6967143Y-13499000D01*
X6967143Y-13441857D01*
X6981428Y-13370429D01*
X6995714Y-13327571D01*
X7010000Y-13299000D01*
X7038571Y-13256143D01*
X7052857Y-13241857D01*
X7152857Y-13313286D02*
X7167143Y-13299000D01*
X7195714Y-13284714D01*
X7267143Y-13284714D01*
X7295714Y-13299000D01*
X7310000Y-13313286D01*
X7324286Y-13341857D01*
X7324286Y-13370429D01*
X7310000Y-13413286D01*
X7138571Y-13584714D01*
X7324286Y-13584714D01*
X7581428Y-13284714D02*
X7524286Y-13284714D01*
X7495714Y-13299000D01*
X7481428Y-13313286D01*
X7452857Y-13356143D01*
X7438571Y-13413286D01*
X7438571Y-13527571D01*
X7452857Y-13556143D01*
X7467143Y-13570429D01*
X7495714Y-13584714D01*
X7552857Y-13584714D01*
X7581428Y-13570429D01*
X7595714Y-13556143D01*
X7610000Y-13527571D01*
X7610000Y-13456143D01*
X7595714Y-13427571D01*
X7581428Y-13413286D01*
X7552857Y-13399000D01*
X7495714Y-13399000D01*
X7467143Y-13413286D01*
X7452857Y-13427571D01*
X7438571Y-13456143D01*
X7967143Y-13584714D02*
X7967143Y-13284714D01*
X8095714Y-13584714D02*
X8095714Y-13427571D01*
X8081428Y-13399000D01*
X8052857Y-13384714D01*
X8010000Y-13384714D01*
X7981428Y-13399000D01*
X7967143Y-13413286D01*
X8281428Y-13584714D02*
X8252857Y-13570429D01*
X8238571Y-13556143D01*
X8224286Y-13527571D01*
X8224286Y-13441857D01*
X8238571Y-13413286D01*
X8252857Y-13399000D01*
X8281428Y-13384714D01*
X8324286Y-13384714D01*
X8352857Y-13399000D01*
X8367143Y-13413286D01*
X8381428Y-13441857D01*
X8381428Y-13527571D01*
X8367143Y-13556143D01*
X8352857Y-13570429D01*
X8324286Y-13584714D01*
X8281428Y-13584714D01*
X8552857Y-13584714D02*
X8524286Y-13570429D01*
X8510000Y-13541857D01*
X8510000Y-13284714D01*
X8781428Y-13570429D02*
X8752857Y-13584714D01*
X8695714Y-13584714D01*
X8667143Y-13570429D01*
X8652857Y-13541857D01*
X8652857Y-13427571D01*
X8667143Y-13399000D01*
X8695714Y-13384714D01*
X8752857Y-13384714D01*
X8781428Y-13399000D01*
X8795714Y-13427571D01*
X8795714Y-13456143D01*
X8652857Y-13484714D01*
X8910000Y-13570429D02*
X8938571Y-13584714D01*
X8995714Y-13584714D01*
X9024286Y-13570429D01*
X9038571Y-13541857D01*
X9038571Y-13527571D01*
X9024286Y-13499000D01*
X8995714Y-13484714D01*
X8952857Y-13484714D01*
X8924286Y-13470429D01*
X8910000Y-13441857D01*
X8910000Y-13427571D01*
X8924286Y-13399000D01*
X8952857Y-13384714D01*
X8995714Y-13384714D01*
X9024286Y-13399000D01*
X9138571Y-13699000D02*
X9152857Y-13684714D01*
X9181428Y-13641857D01*
X9195714Y-13613286D01*
X9210000Y-13570429D01*
X9224286Y-13499000D01*
X9224286Y-13441857D01*
X9210000Y-13370429D01*
X9195714Y-13327571D01*
X9181428Y-13299000D01*
X9152857Y-13256143D01*
X9138571Y-13241857D01*
X1685000Y-13790000D02*
X1795000Y-13900000D01*
X1795000Y-13790000D02*
X1685000Y-13900000D01*
X1795000Y-13845000D02*
G75*
G03*
X1795000Y-13845000I-55000J0D01*
G01*
X2238571Y-13980714D02*
X2067143Y-13980714D01*
X2152857Y-13980714D02*
X2152857Y-13680714D01*
X2124286Y-13723571D01*
X2095714Y-13752143D01*
X2067143Y-13766429D01*
X2367143Y-13952143D02*
X2381428Y-13966429D01*
X2367143Y-13980714D01*
X2352857Y-13966429D01*
X2367143Y-13952143D01*
X2367143Y-13980714D01*
X2667143Y-13980714D02*
X2495714Y-13980714D01*
X2581428Y-13980714D02*
X2581428Y-13680714D01*
X2552857Y-13723571D01*
X2524286Y-13752143D01*
X2495714Y-13766429D01*
X2852857Y-13680714D02*
X2881428Y-13680714D01*
X2910000Y-13695000D01*
X2924286Y-13709286D01*
X2938571Y-13737857D01*
X2952857Y-13795000D01*
X2952857Y-13866429D01*
X2938571Y-13923571D01*
X2924286Y-13952143D01*
X2910000Y-13966429D01*
X2881428Y-13980714D01*
X2852857Y-13980714D01*
X2824286Y-13966429D01*
X2810000Y-13952143D01*
X2795714Y-13923571D01*
X2781428Y-13866429D01*
X2781428Y-13795000D01*
X2795714Y-13737857D01*
X2810000Y-13709286D01*
X2824286Y-13695000D01*
X2852857Y-13680714D01*
X3138571Y-13680714D02*
X3167143Y-13680714D01*
X3195714Y-13695000D01*
X3210000Y-13709286D01*
X3224286Y-13737857D01*
X3238571Y-13795000D01*
X3238571Y-13866429D01*
X3224286Y-13923571D01*
X3210000Y-13952143D01*
X3195714Y-13966429D01*
X3167143Y-13980714D01*
X3138571Y-13980714D01*
X3110000Y-13966429D01*
X3095714Y-13952143D01*
X3081428Y-13923571D01*
X3067143Y-13866429D01*
X3067143Y-13795000D01*
X3081428Y-13737857D01*
X3095714Y-13709286D01*
X3110000Y-13695000D01*
X3138571Y-13680714D01*
X3367143Y-13980714D02*
X3367143Y-13780714D01*
X3367143Y-13809286D02*
X3381428Y-13795000D01*
X3410000Y-13780714D01*
X3452857Y-13780714D01*
X3481428Y-13795000D01*
X3495714Y-13823571D01*
X3495714Y-13980714D01*
X3495714Y-13823571D02*
X3510000Y-13795000D01*
X3538571Y-13780714D01*
X3581428Y-13780714D01*
X3610000Y-13795000D01*
X3624286Y-13823571D01*
X3624286Y-13980714D01*
X3767143Y-13980714D02*
X3767143Y-13780714D01*
X3767143Y-13809286D02*
X3781428Y-13795000D01*
X3810000Y-13780714D01*
X3852857Y-13780714D01*
X3881428Y-13795000D01*
X3895714Y-13823571D01*
X3895714Y-13980714D01*
X3895714Y-13823571D02*
X3910000Y-13795000D01*
X3938571Y-13780714D01*
X3981428Y-13780714D01*
X4010000Y-13795000D01*
X4024286Y-13823571D01*
X4024286Y-13980714D01*
X4610000Y-13666429D02*
X4352857Y-14052143D01*
X4995714Y-13680714D02*
X5024286Y-13680714D01*
X5052857Y-13695000D01*
X5067143Y-13709286D01*
X5081428Y-13737857D01*
X5095714Y-13795000D01*
X5095714Y-13866429D01*
X5081428Y-13923571D01*
X5067143Y-13952143D01*
X5052857Y-13966429D01*
X5024286Y-13980714D01*
X4995714Y-13980714D01*
X4967143Y-13966429D01*
X4952857Y-13952143D01*
X4938571Y-13923571D01*
X4924286Y-13866429D01*
X4924286Y-13795000D01*
X4938571Y-13737857D01*
X4952857Y-13709286D01*
X4967143Y-13695000D01*
X4995714Y-13680714D01*
X5224286Y-13952143D02*
X5238571Y-13966429D01*
X5224286Y-13980714D01*
X5210000Y-13966429D01*
X5224286Y-13952143D01*
X5224286Y-13980714D01*
X5424286Y-13680714D02*
X5452857Y-13680714D01*
X5481428Y-13695000D01*
X5495714Y-13709286D01*
X5510000Y-13737857D01*
X5524286Y-13795000D01*
X5524286Y-13866429D01*
X5510000Y-13923571D01*
X5495714Y-13952143D01*
X5481428Y-13966429D01*
X5452857Y-13980714D01*
X5424286Y-13980714D01*
X5395714Y-13966429D01*
X5381428Y-13952143D01*
X5367143Y-13923571D01*
X5352857Y-13866429D01*
X5352857Y-13795000D01*
X5367143Y-13737857D01*
X5381428Y-13709286D01*
X5395714Y-13695000D01*
X5424286Y-13680714D01*
X5781428Y-13780714D02*
X5781428Y-13980714D01*
X5710000Y-13666429D02*
X5638571Y-13880714D01*
X5824286Y-13880714D01*
X5910000Y-13680714D02*
X6095714Y-13680714D01*
X5995714Y-13795000D01*
X6038571Y-13795000D01*
X6067143Y-13809286D01*
X6081428Y-13823571D01*
X6095714Y-13852143D01*
X6095714Y-13923571D01*
X6081428Y-13952143D01*
X6067143Y-13966429D01*
X6038571Y-13980714D01*
X5952857Y-13980714D01*
X5924286Y-13966429D01*
X5910000Y-13952143D01*
X6195714Y-13680714D02*
X6381428Y-13680714D01*
X6281428Y-13795000D01*
X6324286Y-13795000D01*
X6352857Y-13809286D01*
X6367143Y-13823571D01*
X6381428Y-13852143D01*
X6381428Y-13923571D01*
X6367143Y-13952143D01*
X6352857Y-13966429D01*
X6324286Y-13980714D01*
X6238571Y-13980714D01*
X6210000Y-13966429D01*
X6195714Y-13952143D01*
X6495714Y-13680714D02*
X6495714Y-13737857D01*
X6610000Y-13680714D02*
X6610000Y-13737857D01*
X7052857Y-14095000D02*
X7038571Y-14080714D01*
X7010000Y-14037857D01*
X6995714Y-14009286D01*
X6981428Y-13966429D01*
X6967143Y-13895000D01*
X6967143Y-13837857D01*
X6981428Y-13766429D01*
X6995714Y-13723571D01*
X7010000Y-13695000D01*
X7038571Y-13652143D01*
X7052857Y-13637857D01*
X7295714Y-13680714D02*
X7238571Y-13680714D01*
X7210000Y-13695000D01*
X7195714Y-13709286D01*
X7167143Y-13752143D01*
X7152857Y-13809286D01*
X7152857Y-13923571D01*
X7167143Y-13952143D01*
X7181428Y-13966429D01*
X7210000Y-13980714D01*
X7267143Y-13980714D01*
X7295714Y-13966429D01*
X7310000Y-13952143D01*
X7324286Y-13923571D01*
X7324286Y-13852143D01*
X7310000Y-13823571D01*
X7295714Y-13809286D01*
X7267143Y-13795000D01*
X7210000Y-13795000D01*
X7181428Y-13809286D01*
X7167143Y-13823571D01*
X7152857Y-13852143D01*
X7681428Y-13980714D02*
X7681428Y-13680714D01*
X7810000Y-13980714D02*
X7810000Y-13823571D01*
X7795714Y-13795000D01*
X7767143Y-13780714D01*
X7724286Y-13780714D01*
X7695714Y-13795000D01*
X7681428Y-13809286D01*
X7995714Y-13980714D02*
X7967143Y-13966429D01*
X7952857Y-13952143D01*
X7938571Y-13923571D01*
X7938571Y-13837857D01*
X7952857Y-13809286D01*
X7967143Y-13795000D01*
X7995714Y-13780714D01*
X8038571Y-13780714D01*
X8067143Y-13795000D01*
X8081428Y-13809286D01*
X8095714Y-13837857D01*
X8095714Y-13923571D01*
X8081428Y-13952143D01*
X8067143Y-13966429D01*
X8038571Y-13980714D01*
X7995714Y-13980714D01*
X8267143Y-13980714D02*
X8238571Y-13966429D01*
X8224286Y-13937857D01*
X8224286Y-13680714D01*
X8495714Y-13966429D02*
X8467143Y-13980714D01*
X8410000Y-13980714D01*
X8381428Y-13966429D01*
X8367143Y-13937857D01*
X8367143Y-13823571D01*
X8381428Y-13795000D01*
X8410000Y-13780714D01*
X8467143Y-13780714D01*
X8495714Y-13795000D01*
X8510000Y-13823571D01*
X8510000Y-13852143D01*
X8367143Y-13880714D01*
X8624286Y-13966429D02*
X8652857Y-13980714D01*
X8710000Y-13980714D01*
X8738571Y-13966429D01*
X8752857Y-13937857D01*
X8752857Y-13923571D01*
X8738571Y-13895000D01*
X8710000Y-13880714D01*
X8667143Y-13880714D01*
X8638571Y-13866429D01*
X8624286Y-13837857D01*
X8624286Y-13823571D01*
X8638571Y-13795000D01*
X8667143Y-13780714D01*
X8710000Y-13780714D01*
X8738571Y-13795000D01*
X8852857Y-14095000D02*
X8867143Y-14080714D01*
X8895714Y-14037857D01*
X8910000Y-14009286D01*
X8924286Y-13966429D01*
X8938571Y-13895000D01*
X8938571Y-13837857D01*
X8924286Y-13766429D01*
X8910000Y-13723571D01*
X8895714Y-13695000D01*
X8867143Y-13652143D01*
X8852857Y-13637857D01*
X1655000Y-14171000D02*
X1795000Y-14311000D01*
X1795000Y-14171000D02*
X1655000Y-14311000D01*
X1725000Y-14171000D02*
X1725000Y-14311000D01*
X1655000Y-14241000D02*
X1795000Y-14241000D01*
X2238571Y-14376714D02*
X2067143Y-14376714D01*
X2152857Y-14376714D02*
X2152857Y-14076714D01*
X2124286Y-14119571D01*
X2095714Y-14148143D01*
X2067143Y-14162429D01*
X2367143Y-14348143D02*
X2381428Y-14362429D01*
X2367143Y-14376714D01*
X2352857Y-14362429D01*
X2367143Y-14348143D01*
X2367143Y-14376714D01*
X2638571Y-14176714D02*
X2638571Y-14376714D01*
X2567143Y-14062429D02*
X2495714Y-14276714D01*
X2681428Y-14276714D01*
X2852857Y-14076714D02*
X2881428Y-14076714D01*
X2910000Y-14091000D01*
X2924286Y-14105286D01*
X2938571Y-14133857D01*
X2952857Y-14191000D01*
X2952857Y-14262429D01*
X2938571Y-14319571D01*
X2924286Y-14348143D01*
X2910000Y-14362429D01*
X2881428Y-14376714D01*
X2852857Y-14376714D01*
X2824286Y-14362429D01*
X2810000Y-14348143D01*
X2795714Y-14319571D01*
X2781428Y-14262429D01*
X2781428Y-14191000D01*
X2795714Y-14133857D01*
X2810000Y-14105286D01*
X2824286Y-14091000D01*
X2852857Y-14076714D01*
X3138571Y-14076714D02*
X3167143Y-14076714D01*
X3195714Y-14091000D01*
X3210000Y-14105286D01*
X3224286Y-14133857D01*
X3238571Y-14191000D01*
X3238571Y-14262429D01*
X3224286Y-14319571D01*
X3210000Y-14348143D01*
X3195714Y-14362429D01*
X3167143Y-14376714D01*
X3138571Y-14376714D01*
X3110000Y-14362429D01*
X3095714Y-14348143D01*
X3081428Y-14319571D01*
X3067143Y-14262429D01*
X3067143Y-14191000D01*
X3081428Y-14133857D01*
X3095714Y-14105286D01*
X3110000Y-14091000D01*
X3138571Y-14076714D01*
X3367143Y-14376714D02*
X3367143Y-14176714D01*
X3367143Y-14205286D02*
X3381428Y-14191000D01*
X3410000Y-14176714D01*
X3452857Y-14176714D01*
X3481428Y-14191000D01*
X3495714Y-14219571D01*
X3495714Y-14376714D01*
X3495714Y-14219571D02*
X3510000Y-14191000D01*
X3538571Y-14176714D01*
X3581428Y-14176714D01*
X3610000Y-14191000D01*
X3624286Y-14219571D01*
X3624286Y-14376714D01*
X3767143Y-14376714D02*
X3767143Y-14176714D01*
X3767143Y-14205286D02*
X3781428Y-14191000D01*
X3810000Y-14176714D01*
X3852857Y-14176714D01*
X3881428Y-14191000D01*
X3895714Y-14219571D01*
X3895714Y-14376714D01*
X3895714Y-14219571D02*
X3910000Y-14191000D01*
X3938571Y-14176714D01*
X3981428Y-14176714D01*
X4010000Y-14191000D01*
X4024286Y-14219571D01*
X4024286Y-14376714D01*
X4610000Y-14062429D02*
X4352857Y-14448143D01*
X4995714Y-14076714D02*
X5024286Y-14076714D01*
X5052857Y-14091000D01*
X5067143Y-14105286D01*
X5081428Y-14133857D01*
X5095714Y-14191000D01*
X5095714Y-14262429D01*
X5081428Y-14319571D01*
X5067143Y-14348143D01*
X5052857Y-14362429D01*
X5024286Y-14376714D01*
X4995714Y-14376714D01*
X4967143Y-14362429D01*
X4952857Y-14348143D01*
X4938571Y-14319571D01*
X4924286Y-14262429D01*
X4924286Y-14191000D01*
X4938571Y-14133857D01*
X4952857Y-14105286D01*
X4967143Y-14091000D01*
X4995714Y-14076714D01*
X5224286Y-14348143D02*
X5238571Y-14362429D01*
X5224286Y-14376714D01*
X5210000Y-14362429D01*
X5224286Y-14348143D01*
X5224286Y-14376714D01*
X5424286Y-14076714D02*
X5452857Y-14076714D01*
X5481428Y-14091000D01*
X5495714Y-14105286D01*
X5510000Y-14133857D01*
X5524286Y-14191000D01*
X5524286Y-14262429D01*
X5510000Y-14319571D01*
X5495714Y-14348143D01*
X5481428Y-14362429D01*
X5452857Y-14376714D01*
X5424286Y-14376714D01*
X5395714Y-14362429D01*
X5381428Y-14348143D01*
X5367143Y-14319571D01*
X5352857Y-14262429D01*
X5352857Y-14191000D01*
X5367143Y-14133857D01*
X5381428Y-14105286D01*
X5395714Y-14091000D01*
X5424286Y-14076714D01*
X5795714Y-14076714D02*
X5652857Y-14076714D01*
X5638571Y-14219571D01*
X5652857Y-14205286D01*
X5681428Y-14191000D01*
X5752857Y-14191000D01*
X5781428Y-14205286D01*
X5795714Y-14219571D01*
X5810000Y-14248143D01*
X5810000Y-14319571D01*
X5795714Y-14348143D01*
X5781428Y-14362429D01*
X5752857Y-14376714D01*
X5681428Y-14376714D01*
X5652857Y-14362429D01*
X5638571Y-14348143D01*
X6081428Y-14076714D02*
X5938571Y-14076714D01*
X5924286Y-14219571D01*
X5938571Y-14205286D01*
X5967143Y-14191000D01*
X6038571Y-14191000D01*
X6067143Y-14205286D01*
X6081428Y-14219571D01*
X6095714Y-14248143D01*
X6095714Y-14319571D01*
X6081428Y-14348143D01*
X6067143Y-14362429D01*
X6038571Y-14376714D01*
X5967143Y-14376714D01*
X5938571Y-14362429D01*
X5924286Y-14348143D01*
X6381428Y-14376714D02*
X6210000Y-14376714D01*
X6295714Y-14376714D02*
X6295714Y-14076714D01*
X6267143Y-14119571D01*
X6238571Y-14148143D01*
X6210000Y-14162429D01*
X6495714Y-14076714D02*
X6495714Y-14133857D01*
X6610000Y-14076714D02*
X6610000Y-14133857D01*
X7052857Y-14491000D02*
X7038571Y-14476714D01*
X7010000Y-14433857D01*
X6995714Y-14405286D01*
X6981428Y-14362429D01*
X6967143Y-14291000D01*
X6967143Y-14233857D01*
X6981428Y-14162429D01*
X6995714Y-14119571D01*
X7010000Y-14091000D01*
X7038571Y-14048143D01*
X7052857Y-14033857D01*
X7324286Y-14376714D02*
X7152857Y-14376714D01*
X7238571Y-14376714D02*
X7238571Y-14076714D01*
X7210000Y-14119571D01*
X7181428Y-14148143D01*
X7152857Y-14162429D01*
X7438571Y-14105286D02*
X7452857Y-14091000D01*
X7481428Y-14076714D01*
X7552857Y-14076714D01*
X7581428Y-14091000D01*
X7595714Y-14105286D01*
X7610000Y-14133857D01*
X7610000Y-14162429D01*
X7595714Y-14205286D01*
X7424286Y-14376714D01*
X7610000Y-14376714D01*
X7967143Y-14376714D02*
X7967143Y-14076714D01*
X8095714Y-14376714D02*
X8095714Y-14219571D01*
X8081428Y-14191000D01*
X8052857Y-14176714D01*
X8010000Y-14176714D01*
X7981428Y-14191000D01*
X7967143Y-14205286D01*
X8281428Y-14376714D02*
X8252857Y-14362429D01*
X8238571Y-14348143D01*
X8224286Y-14319571D01*
X8224286Y-14233857D01*
X8238571Y-14205286D01*
X8252857Y-14191000D01*
X8281428Y-14176714D01*
X8324286Y-14176714D01*
X8352857Y-14191000D01*
X8367143Y-14205286D01*
X8381428Y-14233857D01*
X8381428Y-14319571D01*
X8367143Y-14348143D01*
X8352857Y-14362429D01*
X8324286Y-14376714D01*
X8281428Y-14376714D01*
X8552857Y-14376714D02*
X8524286Y-14362429D01*
X8510000Y-14333857D01*
X8510000Y-14076714D01*
X8781428Y-14362429D02*
X8752857Y-14376714D01*
X8695714Y-14376714D01*
X8667143Y-14362429D01*
X8652857Y-14333857D01*
X8652857Y-14219571D01*
X8667143Y-14191000D01*
X8695714Y-14176714D01*
X8752857Y-14176714D01*
X8781428Y-14191000D01*
X8795714Y-14219571D01*
X8795714Y-14248143D01*
X8652857Y-14276714D01*
X8910000Y-14362429D02*
X8938571Y-14376714D01*
X8995714Y-14376714D01*
X9024286Y-14362429D01*
X9038571Y-14333857D01*
X9038571Y-14319571D01*
X9024286Y-14291000D01*
X8995714Y-14276714D01*
X8952857Y-14276714D01*
X8924286Y-14262429D01*
X8910000Y-14233857D01*
X8910000Y-14219571D01*
X8924286Y-14191000D01*
X8952857Y-14176714D01*
X8995714Y-14176714D01*
X9024286Y-14191000D01*
X9138571Y-14491000D02*
X9152857Y-14476714D01*
X9181428Y-14433857D01*
X9195714Y-14405286D01*
X9210000Y-14362429D01*
X9224286Y-14291000D01*
X9224286Y-14233857D01*
X9210000Y-14162429D01*
X9195714Y-14119571D01*
X9181428Y-14091000D01*
X9152857Y-14048143D01*
X9138571Y-14033857D01*
M02*
