%FSLAX45Y45*%
G04 Gerber Fmt 4.5, Leading zero omitted, Abs format (unit mm)*
G04 Created by KiCad (PCBNEW (5.1.10)-1) date 2022-03-26 18:39:03*
%MOMM*%
%LPD*%
G01*
G04 APERTURE LIST*
%TA.AperFunction,Profile*%
%ADD10C,0.100000*%
%TD*%
%ADD11C,0.200000*%
%ADD12C,0.300000*%
G04 APERTURE END LIST*
D10*
X5850000Y-9400000D02*
X3450000Y-9400000D01*
X5850000Y-10900000D02*
X5850000Y-9400000D01*
X7500000Y-10900000D02*
X5850000Y-10900000D01*
X3450000Y-10900000D02*
X3450000Y-9400000D01*
X1800000Y-10900000D02*
X3450000Y-10900000D01*
X7500000Y-3420000D02*
X7500000Y-10900000D01*
X1800000Y-3420000D02*
X7500000Y-3420000D01*
X1800000Y-10900000D02*
X1800000Y-3420000D01*
D11*
D12*
X2081428Y-11370714D02*
X2081428Y-11070714D01*
X2152857Y-11070714D01*
X2195714Y-11085000D01*
X2224286Y-11113572D01*
X2238571Y-11142143D01*
X2252857Y-11199286D01*
X2252857Y-11242143D01*
X2238571Y-11299286D01*
X2224286Y-11327857D01*
X2195714Y-11356429D01*
X2152857Y-11370714D01*
X2081428Y-11370714D01*
X2381428Y-11370714D02*
X2381428Y-11170714D01*
X2381428Y-11227857D02*
X2395714Y-11199286D01*
X2410000Y-11185000D01*
X2438571Y-11170714D01*
X2467143Y-11170714D01*
X2567143Y-11370714D02*
X2567143Y-11170714D01*
X2567143Y-11070714D02*
X2552857Y-11085000D01*
X2567143Y-11099286D01*
X2581428Y-11085000D01*
X2567143Y-11070714D01*
X2567143Y-11099286D01*
X2752857Y-11370714D02*
X2724286Y-11356429D01*
X2710000Y-11327857D01*
X2710000Y-11070714D01*
X2910000Y-11370714D02*
X2881428Y-11356429D01*
X2867143Y-11327857D01*
X2867143Y-11070714D01*
X3252857Y-11370714D02*
X3252857Y-11070714D01*
X3352857Y-11285000D01*
X3452857Y-11070714D01*
X3452857Y-11370714D01*
X3724286Y-11370714D02*
X3724286Y-11213571D01*
X3710000Y-11185000D01*
X3681428Y-11170714D01*
X3624286Y-11170714D01*
X3595714Y-11185000D01*
X3724286Y-11356429D02*
X3695714Y-11370714D01*
X3624286Y-11370714D01*
X3595714Y-11356429D01*
X3581428Y-11327857D01*
X3581428Y-11299286D01*
X3595714Y-11270714D01*
X3624286Y-11256429D01*
X3695714Y-11256429D01*
X3724286Y-11242143D01*
X3867143Y-11170714D02*
X3867143Y-11470714D01*
X3867143Y-11185000D02*
X3895714Y-11170714D01*
X3952857Y-11170714D01*
X3981428Y-11185000D01*
X3995714Y-11199286D01*
X4010000Y-11227857D01*
X4010000Y-11313571D01*
X3995714Y-11342143D01*
X3981428Y-11356429D01*
X3952857Y-11370714D01*
X3895714Y-11370714D01*
X3867143Y-11356429D01*
X4138571Y-11342143D02*
X4152857Y-11356429D01*
X4138571Y-11370714D01*
X4124286Y-11356429D01*
X4138571Y-11342143D01*
X4138571Y-11370714D01*
X4138571Y-11185000D02*
X4152857Y-11199286D01*
X4138571Y-11213571D01*
X4124286Y-11199286D01*
X4138571Y-11185000D01*
X4138571Y-11213571D01*
M02*
