M48
; DRILL file {KiCad (5.1.10)-1} date 03/26/22 18:39:02
; FORMAT={-:-/ absolute / metric / decimal}
; #@! TF.CreationDate,2022-03-26T18:39:02-04:00
; #@! TF.GenerationSoftware,Kicad,Pcbnew,(5.1.10)-1
; #@! TF.FileFunction,Plated,1,4,PTH
FMAT,2
METRIC
T1C0.400
T2C0.700
T3C0.800
T4C0.900
T5C1.000
T6C1.100
T7C1.400
%
G90
G05
T1
X22.0Y-71.0
X26.4Y-83.4
X26.8Y-71.6
X28.1Y-86.5
X36.8Y-92.0
X39.4Y-72.2
X40.0Y-87.4
X45.8Y-76.8
X45.865Y-50.2
X47.2Y-89.2
X47.48Y-72.6
X47.6Y-75.4
X50.0Y-60.8
X54.4Y-81.4
X65.8Y-66.6
X68.0Y-65.4
T2
X38.8Y-55.5
X38.8Y-58.0
T3
X19.58Y-94.9
X19.66Y-89.46
X19.8Y-99.5
X19.8Y-105.5
X19.98Y-47.2
X19.98Y-50.6
X19.98Y-57.4
X19.98Y-64.2
X20.0Y-38.8
X20.0Y-43.8
X20.2Y-54.0
X20.2Y-60.8
X22.2Y-86.92
X22.2Y-92.0
X22.4Y-73.4
X22.4Y-75.4
X22.6Y-80.6
X22.6Y-82.6
X23.6Y-35.8
X24.8Y-99.5
X24.8Y-105.5
X25.2Y-54.0
X25.2Y-60.8
X26.8Y-74.6
X27.2Y-94.9
X27.6Y-47.2
X27.6Y-50.6
X27.6Y-57.4
X27.6Y-64.2
X28.5Y-98.93
X28.5Y-106.55
X29.75Y-91.25
X30.1Y-83.4
X30.4Y-64.2
X31.2Y-56.0
X31.2Y-61.0
X31.22Y-35.8
X31.75Y-91.25
X31.9Y-98.95
X31.9Y-106.57
X32.6Y-83.4
X34.42Y-74.6
X38.02Y-64.2
X39.4Y-80.0
X39.4Y-85.0
X40.0Y-35.8
X40.0Y-43.42
X41.0Y-46.4
X41.0Y-51.4
X41.6Y-66.6
X41.6Y-71.6
X42.0Y-62.5
X47.0Y-62.5
X47.8Y-87.2
X51.6Y-75.8
X51.6Y-78.3
X52.0Y-54.2
X52.0Y-56.7
X52.6Y-66.2
X52.6Y-71.2
X52.8Y-87.2
X53.2Y-60.8
X53.2Y-62.8
X57.0Y-49.4
X57.0Y-76.38
X57.0Y-78.92
X57.0Y-81.46
X57.0Y-84.0
X58.0Y-59.4
X58.0Y-62.8
X58.0Y-90.25
X60.0Y-90.25
X62.0Y-49.4
X64.4Y-90.8
X65.62Y-59.4
X65.62Y-62.8
X65.98Y-36.2
X66.0Y-39.0
X67.16Y-76.38
X67.16Y-78.92
X67.16Y-81.46
X67.16Y-84.0
X68.4Y-48.0
X68.4Y-53.0
X71.0Y-97.6
X71.0Y-99.6
X71.8Y-80.8
X71.8Y-82.8
X72.02Y-90.8
X73.0Y-47.6
X73.0Y-55.22
X73.6Y-36.2
X73.62Y-39.0
T4
X44.93Y-41.79
X47.47Y-41.79
T5
X23.59Y-39.0
X26.99Y-77.6
X30.39Y-48.4
X31.21Y-39.0
X34.2Y-53.59
X34.2Y-61.21
X34.61Y-77.6
X38.01Y-48.4
X44.86Y-36.0
X44.86Y-47.0
X45.26Y-91.2
X47.4Y-36.0
X47.4Y-47.0
X47.8Y-91.2
X57.99Y-56.2
X61.0Y-99.0
X61.0Y-102.75
X61.0Y-106.5
X63.19Y-72.8
X64.39Y-87.8
X65.61Y-56.2
X70.81Y-72.8
X72.01Y-87.8
X72.6Y-61.79
X72.6Y-69.41
X73.25Y-43.75
T6
X52.2Y-41.04
X52.2Y-51.2
X52.64Y-37.0
X62.8Y-37.0
X65.5Y-95.64
X65.5Y-105.8
T7
X24.62Y-43.7
X24.62Y-69.1
X29.7Y-43.7
X29.7Y-69.1
X34.78Y-43.7
X34.78Y-69.1
X57.62Y-43.7
X57.62Y-69.1
X62.7Y-43.7
X62.7Y-69.1
X67.78Y-43.7
X67.78Y-69.1
T0
M30
