G04 #@! TF.GenerationSoftware,KiCad,Pcbnew,(5.1.10)-1*
G04 #@! TF.CreationDate,2022-03-26T18:38:29-04:00*
G04 #@! TF.ProjectId,malice-striker,6d616c69-6365-42d7-9374-72696b65722e,rev?*
G04 #@! TF.SameCoordinates,Original*
G04 #@! TF.FileFunction,Legend,Top*
G04 #@! TF.FilePolarity,Positive*
%FSLAX46Y46*%
G04 Gerber Fmt 4.6, Leading zero omitted, Abs format (unit mm)*
G04 Created by KiCad (PCBNEW (5.1.10)-1) date 2022-03-26 18:38:29*
%MOMM*%
%LPD*%
G01*
G04 APERTURE LIST*
%ADD10C,0.150000*%
%ADD11C,0.003600*%
%ADD12C,0.170000*%
%ADD13C,0.200000*%
%ADD14C,0.127000*%
%ADD15C,0.120000*%
%ADD16C,0.152400*%
%ADD17C,0.121920*%
%ADD18R,1.700000X1.700000*%
%ADD19O,1.700000X1.700000*%
%ADD20C,2.743200*%
%ADD21R,0.400000X1.560000*%
%ADD22R,3.000000X2.290000*%
%ADD23R,1.600000X1.600000*%
%ADD24O,1.600000X1.600000*%
%ADD25C,1.440000*%
%ADD26C,1.600000*%
%ADD27C,2.203200*%
%ADD28R,2.200000X2.200000*%
%ADD29O,2.200000X2.200000*%
%ADD30C,1.400000*%
%ADD31C,1.800000*%
%ADD32R,1.800000X1.800000*%
G04 APERTURE END LIST*
D10*
X31980823Y-52107396D02*
X32024109Y-52126146D01*
X28933453Y-53263942D02*
X28811097Y-53605359D01*
X28933453Y-53263942D02*
X28644415Y-53382702D01*
X29001826Y-53180114D02*
X29239684Y-53120024D01*
D11*
X28768341Y-53444935D02*
X28766048Y-53448461D01*
X28766048Y-53448461D02*
X28763559Y-53451869D01*
X28763559Y-53451869D02*
X28760879Y-53455142D01*
X28760879Y-53455142D02*
X28758013Y-53458263D01*
X28758013Y-53458263D02*
X28754967Y-53461216D01*
X28754967Y-53461216D02*
X28751747Y-53463985D01*
X28751747Y-53463985D02*
X28748358Y-53466553D01*
X28748358Y-53466553D02*
X28744806Y-53468904D01*
X28782633Y-53409880D02*
X28781183Y-53414432D01*
X28781183Y-53414432D02*
X28779701Y-53418968D01*
X28779701Y-53418968D02*
X28778155Y-53423472D01*
X28778155Y-53423472D02*
X28776513Y-53427927D01*
X28776513Y-53427927D02*
X28774742Y-53432317D01*
X28774742Y-53432317D02*
X28772812Y-53436626D01*
X28772812Y-53436626D02*
X28770688Y-53440837D01*
X28770688Y-53440837D02*
X28768341Y-53444935D01*
X28784242Y-53421333D02*
X28783787Y-53417747D01*
X28783787Y-53417747D02*
X28783278Y-53414169D01*
X28783278Y-53414169D02*
X28782741Y-53410594D01*
X28782741Y-53410594D02*
X28782633Y-53409880D01*
X28609719Y-53580981D02*
X28612930Y-53583361D01*
X28612930Y-53583361D02*
X28616234Y-53585631D01*
X28616234Y-53585631D02*
X28619624Y-53587784D01*
X28619624Y-53587784D02*
X28623093Y-53589815D01*
X28623093Y-53589815D02*
X28626636Y-53591718D01*
X28626636Y-53591718D02*
X28630247Y-53593486D01*
X28630247Y-53593486D02*
X28633918Y-53595114D01*
X28633918Y-53595114D02*
X28637646Y-53596596D01*
X28637646Y-53596596D02*
X28641422Y-53597926D01*
X28641422Y-53597926D02*
X28645241Y-53599097D01*
X28645241Y-53599097D02*
X28649097Y-53600105D01*
X28649097Y-53600105D02*
X28652983Y-53600943D01*
X28652983Y-53600943D02*
X28656894Y-53601604D01*
X28656894Y-53601604D02*
X28660824Y-53602084D01*
X28660824Y-53602084D02*
X28664766Y-53602376D01*
X28664766Y-53602376D02*
X28668714Y-53602475D01*
X28727685Y-53580981D02*
X28731167Y-53578189D01*
X28731167Y-53578189D02*
X28734528Y-53575272D01*
X28734528Y-53575272D02*
X28737768Y-53572236D01*
X28737768Y-53572236D02*
X28740890Y-53569086D01*
X28740890Y-53569086D02*
X28743894Y-53565827D01*
X28743894Y-53565827D02*
X28746783Y-53562466D01*
X28746783Y-53562466D02*
X28749557Y-53559009D01*
X28749557Y-53559009D02*
X28752218Y-53555460D01*
X28752218Y-53555460D02*
X28754767Y-53551827D01*
X28754767Y-53551827D02*
X28757207Y-53548114D01*
X28757207Y-53548114D02*
X28759537Y-53544328D01*
X28759537Y-53544328D02*
X28761761Y-53540475D01*
X28761761Y-53540475D02*
X28763879Y-53536559D01*
X28763879Y-53536559D02*
X28765893Y-53532588D01*
X28765893Y-53532588D02*
X28767804Y-53528566D01*
X28767804Y-53528566D02*
X28769615Y-53524500D01*
X28785575Y-53445038D02*
X28785539Y-53441292D01*
X28785539Y-53441292D02*
X28785439Y-53437550D01*
X28785439Y-53437550D02*
X28785276Y-53433810D01*
X28785276Y-53433810D02*
X28785236Y-53433063D01*
D12*
X28668714Y-53602475D02*
X28727685Y-53580981D01*
X28567789Y-53524500D02*
X28609719Y-53580981D01*
D11*
X28551832Y-53445038D02*
X28551892Y-53450113D01*
X28551892Y-53450113D02*
X28552074Y-53455190D01*
X28552074Y-53455190D02*
X28552378Y-53460266D01*
X28552378Y-53460266D02*
X28552805Y-53465336D01*
X28552805Y-53465336D02*
X28553355Y-53470399D01*
X28553355Y-53470399D02*
X28554030Y-53475449D01*
X28554030Y-53475449D02*
X28554831Y-53480483D01*
X28554831Y-53480483D02*
X28555757Y-53485498D01*
X28555757Y-53485498D02*
X28556809Y-53490491D01*
X28556809Y-53490491D02*
X28557990Y-53495457D01*
X28557990Y-53495457D02*
X28559298Y-53500393D01*
X28559298Y-53500393D02*
X28560735Y-53505295D01*
X28560735Y-53505295D02*
X28562302Y-53510161D01*
X28562302Y-53510161D02*
X28563999Y-53514986D01*
X28563999Y-53514986D02*
X28565828Y-53519767D01*
X28565828Y-53519767D02*
X28567789Y-53524500D01*
D12*
X28567789Y-53365575D02*
X28551832Y-53445038D01*
D11*
X28609719Y-53309095D02*
X28606236Y-53311623D01*
X28606236Y-53311623D02*
X28602874Y-53314336D01*
X28602874Y-53314336D02*
X28599633Y-53317222D01*
X28599633Y-53317222D02*
X28596511Y-53320270D01*
X28596511Y-53320270D02*
X28593507Y-53323470D01*
X28593507Y-53323470D02*
X28590618Y-53326811D01*
X28590618Y-53326811D02*
X28587844Y-53330281D01*
X28587844Y-53330281D02*
X28585183Y-53333871D01*
X28585183Y-53333871D02*
X28582633Y-53337569D01*
X28582633Y-53337569D02*
X28580194Y-53341364D01*
X28580194Y-53341364D02*
X28577863Y-53345246D01*
X28577863Y-53345246D02*
X28575639Y-53349204D01*
X28575639Y-53349204D02*
X28573522Y-53353226D01*
X28573522Y-53353226D02*
X28571508Y-53357303D01*
X28571508Y-53357303D02*
X28569598Y-53361422D01*
X28569598Y-53361422D02*
X28567789Y-53365575D01*
X28668714Y-53287601D02*
X28664766Y-53288531D01*
X28664766Y-53288531D02*
X28660824Y-53289472D01*
X28660824Y-53289472D02*
X28656894Y-53290432D01*
X28656894Y-53290432D02*
X28652983Y-53291421D01*
X28652983Y-53291421D02*
X28649097Y-53292449D01*
X28649097Y-53292449D02*
X28645241Y-53293525D01*
X28645241Y-53293525D02*
X28641422Y-53294660D01*
X28641422Y-53294660D02*
X28637646Y-53295863D01*
X28637646Y-53295863D02*
X28633918Y-53297143D01*
X28633918Y-53297143D02*
X28630247Y-53298511D01*
X28630247Y-53298511D02*
X28626636Y-53299975D01*
X28626636Y-53299975D02*
X28623093Y-53301547D01*
X28623093Y-53301547D02*
X28619624Y-53303235D01*
X28619624Y-53303235D02*
X28616234Y-53305049D01*
X28616234Y-53305049D02*
X28612930Y-53306999D01*
X28612930Y-53306999D02*
X28609719Y-53309095D01*
D12*
X28654052Y-53430692D02*
X28644415Y-53382702D01*
D11*
X28769615Y-53524500D02*
X28771576Y-53519766D01*
X28771576Y-53519766D02*
X28773406Y-53514984D01*
X28773406Y-53514984D02*
X28775104Y-53510158D01*
X28775104Y-53510158D02*
X28776673Y-53505292D01*
X28776673Y-53505292D02*
X28778111Y-53500388D01*
X28778111Y-53500388D02*
X28779421Y-53495451D01*
X28779421Y-53495451D02*
X28780602Y-53490484D01*
X28780602Y-53490484D02*
X28781656Y-53485491D01*
X28781656Y-53485491D02*
X28782583Y-53480476D01*
X28782583Y-53480476D02*
X28783383Y-53475441D01*
X28783383Y-53475441D02*
X28784058Y-53470391D01*
X28784058Y-53470391D02*
X28784609Y-53465329D01*
X28784609Y-53465329D02*
X28785035Y-53460260D01*
X28785035Y-53460260D02*
X28785337Y-53455185D01*
X28785337Y-53455185D02*
X28785517Y-53450110D01*
X28785517Y-53450110D02*
X28785575Y-53445038D01*
X28679376Y-53464802D02*
X28676248Y-53462247D01*
X28676248Y-53462247D02*
X28673284Y-53459525D01*
X28673284Y-53459525D02*
X28670483Y-53456647D01*
X28670483Y-53456647D02*
X28667840Y-53453625D01*
X28667840Y-53453625D02*
X28665353Y-53450472D01*
X28665353Y-53450472D02*
X28663018Y-53447199D01*
X28663018Y-53447199D02*
X28660833Y-53443818D01*
X28660833Y-53443818D02*
X28658794Y-53440341D01*
X28658794Y-53440341D02*
X28656899Y-53436780D01*
X28656899Y-53436780D02*
X28655145Y-53433147D01*
X28655145Y-53433147D02*
X28654052Y-53430692D01*
D12*
X28744806Y-53468904D02*
X28715006Y-53477783D01*
D11*
X28785236Y-53433063D02*
X28785000Y-53429391D01*
X28785000Y-53429391D02*
X28784699Y-53425723D01*
X28784699Y-53425723D02*
X28784326Y-53422063D01*
X28784326Y-53422063D02*
X28784242Y-53421333D01*
X28715006Y-53477783D02*
X28710243Y-53477535D01*
X28710243Y-53477535D02*
X28705509Y-53476840D01*
X28705509Y-53476840D02*
X28701995Y-53476041D01*
X28701995Y-53476041D02*
X28698527Y-53475016D01*
X28698527Y-53475016D02*
X28695116Y-53473779D01*
X28695116Y-53473779D02*
X28691776Y-53472340D01*
X28691776Y-53472340D02*
X28688520Y-53470711D01*
X28688520Y-53470711D02*
X28685359Y-53468904D01*
X28685359Y-53468904D02*
X28682307Y-53466930D01*
X28682307Y-53466930D02*
X28679376Y-53464802D01*
D13*
X28903960Y-63880157D02*
X28686274Y-63854487D01*
X28686274Y-63854487D02*
X28471055Y-63844105D01*
X28471055Y-63844105D02*
X28279617Y-63860797D01*
X24959353Y-63657900D02*
X24944565Y-63419111D01*
X24944565Y-63419111D02*
X24932296Y-63180157D01*
X24932296Y-63180157D02*
X24922600Y-62941077D01*
X24922600Y-62941077D02*
X24915527Y-62701909D01*
X24915527Y-62701909D02*
X24911132Y-62462692D01*
X24911132Y-62462692D02*
X24909467Y-62223465D01*
X24909467Y-62223465D02*
X24909577Y-62127781D01*
X29410914Y-64896658D02*
X29513500Y-65077910D01*
X29513500Y-65077910D02*
X29567851Y-65172506D01*
X29567851Y-65172506D02*
X25094477Y-65172506D01*
X24909577Y-62127781D02*
X24912274Y-61880506D01*
X24912274Y-61880506D02*
X24918197Y-61660796D01*
X24918197Y-61660796D02*
X24928869Y-61403534D01*
X24928869Y-61403534D02*
X24940771Y-61175896D01*
X24940771Y-61175896D02*
X24956620Y-60910693D01*
X24956620Y-60910693D02*
X24969649Y-60709541D01*
X24969649Y-60709541D02*
X24984838Y-60486475D01*
X24984838Y-60486475D02*
X25002348Y-60239405D01*
X25002348Y-60239405D02*
X25022341Y-59966244D01*
X25022341Y-59966244D02*
X25044980Y-59664905D01*
X25044980Y-59664905D02*
X25070427Y-59333299D01*
X25070427Y-59333299D02*
X25084254Y-59155494D01*
X29117679Y-64335324D02*
X29211140Y-64520791D01*
X29211140Y-64520791D02*
X29260858Y-64617550D01*
X25266408Y-57935193D02*
X25305455Y-57723593D01*
X25305455Y-57723593D02*
X25346058Y-57512282D01*
X25346058Y-57512282D02*
X25383635Y-57320306D01*
X25094477Y-65172506D02*
X25070831Y-64936058D01*
X25070831Y-64936058D02*
X25047566Y-64699578D01*
X25047566Y-64699578D02*
X25025061Y-64463036D01*
X25025061Y-64463036D02*
X25003697Y-64226400D01*
X25003697Y-64226400D02*
X24983854Y-63989638D01*
X24983854Y-63989638D02*
X24965912Y-63752718D01*
X24965912Y-63752718D02*
X24959353Y-63657900D01*
X27540786Y-64248372D02*
X27375827Y-64393906D01*
X27375827Y-64393906D02*
X27220600Y-64546159D01*
X27220600Y-64546159D02*
X27071859Y-64702892D01*
X27071859Y-64702892D02*
X26926363Y-64861865D01*
X25084254Y-59155494D02*
X25111652Y-58946148D01*
X25111652Y-58946148D02*
X25139835Y-58736912D01*
X25139835Y-58736912D02*
X25166796Y-58546886D01*
X29260858Y-64617550D02*
X29358430Y-64801201D01*
X29358430Y-64801201D02*
X29410914Y-64896658D01*
X28279617Y-63860797D02*
X28081498Y-63915801D01*
X28081498Y-63915801D02*
X27891452Y-64004348D01*
X27891452Y-64004348D02*
X27710780Y-64118012D01*
X27710780Y-64118012D02*
X27540786Y-64248372D01*
X25166796Y-58546886D02*
X25198820Y-58336260D01*
X25198820Y-58336260D02*
X25233167Y-58125997D01*
X25233167Y-58125997D02*
X25266408Y-57935193D01*
X28443374Y-64185874D02*
X28655215Y-64206953D01*
X28655215Y-64206953D02*
X28865811Y-64256504D01*
X28865811Y-64256504D02*
X29075727Y-64321583D01*
X29075727Y-64321583D02*
X29117679Y-64335324D01*
X26926363Y-64861865D02*
X27110400Y-64733703D01*
X27110400Y-64733703D02*
X27297232Y-64609124D01*
X27297232Y-64609124D02*
X27489653Y-64491713D01*
X27489653Y-64491713D02*
X27690457Y-64385052D01*
X28825605Y-63701101D02*
X28903960Y-63880157D01*
X27690457Y-64385052D02*
X27895489Y-64295827D01*
X27895489Y-64295827D02*
X28107600Y-64228348D01*
X28107600Y-64228348D02*
X28323289Y-64190794D01*
X28323289Y-64190794D02*
X28443374Y-64185874D01*
D12*
X28774526Y-53289357D02*
X28933453Y-53263942D01*
D11*
X28465028Y-53424718D02*
X28464490Y-53428487D01*
X28464490Y-53428487D02*
X28463965Y-53432258D01*
X28463965Y-53432258D02*
X28463463Y-53436032D01*
X28463463Y-53436032D02*
X28462998Y-53439810D01*
X28462998Y-53439810D02*
X28462754Y-53441972D01*
D12*
X27998354Y-53806860D02*
X28133201Y-53703202D01*
X28133201Y-53703202D02*
X28233457Y-53615485D01*
X29001826Y-53180114D02*
X28828903Y-53172765D01*
X28828903Y-53172765D02*
X28780037Y-53171948D01*
X28807640Y-53342128D02*
X28774526Y-53289357D01*
X28811097Y-53605359D02*
X28836756Y-53477571D01*
X28001974Y-53724615D02*
X27860919Y-53842113D01*
X27860919Y-53842113D02*
X27739902Y-53936781D01*
X28233457Y-53615485D02*
X28370236Y-53501079D01*
X28370236Y-53501079D02*
X28465028Y-53424718D01*
X28829112Y-53405849D02*
X28807640Y-53342128D01*
D11*
X28836756Y-53477571D02*
X28836721Y-53473053D01*
X28836721Y-53473053D02*
X28836626Y-53468538D01*
X28836626Y-53468538D02*
X28836472Y-53464026D01*
X28836472Y-53464026D02*
X28836258Y-53459518D01*
X28836258Y-53459518D02*
X28835985Y-53455014D01*
X28835985Y-53455014D02*
X28835652Y-53450514D01*
X28835652Y-53450514D02*
X28835261Y-53446019D01*
X28835261Y-53446019D02*
X28834811Y-53441529D01*
X28834811Y-53441529D02*
X28834302Y-53437045D01*
X28834302Y-53437045D02*
X28833735Y-53432567D01*
X28833735Y-53432567D02*
X28833109Y-53428095D01*
X28833109Y-53428095D02*
X28832425Y-53423630D01*
X28832425Y-53423630D02*
X28831683Y-53419173D01*
X28831683Y-53419173D02*
X28830884Y-53414723D01*
X28830884Y-53414723D02*
X28830026Y-53410281D01*
X28830026Y-53410281D02*
X28829112Y-53405849D01*
X28743670Y-53696195D02*
X28749270Y-53691705D01*
X28749270Y-53691705D02*
X28754675Y-53687013D01*
X28754675Y-53687013D02*
X28759886Y-53682128D01*
X28759886Y-53682128D02*
X28764905Y-53677061D01*
X28764905Y-53677061D02*
X28769736Y-53671819D01*
X28769736Y-53671819D02*
X28774381Y-53666413D01*
X28774381Y-53666413D02*
X28778842Y-53660852D01*
X28778842Y-53660852D02*
X28783121Y-53655145D01*
X28783121Y-53655145D02*
X28787220Y-53649301D01*
X28787220Y-53649301D02*
X28791143Y-53643330D01*
X28791143Y-53643330D02*
X28794891Y-53637242D01*
X28794891Y-53637242D02*
X28798467Y-53631045D01*
X28798467Y-53631045D02*
X28801873Y-53624749D01*
X28801873Y-53624749D02*
X28805112Y-53618363D01*
X28805112Y-53618363D02*
X28808185Y-53611896D01*
X28808185Y-53611896D02*
X28811097Y-53605359D01*
D12*
X27739902Y-53936781D02*
X27896752Y-53864892D01*
X27896752Y-53864892D02*
X27998354Y-53806860D01*
X28553968Y-53696195D02*
X28648796Y-53730766D01*
D11*
X28461368Y-53459597D02*
X28461188Y-53463525D01*
X28461188Y-53463525D02*
X28461051Y-53467456D01*
X28461051Y-53467456D02*
X28460957Y-53471388D01*
X28460957Y-53471388D02*
X28460908Y-53475322D01*
X28460908Y-53475322D02*
X28460900Y-53477571D01*
X28668783Y-53310809D02*
X28671619Y-53307983D01*
X28671619Y-53307983D02*
X28674622Y-53305326D01*
X28674622Y-53305326D02*
X28677769Y-53302812D01*
X28677769Y-53302812D02*
X28681034Y-53300418D01*
X28681034Y-53300418D02*
X28684395Y-53298119D01*
X28684395Y-53298119D02*
X28687828Y-53295892D01*
X28687828Y-53295892D02*
X28691308Y-53293713D01*
X28691308Y-53293713D02*
X28694813Y-53291559D01*
X28462754Y-53441972D02*
X28462361Y-53445819D01*
X28462361Y-53445819D02*
X28462021Y-53449672D01*
X28462021Y-53449672D02*
X28461731Y-53453529D01*
X28461731Y-53453529D02*
X28461487Y-53457390D01*
X28461487Y-53457390D02*
X28461368Y-53459597D01*
D12*
X28694813Y-53291559D02*
X28686315Y-53289394D01*
D11*
X28650999Y-53342525D02*
X28652548Y-53338170D01*
X28652548Y-53338170D02*
X28654271Y-53333875D01*
X28654271Y-53333875D02*
X28656176Y-53329665D01*
X28656176Y-53329665D02*
X28658274Y-53325567D01*
X28658274Y-53325567D02*
X28660574Y-53321606D01*
X28660574Y-53321606D02*
X28663085Y-53317809D01*
X28663085Y-53317809D02*
X28665818Y-53314201D01*
X28665818Y-53314201D02*
X28668783Y-53310809D01*
D12*
X28648796Y-53730766D02*
X28794063Y-53625177D01*
X28794063Y-53625177D02*
X28811097Y-53605359D01*
X28486557Y-53605359D02*
X28553968Y-53696195D01*
X28780037Y-53171948D02*
X28605824Y-53204691D01*
X28605824Y-53204691D02*
X28542180Y-53232038D01*
X28460900Y-53477571D02*
X28486557Y-53605359D01*
X28280108Y-53444190D02*
X28159853Y-53569406D01*
X28159853Y-53569406D02*
X28038026Y-53691206D01*
X28038026Y-53691206D02*
X28001974Y-53724615D01*
X28542180Y-53232038D02*
X28395156Y-53333504D01*
X28395156Y-53333504D02*
X28280108Y-53444190D01*
D11*
X29239684Y-53120024D02*
X29232309Y-53122612D01*
X29232309Y-53122612D02*
X29224935Y-53125197D01*
X29224935Y-53125197D02*
X29217560Y-53127773D01*
X29217560Y-53127773D02*
X29210184Y-53130336D01*
X29210184Y-53130336D02*
X29202806Y-53132883D01*
X29202806Y-53132883D02*
X29195427Y-53135409D01*
X29195427Y-53135409D02*
X29188046Y-53137910D01*
X29188046Y-53137910D02*
X29180662Y-53140382D01*
X29180662Y-53140382D02*
X29173276Y-53142821D01*
X29173276Y-53142821D02*
X29165886Y-53145222D01*
X29165886Y-53145222D02*
X29158493Y-53147581D01*
X29158493Y-53147581D02*
X29151096Y-53149894D01*
X29151096Y-53149894D02*
X29143695Y-53152158D01*
X29143695Y-53152158D02*
X29136290Y-53154367D01*
X29136290Y-53154367D02*
X29128879Y-53156518D01*
X29128879Y-53156518D02*
X29121464Y-53158606D01*
X29121464Y-53158606D02*
X29114043Y-53160628D01*
X29114043Y-53160628D02*
X29106616Y-53162579D01*
X29106616Y-53162579D02*
X29099182Y-53164454D01*
X29099182Y-53164454D02*
X29091743Y-53166251D01*
X29091743Y-53166251D02*
X29084296Y-53167964D01*
X29084296Y-53167964D02*
X29076842Y-53169590D01*
X29076842Y-53169590D02*
X29069380Y-53171123D01*
X29069380Y-53171123D02*
X29061911Y-53172561D01*
X29061911Y-53172561D02*
X29054433Y-53173899D01*
X29054433Y-53173899D02*
X29046946Y-53175133D01*
X29046946Y-53175133D02*
X29039451Y-53176258D01*
X29039451Y-53176258D02*
X29031946Y-53177271D01*
X29031946Y-53177271D02*
X29024431Y-53178167D01*
X29024431Y-53178167D02*
X29016906Y-53178943D01*
X29016906Y-53178943D02*
X29009371Y-53179593D01*
X29009371Y-53179593D02*
X29001826Y-53180114D01*
X28677606Y-53288058D02*
X28673998Y-53287801D01*
X28673998Y-53287801D02*
X28670383Y-53287653D01*
X28670383Y-53287653D02*
X28668714Y-53287601D01*
X28686315Y-53289394D02*
X28682524Y-53288682D01*
X28682524Y-53288682D02*
X28678702Y-53288167D01*
X28678702Y-53288167D02*
X28677606Y-53288058D01*
X28644415Y-53382702D02*
X28644476Y-53378879D01*
X28644476Y-53378879D02*
X28644653Y-53375064D01*
X28644653Y-53375064D02*
X28644944Y-53371256D01*
X28644944Y-53371256D02*
X28645351Y-53367458D01*
X28645351Y-53367458D02*
X28645872Y-53363672D01*
X28645872Y-53363672D02*
X28646508Y-53359899D01*
X28646508Y-53359899D02*
X28647259Y-53356142D01*
X28647259Y-53356142D02*
X28648125Y-53352402D01*
X28648125Y-53352402D02*
X28649107Y-53348680D01*
X28649107Y-53348680D02*
X28650203Y-53344979D01*
X28650203Y-53344979D02*
X28650999Y-53342525D01*
D13*
X26381511Y-54831917D02*
X26501158Y-54651027D01*
X26501158Y-54651027D02*
X26628782Y-54474830D01*
X26628782Y-54474830D02*
X26764005Y-54303706D01*
X26764005Y-54303706D02*
X26906447Y-54138033D01*
X26906447Y-54138033D02*
X27055730Y-53978190D01*
X27055730Y-53978190D02*
X27211474Y-53824557D01*
X27211474Y-53824557D02*
X27373301Y-53677511D01*
X27373301Y-53677511D02*
X27540832Y-53537432D01*
X27540832Y-53537432D02*
X27713689Y-53404699D01*
X27713689Y-53404699D02*
X27891491Y-53279691D01*
X27891491Y-53279691D02*
X28012587Y-53200831D01*
X25455919Y-56987821D02*
X25527459Y-56777839D01*
X25527459Y-56777839D02*
X25599811Y-56568276D01*
X25599811Y-56568276D02*
X25673783Y-56359550D01*
X25673783Y-56359550D02*
X25750186Y-56152080D01*
X25750186Y-56152080D02*
X25829832Y-55946283D01*
X25829832Y-55946283D02*
X25913529Y-55742578D01*
X25913529Y-55742578D02*
X26002090Y-55541384D01*
X26002090Y-55541384D02*
X26096323Y-55343120D01*
X26096323Y-55343120D02*
X26197040Y-55148203D01*
X26197040Y-55148203D02*
X26305051Y-54957052D01*
X26305051Y-54957052D02*
X26381511Y-54831917D01*
D12*
X29050609Y-55297232D02*
X29043917Y-55482972D01*
X29043917Y-55482972D02*
X29048377Y-55669185D01*
X29048377Y-55669185D02*
X29062459Y-55855153D01*
X29062459Y-55855153D02*
X29073878Y-55958098D01*
D11*
X32024109Y-52126146D02*
X32028263Y-52125888D01*
X32028263Y-52125888D02*
X32032402Y-52125250D01*
X32032402Y-52125250D02*
X32036506Y-52124258D01*
X32036506Y-52124258D02*
X32040557Y-52122933D01*
X32040557Y-52122933D02*
X32044533Y-52121301D01*
X32044533Y-52121301D02*
X32048417Y-52119385D01*
X32048417Y-52119385D02*
X32052187Y-52117210D01*
X32052187Y-52117210D02*
X32055824Y-52114798D01*
X32055824Y-52114798D02*
X32059310Y-52112175D01*
X32059310Y-52112175D02*
X32062623Y-52109363D01*
X32062623Y-52109363D02*
X32064727Y-52107396D01*
X31520975Y-52115955D02*
X31522649Y-52111797D01*
X31522649Y-52111797D02*
X31524237Y-52107606D01*
X31524237Y-52107606D02*
X31525736Y-52103382D01*
X31525736Y-52103382D02*
X31527149Y-52099128D01*
X31527149Y-52099128D02*
X31528474Y-52094846D01*
X31528474Y-52094846D02*
X31529711Y-52090540D01*
X31529711Y-52090540D02*
X31530861Y-52086211D01*
X31530861Y-52086211D02*
X31531924Y-52081862D01*
X31531924Y-52081862D02*
X31532899Y-52077496D01*
X31532899Y-52077496D02*
X31533787Y-52073114D01*
X31533787Y-52073114D02*
X31534587Y-52068720D01*
X31534587Y-52068720D02*
X31535300Y-52064315D01*
X31535300Y-52064315D02*
X31535925Y-52059903D01*
X31535925Y-52059903D02*
X31536463Y-52055485D01*
X31536463Y-52055485D02*
X31536914Y-52051065D01*
X31536914Y-52051065D02*
X31537277Y-52046644D01*
X32047784Y-51870239D02*
X32044255Y-51867760D01*
X32044255Y-51867760D02*
X32040569Y-51865494D01*
X32040569Y-51865494D02*
X32036744Y-51863419D01*
X32036744Y-51863419D02*
X32032794Y-51861512D01*
X32032794Y-51861512D02*
X32028737Y-51859752D01*
X32028737Y-51859752D02*
X32024587Y-51858117D01*
X32024587Y-51858117D02*
X32020363Y-51856584D01*
X32020363Y-51856584D02*
X32016079Y-51855132D01*
X32016079Y-51855132D02*
X32011751Y-51853739D01*
X32011751Y-51853739D02*
X32007397Y-51852382D01*
X32007397Y-51852382D02*
X32004488Y-51851488D01*
X31980823Y-52107396D02*
X31984345Y-52110335D01*
X31984345Y-52110335D02*
X31988024Y-52113117D01*
X31988024Y-52113117D02*
X31991843Y-52115711D01*
X31991843Y-52115711D02*
X31995786Y-52118088D01*
X31995786Y-52118088D02*
X31999838Y-52120217D01*
X31999838Y-52120217D02*
X32003984Y-52122067D01*
X32003984Y-52122067D02*
X32008208Y-52123610D01*
X32008208Y-52123610D02*
X32012494Y-52124815D01*
X32012494Y-52124815D02*
X32016826Y-52125651D01*
X32016826Y-52125651D02*
X32021190Y-52126090D01*
X32021190Y-52126090D02*
X32024109Y-52126146D01*
D12*
X31387320Y-51977334D02*
X31377412Y-52115955D01*
X30048425Y-53318733D02*
X30167711Y-53184303D01*
X30167711Y-53184303D02*
X30300219Y-53054336D01*
X30300219Y-53054336D02*
X30452856Y-52930170D01*
X30452856Y-52930170D02*
X30604946Y-52829377D01*
X30604946Y-52829377D02*
X30750000Y-52750000D01*
X28506273Y-55589758D02*
X28614701Y-55447760D01*
X28614701Y-55447760D02*
X28717553Y-55301398D01*
X28717553Y-55301398D02*
X28816575Y-55152245D01*
X28816575Y-55152245D02*
X28836073Y-55122218D01*
D11*
X31963866Y-51870239D02*
X31960172Y-51873705D01*
X31960172Y-51873705D02*
X31956780Y-51877516D01*
X31956780Y-51877516D02*
X31953672Y-51881635D01*
X31953672Y-51881635D02*
X31950833Y-51886026D01*
X31950833Y-51886026D02*
X31948247Y-51890651D01*
X31948247Y-51890651D02*
X31945897Y-51895473D01*
X31945897Y-51895473D02*
X31944453Y-51898780D01*
X31944453Y-51898780D02*
X31943103Y-51902147D01*
X31943103Y-51902147D02*
X31941840Y-51905563D01*
X31941840Y-51905563D02*
X31940661Y-51909018D01*
X31940661Y-51909018D02*
X31939560Y-51912501D01*
X31939560Y-51912501D02*
X31938533Y-51916001D01*
X31938533Y-51916001D02*
X31937576Y-51919507D01*
D12*
X29519760Y-54035798D02*
X29629776Y-53876157D01*
X29629776Y-53876157D02*
X29741489Y-53717355D01*
X29741489Y-53717355D02*
X29856598Y-53560231D01*
X29856598Y-53560231D02*
X29976799Y-53405625D01*
X29976799Y-53405625D02*
X30048425Y-53318733D01*
X28155508Y-55983169D02*
X28279296Y-55850540D01*
X28279296Y-55850540D02*
X28400501Y-55715816D01*
X28400501Y-55715816D02*
X28506273Y-55589758D01*
X29156541Y-54613901D02*
X29123210Y-54784090D01*
X29123210Y-54784090D02*
X29092619Y-54954537D01*
X29092619Y-54954537D02*
X29067506Y-55125498D01*
X29067506Y-55125498D02*
X29050609Y-55297232D01*
X29816310Y-57679306D02*
X29663998Y-57572977D01*
X29663998Y-57572977D02*
X29521798Y-57449221D01*
X29521798Y-57449221D02*
X29387277Y-57312263D01*
X29387277Y-57312263D02*
X29258002Y-57166327D01*
X29258002Y-57166327D02*
X29131537Y-57015638D01*
X29131537Y-57015638D02*
X29005451Y-56864424D01*
X29005451Y-56864424D02*
X28954578Y-56804737D01*
X32004488Y-51851488D02*
X31963866Y-51870239D01*
X30018706Y-53139119D02*
X29849519Y-53284830D01*
X29849519Y-53284830D02*
X29694625Y-53448838D01*
X29694625Y-53448838D02*
X29586151Y-53581741D01*
X29586151Y-53581741D02*
X29482965Y-53721480D01*
X29482965Y-53721480D02*
X29383886Y-53866575D01*
X29383886Y-53866575D02*
X29287736Y-54015547D01*
X29287736Y-54015547D02*
X29193334Y-54166913D01*
X29193334Y-54166913D02*
X29099502Y-54319193D01*
X29099502Y-54319193D02*
X29005060Y-54470906D01*
X29005060Y-54470906D02*
X28908829Y-54620573D01*
X28908829Y-54620573D02*
X28781899Y-54807112D01*
X28781899Y-54807112D02*
X28650728Y-54988611D01*
X28650728Y-54988611D02*
X28515922Y-55165789D01*
X28515922Y-55165789D02*
X28378086Y-55339368D01*
X28378086Y-55339368D02*
X28237827Y-55510067D01*
X28237827Y-55510067D02*
X28095749Y-55678605D01*
X28095749Y-55678605D02*
X27952460Y-55845703D01*
X27952460Y-55845703D02*
X27808566Y-56012082D01*
D11*
X31444334Y-52183973D02*
X31448711Y-52183817D01*
X31448711Y-52183817D02*
X31453067Y-52183243D01*
X31453067Y-52183243D02*
X31457387Y-52182281D01*
X31457387Y-52182281D02*
X31461655Y-52180960D01*
X31461655Y-52180960D02*
X31465855Y-52179312D01*
X31465855Y-52179312D02*
X31469972Y-52177365D01*
X31469972Y-52177365D02*
X31473991Y-52175150D01*
X31473991Y-52175150D02*
X31477895Y-52172697D01*
X31477895Y-52172697D02*
X31481670Y-52170037D01*
X31481670Y-52170037D02*
X31485299Y-52167199D01*
X31485299Y-52167199D02*
X31487631Y-52165223D01*
D12*
X28933453Y-53263942D02*
X29090098Y-53219975D01*
X28954578Y-56804737D02*
X28834102Y-56668576D01*
X28834102Y-56668576D02*
X28711400Y-56536376D01*
X28711400Y-56536376D02*
X28586883Y-56407405D01*
X28586883Y-56407405D02*
X28460965Y-56280927D01*
X28460965Y-56280927D02*
X28334056Y-56156211D01*
X28334056Y-56156211D02*
X28206571Y-56032521D01*
X28206571Y-56032521D02*
X28155508Y-55983169D01*
D11*
X31530883Y-51977334D02*
X31529924Y-51973828D01*
X31529924Y-51973828D02*
X31528896Y-51970328D01*
X31528896Y-51970328D02*
X31527795Y-51966845D01*
X31527795Y-51966845D02*
X31526615Y-51963390D01*
X31526615Y-51963390D02*
X31525352Y-51959974D01*
X31525352Y-51959974D02*
X31524001Y-51956607D01*
X31524001Y-51956607D02*
X31522557Y-51953300D01*
X31522557Y-51953300D02*
X31520206Y-51948478D01*
X31520206Y-51948478D02*
X31517618Y-51943853D01*
X31517618Y-51943853D02*
X31514779Y-51939462D01*
X31514779Y-51939462D02*
X31511670Y-51935343D01*
X31511670Y-51935343D02*
X31508277Y-51931532D01*
X31508277Y-51931532D02*
X31504583Y-51928066D01*
D12*
X29090098Y-53219975D02*
X29235205Y-53123550D01*
X29235205Y-53123550D02*
X29239684Y-53120024D01*
X31931188Y-51988817D02*
X32024109Y-52126146D01*
D11*
X31463956Y-51909315D02*
X31459593Y-51910659D01*
X31459593Y-51910659D02*
X31455248Y-51912026D01*
X31455248Y-51912026D02*
X31450934Y-51913436D01*
X31450934Y-51913436D02*
X31446669Y-51914913D01*
X31446669Y-51914913D02*
X31442469Y-51916478D01*
X31442469Y-51916478D02*
X31438349Y-51918152D01*
X31438349Y-51918152D02*
X31434327Y-51919958D01*
X31434327Y-51919958D02*
X31430417Y-51921919D01*
X31430417Y-51921919D02*
X31426637Y-51924055D01*
X31426637Y-51924055D02*
X31423003Y-51926389D01*
X31423003Y-51926389D02*
X31420669Y-51928066D01*
D12*
X28768276Y-56878619D02*
X28889386Y-57007413D01*
X28889386Y-57007413D02*
X29009649Y-57138010D01*
X29009649Y-57138010D02*
X29130444Y-57267530D01*
X29130444Y-57267530D02*
X29253147Y-57393093D01*
X29253147Y-57393093D02*
X29379138Y-57511819D01*
X29379138Y-57511819D02*
X29509794Y-57620826D01*
X29509794Y-57620826D02*
X29681774Y-57739032D01*
X29681774Y-57739032D02*
X29790614Y-57798167D01*
X27808566Y-56012082D02*
X27961719Y-56140744D01*
X27961719Y-56140744D02*
X28114393Y-56270417D01*
X28114393Y-56270417D02*
X28266105Y-56402113D01*
X28266105Y-56402113D02*
X28416377Y-56536842D01*
X28416377Y-56536842D02*
X28564727Y-56675615D01*
X28564727Y-56675615D02*
X28710676Y-56819445D01*
X28710676Y-56819445D02*
X28768276Y-56878619D01*
X29247054Y-54859704D02*
X29296879Y-54676616D01*
X29296879Y-54676616D02*
X29353947Y-54495635D01*
X29353947Y-54495635D02*
X29416229Y-54316169D01*
X29416229Y-54316169D02*
X29481698Y-54137631D01*
X29481698Y-54137631D02*
X29519760Y-54035798D01*
X29135172Y-55715783D02*
X29143474Y-55526827D01*
X29143474Y-55526827D02*
X29160796Y-55338273D01*
X29160796Y-55338273D02*
X29187180Y-55150755D01*
X29187180Y-55150755D02*
X29222669Y-54964908D01*
X29222669Y-54964908D02*
X29247054Y-54859704D01*
X29073878Y-55958098D02*
X29099531Y-56140715D01*
X29099531Y-56140715D02*
X29130293Y-56322371D01*
X29130293Y-56322371D02*
X29164166Y-56503441D01*
X29164166Y-56503441D02*
X29183592Y-56603922D01*
X29790614Y-57798167D02*
X29964608Y-57869043D01*
X29964608Y-57869043D02*
X30148200Y-57919895D01*
X30148200Y-57919895D02*
X30339613Y-57954430D01*
X30339613Y-57954430D02*
X30537068Y-57976358D01*
X30537068Y-57976358D02*
X30738789Y-57989385D01*
X30738789Y-57989385D02*
X30942999Y-57997221D01*
X30942999Y-57997221D02*
X31024982Y-57999733D01*
D11*
X31377412Y-52115955D02*
X31378874Y-52121066D01*
X31378874Y-52121066D02*
X31380496Y-52126130D01*
X31380496Y-52126130D02*
X31382296Y-52131129D01*
X31382296Y-52131129D02*
X31384288Y-52136043D01*
X31384288Y-52136043D02*
X31386490Y-52140852D01*
X31386490Y-52140852D02*
X31388917Y-52145539D01*
X31388917Y-52145539D02*
X31391587Y-52150083D01*
X31391587Y-52150083D02*
X31394516Y-52154467D01*
X31394516Y-52154467D02*
X31397720Y-52158670D01*
X31397720Y-52158670D02*
X31401216Y-52162673D01*
X31401216Y-52162673D02*
X31403717Y-52165223D01*
X31387320Y-51977334D02*
X31385646Y-51981591D01*
X31385646Y-51981591D02*
X31384059Y-51985857D01*
X31384059Y-51985857D02*
X31382559Y-51990133D01*
X31382559Y-51990133D02*
X31381147Y-51994418D01*
X31381147Y-51994418D02*
X31379821Y-51998712D01*
X31379821Y-51998712D02*
X31378583Y-52003016D01*
X31378583Y-52003016D02*
X31377433Y-52007330D01*
X31377433Y-52007330D02*
X31376369Y-52011655D01*
X31376369Y-52011655D02*
X31375393Y-52015990D01*
X31375393Y-52015990D02*
X31374505Y-52020335D01*
X31374505Y-52020335D02*
X31373704Y-52024691D01*
X31373704Y-52024691D02*
X31372990Y-52029059D01*
X31372990Y-52029059D02*
X31372364Y-52033437D01*
X31372364Y-52033437D02*
X31371826Y-52037828D01*
X31371826Y-52037828D02*
X31371375Y-52042230D01*
X31371375Y-52042230D02*
X31371013Y-52046644D01*
X31931188Y-51988817D02*
X31931550Y-51993237D01*
X31931550Y-51993237D02*
X31932000Y-51997658D01*
X31932000Y-51997658D02*
X31932537Y-52002076D01*
X31932537Y-52002076D02*
X31933162Y-52006488D01*
X31933162Y-52006488D02*
X31933874Y-52010892D01*
X31933874Y-52010892D02*
X31934673Y-52015287D01*
X31934673Y-52015287D02*
X31935560Y-52019668D01*
X31935560Y-52019668D02*
X31936535Y-52024035D01*
X31936535Y-52024035D02*
X31937597Y-52028384D01*
X31937597Y-52028384D02*
X31938746Y-52032713D01*
X31938746Y-52032713D02*
X31939983Y-52037019D01*
X31939983Y-52037019D02*
X31941307Y-52041300D01*
X31941307Y-52041300D02*
X31942719Y-52045554D01*
X31942719Y-52045554D02*
X31944218Y-52049779D01*
X31944218Y-52049779D02*
X31945805Y-52053970D01*
X31945805Y-52053970D02*
X31947480Y-52058128D01*
X32081128Y-51919507D02*
X32079662Y-51915958D01*
X32079662Y-51915958D02*
X32078131Y-51912425D01*
X32078131Y-51912425D02*
X32076533Y-51908918D01*
X32076533Y-51908918D02*
X32074862Y-51905447D01*
X32074862Y-51905447D02*
X32073114Y-51902022D01*
X32073114Y-51902022D02*
X32071287Y-51898653D01*
X32071287Y-51898653D02*
X32069377Y-51895350D01*
X32069377Y-51895350D02*
X32067379Y-51892123D01*
X32067379Y-51892123D02*
X32065289Y-51888981D01*
X32065289Y-51888981D02*
X32063104Y-51885936D01*
X32063104Y-51885936D02*
X32060821Y-51882997D01*
X32060821Y-51882997D02*
X32058434Y-51880174D01*
X32058434Y-51880174D02*
X32055941Y-51877476D01*
X32055941Y-51877476D02*
X32053337Y-51874914D01*
X32053337Y-51874914D02*
X32050619Y-51872498D01*
X32050619Y-51872498D02*
X32047784Y-51870239D01*
D12*
X31520975Y-52115955D02*
X31510312Y-51941119D01*
X31510312Y-51941119D02*
X31504583Y-51928066D01*
X31377412Y-52115955D02*
X31444334Y-52183973D01*
X28836073Y-55122218D02*
X28937406Y-54963985D01*
X28937406Y-54963985D02*
X29037420Y-54805068D01*
X29037420Y-54805068D02*
X29136715Y-54645776D01*
X29136715Y-54645776D02*
X29156541Y-54613901D01*
X31963866Y-51870239D02*
X31931188Y-51988817D01*
X31024982Y-57999733D02*
X30822586Y-57973037D01*
X30822586Y-57973037D02*
X30622223Y-57942833D01*
X30622223Y-57942833D02*
X30425926Y-57905610D01*
X30425926Y-57905610D02*
X30235729Y-57857859D01*
X30235729Y-57857859D02*
X30053665Y-57796072D01*
X30053665Y-57796072D02*
X29881767Y-57716738D01*
X29881767Y-57716738D02*
X29816310Y-57679306D01*
X30750000Y-52750000D02*
X30576931Y-52784241D01*
X30576931Y-52784241D02*
X30417611Y-52851042D01*
X30417611Y-52851042D02*
X30237723Y-52955424D01*
X30237723Y-52955424D02*
X30090457Y-53070202D01*
X30090457Y-53070202D02*
X30018706Y-53139119D01*
X31504583Y-51928066D02*
X31463956Y-51909315D01*
X31444334Y-52183973D02*
X31520975Y-52115955D01*
D13*
X25383635Y-57320306D02*
X25455919Y-56987821D01*
X31014636Y-51777853D02*
X31133947Y-51761128D01*
D12*
X29183592Y-56603922D02*
X29166089Y-56409820D01*
X29166089Y-56409820D02*
X29150671Y-56215665D01*
X29150671Y-56215665D02*
X29139420Y-56021402D01*
X29139420Y-56021402D02*
X29134420Y-55826976D01*
X29134420Y-55826976D02*
X29135172Y-55715783D01*
D13*
X30812829Y-51903219D02*
X30980408Y-51789879D01*
X30980408Y-51789879D02*
X31014636Y-51777853D01*
D11*
X30812829Y-51903219D02*
X30815577Y-51900617D01*
X30815577Y-51900617D02*
X30818329Y-51898017D01*
X30818329Y-51898017D02*
X30821083Y-51895421D01*
X30821083Y-51895421D02*
X30823842Y-51892830D01*
X30823842Y-51892830D02*
X30826606Y-51890244D01*
X30826606Y-51890244D02*
X30829376Y-51887665D01*
X30829376Y-51887665D02*
X30832151Y-51885093D01*
X30832151Y-51885093D02*
X30834933Y-51882529D01*
X30834933Y-51882529D02*
X30837723Y-51879975D01*
X30837723Y-51879975D02*
X30840521Y-51877432D01*
X30840521Y-51877432D02*
X30843327Y-51874900D01*
X30843327Y-51874900D02*
X30846143Y-51872380D01*
X30846143Y-51872380D02*
X30848969Y-51869874D01*
X30848969Y-51869874D02*
X30851806Y-51867383D01*
X30851806Y-51867383D02*
X30854655Y-51864907D01*
X30854655Y-51864907D02*
X30857515Y-51862447D01*
X30857515Y-51862447D02*
X30860388Y-51860005D01*
X30860388Y-51860005D02*
X30863275Y-51857581D01*
X30863275Y-51857581D02*
X30866176Y-51855177D01*
X30866176Y-51855177D02*
X30869091Y-51852794D01*
X30869091Y-51852794D02*
X30872022Y-51850432D01*
X30872022Y-51850432D02*
X30874969Y-51848092D01*
X30874969Y-51848092D02*
X30877933Y-51845776D01*
X30877933Y-51845776D02*
X30880914Y-51843485D01*
X30880914Y-51843485D02*
X30883913Y-51841219D01*
X30883913Y-51841219D02*
X30886931Y-51838979D01*
X30886931Y-51838979D02*
X30889968Y-51836767D01*
X30889968Y-51836767D02*
X30893026Y-51834584D01*
X30893026Y-51834584D02*
X30896104Y-51832430D01*
X30896104Y-51832430D02*
X30899204Y-51830306D01*
X30899204Y-51830306D02*
X30902325Y-51828214D01*
X30902325Y-51828214D02*
X30905470Y-51826155D01*
D13*
X30625017Y-52071246D02*
X30778466Y-51935932D01*
X30778466Y-51935932D02*
X30812829Y-51903219D01*
X30407911Y-52196596D02*
X30586894Y-52098788D01*
X30586894Y-52098788D02*
X30625017Y-52071246D01*
D12*
X31420669Y-51928066D02*
X31387320Y-51977334D01*
D13*
X30168496Y-52275244D02*
X30363994Y-52214043D01*
X30363994Y-52214043D02*
X30407911Y-52196596D01*
X28012587Y-53200831D02*
X28200994Y-53087507D01*
X28200994Y-53087507D02*
X28393447Y-52982017D01*
X28393447Y-52982017D02*
X28589526Y-52883552D01*
X28589526Y-52883552D02*
X28788814Y-52791300D01*
X28788814Y-52791300D02*
X28990892Y-52704451D01*
X28990892Y-52704451D02*
X29195341Y-52622195D01*
X29195341Y-52622195D02*
X29401743Y-52543720D01*
X29401743Y-52543720D02*
X29609679Y-52468218D01*
X29609679Y-52468218D02*
X29818732Y-52394877D01*
X29818732Y-52394877D02*
X30028481Y-52322887D01*
X30028481Y-52322887D02*
X30168496Y-52275244D01*
X32769597Y-56128583D02*
X32583868Y-56020178D01*
X32583868Y-56020178D02*
X32393311Y-55924243D01*
X32393311Y-55924243D02*
X32211826Y-55858343D01*
X35182583Y-54851399D02*
X34983859Y-54895889D01*
X34983859Y-54895889D02*
X34813447Y-54951202D01*
X34777415Y-55233762D02*
X34959693Y-55330850D01*
X34959693Y-55330850D02*
X35062856Y-55399332D01*
X35327286Y-55620923D02*
X34788384Y-55459253D01*
X31612118Y-55840653D02*
X31408989Y-55902566D01*
X31408989Y-55902566D02*
X31213660Y-55988788D01*
X31213660Y-55988788D02*
X31039417Y-56077551D01*
X32898735Y-56228066D02*
X32769597Y-56128583D01*
X34384746Y-54862406D02*
X34586248Y-54803587D01*
X34586248Y-54803587D02*
X34793836Y-54767533D01*
X34793836Y-54767533D02*
X34984695Y-54753993D01*
X34788384Y-55459253D02*
X34590397Y-55420798D01*
X34590397Y-55420798D02*
X34390754Y-55402202D01*
X30902522Y-57332870D02*
X30967091Y-57131024D01*
X30967091Y-57131024D02*
X31012609Y-56949292D01*
D11*
X30715780Y-57107560D02*
X30716834Y-57111346D01*
X30716834Y-57111346D02*
X30717894Y-57115132D01*
X30717894Y-57115132D02*
X30718961Y-57118915D01*
X30718961Y-57118915D02*
X30720034Y-57122697D01*
X30720034Y-57122697D02*
X30721115Y-57126477D01*
X30721115Y-57126477D02*
X30722203Y-57130254D01*
X30722203Y-57130254D02*
X30723300Y-57134029D01*
X30723300Y-57134029D02*
X30724406Y-57137801D01*
X30724406Y-57137801D02*
X30725520Y-57141571D01*
X30725520Y-57141571D02*
X30726644Y-57145337D01*
X30726644Y-57145337D02*
X30727779Y-57149101D01*
X30727779Y-57149101D02*
X30728924Y-57152861D01*
X30728924Y-57152861D02*
X30730081Y-57156618D01*
X30730081Y-57156618D02*
X30731249Y-57160371D01*
X30731249Y-57160371D02*
X30732429Y-57164121D01*
X30732429Y-57164121D02*
X30733623Y-57167867D01*
D13*
X30614191Y-56628847D02*
X30650763Y-56831419D01*
X30650763Y-56831419D02*
X30658499Y-56868761D01*
X32211826Y-55858343D02*
X32007851Y-55819506D01*
X32007851Y-55819506D02*
X31799066Y-55814910D01*
X31799066Y-55814910D02*
X31612118Y-55840653D01*
X34390754Y-55402202D02*
X34184520Y-55420693D01*
X34184520Y-55420693D02*
X34008636Y-55470167D01*
X34813447Y-54951202D02*
X34620676Y-55038252D01*
X34620676Y-55038252D02*
X34474420Y-55114957D01*
X34008636Y-55470167D02*
X33827646Y-55556461D01*
X33827646Y-55556461D02*
X33655060Y-55660822D01*
X30754599Y-57670042D02*
X30841693Y-57481865D01*
X30841693Y-57481865D02*
X30902522Y-57332870D01*
D11*
X30754416Y-57226782D02*
X30755825Y-57230400D01*
X30755825Y-57230400D02*
X30757249Y-57234013D01*
X30757249Y-57234013D02*
X30758684Y-57237621D01*
X30758684Y-57237621D02*
X30760132Y-57241225D01*
X30760132Y-57241225D02*
X30761589Y-57244824D01*
X30761589Y-57244824D02*
X30763057Y-57248419D01*
X30763057Y-57248419D02*
X30764533Y-57252011D01*
X30764533Y-57252011D02*
X30766018Y-57255600D01*
X30766018Y-57255600D02*
X30767509Y-57259186D01*
X30767509Y-57259186D02*
X30769006Y-57262769D01*
X30769006Y-57262769D02*
X30770509Y-57266350D01*
X30770509Y-57266350D02*
X30772017Y-57269930D01*
X30772017Y-57269930D02*
X30773528Y-57273508D01*
X30773528Y-57273508D02*
X30775041Y-57277085D01*
X30775041Y-57277085D02*
X30776556Y-57280661D01*
X30776556Y-57280661D02*
X30778073Y-57284238D01*
D13*
X30733623Y-57167867D02*
X30754416Y-57226782D01*
X34474420Y-55114957D02*
X34665165Y-55185854D01*
X34665165Y-55185854D02*
X34777415Y-55233762D01*
X30658499Y-56868761D02*
X30705753Y-57070521D01*
X30705753Y-57070521D02*
X30715780Y-57107560D01*
X30582705Y-56388298D02*
X30608606Y-56591361D01*
X30608606Y-56591361D02*
X30614191Y-56628847D01*
X30778073Y-57284238D02*
X30754599Y-57670042D01*
X31039417Y-56077551D02*
X30250000Y-56500000D01*
X34984695Y-54753993D02*
X35187460Y-54758106D01*
X35187460Y-54758106D02*
X35389590Y-54775485D01*
X35389590Y-54775485D02*
X35573073Y-54796949D01*
X33655060Y-55660822D02*
X32898735Y-56228066D01*
X35062856Y-55399332D02*
X35222472Y-55527519D01*
X35222472Y-55527519D02*
X35327286Y-55620923D01*
X35573073Y-54796949D02*
X35365269Y-54822658D01*
X35365269Y-54822658D02*
X35182583Y-54851399D01*
X33818763Y-55146262D02*
X34008793Y-55037904D01*
X34008793Y-55037904D02*
X34202463Y-54938215D01*
X34202463Y-54938215D02*
X34384746Y-54862406D01*
X31481186Y-52786904D02*
X31481441Y-52915255D01*
D11*
X32877843Y-55741213D02*
X32927670Y-55779948D01*
X29805742Y-56231665D02*
X29805785Y-56231665D01*
D13*
X31845077Y-52696392D02*
X31809501Y-52734009D01*
X31473028Y-53041606D02*
X31452399Y-53165130D01*
X31572647Y-53797256D02*
X31569230Y-53596409D01*
X31569230Y-53596409D02*
X31559718Y-53395873D01*
X31559718Y-53395873D02*
X31548692Y-53262590D01*
X32210361Y-52034574D02*
X32185060Y-52152350D01*
X32281429Y-53122940D02*
X32282580Y-53339687D01*
X32282580Y-53339687D02*
X32269575Y-53555959D01*
X32269575Y-53555959D02*
X32243794Y-53750802D01*
X32185060Y-52152350D02*
X32250105Y-52448704D01*
X31481441Y-52915255D02*
X31473028Y-53041606D01*
X32243794Y-53750802D02*
X32201767Y-53953370D01*
X32201767Y-53953370D02*
X32148924Y-54153798D01*
X32148924Y-54153798D02*
X32096266Y-54335094D01*
X31751395Y-53355537D02*
X31740360Y-53564315D01*
X31740360Y-53564315D02*
X31714814Y-53771716D01*
X31714814Y-53771716D02*
X31697653Y-53866502D01*
X31681760Y-52416531D02*
X31702798Y-52551087D01*
D11*
X31917620Y-52622207D02*
X31914189Y-52625659D01*
X31914189Y-52625659D02*
X31910759Y-52629112D01*
X31910759Y-52629112D02*
X31907330Y-52632566D01*
X31907330Y-52632566D02*
X31903902Y-52636021D01*
X31903902Y-52636021D02*
X31900476Y-52639478D01*
X31900476Y-52639478D02*
X31897052Y-52642937D01*
X31897052Y-52642937D02*
X31893630Y-52646398D01*
X31893630Y-52646398D02*
X31890211Y-52649863D01*
X31890211Y-52649863D02*
X31886796Y-52653330D01*
X31886796Y-52653330D02*
X31883384Y-52656801D01*
X31883384Y-52656801D02*
X31881113Y-52659118D01*
D13*
X32105537Y-52470421D02*
X31958345Y-52581461D01*
X31186844Y-51763103D02*
X31391763Y-51792468D01*
X31391763Y-51792468D02*
X31464475Y-51798162D01*
X31133947Y-51761128D02*
X31186844Y-51763103D01*
D11*
X31809501Y-52734009D02*
X31807467Y-52727434D01*
X31807467Y-52727434D02*
X31805431Y-52720859D01*
X31805431Y-52720859D02*
X31803391Y-52714286D01*
X31803391Y-52714286D02*
X31801347Y-52707714D01*
X31801347Y-52707714D02*
X31799295Y-52701145D01*
X31799295Y-52701145D02*
X31797234Y-52694579D01*
X31797234Y-52694579D02*
X31795162Y-52688016D01*
X31795162Y-52688016D02*
X31793078Y-52681457D01*
X31793078Y-52681457D02*
X31790980Y-52674903D01*
X31790980Y-52674903D02*
X31788865Y-52668354D01*
X31788865Y-52668354D02*
X31786732Y-52661810D01*
X31786732Y-52661810D02*
X31784580Y-52655274D01*
X31784580Y-52655274D02*
X31782406Y-52648744D01*
X31782406Y-52648744D02*
X31780209Y-52642221D01*
X31780209Y-52642221D02*
X31777987Y-52635707D01*
X31777987Y-52635707D02*
X31775739Y-52629202D01*
X31881113Y-52659118D02*
X31877713Y-52662591D01*
X31877713Y-52662591D02*
X31874317Y-52666069D01*
X31874317Y-52666069D02*
X31870927Y-52669552D01*
X31870927Y-52669552D02*
X31867540Y-52673038D01*
X31867540Y-52673038D02*
X31864158Y-52676529D01*
X31864158Y-52676529D02*
X31860781Y-52680025D01*
X31860781Y-52680025D02*
X31857407Y-52683524D01*
X31857407Y-52683524D02*
X31854039Y-52687028D01*
X31854039Y-52687028D02*
X31850674Y-52690536D01*
X31850674Y-52690536D02*
X31847314Y-52694048D01*
X31847314Y-52694048D02*
X31845077Y-52696392D01*
X31237281Y-51768572D02*
X31241797Y-51769255D01*
X31241797Y-51769255D02*
X31246308Y-51769969D01*
X31246308Y-51769969D02*
X31250815Y-51770711D01*
X31250815Y-51770711D02*
X31255319Y-51771475D01*
X31255319Y-51771475D02*
X31259820Y-51772259D01*
X31259820Y-51772259D02*
X31264319Y-51773057D01*
X31264319Y-51773057D02*
X31268817Y-51773866D01*
X31268817Y-51773866D02*
X31273314Y-51774681D01*
X31273314Y-51774681D02*
X31277812Y-51775499D01*
X31277812Y-51775499D02*
X31282310Y-51776314D01*
X31282310Y-51776314D02*
X31285310Y-51776855D01*
D13*
X32121941Y-51817939D02*
X32188433Y-51918387D01*
X32188433Y-51918387D02*
X32210361Y-52034574D01*
X31004633Y-53917669D02*
X30913470Y-54115124D01*
X30913470Y-54115124D02*
X30833398Y-54317625D01*
X30833398Y-54317625D02*
X30764734Y-54524277D01*
X30764734Y-54524277D02*
X30707794Y-54734181D01*
X31548692Y-53262590D02*
X31523006Y-53054072D01*
X31523006Y-53054072D02*
X31490855Y-52846235D01*
X31490855Y-52846235D02*
X31481186Y-52786904D01*
D11*
X31452399Y-53165130D02*
X31452484Y-53165152D01*
D13*
X31720285Y-52684260D02*
X31734169Y-52816008D01*
X31702798Y-52551087D02*
X31720285Y-52684260D01*
D11*
X31775739Y-52629202D02*
X31773378Y-52622470D01*
X31773378Y-52622470D02*
X31770986Y-52615749D01*
X31770986Y-52615749D02*
X31768562Y-52609039D01*
X31768562Y-52609039D02*
X31766106Y-52602341D01*
X31766106Y-52602341D02*
X31763616Y-52595655D01*
X31763616Y-52595655D02*
X31761093Y-52588981D01*
X31761093Y-52588981D02*
X31758535Y-52582321D01*
X31758535Y-52582321D02*
X31755943Y-52575674D01*
X31755943Y-52575674D02*
X31753315Y-52569042D01*
X31753315Y-52569042D02*
X31750652Y-52562424D01*
X31750652Y-52562424D02*
X31747951Y-52555822D01*
X31747951Y-52555822D02*
X31745214Y-52549235D01*
X31745214Y-52549235D02*
X31742438Y-52542665D01*
X31742438Y-52542665D02*
X31739625Y-52536112D01*
X31739625Y-52536112D02*
X31736772Y-52529576D01*
X31736772Y-52529576D02*
X31733881Y-52523059D01*
X31734169Y-52816008D02*
X31734211Y-52816411D01*
X31733881Y-52523059D02*
X31732362Y-52519678D01*
X31732362Y-52519678D02*
X31730833Y-52516303D01*
X31730833Y-52516303D02*
X31729293Y-52512933D01*
X31729293Y-52512933D02*
X31727744Y-52509567D01*
X31727744Y-52509567D02*
X31726186Y-52506205D01*
X31726186Y-52506205D02*
X31724618Y-52502848D01*
X31724618Y-52502848D02*
X31723041Y-52499495D01*
X31723041Y-52499495D02*
X31721457Y-52496146D01*
X31721457Y-52496146D02*
X31719863Y-52492800D01*
X31719863Y-52492800D02*
X31718263Y-52489458D01*
X31718263Y-52489458D02*
X31716654Y-52486120D01*
X31716654Y-52486120D02*
X31715039Y-52482784D01*
X31715039Y-52482784D02*
X31713417Y-52479452D01*
X31713417Y-52479452D02*
X31711788Y-52476123D01*
X31711788Y-52476123D02*
X31710153Y-52472797D01*
X31710153Y-52472797D02*
X31708513Y-52469474D01*
X31708513Y-52469474D02*
X31706867Y-52466152D01*
X31706867Y-52466152D02*
X31705216Y-52462834D01*
X31705216Y-52462834D02*
X31703561Y-52459517D01*
X31703561Y-52459517D02*
X31701900Y-52456203D01*
X31701900Y-52456203D02*
X31700236Y-52452890D01*
X31700236Y-52452890D02*
X31698568Y-52449579D01*
X31698568Y-52449579D02*
X31696897Y-52446270D01*
X31696897Y-52446270D02*
X31695223Y-52442962D01*
X31695223Y-52442962D02*
X31693546Y-52439655D01*
X31693546Y-52439655D02*
X31691867Y-52436350D01*
X31691867Y-52436350D02*
X31690185Y-52433045D01*
X31690185Y-52433045D02*
X31688502Y-52429741D01*
X31688502Y-52429741D02*
X31686818Y-52426438D01*
X31686818Y-52426438D02*
X31685132Y-52423135D01*
X31685132Y-52423135D02*
X31683446Y-52419833D01*
X31683446Y-52419833D02*
X31681760Y-52416531D01*
D13*
X31923329Y-51729884D02*
X32029823Y-51754963D01*
X31958302Y-52581482D02*
X31917620Y-52622207D01*
D11*
X31958345Y-52581461D02*
X31958345Y-52581525D01*
D13*
X32218969Y-52455393D02*
X32243985Y-52663488D01*
X32243985Y-52663488D02*
X32265432Y-52871916D01*
X32265432Y-52871916D02*
X32279738Y-53081011D01*
X32279738Y-53081011D02*
X32281429Y-53122940D01*
X31638386Y-51787615D02*
X31813671Y-51744830D01*
X31813671Y-51744830D02*
X31923329Y-51729884D01*
D11*
X31958345Y-52581525D02*
X31958302Y-52581482D01*
D13*
X31464475Y-51798162D02*
X31638386Y-51787615D01*
D11*
X32250105Y-52448704D02*
X32218969Y-52455393D01*
D13*
X30707794Y-54734181D02*
X30662328Y-54949023D01*
X30662328Y-54949023D02*
X30630061Y-55150132D01*
X30630061Y-55150132D02*
X30602694Y-55373473D01*
X30602694Y-55373473D02*
X30581608Y-55589831D01*
X30581608Y-55589831D02*
X30568100Y-55750000D01*
X32218591Y-55410870D02*
X32412225Y-55483565D01*
X32412225Y-55483565D02*
X32597789Y-55576106D01*
X32597789Y-55576106D02*
X32778441Y-55680728D01*
X32778441Y-55680728D02*
X32877843Y-55741213D01*
X32029823Y-51754963D02*
X32121941Y-51817939D01*
X31452484Y-53165152D02*
X31333680Y-53349507D01*
X31333680Y-53349507D02*
X31217613Y-53535372D01*
X31217613Y-53535372D02*
X31107018Y-53724256D01*
X31107018Y-53724256D02*
X31004633Y-53917669D01*
D11*
X31734211Y-52816411D02*
X31734190Y-52816453D01*
D13*
X31506272Y-55369432D02*
X31706898Y-55347285D01*
X31706898Y-55347285D02*
X31909919Y-55351744D01*
X31909919Y-55351744D02*
X32110284Y-55382514D01*
X32110284Y-55382514D02*
X32218591Y-55410870D01*
X29805785Y-56231665D02*
X30813167Y-55621114D01*
X32100892Y-53743408D02*
X32096383Y-53529058D01*
X32096383Y-53529058D02*
X32084366Y-53315182D01*
X32084366Y-53315182D02*
X32070418Y-53173218D01*
X32070418Y-53173218D02*
X32041241Y-52971870D01*
X32041241Y-52971870D02*
X32004834Y-52771421D01*
X32004834Y-52771421D02*
X31986962Y-52679039D01*
X31697653Y-53866502D02*
X31650948Y-54063172D01*
X31650948Y-54063172D02*
X31594743Y-54257683D01*
X31594743Y-54257683D02*
X31567397Y-54347138D01*
X32927670Y-55779948D02*
X33818763Y-55146262D01*
X30813167Y-55621114D02*
X31003763Y-55534650D01*
X31003763Y-55534650D02*
X31196596Y-55456266D01*
X31196596Y-55456266D02*
X31393902Y-55394043D01*
X31393902Y-55394043D02*
X31506272Y-55369432D01*
X32096266Y-54335094D02*
X32099372Y-54131796D01*
X32099372Y-54131796D02*
X32101260Y-53928423D01*
X32101260Y-53928423D02*
X32100892Y-53743408D01*
D11*
X31186844Y-51763103D02*
X31191588Y-51763472D01*
X31191588Y-51763472D02*
X31196330Y-51763868D01*
X31196330Y-51763868D02*
X31201070Y-51764290D01*
X31201070Y-51764290D02*
X31205807Y-51764741D01*
X31205807Y-51764741D02*
X31210541Y-51765222D01*
X31210541Y-51765222D02*
X31215270Y-51765734D01*
X31215270Y-51765734D02*
X31219996Y-51766278D01*
X31219996Y-51766278D02*
X31224717Y-51766856D01*
X31224717Y-51766856D02*
X31229433Y-51767469D01*
X31229433Y-51767469D02*
X31234143Y-51768118D01*
X31234143Y-51768118D02*
X31237281Y-51768572D01*
X30254496Y-55855111D02*
X29805742Y-56231665D01*
D13*
X31567397Y-54347138D02*
X31570762Y-54140998D01*
X31570762Y-54140998D02*
X31572756Y-53934794D01*
X31572756Y-53934794D02*
X31572647Y-53797256D01*
X31734190Y-52816453D02*
X31745227Y-53018492D01*
X31745227Y-53018492D02*
X31751762Y-53220646D01*
X31751762Y-53220646D02*
X31751395Y-53355537D01*
D11*
X31986962Y-52679039D02*
X32105537Y-52470421D01*
D13*
X28472122Y-62784755D02*
X28526559Y-62939979D01*
X28072228Y-63260919D02*
X28279669Y-63267535D01*
X28279669Y-63267535D02*
X28487665Y-63299713D01*
X28487665Y-63299713D02*
X28676990Y-63339879D01*
X28262400Y-62118545D02*
X28056914Y-62093894D01*
X28056914Y-62093894D02*
X27854175Y-62086527D01*
X27854175Y-62086527D02*
X27721898Y-62099753D01*
X27081160Y-62435108D02*
X26920791Y-62577530D01*
X26920791Y-62577530D02*
X26770688Y-62727002D01*
X26770688Y-62727002D02*
X26626834Y-62880765D01*
X26626834Y-62880765D02*
X26548137Y-62967029D01*
X27409869Y-63460736D02*
X27609939Y-63369886D01*
X27609939Y-63369886D02*
X27817495Y-63301395D01*
X27817495Y-63301395D02*
X28029542Y-63263927D01*
X28029542Y-63263927D02*
X28072228Y-63260919D01*
X26548137Y-62967029D02*
X26719482Y-62847385D01*
X26719482Y-62847385D02*
X26893853Y-62731674D01*
X26893853Y-62731674D02*
X27074273Y-62623827D01*
X27074273Y-62623827D02*
X27178233Y-62568757D01*
X26741790Y-63884708D02*
X26923628Y-63757548D01*
X26923628Y-63757548D02*
X27108588Y-63634469D01*
X27108588Y-63634469D02*
X27299795Y-63519551D01*
X27299795Y-63519551D02*
X27409869Y-63460736D01*
X26973944Y-61532008D02*
X26819629Y-61672205D01*
X26819629Y-61672205D02*
X26675270Y-61820076D01*
X26675270Y-61820076D02*
X26536341Y-61972135D01*
X26536341Y-61972135D02*
X26508809Y-62002742D01*
X27286926Y-63333478D02*
X27123515Y-63480772D01*
X27123515Y-63480772D02*
X26970012Y-63635665D01*
X26970012Y-63635665D02*
X26822540Y-63795183D01*
X26822540Y-63795183D02*
X26741790Y-63884708D01*
X28419622Y-62628901D02*
X28472122Y-62784755D01*
X28154009Y-61715747D02*
X28204913Y-61911287D01*
X28204913Y-61911287D02*
X28206615Y-61917579D01*
X27802046Y-62386163D02*
X28014545Y-62398200D01*
X28014545Y-62398200D02*
X28227214Y-62438373D01*
X28227214Y-62438373D02*
X28369037Y-62472450D01*
X27178233Y-62568757D02*
X27366812Y-62484252D01*
X27366812Y-62484252D02*
X27562407Y-62421318D01*
X27562407Y-62421318D02*
X27761938Y-62388400D01*
X27761938Y-62388400D02*
X27802046Y-62386163D01*
X28369037Y-62472450D02*
X28419622Y-62628901D01*
X27721898Y-62099753D02*
X27529108Y-62155199D01*
X27529108Y-62155199D02*
X27345318Y-62246508D01*
X27345318Y-62246508D02*
X27172162Y-62363186D01*
X27172162Y-62363186D02*
X27081160Y-62435108D01*
X27601500Y-61474547D02*
X27804882Y-61474178D01*
X27804882Y-61474178D02*
X28009772Y-61498337D01*
X28009772Y-61498337D02*
X28104560Y-61513116D01*
X28206615Y-61917579D02*
X28260636Y-62112270D01*
X28260636Y-62112270D02*
X28262400Y-62118545D01*
X28033208Y-61192802D02*
X27828631Y-61189148D01*
X27828631Y-61189148D02*
X27627848Y-61202943D01*
X27627848Y-61202943D02*
X27537508Y-61220024D01*
X28104560Y-61513116D02*
X28152426Y-61709424D01*
X28152426Y-61709424D02*
X28154009Y-61715747D01*
X27537508Y-61220024D02*
X27330755Y-61294512D01*
X27330755Y-61294512D02*
X27154109Y-61395882D01*
X27154109Y-61395882D02*
X26989664Y-61518902D01*
X26989664Y-61518902D02*
X26973944Y-61532008D01*
X27056559Y-61651478D02*
X27254555Y-61560787D01*
X27254555Y-61560787D02*
X27460923Y-61496817D01*
X27460923Y-61496817D02*
X27601500Y-61474547D01*
X27957779Y-60804993D02*
X27994082Y-60999191D01*
X28749955Y-63520996D02*
X28825605Y-63701101D01*
X28676990Y-63339879D02*
X28749955Y-63520996D01*
X26508809Y-62002742D02*
X26674927Y-61886282D01*
X26674927Y-61886282D02*
X26844327Y-61774166D01*
X26844327Y-61774166D02*
X27020290Y-61670738D01*
X27020290Y-61670738D02*
X27056559Y-61651478D01*
X27947133Y-62969098D02*
X27747906Y-63036131D01*
X27747906Y-63036131D02*
X27558657Y-63135422D01*
X27558657Y-63135422D02*
X27380584Y-63258263D01*
X27380584Y-63258263D02*
X27286926Y-63333478D01*
X27994082Y-60999191D02*
X28033208Y-61192802D01*
X28526559Y-62939979D02*
X28324062Y-62934500D01*
X28324062Y-62934500D02*
X28106293Y-62943156D01*
X28106293Y-62943156D02*
X27947133Y-62969098D01*
X30806288Y-58898700D02*
X30608938Y-58972592D01*
X30608938Y-58972592D02*
X30410605Y-59040014D01*
X30410605Y-59040014D02*
X30210307Y-59094496D01*
X30210307Y-59094496D02*
X30007061Y-59129569D01*
X30007061Y-59129569D02*
X29889219Y-59138406D01*
X26550994Y-61083455D02*
X26721897Y-60963183D01*
X26721897Y-60963183D02*
X26897167Y-60848813D01*
X26897167Y-60848813D02*
X27018598Y-60778758D01*
X27759424Y-58964706D02*
X27768351Y-59162337D01*
X31206274Y-57797846D02*
X31304750Y-57622103D01*
X31304750Y-57622103D02*
X31392409Y-57441618D01*
X27377790Y-58525938D02*
X27184092Y-58586458D01*
X27184092Y-58586458D02*
X27004111Y-58695654D01*
X27004111Y-58695654D02*
X26926823Y-58755661D01*
X29000462Y-58900259D02*
X28833148Y-58779320D01*
X28833148Y-58779320D02*
X28680426Y-58640125D01*
X28680426Y-58640125D02*
X28538212Y-58487785D01*
X28538212Y-58487785D02*
X28402418Y-58327412D01*
X28402418Y-58327412D02*
X28326132Y-58234132D01*
X31744390Y-58309543D02*
X31744021Y-58437161D01*
X26944325Y-59741153D02*
X27132940Y-59655392D01*
X27132940Y-59655392D02*
X27330370Y-59600165D01*
X27330370Y-59600165D02*
X27387867Y-59591914D01*
X26948866Y-60674046D02*
X26792059Y-60821144D01*
X26792059Y-60821144D02*
X26645782Y-60977145D01*
X26645782Y-60977145D02*
X26550994Y-61083455D01*
X27434641Y-60388100D02*
X27240655Y-60470208D01*
X27240655Y-60470208D02*
X27060509Y-60584963D01*
X27060509Y-60584963D02*
X26948866Y-60674046D01*
X27822350Y-59849624D02*
X27844815Y-60049385D01*
X27844815Y-60049385D02*
X27849372Y-60086332D01*
X27799571Y-59612333D02*
X27818582Y-59812567D01*
X27818582Y-59812567D02*
X27822350Y-59849624D01*
X27387867Y-59591914D02*
X27592723Y-59589919D01*
X27592723Y-59589919D02*
X27799571Y-59612333D01*
X26499263Y-60028130D02*
X26675299Y-59905185D01*
X26675299Y-59905185D02*
X26856993Y-59789784D01*
X26856993Y-59789784D02*
X26944325Y-59741153D01*
X27366908Y-59372990D02*
X27177447Y-59440880D01*
X27177447Y-59440880D02*
X27001151Y-59547388D01*
X27001151Y-59547388D02*
X26892013Y-59632142D01*
X27780203Y-59359667D02*
X27570705Y-59352249D01*
X27570705Y-59352249D02*
X27366908Y-59372990D01*
X31093477Y-56553164D02*
X31137028Y-56794953D01*
X31137028Y-56794953D02*
X31154623Y-57000409D01*
X31154623Y-57000409D02*
X31150015Y-57212344D01*
X31150015Y-57212344D02*
X31122222Y-57411334D01*
X31122222Y-57411334D02*
X31080689Y-57625289D01*
X31080689Y-57625289D02*
X31079009Y-57698302D01*
X27750295Y-58555759D02*
X27550396Y-58524533D01*
X27550396Y-58524533D02*
X27377790Y-58525938D01*
X27749912Y-58444231D02*
X27750000Y-58500000D01*
X27979233Y-58091596D02*
X27860195Y-58153636D01*
X31392409Y-57441618D02*
X31464179Y-57243898D01*
X31464179Y-57243898D02*
X31519679Y-57040188D01*
X31519679Y-57040188D02*
X31526253Y-57012812D01*
D11*
X31140929Y-57750141D02*
X31144939Y-57753220D01*
X31144939Y-57753220D02*
X31148964Y-57756281D01*
X31148964Y-57756281D02*
X31153003Y-57759323D01*
X31153003Y-57759323D02*
X31157053Y-57762350D01*
X31157053Y-57762350D02*
X31161115Y-57765361D01*
X31161115Y-57765361D02*
X31165187Y-57768359D01*
X31165187Y-57768359D02*
X31169269Y-57771343D01*
X31169269Y-57771343D02*
X31173359Y-57774317D01*
X31173359Y-57774317D02*
X31177457Y-57777280D01*
X31177457Y-57777280D02*
X31181561Y-57780234D01*
X31181561Y-57780234D02*
X31185671Y-57783181D01*
X31185671Y-57783181D02*
X31189786Y-57786122D01*
X31189786Y-57786122D02*
X31193905Y-57789057D01*
X31193905Y-57789057D02*
X31198026Y-57791989D01*
X31198026Y-57791989D02*
X31202149Y-57794918D01*
X31202149Y-57794918D02*
X31206274Y-57797846D01*
D13*
X29889219Y-59138406D02*
X29686522Y-59131834D01*
X29686522Y-59131834D02*
X29484369Y-59098673D01*
X29484369Y-59098673D02*
X29287536Y-59040202D01*
X29287536Y-59040202D02*
X29100798Y-58957699D01*
X29100798Y-58957699D02*
X29000462Y-58900259D01*
D11*
X31525007Y-57952122D02*
X31529660Y-57953550D01*
X31529660Y-57953550D02*
X31534321Y-57954959D01*
X31534321Y-57954959D02*
X31538986Y-57956349D01*
X31538986Y-57956349D02*
X31543656Y-57957723D01*
X31543656Y-57957723D02*
X31548331Y-57959084D01*
X31548331Y-57959084D02*
X31553009Y-57960432D01*
X31553009Y-57960432D02*
X31557690Y-57961771D01*
X31557690Y-57961771D02*
X31562373Y-57963101D01*
X31562373Y-57963101D02*
X31567058Y-57964427D01*
X31567058Y-57964427D02*
X31571744Y-57965748D01*
X31571744Y-57965748D02*
X31574869Y-57966629D01*
D13*
X30987668Y-58814989D02*
X30806288Y-58898700D01*
X31616536Y-58657966D02*
X31506194Y-58722093D01*
X27768351Y-59162337D02*
X27780203Y-59359667D01*
X27753427Y-58766811D02*
X27759424Y-58964706D01*
X27374800Y-58733237D02*
X27575330Y-58739350D01*
X27575330Y-58739350D02*
X27753427Y-58766811D01*
X27779939Y-58257613D02*
X27750083Y-58388458D01*
X31378824Y-58745285D02*
X31179918Y-58763479D01*
X31620568Y-56561546D02*
X31659675Y-56769341D01*
X31659675Y-56769341D02*
X31680033Y-56978136D01*
X31526253Y-57012812D02*
X31569906Y-56815683D01*
X31569906Y-56815683D02*
X31609543Y-56618050D01*
X31609543Y-56618050D02*
X31620568Y-56561546D01*
X31428100Y-57917078D02*
X31700789Y-58187650D01*
X31428100Y-57917078D02*
X31587567Y-58067431D01*
X31587567Y-58067431D02*
X31700789Y-58187650D01*
X31093477Y-56553164D02*
X31134763Y-56755372D01*
X31134763Y-56755372D02*
X31151675Y-56894853D01*
X31012609Y-56949292D02*
X31054801Y-56751504D01*
X31054801Y-56751504D02*
X31093477Y-56553164D01*
X26963679Y-58864570D02*
X27151548Y-58782547D01*
X27151548Y-58782547D02*
X27348197Y-58735881D01*
X27348197Y-58735881D02*
X27374800Y-58733237D01*
X26550127Y-59129163D02*
X26726193Y-59006984D01*
X26726193Y-59006984D02*
X26909166Y-58893922D01*
X26909166Y-58893922D02*
X26963679Y-58864570D01*
X31700789Y-58187650D02*
X31744390Y-58309543D01*
D11*
X31444059Y-57903616D02*
X31428100Y-57917078D01*
D13*
X31699710Y-58558786D02*
X31616536Y-58657966D01*
X28234817Y-58135734D02*
X28113319Y-58085812D01*
X31617470Y-57426461D02*
X31554215Y-57623088D01*
X31554215Y-57623088D02*
X31479958Y-57815459D01*
X31479958Y-57815459D02*
X31444059Y-57903616D01*
X28113319Y-58085812D02*
X27979233Y-58091596D01*
X26926823Y-58755661D02*
X26777192Y-58890348D01*
X26777192Y-58890348D02*
X26627952Y-59044519D01*
X26627952Y-59044519D02*
X26550127Y-59129163D01*
D11*
X31476071Y-57935592D02*
X31480621Y-57937247D01*
X31480621Y-57937247D02*
X31485180Y-57938881D01*
X31485180Y-57938881D02*
X31489747Y-57940493D01*
X31489747Y-57940493D02*
X31494321Y-57942083D01*
X31494321Y-57942083D02*
X31498904Y-57943651D01*
X31498904Y-57943651D02*
X31503493Y-57945197D01*
X31503493Y-57945197D02*
X31508090Y-57946721D01*
X31508090Y-57946721D02*
X31512695Y-57948224D01*
X31512695Y-57948224D02*
X31517306Y-57949704D01*
X31517306Y-57949704D02*
X31521924Y-57951162D01*
X31521924Y-57951162D02*
X31525007Y-57952122D01*
D13*
X28326132Y-58234132D02*
X28234817Y-58135734D01*
X31680033Y-56978136D02*
X31667179Y-57189805D01*
X31667179Y-57189805D02*
X31624870Y-57398998D01*
X31624870Y-57398998D02*
X31617470Y-57426461D01*
X27860195Y-58153636D02*
X27779939Y-58257613D01*
X31506194Y-58722093D02*
X31378824Y-58745285D01*
X27924369Y-60610212D02*
X27957779Y-60804993D01*
X27486074Y-60610815D02*
X27690080Y-60598507D01*
X27690080Y-60598507D02*
X27896739Y-60608286D01*
X27896739Y-60608286D02*
X27924369Y-60610212D01*
X26892013Y-59632142D02*
X26736668Y-59774589D01*
X26736668Y-59774589D02*
X26592488Y-59925410D01*
X26592488Y-59925410D02*
X26499263Y-60028130D01*
D11*
X31020706Y-57642525D02*
X31024304Y-57646059D01*
X31024304Y-57646059D02*
X31027904Y-57649593D01*
X31027904Y-57649593D02*
X31031505Y-57653124D01*
X31031505Y-57653124D02*
X31035110Y-57656652D01*
X31035110Y-57656652D02*
X31038719Y-57660175D01*
X31038719Y-57660175D02*
X31042334Y-57663693D01*
X31042334Y-57663693D02*
X31045955Y-57667203D01*
X31045955Y-57667203D02*
X31049583Y-57670706D01*
X31049583Y-57670706D02*
X31053220Y-57674199D01*
X31053220Y-57674199D02*
X31056867Y-57677683D01*
X31056867Y-57677683D02*
X31060524Y-57681154D01*
X31060524Y-57681154D02*
X31064193Y-57684613D01*
X31064193Y-57684613D02*
X31067875Y-57688059D01*
X31067875Y-57688059D02*
X31071571Y-57691489D01*
X31071571Y-57691489D02*
X31075282Y-57694904D01*
X31075282Y-57694904D02*
X31079009Y-57698302D01*
D13*
X27018598Y-60778758D02*
X27202656Y-60691113D01*
X27202656Y-60691113D02*
X27395100Y-60628448D01*
X27395100Y-60628448D02*
X27486074Y-60610815D01*
X27880575Y-60322367D02*
X27668137Y-60341009D01*
X27668137Y-60341009D02*
X27461454Y-60380214D01*
X27461454Y-60380214D02*
X27434641Y-60388100D01*
X27849372Y-60086332D02*
X27875572Y-60285503D01*
X27875572Y-60285503D02*
X27880575Y-60322367D01*
D11*
X27750083Y-58388458D02*
X27749891Y-58393696D01*
X27749891Y-58393696D02*
X27749758Y-58398931D01*
X27749758Y-58398931D02*
X27749675Y-58404163D01*
X27749675Y-58404163D02*
X27749635Y-58409393D01*
X27749635Y-58409393D02*
X27749631Y-58414621D01*
X27749631Y-58414621D02*
X27749654Y-58419847D01*
X27749654Y-58419847D02*
X27749698Y-58425073D01*
X27749698Y-58425073D02*
X27749754Y-58430298D01*
X27749754Y-58430298D02*
X27749816Y-58435522D01*
X27749816Y-58435522D02*
X27749876Y-58440747D01*
X27749876Y-58440747D02*
X27749912Y-58444231D01*
D13*
X31179918Y-58763479D02*
X30987668Y-58814989D01*
X31079009Y-57698302D02*
X31206274Y-57797846D01*
X31744021Y-58437161D02*
X31699710Y-58558786D01*
D11*
X27750000Y-58500000D02*
X27750008Y-58505228D01*
X27750008Y-58505228D02*
X27750021Y-58510455D01*
X27750021Y-58510455D02*
X27750041Y-58515683D01*
X27750041Y-58515683D02*
X27750064Y-58520911D01*
X27750064Y-58520911D02*
X27750092Y-58526138D01*
X27750092Y-58526138D02*
X27750123Y-58531365D01*
X27750123Y-58531365D02*
X27750156Y-58536593D01*
X27750156Y-58536593D02*
X27750192Y-58541820D01*
X27750192Y-58541820D02*
X27750230Y-58547047D01*
X27750230Y-58547047D02*
X27750268Y-58552274D01*
X27750268Y-58552274D02*
X27750295Y-58555759D01*
D10*
X21873824Y-48251190D02*
X21814300Y-48727380D01*
X21605967Y-47727380D02*
X21873824Y-48251190D01*
X22272633Y-47727380D01*
X22623824Y-48727380D02*
X22534538Y-48679761D01*
X22492872Y-48632142D01*
X22457157Y-48536904D01*
X22492872Y-48251190D01*
X22552395Y-48155952D01*
X22605967Y-48108333D01*
X22707157Y-48060714D01*
X22850014Y-48060714D01*
X22939300Y-48108333D01*
X22980967Y-48155952D01*
X23016681Y-48251190D01*
X22980967Y-48536904D01*
X22921443Y-48632142D01*
X22867872Y-48679761D01*
X22766681Y-48727380D01*
X22623824Y-48727380D01*
X23897633Y-48060714D02*
X23814300Y-48727380D01*
X23469062Y-48060714D02*
X23403586Y-48584523D01*
X23439300Y-48679761D01*
X23528586Y-48727380D01*
X23671443Y-48727380D01*
X23772633Y-48679761D01*
X23826205Y-48632142D01*
X25195252Y-48727380D02*
X25105967Y-48679761D01*
X25070252Y-48584523D01*
X25177395Y-47727380D01*
X25576205Y-48727380D02*
X25659538Y-48060714D01*
X25701205Y-47727380D02*
X25647633Y-47775000D01*
X25689300Y-47822619D01*
X25742872Y-47775000D01*
X25701205Y-47727380D01*
X25689300Y-47822619D01*
X26040491Y-48060714D02*
X26195252Y-48727380D01*
X26516681Y-48060714D01*
X27201205Y-48679761D02*
X27100014Y-48727380D01*
X26909538Y-48727380D01*
X26820252Y-48679761D01*
X26784538Y-48584523D01*
X26832157Y-48203571D01*
X26891681Y-48108333D01*
X26992872Y-48060714D01*
X27183348Y-48060714D01*
X27272633Y-48108333D01*
X27308348Y-48203571D01*
X27296443Y-48298809D01*
X26808348Y-48394047D01*
X28433348Y-48727380D02*
X28558348Y-47727380D01*
X28510729Y-48108333D02*
X28611919Y-48060714D01*
X28802395Y-48060714D01*
X28891681Y-48108333D01*
X28933348Y-48155952D01*
X28969062Y-48251190D01*
X28933348Y-48536904D01*
X28873824Y-48632142D01*
X28820252Y-48679761D01*
X28719062Y-48727380D01*
X28528586Y-48727380D01*
X28439300Y-48679761D01*
X29326205Y-48060714D02*
X29480967Y-48727380D01*
X29802395Y-48060714D02*
X29480967Y-48727380D01*
X29355967Y-48965476D01*
X29302395Y-49013095D01*
X29201205Y-49060714D01*
X30802395Y-48060714D02*
X31183348Y-48060714D01*
X30986919Y-47727380D02*
X30879776Y-48584523D01*
X30915491Y-48679761D01*
X31004776Y-48727380D01*
X31100014Y-48727380D01*
X31433348Y-48727380D02*
X31558348Y-47727380D01*
X31861919Y-48727380D02*
X31927395Y-48203571D01*
X31891681Y-48108333D01*
X31802395Y-48060714D01*
X31659538Y-48060714D01*
X31558348Y-48108333D01*
X31504776Y-48155952D01*
X32725014Y-48679761D02*
X32623824Y-48727380D01*
X32433348Y-48727380D01*
X32344062Y-48679761D01*
X32308348Y-48584523D01*
X32355967Y-48203571D01*
X32415491Y-48108333D01*
X32516681Y-48060714D01*
X32707157Y-48060714D01*
X32796443Y-48108333D01*
X32832157Y-48203571D01*
X32820252Y-48298809D01*
X32332157Y-48394047D01*
X34469062Y-48060714D02*
X34367872Y-48870238D01*
X34308348Y-48965476D01*
X34254776Y-49013095D01*
X34153586Y-49060714D01*
X34010729Y-49060714D01*
X33921443Y-49013095D01*
X34391681Y-48679761D02*
X34290491Y-48727380D01*
X34100014Y-48727380D01*
X34010729Y-48679761D01*
X33969062Y-48632142D01*
X33933348Y-48536904D01*
X33969062Y-48251190D01*
X34028586Y-48155952D01*
X34082157Y-48108333D01*
X34183348Y-48060714D01*
X34373824Y-48060714D01*
X34463110Y-48108333D01*
X34861919Y-48727380D02*
X34986919Y-47727380D01*
X35290491Y-48727380D02*
X35355967Y-48203571D01*
X35320252Y-48108333D01*
X35230967Y-48060714D01*
X35088110Y-48060714D01*
X34986919Y-48108333D01*
X34933348Y-48155952D01*
X35909538Y-48727380D02*
X35820252Y-48679761D01*
X35778586Y-48632142D01*
X35742872Y-48536904D01*
X35778586Y-48251190D01*
X35838110Y-48155952D01*
X35891681Y-48108333D01*
X35992872Y-48060714D01*
X36135729Y-48060714D01*
X36225014Y-48108333D01*
X36266681Y-48155952D01*
X36302395Y-48251190D01*
X36266681Y-48536904D01*
X36207157Y-48632142D01*
X36153586Y-48679761D01*
X36052395Y-48727380D01*
X35909538Y-48727380D01*
X36629776Y-48679761D02*
X36719062Y-48727380D01*
X36909538Y-48727380D01*
X37010729Y-48679761D01*
X37070252Y-48584523D01*
X37076205Y-48536904D01*
X37040491Y-48441666D01*
X36951205Y-48394047D01*
X36808348Y-48394047D01*
X36719062Y-48346428D01*
X36683348Y-48251190D01*
X36689300Y-48203571D01*
X36748824Y-48108333D01*
X36850014Y-48060714D01*
X36992872Y-48060714D01*
X37082157Y-48108333D01*
X37421443Y-48060714D02*
X37802395Y-48060714D01*
X37605967Y-47727380D02*
X37498824Y-48584523D01*
X37534538Y-48679761D01*
X37623824Y-48727380D01*
X37719062Y-48727380D01*
X22064300Y-49901190D02*
X22004776Y-50377380D01*
X21796443Y-49377380D02*
X22064300Y-49901190D01*
X22463110Y-49377380D01*
X22814300Y-50377380D02*
X22725014Y-50329761D01*
X22683348Y-50282142D01*
X22647633Y-50186904D01*
X22683348Y-49901190D01*
X22742872Y-49805952D01*
X22796443Y-49758333D01*
X22897633Y-49710714D01*
X23040491Y-49710714D01*
X23129776Y-49758333D01*
X23171443Y-49805952D01*
X23207157Y-49901190D01*
X23171443Y-50186904D01*
X23111919Y-50282142D01*
X23058348Y-50329761D01*
X22957157Y-50377380D01*
X22814300Y-50377380D01*
X24088110Y-49710714D02*
X24004776Y-50377380D01*
X23659538Y-49710714D02*
X23594062Y-50234523D01*
X23629776Y-50329761D01*
X23719062Y-50377380D01*
X23861919Y-50377380D01*
X23963110Y-50329761D01*
X24016681Y-50282142D01*
X25671443Y-50377380D02*
X25796443Y-49377380D01*
X25677395Y-50329761D02*
X25576205Y-50377380D01*
X25385729Y-50377380D01*
X25296443Y-50329761D01*
X25254776Y-50282142D01*
X25219062Y-50186904D01*
X25254776Y-49901190D01*
X25314300Y-49805952D01*
X25367872Y-49758333D01*
X25469062Y-49710714D01*
X25659538Y-49710714D01*
X25748824Y-49758333D01*
X26147633Y-50377380D02*
X26230967Y-49710714D01*
X26272633Y-49377380D02*
X26219062Y-49425000D01*
X26260729Y-49472619D01*
X26314300Y-49425000D01*
X26272633Y-49377380D01*
X26260729Y-49472619D01*
X27010729Y-50329761D02*
X26909538Y-50377380D01*
X26719062Y-50377380D01*
X26629776Y-50329761D01*
X26594062Y-50234523D01*
X26641681Y-49853571D01*
X26701205Y-49758333D01*
X26802395Y-49710714D01*
X26992872Y-49710714D01*
X27082157Y-49758333D01*
X27117872Y-49853571D01*
X27105967Y-49948809D01*
X26617872Y-50044047D01*
X28242872Y-50377380D02*
X28367872Y-49377380D01*
X28320252Y-49758333D02*
X28421443Y-49710714D01*
X28611919Y-49710714D01*
X28701205Y-49758333D01*
X28742872Y-49805952D01*
X28778586Y-49901190D01*
X28742872Y-50186904D01*
X28683348Y-50282142D01*
X28629776Y-50329761D01*
X28528586Y-50377380D01*
X28338110Y-50377380D01*
X28248824Y-50329761D01*
X29135729Y-49710714D02*
X29290491Y-50377380D01*
X29611919Y-49710714D02*
X29290491Y-50377380D01*
X29165491Y-50615476D01*
X29111919Y-50663095D01*
X29010729Y-50710714D01*
X30611919Y-49710714D02*
X30992872Y-49710714D01*
X30796443Y-49377380D02*
X30689300Y-50234523D01*
X30725014Y-50329761D01*
X30814300Y-50377380D01*
X30909538Y-50377380D01*
X31242872Y-50377380D02*
X31367872Y-49377380D01*
X31671443Y-50377380D02*
X31736919Y-49853571D01*
X31701205Y-49758333D01*
X31611919Y-49710714D01*
X31469062Y-49710714D01*
X31367872Y-49758333D01*
X31314300Y-49805952D01*
X32534538Y-50329761D02*
X32433348Y-50377380D01*
X32242872Y-50377380D01*
X32153586Y-50329761D01*
X32117872Y-50234523D01*
X32165491Y-49853571D01*
X32225014Y-49758333D01*
X32326205Y-49710714D01*
X32516681Y-49710714D01*
X32605967Y-49758333D01*
X32641681Y-49853571D01*
X32629776Y-49948809D01*
X32141681Y-50044047D01*
X34278586Y-49710714D02*
X34177395Y-50520238D01*
X34117872Y-50615476D01*
X34064300Y-50663095D01*
X33963110Y-50710714D01*
X33820252Y-50710714D01*
X33730967Y-50663095D01*
X34201205Y-50329761D02*
X34100014Y-50377380D01*
X33909538Y-50377380D01*
X33820252Y-50329761D01*
X33778586Y-50282142D01*
X33742872Y-50186904D01*
X33778586Y-49901190D01*
X33838110Y-49805952D01*
X33891681Y-49758333D01*
X33992872Y-49710714D01*
X34183348Y-49710714D01*
X34272633Y-49758333D01*
X34671443Y-50377380D02*
X34796443Y-49377380D01*
X35100014Y-50377380D02*
X35165491Y-49853571D01*
X35129776Y-49758333D01*
X35040491Y-49710714D01*
X34897633Y-49710714D01*
X34796443Y-49758333D01*
X34742872Y-49805952D01*
X35719062Y-50377380D02*
X35629776Y-50329761D01*
X35588110Y-50282142D01*
X35552395Y-50186904D01*
X35588110Y-49901190D01*
X35647633Y-49805952D01*
X35701205Y-49758333D01*
X35802395Y-49710714D01*
X35945252Y-49710714D01*
X36034538Y-49758333D01*
X36076205Y-49805952D01*
X36111919Y-49901190D01*
X36076205Y-50186904D01*
X36016681Y-50282142D01*
X35963110Y-50329761D01*
X35861919Y-50377380D01*
X35719062Y-50377380D01*
X36439300Y-50329761D02*
X36528586Y-50377380D01*
X36719062Y-50377380D01*
X36820252Y-50329761D01*
X36879776Y-50234523D01*
X36885729Y-50186904D01*
X36850014Y-50091666D01*
X36760729Y-50044047D01*
X36617872Y-50044047D01*
X36528586Y-49996428D01*
X36492872Y-49901190D01*
X36498824Y-49853571D01*
X36558348Y-49758333D01*
X36659538Y-49710714D01*
X36802395Y-49710714D01*
X36891681Y-49758333D01*
X37230967Y-49710714D02*
X37611919Y-49710714D01*
X37415491Y-49377380D02*
X37308348Y-50234523D01*
X37344062Y-50329761D01*
X37433348Y-50377380D01*
X37528586Y-50377380D01*
X56833333Y-52252380D02*
X56833333Y-51252380D01*
X57166666Y-51966666D01*
X57500000Y-51252380D01*
X57500000Y-52252380D01*
X57928571Y-51966666D02*
X58404761Y-51966666D01*
X57833333Y-52252380D02*
X58166666Y-51252380D01*
X58500000Y-52252380D01*
X59309523Y-52252380D02*
X58833333Y-52252380D01*
X58833333Y-51252380D01*
X59642857Y-52252380D02*
X59642857Y-51252380D01*
X60690476Y-52157142D02*
X60642857Y-52204761D01*
X60500000Y-52252380D01*
X60404761Y-52252380D01*
X60261904Y-52204761D01*
X60166666Y-52109523D01*
X60119047Y-52014285D01*
X60071428Y-51823809D01*
X60071428Y-51680952D01*
X60119047Y-51490476D01*
X60166666Y-51395238D01*
X60261904Y-51300000D01*
X60404761Y-51252380D01*
X60500000Y-51252380D01*
X60642857Y-51300000D01*
X60690476Y-51347619D01*
X61119047Y-51728571D02*
X61452380Y-51728571D01*
X61595238Y-52252380D02*
X61119047Y-52252380D01*
X61119047Y-51252380D01*
X61595238Y-51252380D01*
X62738095Y-52204761D02*
X62880952Y-52252380D01*
X63119047Y-52252380D01*
X63214285Y-52204761D01*
X63261904Y-52157142D01*
X63309523Y-52061904D01*
X63309523Y-51966666D01*
X63261904Y-51871428D01*
X63214285Y-51823809D01*
X63119047Y-51776190D01*
X62928571Y-51728571D01*
X62833333Y-51680952D01*
X62785714Y-51633333D01*
X62738095Y-51538095D01*
X62738095Y-51442857D01*
X62785714Y-51347619D01*
X62833333Y-51300000D01*
X62928571Y-51252380D01*
X63166666Y-51252380D01*
X63309523Y-51300000D01*
X63595238Y-51252380D02*
X64166666Y-51252380D01*
X63880952Y-52252380D02*
X63880952Y-51252380D01*
X65071428Y-52252380D02*
X64738095Y-51776190D01*
X64500000Y-52252380D02*
X64500000Y-51252380D01*
X64880952Y-51252380D01*
X64976190Y-51300000D01*
X65023809Y-51347619D01*
X65071428Y-51442857D01*
X65071428Y-51585714D01*
X65023809Y-51680952D01*
X64976190Y-51728571D01*
X64880952Y-51776190D01*
X64500000Y-51776190D01*
X65500000Y-52252380D02*
X65500000Y-51252380D01*
X65976190Y-52252380D02*
X65976190Y-51252380D01*
X66547619Y-52252380D02*
X66119047Y-51680952D01*
X66547619Y-51252380D02*
X65976190Y-51823809D01*
X66976190Y-51728571D02*
X67309523Y-51728571D01*
X67452380Y-52252380D02*
X66976190Y-52252380D01*
X66976190Y-51252380D01*
X67452380Y-51252380D01*
X68452380Y-52252380D02*
X68119047Y-51776190D01*
X67880952Y-52252380D02*
X67880952Y-51252380D01*
X68261904Y-51252380D01*
X68357142Y-51300000D01*
X68404761Y-51347619D01*
X68452380Y-51442857D01*
X68452380Y-51585714D01*
X68404761Y-51680952D01*
X68357142Y-51728571D01*
X68261904Y-51776190D01*
X67880952Y-51776190D01*
X58952380Y-53902380D02*
X58952380Y-52902380D01*
X59190476Y-52902380D01*
X59333333Y-52950000D01*
X59428571Y-53045238D01*
X59476190Y-53140476D01*
X59523809Y-53330952D01*
X59523809Y-53473809D01*
X59476190Y-53664285D01*
X59428571Y-53759523D01*
X59333333Y-53854761D01*
X59190476Y-53902380D01*
X58952380Y-53902380D01*
X59952380Y-53902380D02*
X59952380Y-52902380D01*
X60380952Y-53854761D02*
X60523809Y-53902380D01*
X60761904Y-53902380D01*
X60857142Y-53854761D01*
X60904761Y-53807142D01*
X60952380Y-53711904D01*
X60952380Y-53616666D01*
X60904761Y-53521428D01*
X60857142Y-53473809D01*
X60761904Y-53426190D01*
X60571428Y-53378571D01*
X60476190Y-53330952D01*
X60428571Y-53283333D01*
X60380952Y-53188095D01*
X60380952Y-53092857D01*
X60428571Y-52997619D01*
X60476190Y-52950000D01*
X60571428Y-52902380D01*
X60809523Y-52902380D01*
X60952380Y-52950000D01*
X61238095Y-52902380D02*
X61809523Y-52902380D01*
X61523809Y-53902380D02*
X61523809Y-52902380D01*
X62333333Y-52902380D02*
X62523809Y-52902380D01*
X62619047Y-52950000D01*
X62714285Y-53045238D01*
X62761904Y-53235714D01*
X62761904Y-53569047D01*
X62714285Y-53759523D01*
X62619047Y-53854761D01*
X62523809Y-53902380D01*
X62333333Y-53902380D01*
X62238095Y-53854761D01*
X62142857Y-53759523D01*
X62095238Y-53569047D01*
X62095238Y-53235714D01*
X62142857Y-53045238D01*
X62238095Y-52950000D01*
X62333333Y-52902380D01*
X63761904Y-53902380D02*
X63428571Y-53426190D01*
X63190476Y-53902380D02*
X63190476Y-52902380D01*
X63571428Y-52902380D01*
X63666666Y-52950000D01*
X63714285Y-52997619D01*
X63761904Y-53092857D01*
X63761904Y-53235714D01*
X63714285Y-53330952D01*
X63666666Y-53378571D01*
X63571428Y-53426190D01*
X63190476Y-53426190D01*
X64047619Y-52902380D02*
X64619047Y-52902380D01*
X64333333Y-53902380D02*
X64333333Y-52902380D01*
X64952380Y-53902380D02*
X64952380Y-52902380D01*
X65619047Y-52902380D02*
X65809523Y-52902380D01*
X65904761Y-52950000D01*
X66000000Y-53045238D01*
X66047619Y-53235714D01*
X66047619Y-53569047D01*
X66000000Y-53759523D01*
X65904761Y-53854761D01*
X65809523Y-53902380D01*
X65619047Y-53902380D01*
X65523809Y-53854761D01*
X65428571Y-53759523D01*
X65380952Y-53569047D01*
X65380952Y-53235714D01*
X65428571Y-53045238D01*
X65523809Y-52950000D01*
X65619047Y-52902380D01*
X66476190Y-53902380D02*
X66476190Y-52902380D01*
X67047619Y-53902380D01*
X67047619Y-52902380D01*
X60857142Y-55552380D02*
X60523809Y-55076190D01*
X60285714Y-55552380D02*
X60285714Y-54552380D01*
X60666666Y-54552380D01*
X60761904Y-54600000D01*
X60809523Y-54647619D01*
X60857142Y-54742857D01*
X60857142Y-54885714D01*
X60809523Y-54980952D01*
X60761904Y-55028571D01*
X60666666Y-55076190D01*
X60285714Y-55076190D01*
X61285714Y-55028571D02*
X61619047Y-55028571D01*
X61761904Y-55552380D02*
X61285714Y-55552380D01*
X61285714Y-54552380D01*
X61761904Y-54552380D01*
X62047619Y-54552380D02*
X62380952Y-55552380D01*
X62714285Y-54552380D01*
X64333333Y-55552380D02*
X63761904Y-55552380D01*
X64047619Y-55552380D02*
X64047619Y-54552380D01*
X63952380Y-54695238D01*
X63857142Y-54790476D01*
X63761904Y-54838095D01*
X64761904Y-55457142D02*
X64809523Y-55504761D01*
X64761904Y-55552380D01*
X64714285Y-55504761D01*
X64761904Y-55457142D01*
X64761904Y-55552380D01*
X65428571Y-54552380D02*
X65523809Y-54552380D01*
X65619047Y-54600000D01*
X65666666Y-54647619D01*
X65714285Y-54742857D01*
X65761904Y-54933333D01*
X65761904Y-55171428D01*
X65714285Y-55361904D01*
X65666666Y-55457142D01*
X65619047Y-55504761D01*
X65523809Y-55552380D01*
X65428571Y-55552380D01*
X65333333Y-55504761D01*
X65285714Y-55457142D01*
X65238095Y-55361904D01*
X65190476Y-55171428D01*
X65190476Y-54933333D01*
X65238095Y-54742857D01*
X65285714Y-54647619D01*
X65333333Y-54600000D01*
X65428571Y-54552380D01*
X55499999Y-56202380D02*
X55690476Y-56202380D01*
X55785714Y-56250000D01*
X55880952Y-56345238D01*
X55928571Y-56535714D01*
X55928571Y-56869047D01*
X55880952Y-57059523D01*
X55785714Y-57154761D01*
X55690476Y-57202380D01*
X55499999Y-57202380D01*
X55404761Y-57154761D01*
X55309523Y-57059523D01*
X55261904Y-56869047D01*
X55261904Y-56535714D01*
X55309523Y-56345238D01*
X55404761Y-56250000D01*
X55499999Y-56202380D01*
X56690476Y-56678571D02*
X56357142Y-56678571D01*
X56357142Y-57202380D02*
X56357142Y-56202380D01*
X56833333Y-56202380D01*
X57547619Y-56678571D02*
X57214285Y-56678571D01*
X57214285Y-57202380D02*
X57214285Y-56202380D01*
X57690476Y-56202380D01*
X57976190Y-56202380D02*
X58214285Y-57202380D01*
X58404761Y-56488095D01*
X58595238Y-57202380D01*
X58833333Y-56202380D01*
X59404761Y-56202380D02*
X59595238Y-56202380D01*
X59690476Y-56250000D01*
X59785714Y-56345238D01*
X59833333Y-56535714D01*
X59833333Y-56869047D01*
X59785714Y-57059523D01*
X59690476Y-57154761D01*
X59595238Y-57202380D01*
X59404761Y-57202380D01*
X59309523Y-57154761D01*
X59214285Y-57059523D01*
X59166666Y-56869047D01*
X59166666Y-56535714D01*
X59214285Y-56345238D01*
X59309523Y-56250000D01*
X59404761Y-56202380D01*
X60833333Y-57202380D02*
X60499999Y-56726190D01*
X60261904Y-57202380D02*
X60261904Y-56202380D01*
X60642857Y-56202380D01*
X60738095Y-56250000D01*
X60785714Y-56297619D01*
X60833333Y-56392857D01*
X60833333Y-56535714D01*
X60785714Y-56630952D01*
X60738095Y-56678571D01*
X60642857Y-56726190D01*
X60261904Y-56726190D01*
X61738095Y-57202380D02*
X61261904Y-57202380D01*
X61261904Y-56202380D01*
X62071428Y-57202380D02*
X62071428Y-56202380D01*
X62309523Y-56202380D01*
X62452380Y-56250000D01*
X62547619Y-56345238D01*
X62595238Y-56440476D01*
X62642857Y-56630952D01*
X62642857Y-56773809D01*
X62595238Y-56964285D01*
X62547619Y-57059523D01*
X62452380Y-57154761D01*
X62309523Y-57202380D01*
X62071428Y-57202380D01*
X63785714Y-57154761D02*
X63928571Y-57202380D01*
X64166666Y-57202380D01*
X64261904Y-57154761D01*
X64309523Y-57107142D01*
X64357142Y-57011904D01*
X64357142Y-56916666D01*
X64309523Y-56821428D01*
X64261904Y-56773809D01*
X64166666Y-56726190D01*
X63976190Y-56678571D01*
X63880952Y-56630952D01*
X63833333Y-56583333D01*
X63785714Y-56488095D01*
X63785714Y-56392857D01*
X63833333Y-56297619D01*
X63880952Y-56250000D01*
X63976190Y-56202380D01*
X64214285Y-56202380D01*
X64357142Y-56250000D01*
X64785714Y-56678571D02*
X65119047Y-56678571D01*
X65261904Y-57202380D02*
X64785714Y-57202380D01*
X64785714Y-56202380D01*
X65261904Y-56202380D01*
X66261904Y-57202380D02*
X65928571Y-56726190D01*
X65690476Y-57202380D02*
X65690476Y-56202380D01*
X66071428Y-56202380D01*
X66166666Y-56250000D01*
X66214285Y-56297619D01*
X66261904Y-56392857D01*
X66261904Y-56535714D01*
X66214285Y-56630952D01*
X66166666Y-56678571D01*
X66071428Y-56726190D01*
X65690476Y-56726190D01*
X66690476Y-57202380D02*
X66690476Y-56202380D01*
X67071428Y-56202380D01*
X67166666Y-56250000D01*
X67214285Y-56297619D01*
X67261904Y-56392857D01*
X67261904Y-56535714D01*
X67214285Y-56630952D01*
X67166666Y-56678571D01*
X67071428Y-56726190D01*
X66690476Y-56726190D01*
X67690476Y-56678571D02*
X68023809Y-56678571D01*
X68166666Y-57202380D02*
X67690476Y-57202380D01*
X67690476Y-56202380D01*
X68166666Y-56202380D01*
X68595238Y-57202380D02*
X68595238Y-56202380D01*
X69166666Y-57202380D01*
X69166666Y-56202380D01*
X69500000Y-56202380D02*
X70071428Y-56202380D01*
X69785714Y-57202380D02*
X69785714Y-56202380D01*
X60190476Y-58852380D02*
X60190476Y-57852380D01*
X60428571Y-57852380D01*
X60571428Y-57900000D01*
X60666666Y-57995238D01*
X60714285Y-58090476D01*
X60761904Y-58280952D01*
X60761904Y-58423809D01*
X60714285Y-58614285D01*
X60666666Y-58709523D01*
X60571428Y-58804761D01*
X60428571Y-58852380D01*
X60190476Y-58852380D01*
X61190476Y-58328571D02*
X61523809Y-58328571D01*
X61666666Y-58852380D02*
X61190476Y-58852380D01*
X61190476Y-57852380D01*
X61666666Y-57852380D01*
X61952380Y-57852380D02*
X62285714Y-58852380D01*
X62619047Y-57852380D01*
X62952380Y-58852380D02*
X62952380Y-57852380D01*
X64000000Y-58757142D02*
X63952380Y-58804761D01*
X63809523Y-58852380D01*
X63714285Y-58852380D01*
X63571428Y-58804761D01*
X63476190Y-58709523D01*
X63428571Y-58614285D01*
X63380952Y-58423809D01*
X63380952Y-58280952D01*
X63428571Y-58090476D01*
X63476190Y-57995238D01*
X63571428Y-57900000D01*
X63714285Y-57852380D01*
X63809523Y-57852380D01*
X63952380Y-57900000D01*
X64000000Y-57947619D01*
X64428571Y-58328571D02*
X64761904Y-58328571D01*
X64904761Y-58852380D02*
X64428571Y-58852380D01*
X64428571Y-57852380D01*
X64904761Y-57852380D01*
X65285714Y-58804761D02*
X65428571Y-58852380D01*
X65666666Y-58852380D01*
X65761904Y-58804761D01*
X65809523Y-58757142D01*
X65857142Y-58661904D01*
X65857142Y-58566666D01*
X65809523Y-58471428D01*
X65761904Y-58423809D01*
X65666666Y-58376190D01*
X65476190Y-58328571D01*
X65380952Y-58280952D01*
X65333333Y-58233333D01*
X65285714Y-58138095D01*
X65285714Y-58042857D01*
X65333333Y-57947619D01*
X65380952Y-57900000D01*
X65476190Y-57852380D01*
X65714285Y-57852380D01*
X65857142Y-57900000D01*
D14*
X22080000Y-33540000D02*
X22080000Y-42049000D01*
X23096000Y-42176000D02*
X26144000Y-42176000D01*
X28176000Y-42176000D02*
X31224000Y-42176000D01*
X33256000Y-42176000D02*
X36304000Y-42176000D01*
X37320000Y-42049000D02*
X37320000Y-33540000D01*
X23096000Y-42176000D02*
X23096000Y-45224000D01*
X23096000Y-45224000D02*
X26144000Y-45224000D01*
X26144000Y-45224000D02*
X26144000Y-42176000D01*
X28176000Y-42176000D02*
X28176000Y-45224000D01*
X28176000Y-45224000D02*
X31224000Y-45224000D01*
X31224000Y-45224000D02*
X31224000Y-42176000D01*
X33256000Y-42176000D02*
X33256000Y-45224000D01*
X33256000Y-45224000D02*
X36304000Y-45224000D01*
X36304000Y-45224000D02*
X36304000Y-42176000D01*
X22080000Y-42049000D02*
X37320000Y-42049000D01*
X29700000Y-28460000D02*
X29700000Y-29730000D01*
X29065000Y-29095000D02*
X30335000Y-29095000D01*
X30335000Y-29095000D02*
G75*
G03*
X30335000Y-29095000I-635000J0D01*
G01*
X20810000Y-29095000D02*
G75*
G03*
X29700000Y-37985000I8890000J0D01*
G01*
X29700000Y-37985000D02*
G75*
G03*
X38590000Y-29095000I0J8890000D01*
G01*
X38590000Y-29095002D02*
G75*
G03*
X29700000Y-20205000I-8889901J101D01*
G01*
X29700002Y-20205000D02*
G75*
G03*
X20810000Y-29095000I-101J-8889901D01*
G01*
D15*
X44890000Y-80700000D02*
X44890000Y-82500000D01*
X48110000Y-82500000D02*
X48110000Y-79550000D01*
X49060000Y-55600000D02*
X49060000Y-52150000D01*
X49060000Y-55600000D02*
X49060000Y-57550000D01*
X43940000Y-55600000D02*
X43940000Y-53650000D01*
X43940000Y-55600000D02*
X43940000Y-57550000D01*
X44890000Y-68300000D02*
X44890000Y-70100000D01*
X48110000Y-70100000D02*
X48110000Y-67150000D01*
D14*
X63335000Y-54495000D02*
G75*
G03*
X63335000Y-54495000I-635000J0D01*
G01*
X62065000Y-54495000D02*
X63335000Y-54495000D01*
X62700000Y-53860000D02*
X62700000Y-55130000D01*
X55080000Y-67449000D02*
X70320000Y-67449000D01*
X69304000Y-70624000D02*
X69304000Y-67576000D01*
X66256000Y-70624000D02*
X69304000Y-70624000D01*
X66256000Y-67576000D02*
X66256000Y-70624000D01*
X64224000Y-70624000D02*
X64224000Y-67576000D01*
X61176000Y-70624000D02*
X64224000Y-70624000D01*
X61176000Y-67576000D02*
X61176000Y-70624000D01*
X59144000Y-70624000D02*
X59144000Y-67576000D01*
X56096000Y-70624000D02*
X59144000Y-70624000D01*
X56096000Y-67576000D02*
X56096000Y-70624000D01*
X70320000Y-67449000D02*
X70320000Y-58940000D01*
X66256000Y-67576000D02*
X69304000Y-67576000D01*
X61176000Y-67576000D02*
X64224000Y-67576000D01*
X56096000Y-67576000D02*
X59144000Y-67576000D01*
X55080000Y-58940000D02*
X55080000Y-67449000D01*
X62700002Y-45605000D02*
G75*
G03*
X53810000Y-54495000I-101J-8889901D01*
G01*
X71590000Y-54495002D02*
G75*
G03*
X62700000Y-45605000I-8889901J101D01*
G01*
X62700000Y-63385000D02*
G75*
G03*
X71590000Y-54495000I0J8890000D01*
G01*
X53810000Y-54495000D02*
G75*
G03*
X62700000Y-63385000I8890000J0D01*
G01*
X63335000Y-29095000D02*
G75*
G03*
X63335000Y-29095000I-635000J0D01*
G01*
X62065000Y-29095000D02*
X63335000Y-29095000D01*
X62700000Y-28460000D02*
X62700000Y-29730000D01*
X55080000Y-42049000D02*
X70320000Y-42049000D01*
X69304000Y-45224000D02*
X69304000Y-42176000D01*
X66256000Y-45224000D02*
X69304000Y-45224000D01*
X66256000Y-42176000D02*
X66256000Y-45224000D01*
X64224000Y-45224000D02*
X64224000Y-42176000D01*
X61176000Y-45224000D02*
X64224000Y-45224000D01*
X61176000Y-42176000D02*
X61176000Y-45224000D01*
X59144000Y-45224000D02*
X59144000Y-42176000D01*
X56096000Y-45224000D02*
X59144000Y-45224000D01*
X56096000Y-42176000D02*
X56096000Y-45224000D01*
X70320000Y-42049000D02*
X70320000Y-33540000D01*
X66256000Y-42176000D02*
X69304000Y-42176000D01*
X61176000Y-42176000D02*
X64224000Y-42176000D01*
X56096000Y-42176000D02*
X59144000Y-42176000D01*
X55080000Y-33540000D02*
X55080000Y-42049000D01*
X62700002Y-20205000D02*
G75*
G03*
X53810000Y-29095000I-101J-8889901D01*
G01*
X71590000Y-29095002D02*
G75*
G03*
X62700000Y-20205000I-8889901J101D01*
G01*
X62700000Y-37985000D02*
G75*
G03*
X71590000Y-29095000I0J8890000D01*
G01*
X53810000Y-29095000D02*
G75*
G03*
X62700000Y-37985000I8890000J0D01*
G01*
X30335000Y-54495000D02*
G75*
G03*
X30335000Y-54495000I-635000J0D01*
G01*
X29065000Y-54495000D02*
X30335000Y-54495000D01*
X29700000Y-53860000D02*
X29700000Y-55130000D01*
X22080000Y-67449000D02*
X37320000Y-67449000D01*
X36304000Y-70624000D02*
X36304000Y-67576000D01*
X33256000Y-70624000D02*
X36304000Y-70624000D01*
X33256000Y-67576000D02*
X33256000Y-70624000D01*
X31224000Y-70624000D02*
X31224000Y-67576000D01*
X28176000Y-70624000D02*
X31224000Y-70624000D01*
X28176000Y-67576000D02*
X28176000Y-70624000D01*
X26144000Y-70624000D02*
X26144000Y-67576000D01*
X23096000Y-70624000D02*
X26144000Y-70624000D01*
X23096000Y-67576000D02*
X23096000Y-70624000D01*
X37320000Y-67449000D02*
X37320000Y-58940000D01*
X33256000Y-67576000D02*
X36304000Y-67576000D01*
X28176000Y-67576000D02*
X31224000Y-67576000D01*
X23096000Y-67576000D02*
X26144000Y-67576000D01*
X22080000Y-58940000D02*
X22080000Y-67449000D01*
X29700002Y-45605000D02*
G75*
G03*
X20810000Y-54495000I-101J-8889901D01*
G01*
X38590000Y-54495002D02*
G75*
G03*
X29700000Y-45605000I-8889901J101D01*
G01*
X29700000Y-63385000D02*
G75*
G03*
X38590000Y-54495000I0J8890000D01*
G01*
X20810000Y-54495000D02*
G75*
G03*
X29700000Y-63385000I8890000J0D01*
G01*
D15*
X48700000Y-41790000D02*
G75*
G03*
X48700000Y-41790000I-2500000J0D01*
G01*
X43640000Y-40245000D02*
X43640000Y-43335000D01*
X49190000Y-41789538D02*
G75*
G02*
X43640000Y-43334830I-2990000J-462D01*
G01*
X49190000Y-41790462D02*
G75*
G03*
X43640000Y-40245170I-2990000J462D01*
G01*
D16*
X26310309Y-40499297D02*
X26712476Y-41705797D01*
X27114642Y-40499297D01*
X27746619Y-40499297D02*
X27976428Y-40499297D01*
X28091333Y-40556750D01*
X28206238Y-40671654D01*
X28263690Y-40901464D01*
X28263690Y-41303630D01*
X28206238Y-41533440D01*
X28091333Y-41648345D01*
X27976428Y-41705797D01*
X27746619Y-41705797D01*
X27631714Y-41648345D01*
X27516809Y-41533440D01*
X27459357Y-41303630D01*
X27459357Y-40901464D01*
X27516809Y-40671654D01*
X27631714Y-40556750D01*
X27746619Y-40499297D01*
X29355285Y-41705797D02*
X28780761Y-41705797D01*
X28780761Y-40499297D01*
X29757452Y-40499297D02*
X29757452Y-41475988D01*
X29814904Y-41590892D01*
X29872357Y-41648345D01*
X29987261Y-41705797D01*
X30217071Y-41705797D01*
X30331976Y-41648345D01*
X30389428Y-41590892D01*
X30446880Y-41475988D01*
X30446880Y-40499297D01*
X31021404Y-41705797D02*
X31021404Y-40499297D01*
X31423571Y-41361083D01*
X31825738Y-40499297D01*
X31825738Y-41705797D01*
X32400261Y-41073821D02*
X32802428Y-41073821D01*
X32974785Y-41705797D02*
X32400261Y-41705797D01*
X32400261Y-40499297D01*
X32974785Y-40499297D01*
D17*
X23213904Y-41876038D02*
X22662361Y-41876038D01*
X22938132Y-41876038D02*
X22938132Y-40910838D01*
X22846209Y-41048723D01*
X22754285Y-41140647D01*
X22662361Y-41186609D01*
D10*
X48452380Y-82361904D02*
X49261904Y-82361904D01*
X49357142Y-82314285D01*
X49404761Y-82266666D01*
X49452380Y-82171428D01*
X49452380Y-81980952D01*
X49404761Y-81885714D01*
X49357142Y-81838095D01*
X49261904Y-81790476D01*
X48452380Y-81790476D01*
X48785714Y-80885714D02*
X49452380Y-80885714D01*
X48404761Y-81123809D02*
X49119047Y-81361904D01*
X49119047Y-80742857D01*
X49352380Y-56361904D02*
X50161904Y-56361904D01*
X50257142Y-56314285D01*
X50304761Y-56266666D01*
X50352380Y-56171428D01*
X50352380Y-55980952D01*
X50304761Y-55885714D01*
X50257142Y-55838095D01*
X50161904Y-55790476D01*
X49352380Y-55790476D01*
X49352380Y-55409523D02*
X49352380Y-54790476D01*
X49733333Y-55123809D01*
X49733333Y-54980952D01*
X49780952Y-54885714D01*
X49828571Y-54838095D01*
X49923809Y-54790476D01*
X50161904Y-54790476D01*
X50257142Y-54838095D01*
X50304761Y-54885714D01*
X50352380Y-54980952D01*
X50352380Y-55266666D01*
X50304761Y-55361904D01*
X50257142Y-55409523D01*
X48452380Y-69961904D02*
X49261904Y-69961904D01*
X49357142Y-69914285D01*
X49404761Y-69866666D01*
X49452380Y-69771428D01*
X49452380Y-69580952D01*
X49404761Y-69485714D01*
X49357142Y-69438095D01*
X49261904Y-69390476D01*
X48452380Y-69390476D01*
X49452380Y-68390476D02*
X49452380Y-68961904D01*
X49452380Y-68676190D02*
X48452380Y-68676190D01*
X48595238Y-68771428D01*
X48690476Y-68866666D01*
X48738095Y-68961904D01*
D16*
X59568845Y-65899297D02*
X60258273Y-65899297D01*
X59913559Y-67105797D02*
X59913559Y-65899297D01*
X61349869Y-67105797D02*
X60947702Y-66531273D01*
X60660440Y-67105797D02*
X60660440Y-65899297D01*
X61120059Y-65899297D01*
X61234964Y-65956750D01*
X61292416Y-66014202D01*
X61349869Y-66129107D01*
X61349869Y-66301464D01*
X61292416Y-66416369D01*
X61234964Y-66473821D01*
X61120059Y-66531273D01*
X60660440Y-66531273D01*
X61866940Y-66473821D02*
X62269107Y-66473821D01*
X62441464Y-67105797D02*
X61866940Y-67105797D01*
X61866940Y-65899297D01*
X62441464Y-65899297D01*
X63360702Y-66473821D02*
X63533059Y-66531273D01*
X63590511Y-66588726D01*
X63647964Y-66703630D01*
X63647964Y-66875988D01*
X63590511Y-66990892D01*
X63533059Y-67048345D01*
X63418154Y-67105797D01*
X62958535Y-67105797D01*
X62958535Y-65899297D01*
X63360702Y-65899297D01*
X63475607Y-65956750D01*
X63533059Y-66014202D01*
X63590511Y-66129107D01*
X63590511Y-66244011D01*
X63533059Y-66358916D01*
X63475607Y-66416369D01*
X63360702Y-66473821D01*
X62958535Y-66473821D01*
X64739559Y-67105797D02*
X64165035Y-67105797D01*
X64165035Y-65899297D01*
X65141726Y-66473821D02*
X65543892Y-66473821D01*
X65716250Y-67105797D02*
X65141726Y-67105797D01*
X65141726Y-65899297D01*
X65716250Y-65899297D01*
D17*
X56213904Y-67276038D02*
X55662361Y-67276038D01*
X55938132Y-67276038D02*
X55938132Y-66310838D01*
X55846209Y-66448723D01*
X55754285Y-66540647D01*
X55662361Y-66586609D01*
D16*
X61579678Y-40556750D02*
X61464773Y-40499297D01*
X61292416Y-40499297D01*
X61120059Y-40556750D01*
X61005154Y-40671654D01*
X60947702Y-40786559D01*
X60890250Y-41016369D01*
X60890250Y-41188726D01*
X60947702Y-41418535D01*
X61005154Y-41533440D01*
X61120059Y-41648345D01*
X61292416Y-41705797D01*
X61407321Y-41705797D01*
X61579678Y-41648345D01*
X61637130Y-41590892D01*
X61637130Y-41188726D01*
X61407321Y-41188726D01*
X62096750Y-41361083D02*
X62671273Y-41361083D01*
X61981845Y-41705797D02*
X62384011Y-40499297D01*
X62786178Y-41705797D01*
X63188345Y-41705797D02*
X63188345Y-40499297D01*
X63762869Y-41705797D02*
X63762869Y-40499297D01*
X64452297Y-41705797D01*
X64452297Y-40499297D01*
D17*
X56213904Y-41876038D02*
X55662361Y-41876038D01*
X55938132Y-41876038D02*
X55938132Y-40910838D01*
X55846209Y-41048723D01*
X55754285Y-41140647D01*
X55662361Y-41186609D01*
D16*
X28120059Y-66473821D02*
X28292416Y-66531273D01*
X28349869Y-66588726D01*
X28407321Y-66703630D01*
X28407321Y-66875988D01*
X28349869Y-66990892D01*
X28292416Y-67048345D01*
X28177511Y-67105797D01*
X27717892Y-67105797D01*
X27717892Y-65899297D01*
X28120059Y-65899297D01*
X28234964Y-65956750D01*
X28292416Y-66014202D01*
X28349869Y-66129107D01*
X28349869Y-66244011D01*
X28292416Y-66358916D01*
X28234964Y-66416369D01*
X28120059Y-66473821D01*
X27717892Y-66473821D01*
X28866940Y-66761083D02*
X29441464Y-66761083D01*
X28752035Y-67105797D02*
X29154202Y-65899297D01*
X29556369Y-67105797D01*
X29901083Y-67048345D02*
X30073440Y-67105797D01*
X30360702Y-67105797D01*
X30475607Y-67048345D01*
X30533059Y-66990892D01*
X30590511Y-66875988D01*
X30590511Y-66761083D01*
X30533059Y-66646178D01*
X30475607Y-66588726D01*
X30360702Y-66531273D01*
X30130892Y-66473821D01*
X30015988Y-66416369D01*
X29958535Y-66358916D01*
X29901083Y-66244011D01*
X29901083Y-66129107D01*
X29958535Y-66014202D01*
X30015988Y-65956750D01*
X30130892Y-65899297D01*
X30418154Y-65899297D01*
X30590511Y-65956750D01*
X31050130Y-67048345D02*
X31222488Y-67105797D01*
X31509750Y-67105797D01*
X31624654Y-67048345D01*
X31682107Y-66990892D01*
X31739559Y-66875988D01*
X31739559Y-66761083D01*
X31682107Y-66646178D01*
X31624654Y-66588726D01*
X31509750Y-66531273D01*
X31279940Y-66473821D01*
X31165035Y-66416369D01*
X31107583Y-66358916D01*
X31050130Y-66244011D01*
X31050130Y-66129107D01*
X31107583Y-66014202D01*
X31165035Y-65956750D01*
X31279940Y-65899297D01*
X31567202Y-65899297D01*
X31739559Y-65956750D01*
D17*
X23213904Y-67276038D02*
X22662361Y-67276038D01*
X22938132Y-67276038D02*
X22938132Y-66310838D01*
X22846209Y-66448723D01*
X22754285Y-66540647D01*
X22662361Y-66586609D01*
D10*
X45461904Y-38282380D02*
X45461904Y-37282380D01*
X45700000Y-37282380D01*
X45842857Y-37330000D01*
X45938095Y-37425238D01*
X45985714Y-37520476D01*
X46033333Y-37710952D01*
X46033333Y-37853809D01*
X45985714Y-38044285D01*
X45938095Y-38139523D01*
X45842857Y-38234761D01*
X45700000Y-38282380D01*
X45461904Y-38282380D01*
X46414285Y-37377619D02*
X46461904Y-37330000D01*
X46557142Y-37282380D01*
X46795238Y-37282380D01*
X46890476Y-37330000D01*
X46938095Y-37377619D01*
X46985714Y-37472857D01*
X46985714Y-37568095D01*
X46938095Y-37710952D01*
X46366666Y-38282380D01*
X46985714Y-38282380D01*
%LPC*%
D18*
X61000000Y-106500000D03*
X61000000Y-102750000D03*
X61000000Y-99000000D03*
X73250000Y-43750000D03*
X47800000Y-91200000D03*
D19*
X45260000Y-91200000D03*
D18*
X47400000Y-47000000D03*
D19*
X44860000Y-47000000D03*
D18*
X47400000Y-36000000D03*
D19*
X44860000Y-36000000D03*
D20*
X34780000Y-43700000D03*
X29700000Y-43700000D03*
G36*
G01*
X25991600Y-42430000D02*
X25991600Y-44970000D01*
G75*
G02*
X25890000Y-45071600I-101600J0D01*
G01*
X23350000Y-45071600D01*
G75*
G02*
X23248400Y-44970000I0J101600D01*
G01*
X23248400Y-42430000D01*
G75*
G02*
X23350000Y-42328400I101600J0D01*
G01*
X25890000Y-42328400D01*
G75*
G02*
X25991600Y-42430000I0J-101600D01*
G01*
G37*
D21*
X47480000Y-80250000D03*
X46830000Y-80250000D03*
X46170000Y-80250000D03*
X45520000Y-80250000D03*
X45520000Y-82950000D03*
X46170000Y-82950000D03*
X46830000Y-82950000D03*
X47480000Y-82950000D03*
D22*
X46500000Y-55600000D03*
G36*
G01*
X48255000Y-57100000D02*
X48555000Y-57100000D01*
G75*
G02*
X48705000Y-57250000I0J-150000D01*
G01*
X48705000Y-58900000D01*
G75*
G02*
X48555000Y-59050000I-150000J0D01*
G01*
X48255000Y-59050000D01*
G75*
G02*
X48105000Y-58900000I0J150000D01*
G01*
X48105000Y-57250000D01*
G75*
G02*
X48255000Y-57100000I150000J0D01*
G01*
G37*
G36*
G01*
X46985000Y-57100000D02*
X47285000Y-57100000D01*
G75*
G02*
X47435000Y-57250000I0J-150000D01*
G01*
X47435000Y-58900000D01*
G75*
G02*
X47285000Y-59050000I-150000J0D01*
G01*
X46985000Y-59050000D01*
G75*
G02*
X46835000Y-58900000I0J150000D01*
G01*
X46835000Y-57250000D01*
G75*
G02*
X46985000Y-57100000I150000J0D01*
G01*
G37*
G36*
G01*
X45715000Y-57100000D02*
X46015000Y-57100000D01*
G75*
G02*
X46165000Y-57250000I0J-150000D01*
G01*
X46165000Y-58900000D01*
G75*
G02*
X46015000Y-59050000I-150000J0D01*
G01*
X45715000Y-59050000D01*
G75*
G02*
X45565000Y-58900000I0J150000D01*
G01*
X45565000Y-57250000D01*
G75*
G02*
X45715000Y-57100000I150000J0D01*
G01*
G37*
G36*
G01*
X44445000Y-57100000D02*
X44745000Y-57100000D01*
G75*
G02*
X44895000Y-57250000I0J-150000D01*
G01*
X44895000Y-58900000D01*
G75*
G02*
X44745000Y-59050000I-150000J0D01*
G01*
X44445000Y-59050000D01*
G75*
G02*
X44295000Y-58900000I0J150000D01*
G01*
X44295000Y-57250000D01*
G75*
G02*
X44445000Y-57100000I150000J0D01*
G01*
G37*
G36*
G01*
X44445000Y-52150000D02*
X44745000Y-52150000D01*
G75*
G02*
X44895000Y-52300000I0J-150000D01*
G01*
X44895000Y-53950000D01*
G75*
G02*
X44745000Y-54100000I-150000J0D01*
G01*
X44445000Y-54100000D01*
G75*
G02*
X44295000Y-53950000I0J150000D01*
G01*
X44295000Y-52300000D01*
G75*
G02*
X44445000Y-52150000I150000J0D01*
G01*
G37*
G36*
G01*
X45715000Y-52150000D02*
X46015000Y-52150000D01*
G75*
G02*
X46165000Y-52300000I0J-150000D01*
G01*
X46165000Y-53950000D01*
G75*
G02*
X46015000Y-54100000I-150000J0D01*
G01*
X45715000Y-54100000D01*
G75*
G02*
X45565000Y-53950000I0J150000D01*
G01*
X45565000Y-52300000D01*
G75*
G02*
X45715000Y-52150000I150000J0D01*
G01*
G37*
G36*
G01*
X46985000Y-52150000D02*
X47285000Y-52150000D01*
G75*
G02*
X47435000Y-52300000I0J-150000D01*
G01*
X47435000Y-53950000D01*
G75*
G02*
X47285000Y-54100000I-150000J0D01*
G01*
X46985000Y-54100000D01*
G75*
G02*
X46835000Y-53950000I0J150000D01*
G01*
X46835000Y-52300000D01*
G75*
G02*
X46985000Y-52150000I150000J0D01*
G01*
G37*
G36*
G01*
X48255000Y-52150000D02*
X48555000Y-52150000D01*
G75*
G02*
X48705000Y-52300000I0J-150000D01*
G01*
X48705000Y-53950000D01*
G75*
G02*
X48555000Y-54100000I-150000J0D01*
G01*
X48255000Y-54100000D01*
G75*
G02*
X48105000Y-53950000I0J150000D01*
G01*
X48105000Y-52300000D01*
G75*
G02*
X48255000Y-52150000I150000J0D01*
G01*
G37*
D23*
X57000000Y-84000000D03*
D24*
X67160000Y-76380000D03*
X57000000Y-81460000D03*
X67160000Y-78920000D03*
X57000000Y-78920000D03*
X67160000Y-81460000D03*
X57000000Y-76380000D03*
X67160000Y-84000000D03*
D21*
X47480000Y-67850000D03*
X46830000Y-67850000D03*
X46170000Y-67850000D03*
X45520000Y-67850000D03*
X45520000Y-70550000D03*
X46170000Y-70550000D03*
X46830000Y-70550000D03*
X47480000Y-70550000D03*
G36*
G01*
X58991600Y-67830000D02*
X58991600Y-70370000D01*
G75*
G02*
X58890000Y-70471600I-101600J0D01*
G01*
X56350000Y-70471600D01*
G75*
G02*
X56248400Y-70370000I0J101600D01*
G01*
X56248400Y-67830000D01*
G75*
G02*
X56350000Y-67728400I101600J0D01*
G01*
X58890000Y-67728400D01*
G75*
G02*
X58991600Y-67830000I0J-101600D01*
G01*
G37*
D20*
X62700000Y-69100000D03*
X67780000Y-69100000D03*
D25*
X22200000Y-92000000D03*
X19660000Y-89460000D03*
X22200000Y-86920000D03*
D26*
X28500000Y-106550000D03*
D24*
X28500000Y-98930000D03*
X72020000Y-90800000D03*
D26*
X64400000Y-90800000D03*
D27*
X70810000Y-72800000D03*
X63190000Y-72800000D03*
D26*
X27600000Y-64200000D03*
D24*
X19980000Y-64200000D03*
X38020000Y-64200000D03*
D26*
X30400000Y-64200000D03*
D27*
X64390000Y-87800000D03*
X72010000Y-87800000D03*
D24*
X19980000Y-57400000D03*
D26*
X27600000Y-57400000D03*
X31900000Y-98950000D03*
D24*
X31900000Y-106570000D03*
X73000000Y-55220000D03*
D26*
X73000000Y-47600000D03*
D27*
X38010000Y-48400000D03*
X30390000Y-48400000D03*
D24*
X19980000Y-47200000D03*
D26*
X27600000Y-47200000D03*
X26800000Y-74600000D03*
D24*
X34420000Y-74600000D03*
X19580000Y-94900000D03*
D26*
X27200000Y-94900000D03*
D27*
X26990000Y-77600000D03*
X34610000Y-77600000D03*
D24*
X19980000Y-50600000D03*
D26*
X27600000Y-50600000D03*
D24*
X65620000Y-62800000D03*
D26*
X58000000Y-62800000D03*
D27*
X34200000Y-53590000D03*
X34200000Y-61210000D03*
X72600000Y-69410000D03*
X72600000Y-61790000D03*
X57990000Y-56200000D03*
X65610000Y-56200000D03*
D24*
X65620000Y-59400000D03*
D26*
X58000000Y-59400000D03*
D27*
X23590000Y-39000000D03*
X31210000Y-39000000D03*
D24*
X31220000Y-35800000D03*
D26*
X23600000Y-35800000D03*
X40000000Y-35800000D03*
D24*
X40000000Y-43420000D03*
G36*
G01*
X58991600Y-42430000D02*
X58991600Y-44970000D01*
G75*
G02*
X58890000Y-45071600I-101600J0D01*
G01*
X56350000Y-45071600D01*
G75*
G02*
X56248400Y-44970000I0J101600D01*
G01*
X56248400Y-42430000D01*
G75*
G02*
X56350000Y-42328400I101600J0D01*
G01*
X58890000Y-42328400D01*
G75*
G02*
X58991600Y-42430000I0J-101600D01*
G01*
G37*
D20*
X62700000Y-43700000D03*
X67780000Y-43700000D03*
D24*
X65980000Y-36200000D03*
D23*
X73600000Y-36200000D03*
D24*
X73620000Y-39000000D03*
D23*
X66000000Y-39000000D03*
D28*
X65500000Y-105800000D03*
D29*
X65500000Y-95640000D03*
D28*
X52200000Y-51200000D03*
D29*
X52200000Y-41040000D03*
D28*
X62800000Y-37000000D03*
D29*
X52640000Y-37000000D03*
D26*
X22400000Y-75400000D03*
D23*
X22400000Y-73400000D03*
D26*
X71000000Y-97600000D03*
D23*
X71000000Y-99600000D03*
D26*
X39400000Y-80000000D03*
X39400000Y-85000000D03*
X20200000Y-60800000D03*
X25200000Y-60800000D03*
D23*
X32600000Y-83400000D03*
D26*
X30100000Y-83400000D03*
X22600000Y-82600000D03*
D23*
X22600000Y-80600000D03*
D26*
X52600000Y-71200000D03*
X52600000Y-66200000D03*
X42000000Y-62500000D03*
X47000000Y-62500000D03*
X24800000Y-105500000D03*
X19800000Y-105500000D03*
X52800000Y-87200000D03*
X47800000Y-87200000D03*
X24800000Y-99500000D03*
X19800000Y-99500000D03*
X41600000Y-66600000D03*
X41600000Y-71600000D03*
X51600000Y-78300000D03*
D23*
X51600000Y-75800000D03*
D26*
X53200000Y-62800000D03*
D23*
X53200000Y-60800000D03*
D30*
X38800000Y-58000000D03*
X38800000Y-55500000D03*
D26*
X52000000Y-54200000D03*
X52000000Y-56700000D03*
X60000000Y-90250000D03*
D23*
X58000000Y-90250000D03*
D26*
X25200000Y-54000000D03*
X20200000Y-54000000D03*
X31200000Y-56000000D03*
X31200000Y-61000000D03*
X68400000Y-48000000D03*
X68400000Y-53000000D03*
X57000000Y-49400000D03*
X62000000Y-49400000D03*
X71800000Y-80800000D03*
D23*
X71800000Y-82800000D03*
D26*
X29750000Y-91250000D03*
D23*
X31750000Y-91250000D03*
D26*
X20000000Y-43800000D03*
X20000000Y-38800000D03*
X41000000Y-46400000D03*
X41000000Y-51400000D03*
G36*
G01*
X25991600Y-67830000D02*
X25991600Y-70370000D01*
G75*
G02*
X25890000Y-70471600I-101600J0D01*
G01*
X23350000Y-70471600D01*
G75*
G02*
X23248400Y-70370000I0J101600D01*
G01*
X23248400Y-67830000D01*
G75*
G02*
X23350000Y-67728400I101600J0D01*
G01*
X25890000Y-67728400D01*
G75*
G02*
X25991600Y-67830000I0J-101600D01*
G01*
G37*
D20*
X29700000Y-69100000D03*
X34780000Y-69100000D03*
D31*
X47470000Y-41790000D03*
D32*
X44930000Y-41790000D03*
M02*
