G04 #@! TF.GenerationSoftware,KiCad,Pcbnew,(5.1.10)-1*
G04 #@! TF.CreationDate,2022-03-26T18:38:28-04:00*
G04 #@! TF.ProjectId,malice-striker,6d616c69-6365-42d7-9374-72696b65722e,rev?*
G04 #@! TF.SameCoordinates,Original*
G04 #@! TF.FileFunction,Copper,L1,Top*
G04 #@! TF.FilePolarity,Positive*
%FSLAX46Y46*%
G04 Gerber Fmt 4.6, Leading zero omitted, Abs format (unit mm)*
G04 Created by KiCad (PCBNEW (5.1.10)-1) date 2022-03-26 18:38:28*
%MOMM*%
%LPD*%
G01*
G04 APERTURE LIST*
G04 #@! TA.AperFunction,ComponentPad*
%ADD10R,1.700000X1.700000*%
G04 #@! TD*
G04 #@! TA.AperFunction,ComponentPad*
%ADD11O,1.700000X1.700000*%
G04 #@! TD*
G04 #@! TA.AperFunction,ComponentPad*
%ADD12C,2.540000*%
G04 #@! TD*
G04 #@! TA.AperFunction,ComponentPad*
%ADD13R,2.540000X2.540000*%
G04 #@! TD*
G04 #@! TA.AperFunction,SMDPad,CuDef*
%ADD14R,0.400000X1.560000*%
G04 #@! TD*
G04 #@! TA.AperFunction,SMDPad,CuDef*
%ADD15R,3.000000X2.290000*%
G04 #@! TD*
G04 #@! TA.AperFunction,ComponentPad*
%ADD16R,1.600000X1.600000*%
G04 #@! TD*
G04 #@! TA.AperFunction,ComponentPad*
%ADD17O,1.600000X1.600000*%
G04 #@! TD*
G04 #@! TA.AperFunction,ComponentPad*
%ADD18C,1.440000*%
G04 #@! TD*
G04 #@! TA.AperFunction,ComponentPad*
%ADD19C,1.600000*%
G04 #@! TD*
G04 #@! TA.AperFunction,ComponentPad*
%ADD20C,2.000000*%
G04 #@! TD*
G04 #@! TA.AperFunction,ComponentPad*
%ADD21R,2.200000X2.200000*%
G04 #@! TD*
G04 #@! TA.AperFunction,ComponentPad*
%ADD22O,2.200000X2.200000*%
G04 #@! TD*
G04 #@! TA.AperFunction,ComponentPad*
%ADD23C,1.400000*%
G04 #@! TD*
G04 #@! TA.AperFunction,ComponentPad*
%ADD24C,1.800000*%
G04 #@! TD*
G04 #@! TA.AperFunction,ComponentPad*
%ADD25R,1.800000X1.800000*%
G04 #@! TD*
G04 #@! TA.AperFunction,ViaPad*
%ADD26C,0.600000*%
G04 #@! TD*
G04 #@! TA.AperFunction,ViaPad*
%ADD27C,0.800000*%
G04 #@! TD*
G04 #@! TA.AperFunction,Conductor*
%ADD28C,0.250000*%
G04 #@! TD*
G04 APERTURE END LIST*
D10*
X61000000Y-106500000D03*
X61000000Y-102750000D03*
X61000000Y-99000000D03*
X73250000Y-43750000D03*
X47800000Y-91200000D03*
D11*
X45260000Y-91200000D03*
D10*
X47400000Y-47000000D03*
D11*
X44860000Y-47000000D03*
D10*
X47400000Y-36000000D03*
D11*
X44860000Y-36000000D03*
D12*
X34780000Y-43700000D03*
X29700000Y-43700000D03*
D13*
X24620000Y-43700000D03*
D14*
X47480000Y-80250000D03*
X46830000Y-80250000D03*
X46170000Y-80250000D03*
X45520000Y-80250000D03*
X45520000Y-82950000D03*
X46170000Y-82950000D03*
X46830000Y-82950000D03*
X47480000Y-82950000D03*
D15*
X46500000Y-55600000D03*
G04 #@! TA.AperFunction,SMDPad,CuDef*
G36*
G01*
X48255000Y-57100000D02*
X48555000Y-57100000D01*
G75*
G02*
X48705000Y-57250000I0J-150000D01*
G01*
X48705000Y-58900000D01*
G75*
G02*
X48555000Y-59050000I-150000J0D01*
G01*
X48255000Y-59050000D01*
G75*
G02*
X48105000Y-58900000I0J150000D01*
G01*
X48105000Y-57250000D01*
G75*
G02*
X48255000Y-57100000I150000J0D01*
G01*
G37*
G04 #@! TD.AperFunction*
G04 #@! TA.AperFunction,SMDPad,CuDef*
G36*
G01*
X46985000Y-57100000D02*
X47285000Y-57100000D01*
G75*
G02*
X47435000Y-57250000I0J-150000D01*
G01*
X47435000Y-58900000D01*
G75*
G02*
X47285000Y-59050000I-150000J0D01*
G01*
X46985000Y-59050000D01*
G75*
G02*
X46835000Y-58900000I0J150000D01*
G01*
X46835000Y-57250000D01*
G75*
G02*
X46985000Y-57100000I150000J0D01*
G01*
G37*
G04 #@! TD.AperFunction*
G04 #@! TA.AperFunction,SMDPad,CuDef*
G36*
G01*
X45715000Y-57100000D02*
X46015000Y-57100000D01*
G75*
G02*
X46165000Y-57250000I0J-150000D01*
G01*
X46165000Y-58900000D01*
G75*
G02*
X46015000Y-59050000I-150000J0D01*
G01*
X45715000Y-59050000D01*
G75*
G02*
X45565000Y-58900000I0J150000D01*
G01*
X45565000Y-57250000D01*
G75*
G02*
X45715000Y-57100000I150000J0D01*
G01*
G37*
G04 #@! TD.AperFunction*
G04 #@! TA.AperFunction,SMDPad,CuDef*
G36*
G01*
X44445000Y-57100000D02*
X44745000Y-57100000D01*
G75*
G02*
X44895000Y-57250000I0J-150000D01*
G01*
X44895000Y-58900000D01*
G75*
G02*
X44745000Y-59050000I-150000J0D01*
G01*
X44445000Y-59050000D01*
G75*
G02*
X44295000Y-58900000I0J150000D01*
G01*
X44295000Y-57250000D01*
G75*
G02*
X44445000Y-57100000I150000J0D01*
G01*
G37*
G04 #@! TD.AperFunction*
G04 #@! TA.AperFunction,SMDPad,CuDef*
G36*
G01*
X44445000Y-52150000D02*
X44745000Y-52150000D01*
G75*
G02*
X44895000Y-52300000I0J-150000D01*
G01*
X44895000Y-53950000D01*
G75*
G02*
X44745000Y-54100000I-150000J0D01*
G01*
X44445000Y-54100000D01*
G75*
G02*
X44295000Y-53950000I0J150000D01*
G01*
X44295000Y-52300000D01*
G75*
G02*
X44445000Y-52150000I150000J0D01*
G01*
G37*
G04 #@! TD.AperFunction*
G04 #@! TA.AperFunction,SMDPad,CuDef*
G36*
G01*
X45715000Y-52150000D02*
X46015000Y-52150000D01*
G75*
G02*
X46165000Y-52300000I0J-150000D01*
G01*
X46165000Y-53950000D01*
G75*
G02*
X46015000Y-54100000I-150000J0D01*
G01*
X45715000Y-54100000D01*
G75*
G02*
X45565000Y-53950000I0J150000D01*
G01*
X45565000Y-52300000D01*
G75*
G02*
X45715000Y-52150000I150000J0D01*
G01*
G37*
G04 #@! TD.AperFunction*
G04 #@! TA.AperFunction,SMDPad,CuDef*
G36*
G01*
X46985000Y-52150000D02*
X47285000Y-52150000D01*
G75*
G02*
X47435000Y-52300000I0J-150000D01*
G01*
X47435000Y-53950000D01*
G75*
G02*
X47285000Y-54100000I-150000J0D01*
G01*
X46985000Y-54100000D01*
G75*
G02*
X46835000Y-53950000I0J150000D01*
G01*
X46835000Y-52300000D01*
G75*
G02*
X46985000Y-52150000I150000J0D01*
G01*
G37*
G04 #@! TD.AperFunction*
G04 #@! TA.AperFunction,SMDPad,CuDef*
G36*
G01*
X48255000Y-52150000D02*
X48555000Y-52150000D01*
G75*
G02*
X48705000Y-52300000I0J-150000D01*
G01*
X48705000Y-53950000D01*
G75*
G02*
X48555000Y-54100000I-150000J0D01*
G01*
X48255000Y-54100000D01*
G75*
G02*
X48105000Y-53950000I0J150000D01*
G01*
X48105000Y-52300000D01*
G75*
G02*
X48255000Y-52150000I150000J0D01*
G01*
G37*
G04 #@! TD.AperFunction*
D16*
X57000000Y-84000000D03*
D17*
X67160000Y-76380000D03*
X57000000Y-81460000D03*
X67160000Y-78920000D03*
X57000000Y-78920000D03*
X67160000Y-81460000D03*
X57000000Y-76380000D03*
X67160000Y-84000000D03*
D14*
X47480000Y-67850000D03*
X46830000Y-67850000D03*
X46170000Y-67850000D03*
X45520000Y-67850000D03*
X45520000Y-70550000D03*
X46170000Y-70550000D03*
X46830000Y-70550000D03*
X47480000Y-70550000D03*
D13*
X57620000Y-69100000D03*
D12*
X62700000Y-69100000D03*
X67780000Y-69100000D03*
D18*
X22200000Y-92000000D03*
X19660000Y-89460000D03*
X22200000Y-86920000D03*
D19*
X28500000Y-106550000D03*
D17*
X28500000Y-98930000D03*
X72020000Y-90800000D03*
D19*
X64400000Y-90800000D03*
D20*
X70810000Y-72800000D03*
X63190000Y-72800000D03*
D19*
X27600000Y-64200000D03*
D17*
X19980000Y-64200000D03*
X38020000Y-64200000D03*
D19*
X30400000Y-64200000D03*
D20*
X64390000Y-87800000D03*
X72010000Y-87800000D03*
D17*
X19980000Y-57400000D03*
D19*
X27600000Y-57400000D03*
X31900000Y-98950000D03*
D17*
X31900000Y-106570000D03*
X73000000Y-55220000D03*
D19*
X73000000Y-47600000D03*
D20*
X38010000Y-48400000D03*
X30390000Y-48400000D03*
D17*
X19980000Y-47200000D03*
D19*
X27600000Y-47200000D03*
X26800000Y-74600000D03*
D17*
X34420000Y-74600000D03*
X19580000Y-94900000D03*
D19*
X27200000Y-94900000D03*
D20*
X26990000Y-77600000D03*
X34610000Y-77600000D03*
D17*
X19980000Y-50600000D03*
D19*
X27600000Y-50600000D03*
D17*
X65620000Y-62800000D03*
D19*
X58000000Y-62800000D03*
D20*
X34200000Y-53590000D03*
X34200000Y-61210000D03*
X72600000Y-69410000D03*
X72600000Y-61790000D03*
X57990000Y-56200000D03*
X65610000Y-56200000D03*
D17*
X65620000Y-59400000D03*
D19*
X58000000Y-59400000D03*
D20*
X23590000Y-39000000D03*
X31210000Y-39000000D03*
D17*
X31220000Y-35800000D03*
D19*
X23600000Y-35800000D03*
X40000000Y-35800000D03*
D17*
X40000000Y-43420000D03*
D13*
X57620000Y-43700000D03*
D12*
X62700000Y-43700000D03*
X67780000Y-43700000D03*
D17*
X65980000Y-36200000D03*
D16*
X73600000Y-36200000D03*
D17*
X73620000Y-39000000D03*
D16*
X66000000Y-39000000D03*
D21*
X65500000Y-105800000D03*
D22*
X65500000Y-95640000D03*
D21*
X52200000Y-51200000D03*
D22*
X52200000Y-41040000D03*
D21*
X62800000Y-37000000D03*
D22*
X52640000Y-37000000D03*
D19*
X22400000Y-75400000D03*
D16*
X22400000Y-73400000D03*
D19*
X71000000Y-97600000D03*
D16*
X71000000Y-99600000D03*
D19*
X39400000Y-80000000D03*
X39400000Y-85000000D03*
X20200000Y-60800000D03*
X25200000Y-60800000D03*
D16*
X32600000Y-83400000D03*
D19*
X30100000Y-83400000D03*
X22600000Y-82600000D03*
D16*
X22600000Y-80600000D03*
D19*
X52600000Y-71200000D03*
X52600000Y-66200000D03*
X42000000Y-62500000D03*
X47000000Y-62500000D03*
X24800000Y-105500000D03*
X19800000Y-105500000D03*
X52800000Y-87200000D03*
X47800000Y-87200000D03*
X24800000Y-99500000D03*
X19800000Y-99500000D03*
X41600000Y-66600000D03*
X41600000Y-71600000D03*
X51600000Y-78300000D03*
D16*
X51600000Y-75800000D03*
D19*
X53200000Y-62800000D03*
D16*
X53200000Y-60800000D03*
D23*
X38800000Y-58000000D03*
X38800000Y-55500000D03*
D19*
X52000000Y-54200000D03*
X52000000Y-56700000D03*
X60000000Y-90250000D03*
D16*
X58000000Y-90250000D03*
D19*
X25200000Y-54000000D03*
X20200000Y-54000000D03*
X31200000Y-56000000D03*
X31200000Y-61000000D03*
X68400000Y-48000000D03*
X68400000Y-53000000D03*
X57000000Y-49400000D03*
X62000000Y-49400000D03*
X71800000Y-80800000D03*
D16*
X71800000Y-82800000D03*
D19*
X29750000Y-91250000D03*
D16*
X31750000Y-91250000D03*
D19*
X20000000Y-43800000D03*
X20000000Y-38800000D03*
X41000000Y-46400000D03*
X41000000Y-51400000D03*
D13*
X24620000Y-69100000D03*
D12*
X29700000Y-69100000D03*
X34780000Y-69100000D03*
D24*
X47470000Y-41790000D03*
D25*
X44930000Y-41790000D03*
D26*
X22000000Y-71000000D03*
X50000000Y-60800000D03*
D27*
X47480000Y-72600000D03*
D26*
X28100000Y-86500000D03*
X40000000Y-87400000D03*
X47200000Y-89200000D03*
D27*
X68000000Y-65400000D03*
D26*
X45800000Y-76800000D03*
X47600000Y-75400000D03*
X39400000Y-72200000D03*
X54400000Y-81400000D03*
X36800000Y-92000000D03*
X26800000Y-71600000D03*
X26400000Y-83400000D03*
X45865000Y-50200000D03*
X65800000Y-66600000D03*
D28*
X30400000Y-68400000D02*
X29700000Y-69100000D01*
X30400000Y-64200000D02*
X30400000Y-68400000D01*
X23900000Y-69100000D02*
X22000000Y-71000000D01*
X24620000Y-69100000D02*
X23900000Y-69100000D01*
X31750000Y-91250000D02*
X33750000Y-93250000D01*
X65950000Y-93250000D02*
X57350000Y-93250000D01*
X67200000Y-92000000D02*
X65950000Y-93250000D01*
X57350000Y-93250000D02*
X58280344Y-93250000D01*
X33750000Y-93250000D02*
X57350000Y-93250000D01*
X65400000Y-85600000D02*
X67200000Y-87400000D01*
X65400000Y-74600000D02*
X65400000Y-85600000D01*
X69800000Y-70200000D02*
X65400000Y-74600000D01*
X69800000Y-63580000D02*
X69800000Y-70200000D01*
X65620000Y-59400000D02*
X69800000Y-63580000D01*
X67200000Y-87500000D02*
X67200000Y-92000000D01*
X67200000Y-87400000D02*
X67200000Y-87500000D01*
X46830000Y-66820000D02*
X50400000Y-63250000D01*
X46830000Y-67850000D02*
X46830000Y-66820000D01*
X57600000Y-59000000D02*
X58000000Y-59400000D01*
X50400000Y-63250000D02*
X50400000Y-63200000D01*
X50400000Y-63200000D02*
X51600000Y-62000000D01*
X51600000Y-59600000D02*
X52200000Y-59000000D01*
X52200000Y-59000000D02*
X57600000Y-59000000D01*
X51600000Y-62000000D02*
X51600000Y-59600000D01*
X72600000Y-57200000D02*
X68400000Y-53000000D01*
X72600000Y-61790000D02*
X72600000Y-57200000D01*
X48405000Y-53125000D02*
X48725000Y-53125000D01*
X49800000Y-54200000D02*
X52000000Y-54200000D01*
X48725000Y-53125000D02*
X49800000Y-54200000D01*
X50625000Y-58075000D02*
X52000000Y-56700000D01*
X48405000Y-58075000D02*
X50625000Y-58075000D01*
X31210000Y-50600000D02*
X34200000Y-53590000D01*
X27600000Y-50600000D02*
X31210000Y-50600000D01*
X38800000Y-55500000D02*
X39900000Y-55500000D01*
X47135000Y-53125000D02*
X47135000Y-49265000D01*
X47135000Y-49265000D02*
X46870000Y-49000000D01*
X46870000Y-49000000D02*
X44200000Y-49000000D01*
X42800000Y-50400000D02*
X42800000Y-52600000D01*
X44200000Y-49000000D02*
X42800000Y-50400000D01*
X39900000Y-55500000D02*
X42800000Y-52600000D01*
X47135000Y-49265000D02*
X49335000Y-49265000D01*
X54900000Y-43700000D02*
X57620000Y-43700000D01*
X49335000Y-49265000D02*
X54900000Y-43700000D01*
X45865000Y-58075000D02*
X45865000Y-60935000D01*
X45865000Y-60935000D02*
X45400000Y-61400000D01*
X45400000Y-61400000D02*
X45400000Y-63000000D01*
X45400000Y-63000000D02*
X46600000Y-64200000D01*
X46600000Y-64200000D02*
X46965002Y-64200000D01*
X46965002Y-64200000D02*
X47800000Y-64200000D01*
X47800000Y-64200000D02*
X50000000Y-62000000D01*
X50000000Y-62000000D02*
X50000000Y-60800000D01*
X50000000Y-60800000D02*
X50000000Y-60800000D01*
X45865000Y-59050000D02*
X45865000Y-58075000D01*
X45539990Y-59375010D02*
X45865000Y-59050000D01*
X40175010Y-59375010D02*
X45539990Y-59375010D01*
X38800000Y-58000000D02*
X40175010Y-59375010D01*
X47480000Y-70550000D02*
X47480000Y-72600000D01*
X47135000Y-62365000D02*
X47000000Y-62500000D01*
X47135000Y-58075000D02*
X47135000Y-62365000D01*
X47480000Y-86880000D02*
X47800000Y-87200000D01*
X47480000Y-82950000D02*
X47480000Y-86880000D01*
X23390000Y-38800000D02*
X23590000Y-39000000D01*
X20000000Y-38800000D02*
X23390000Y-38800000D01*
X23590000Y-39000000D02*
X28200000Y-39000000D01*
X28200000Y-39000000D02*
X30400000Y-41200000D01*
X30400000Y-41200000D02*
X35400000Y-41200000D01*
X35400000Y-41200000D02*
X39600000Y-45400000D01*
X39600000Y-45400000D02*
X39600000Y-49200000D01*
X39600000Y-49200000D02*
X39600000Y-51800000D01*
X39600000Y-49200000D02*
X39600000Y-52600000D01*
X39600000Y-51800000D02*
X36800000Y-54600000D01*
X36800000Y-54600000D02*
X36800000Y-60000000D01*
X36800000Y-60000000D02*
X41200000Y-64400000D01*
X41200000Y-64400000D02*
X45400000Y-64400000D01*
X46170000Y-65170000D02*
X46170000Y-67850000D01*
X45400000Y-64400000D02*
X46170000Y-65170000D01*
X47480000Y-67850000D02*
X47750000Y-67850000D01*
X47750000Y-67850000D02*
X51200000Y-64400000D01*
X51200000Y-64400000D02*
X54000000Y-64400000D01*
X54000000Y-64400000D02*
X57200000Y-61200000D01*
X60610000Y-61200000D02*
X65610000Y-56200000D01*
X57200000Y-61200000D02*
X60610000Y-61200000D01*
X67000000Y-49400000D02*
X68400000Y-48000000D01*
X62000000Y-49400000D02*
X67000000Y-49400000D01*
X33990000Y-61000000D02*
X34200000Y-61210000D01*
X31200000Y-61000000D02*
X33990000Y-61000000D01*
X19980000Y-53780000D02*
X20200000Y-54000000D01*
X19980000Y-50600000D02*
X19980000Y-53780000D01*
X71000000Y-57600000D02*
X64600000Y-51200000D01*
X64600000Y-51200000D02*
X52200000Y-51200000D01*
X71000000Y-70200000D02*
X71000000Y-57600000D01*
X72400000Y-71600000D02*
X71000000Y-70200000D01*
X72600000Y-71800000D02*
X72400000Y-71600000D01*
X71260000Y-95640000D02*
X65500000Y-95640000D01*
X74200000Y-92700000D02*
X71260000Y-95640000D01*
X74200000Y-73400000D02*
X74200000Y-92700000D01*
X72400000Y-71600000D02*
X74200000Y-73400000D01*
X45070000Y-70550000D02*
X41020000Y-74600000D01*
X41020000Y-74600000D02*
X34420000Y-74600000D01*
X45520000Y-70550000D02*
X45070000Y-70550000D01*
X25000000Y-79600000D02*
X29420000Y-79600000D01*
X24400000Y-79000000D02*
X25000000Y-79600000D01*
X21400000Y-79000000D02*
X24400000Y-79000000D01*
X19600000Y-80800000D02*
X21400000Y-79000000D01*
X29420000Y-79600000D02*
X34420000Y-74600000D01*
X19600000Y-86600000D02*
X19600000Y-80800000D01*
X20400000Y-91200000D02*
X21600000Y-90000000D01*
X21600000Y-88600000D02*
X19600000Y-86600000D01*
X20400000Y-92800000D02*
X20400000Y-91200000D01*
X21600000Y-90000000D02*
X21600000Y-88600000D01*
X22200000Y-94600000D02*
X20400000Y-92800000D01*
X22200000Y-102900000D02*
X22200000Y-94600000D01*
X24800000Y-105500000D02*
X22200000Y-102900000D01*
X46170000Y-69375000D02*
X46170000Y-70550000D01*
X45995000Y-69200000D02*
X46170000Y-69375000D01*
X52600000Y-71200000D02*
X50200000Y-71200000D01*
X48200000Y-69200000D02*
X45995000Y-69200000D01*
X50200000Y-71200000D02*
X48200000Y-69200000D01*
X32400000Y-48400000D02*
X30390000Y-48400000D01*
X36200000Y-52200000D02*
X32400000Y-48400000D01*
X36200000Y-60600000D02*
X36200000Y-52200000D01*
X40000000Y-64400000D02*
X36200000Y-60600000D01*
X40000000Y-67600000D02*
X40000000Y-64400000D01*
X41600000Y-69200000D02*
X40000000Y-67600000D01*
X45995000Y-69200000D02*
X41600000Y-69200000D01*
X46830000Y-71580000D02*
X46830000Y-70550000D01*
X46600000Y-71810000D02*
X46830000Y-71580000D01*
X46600000Y-73400000D02*
X46600000Y-71810000D01*
X52600000Y-73400000D02*
X46600000Y-73400000D01*
X54200000Y-71800000D02*
X52600000Y-73400000D01*
X54200000Y-67800000D02*
X54200000Y-71800000D01*
X52600000Y-66200000D02*
X54200000Y-67800000D01*
X22600000Y-80600000D02*
X35800000Y-80600000D01*
X43000000Y-73400000D02*
X46600000Y-73400000D01*
X35800000Y-80600000D02*
X43000000Y-73400000D01*
X40000000Y-87400000D02*
X40000000Y-87400000D01*
X47200000Y-89200000D02*
X51200000Y-89200000D01*
X51000000Y-89000000D02*
X51200000Y-89200000D01*
X40000000Y-87400000D02*
X32000000Y-87400000D01*
X29000000Y-87400000D02*
X29150000Y-87400000D01*
X28100000Y-86500000D02*
X29000000Y-87400000D01*
X32000000Y-87400000D02*
X29150000Y-87400000D01*
X66200000Y-89610000D02*
X64390000Y-87800000D01*
X66200000Y-91800000D02*
X66200000Y-89610000D01*
X65400000Y-92600000D02*
X66200000Y-91800000D01*
X54600000Y-92600000D02*
X65400000Y-92600000D01*
X51200000Y-89200000D02*
X54600000Y-92600000D01*
X45070000Y-83400000D02*
X45520000Y-82950000D01*
X32600000Y-83400000D02*
X45070000Y-83400000D01*
X46170000Y-81270000D02*
X46170000Y-80250000D01*
X45520000Y-81920000D02*
X46170000Y-81270000D01*
X45520000Y-82950000D02*
X45520000Y-81920000D01*
X55400000Y-65400000D02*
X58000000Y-62800000D01*
X55000000Y-65800000D02*
X55400000Y-65400000D01*
X55000000Y-72000000D02*
X55000000Y-65800000D01*
X54700000Y-72300000D02*
X55000000Y-72000000D01*
X54000000Y-73000000D02*
X54700000Y-72300000D01*
X53000000Y-74000000D02*
X54700000Y-72300000D01*
X44000000Y-74000000D02*
X53000000Y-74000000D01*
X44000000Y-77050000D02*
X44000000Y-74000000D01*
X46170000Y-79220000D02*
X44000000Y-77050000D01*
X46170000Y-80250000D02*
X46170000Y-79220000D01*
X58000000Y-62800000D02*
X62400000Y-62800000D01*
X62400000Y-62800000D02*
X64200000Y-64600000D01*
X64200000Y-64600000D02*
X64600000Y-65000000D01*
X64600000Y-65000000D02*
X64800000Y-65200000D01*
X64800000Y-65200000D02*
X65000000Y-65400000D01*
X65000000Y-65400000D02*
X68000000Y-65400000D01*
X46830000Y-80230000D02*
X46800000Y-80200000D01*
X46830000Y-80250000D02*
X46830000Y-80230000D01*
X46800000Y-77800000D02*
X45800000Y-76800000D01*
X46800000Y-80200000D02*
X46800000Y-77800000D01*
X45800000Y-76800000D02*
X45800000Y-76800000D01*
X57600000Y-72800000D02*
X63190000Y-72800000D01*
X55200000Y-75200000D02*
X57600000Y-72800000D01*
X55200000Y-78200000D02*
X55200000Y-75200000D01*
X48150000Y-80250000D02*
X48150000Y-78750000D01*
X47480000Y-80250000D02*
X48150000Y-80250000D01*
X48150000Y-78750000D02*
X48150000Y-75950000D01*
X48150000Y-75950000D02*
X47600000Y-75400000D01*
X47600000Y-75400000D02*
X47600000Y-75400000D01*
X27600000Y-70000000D02*
X27600000Y-64200000D01*
X29800000Y-72200000D02*
X27600000Y-70000000D01*
X39400000Y-72200000D02*
X29800000Y-72200000D01*
X55200000Y-78200000D02*
X55200000Y-80600000D01*
X55200000Y-80600000D02*
X54400000Y-81400000D01*
X54400000Y-81400000D02*
X54400000Y-81400000D01*
X54200000Y-81400000D02*
X54400000Y-81400000D01*
X53250000Y-80250000D02*
X54400000Y-81400000D01*
X48150000Y-80250000D02*
X53250000Y-80250000D01*
X23200000Y-45120000D02*
X24620000Y-43700000D01*
X23200000Y-64600000D02*
X23200000Y-45120000D01*
X20800000Y-67000000D02*
X23200000Y-64600000D01*
X20800000Y-74931370D02*
X20800000Y-67000000D01*
X21268630Y-75400000D02*
X20800000Y-74931370D01*
X22400000Y-75400000D02*
X21268630Y-75400000D01*
X24200000Y-71600000D02*
X22400000Y-73400000D01*
X26800000Y-71600000D02*
X24200000Y-71600000D01*
X46830000Y-82950000D02*
X46830000Y-84430000D01*
X39260000Y-92000000D02*
X39430000Y-91830000D01*
X36800000Y-92000000D02*
X39260000Y-92000000D01*
X39430000Y-91830000D02*
X46830000Y-84430000D01*
X53200000Y-39000000D02*
X66000000Y-39000000D01*
X51600000Y-39000000D02*
X53200000Y-39000000D01*
X50000000Y-37400000D02*
X51600000Y-39000000D01*
X19000000Y-37400000D02*
X50000000Y-37400000D01*
X32000000Y-43639398D02*
X28685603Y-40325001D01*
X32000000Y-44119398D02*
X32000000Y-43639398D01*
X30519398Y-45600000D02*
X32000000Y-44119398D01*
X26600000Y-45600000D02*
X30519398Y-45600000D01*
X18600000Y-39800000D02*
X18600000Y-37800000D01*
X26990000Y-77600000D02*
X31115001Y-73474999D01*
X31115001Y-73474999D02*
X39050003Y-73474999D01*
X35549990Y-66134990D02*
X35549990Y-52586400D01*
X39050003Y-73474999D02*
X40474999Y-72050003D01*
X28685603Y-40325001D02*
X19125001Y-40325001D01*
X40474999Y-71059999D02*
X35549990Y-66134990D01*
X40474999Y-72050003D02*
X40474999Y-71059999D01*
X35549990Y-52586400D02*
X32688591Y-49725001D01*
X18600000Y-37800000D02*
X19000000Y-37400000D01*
X32688591Y-49725001D02*
X29753999Y-49725001D01*
X29753999Y-49725001D02*
X29228998Y-49200000D01*
X29228998Y-49200000D02*
X27200000Y-49200000D01*
X27200000Y-49200000D02*
X26000000Y-48000000D01*
X26000000Y-48000000D02*
X26000000Y-46200000D01*
X19125001Y-40325001D02*
X18600000Y-39800000D01*
X26000000Y-46200000D02*
X26600000Y-45600000D01*
X66000000Y-36220000D02*
X65980000Y-36200000D01*
X66000000Y-39000000D02*
X66000000Y-36220000D01*
X22200000Y-92000000D02*
X26400000Y-87800000D01*
X26400000Y-87800000D02*
X26400000Y-83400000D01*
X26400000Y-83400000D02*
X26400000Y-83400000D01*
X45865000Y-50200000D02*
X45865000Y-53125000D01*
X65760000Y-66560000D02*
X65800000Y-66600000D01*
X60160000Y-66560000D02*
X65760000Y-66560000D01*
X60160000Y-66560000D02*
X57620000Y-69100000D01*
X46170000Y-83830000D02*
X46170000Y-82950000D01*
X28750000Y-89000000D02*
X41000000Y-89000000D01*
X27000000Y-90750000D02*
X28750000Y-89000000D01*
X27000000Y-92250000D02*
X27000000Y-90750000D01*
X29000000Y-94250000D02*
X27000000Y-92250000D01*
X41000000Y-89000000D02*
X46170000Y-83830000D01*
X29000000Y-98500000D02*
X29000000Y-94250000D01*
X28570000Y-98930000D02*
X29000000Y-98500000D01*
X28500000Y-98930000D02*
X28570000Y-98930000D01*
X46600000Y-81600000D02*
X52414998Y-81600000D01*
X52414998Y-81600000D02*
X54857499Y-84042501D01*
X46170000Y-82030000D02*
X46600000Y-81600000D01*
X54857499Y-84042501D02*
X54857499Y-84857499D01*
X46170000Y-82950000D02*
X46170000Y-82030000D01*
X57100000Y-87100000D02*
X59700000Y-87100000D01*
X54857499Y-84857499D02*
X57100000Y-87100000D01*
X60700000Y-87100000D02*
X59700000Y-87100000D01*
X64400000Y-90800000D02*
X60700000Y-87100000D01*
X44270000Y-66600000D02*
X45520000Y-67850000D01*
X41600000Y-66600000D02*
X44270000Y-66600000D01*
X42000000Y-62500000D02*
X40700000Y-62500000D01*
X40700000Y-62500000D02*
X37400000Y-59200000D01*
X37400000Y-59200000D02*
X37400000Y-57200000D01*
X37400000Y-57200000D02*
X37800000Y-56800000D01*
X40920000Y-56800000D02*
X44595000Y-53125000D01*
X37800000Y-56800000D02*
X40920000Y-56800000D01*
X45520000Y-80250000D02*
X44170000Y-81600000D01*
X31900000Y-81600000D02*
X30100000Y-83400000D01*
X44170000Y-81600000D02*
X31900000Y-81600000D01*
X58085002Y-41040000D02*
X52200000Y-41040000D01*
X60000000Y-42954998D02*
X58085002Y-41040000D01*
X60000000Y-44445002D02*
X60000000Y-42954998D01*
X58845002Y-45600000D02*
X60000000Y-44445002D01*
X55014998Y-45600000D02*
X58845002Y-45600000D01*
X64600000Y-52800000D02*
X50600000Y-52800000D01*
X70400000Y-71000000D02*
X70400000Y-58600000D01*
X70400000Y-58600000D02*
X64600000Y-52800000D01*
X50400000Y-50200000D02*
X50760001Y-49839999D01*
X50600000Y-52800000D02*
X50400000Y-52600000D01*
X50400000Y-52600000D02*
X50400000Y-50200000D01*
X50760001Y-49839999D02*
X50774999Y-49839999D01*
X50774999Y-49839999D02*
X55014998Y-45600000D01*
X68360000Y-82800000D02*
X68080000Y-83080000D01*
X68080000Y-83080000D02*
X67160000Y-84000000D01*
X68285001Y-82874999D02*
X68080000Y-83080000D01*
X68800000Y-82800000D02*
X68800000Y-72600000D01*
X68800000Y-72600000D02*
X70400000Y-71000000D01*
X71800000Y-82800000D02*
X68800000Y-82800000D01*
X68800000Y-82800000D02*
X68360000Y-82800000D01*
M02*
