G04 #@! TF.GenerationSoftware,KiCad,Pcbnew,(5.1.10)-1*
G04 #@! TF.CreationDate,2022-03-26T18:38:28-04:00*
G04 #@! TF.ProjectId,malice-striker,6d616c69-6365-42d7-9374-72696b65722e,rev?*
G04 #@! TF.SameCoordinates,Original*
G04 #@! TF.FileFunction,Paste,Top*
G04 #@! TF.FilePolarity,Positive*
%FSLAX46Y46*%
G04 Gerber Fmt 4.6, Leading zero omitted, Abs format (unit mm)*
G04 Created by KiCad (PCBNEW (5.1.10)-1) date 2022-03-26 18:38:28*
%MOMM*%
%LPD*%
G01*
G04 APERTURE LIST*
%ADD10R,0.400000X1.560000*%
G04 APERTURE END LIST*
D10*
X47480000Y-80250000D03*
X46830000Y-80250000D03*
X46170000Y-80250000D03*
X45520000Y-80250000D03*
X45520000Y-82950000D03*
X46170000Y-82950000D03*
X46830000Y-82950000D03*
X47480000Y-82950000D03*
G36*
G01*
X45375000Y-55710000D02*
X46125000Y-55710000D01*
G75*
G02*
X46355000Y-55940000I0J-230000D01*
G01*
X46355000Y-56400000D01*
G75*
G02*
X46125000Y-56630000I-230000J0D01*
G01*
X45375000Y-56630000D01*
G75*
G02*
X45145000Y-56400000I0J230000D01*
G01*
X45145000Y-55940000D01*
G75*
G02*
X45375000Y-55710000I230000J0D01*
G01*
G37*
G36*
G01*
X46875000Y-55710000D02*
X47625000Y-55710000D01*
G75*
G02*
X47855000Y-55940000I0J-230000D01*
G01*
X47855000Y-56400000D01*
G75*
G02*
X47625000Y-56630000I-230000J0D01*
G01*
X46875000Y-56630000D01*
G75*
G02*
X46645000Y-56400000I0J230000D01*
G01*
X46645000Y-55940000D01*
G75*
G02*
X46875000Y-55710000I230000J0D01*
G01*
G37*
G36*
G01*
X45375000Y-54570000D02*
X46125000Y-54570000D01*
G75*
G02*
X46355000Y-54800000I0J-230000D01*
G01*
X46355000Y-55260000D01*
G75*
G02*
X46125000Y-55490000I-230000J0D01*
G01*
X45375000Y-55490000D01*
G75*
G02*
X45145000Y-55260000I0J230000D01*
G01*
X45145000Y-54800000D01*
G75*
G02*
X45375000Y-54570000I230000J0D01*
G01*
G37*
G36*
G01*
X46875000Y-54570000D02*
X47625000Y-54570000D01*
G75*
G02*
X47855000Y-54800000I0J-230000D01*
G01*
X47855000Y-55260000D01*
G75*
G02*
X47625000Y-55490000I-230000J0D01*
G01*
X46875000Y-55490000D01*
G75*
G02*
X46645000Y-55260000I0J230000D01*
G01*
X46645000Y-54800000D01*
G75*
G02*
X46875000Y-54570000I230000J0D01*
G01*
G37*
G36*
G01*
X48255000Y-57100000D02*
X48555000Y-57100000D01*
G75*
G02*
X48705000Y-57250000I0J-150000D01*
G01*
X48705000Y-58900000D01*
G75*
G02*
X48555000Y-59050000I-150000J0D01*
G01*
X48255000Y-59050000D01*
G75*
G02*
X48105000Y-58900000I0J150000D01*
G01*
X48105000Y-57250000D01*
G75*
G02*
X48255000Y-57100000I150000J0D01*
G01*
G37*
G36*
G01*
X46985000Y-57100000D02*
X47285000Y-57100000D01*
G75*
G02*
X47435000Y-57250000I0J-150000D01*
G01*
X47435000Y-58900000D01*
G75*
G02*
X47285000Y-59050000I-150000J0D01*
G01*
X46985000Y-59050000D01*
G75*
G02*
X46835000Y-58900000I0J150000D01*
G01*
X46835000Y-57250000D01*
G75*
G02*
X46985000Y-57100000I150000J0D01*
G01*
G37*
G36*
G01*
X45715000Y-57100000D02*
X46015000Y-57100000D01*
G75*
G02*
X46165000Y-57250000I0J-150000D01*
G01*
X46165000Y-58900000D01*
G75*
G02*
X46015000Y-59050000I-150000J0D01*
G01*
X45715000Y-59050000D01*
G75*
G02*
X45565000Y-58900000I0J150000D01*
G01*
X45565000Y-57250000D01*
G75*
G02*
X45715000Y-57100000I150000J0D01*
G01*
G37*
G36*
G01*
X44445000Y-57100000D02*
X44745000Y-57100000D01*
G75*
G02*
X44895000Y-57250000I0J-150000D01*
G01*
X44895000Y-58900000D01*
G75*
G02*
X44745000Y-59050000I-150000J0D01*
G01*
X44445000Y-59050000D01*
G75*
G02*
X44295000Y-58900000I0J150000D01*
G01*
X44295000Y-57250000D01*
G75*
G02*
X44445000Y-57100000I150000J0D01*
G01*
G37*
G36*
G01*
X44445000Y-52150000D02*
X44745000Y-52150000D01*
G75*
G02*
X44895000Y-52300000I0J-150000D01*
G01*
X44895000Y-53950000D01*
G75*
G02*
X44745000Y-54100000I-150000J0D01*
G01*
X44445000Y-54100000D01*
G75*
G02*
X44295000Y-53950000I0J150000D01*
G01*
X44295000Y-52300000D01*
G75*
G02*
X44445000Y-52150000I150000J0D01*
G01*
G37*
G36*
G01*
X45715000Y-52150000D02*
X46015000Y-52150000D01*
G75*
G02*
X46165000Y-52300000I0J-150000D01*
G01*
X46165000Y-53950000D01*
G75*
G02*
X46015000Y-54100000I-150000J0D01*
G01*
X45715000Y-54100000D01*
G75*
G02*
X45565000Y-53950000I0J150000D01*
G01*
X45565000Y-52300000D01*
G75*
G02*
X45715000Y-52150000I150000J0D01*
G01*
G37*
G36*
G01*
X46985000Y-52150000D02*
X47285000Y-52150000D01*
G75*
G02*
X47435000Y-52300000I0J-150000D01*
G01*
X47435000Y-53950000D01*
G75*
G02*
X47285000Y-54100000I-150000J0D01*
G01*
X46985000Y-54100000D01*
G75*
G02*
X46835000Y-53950000I0J150000D01*
G01*
X46835000Y-52300000D01*
G75*
G02*
X46985000Y-52150000I150000J0D01*
G01*
G37*
G36*
G01*
X48255000Y-52150000D02*
X48555000Y-52150000D01*
G75*
G02*
X48705000Y-52300000I0J-150000D01*
G01*
X48705000Y-53950000D01*
G75*
G02*
X48555000Y-54100000I-150000J0D01*
G01*
X48255000Y-54100000D01*
G75*
G02*
X48105000Y-53950000I0J150000D01*
G01*
X48105000Y-52300000D01*
G75*
G02*
X48255000Y-52150000I150000J0D01*
G01*
G37*
X47480000Y-67850000D03*
X46830000Y-67850000D03*
X46170000Y-67850000D03*
X45520000Y-67850000D03*
X45520000Y-70550000D03*
X46170000Y-70550000D03*
X46830000Y-70550000D03*
X47480000Y-70550000D03*
M02*
