G04 #@! TF.GenerationSoftware,KiCad,Pcbnew,(5.1.10)-1*
G04 #@! TF.CreationDate,2022-03-26T18:38:29-04:00*
G04 #@! TF.ProjectId,malice-striker,6d616c69-6365-42d7-9374-72696b65722e,rev?*
G04 #@! TF.SameCoordinates,Original*
G04 #@! TF.FileFunction,Soldermask,Bot*
G04 #@! TF.FilePolarity,Negative*
%FSLAX46Y46*%
G04 Gerber Fmt 4.6, Leading zero omitted, Abs format (unit mm)*
G04 Created by KiCad (PCBNEW (5.1.10)-1) date 2022-03-26 18:38:29*
%MOMM*%
%LPD*%
G01*
G04 APERTURE LIST*
%ADD10R,1.700000X1.700000*%
%ADD11O,1.700000X1.700000*%
%ADD12C,2.743200*%
%ADD13R,1.600000X1.600000*%
%ADD14O,1.600000X1.600000*%
%ADD15C,1.440000*%
%ADD16C,1.600000*%
%ADD17C,2.203200*%
%ADD18R,2.200000X2.200000*%
%ADD19O,2.200000X2.200000*%
%ADD20C,1.400000*%
%ADD21C,1.800000*%
%ADD22R,1.800000X1.800000*%
G04 APERTURE END LIST*
D10*
X61000000Y-106500000D03*
X61000000Y-102750000D03*
X61000000Y-99000000D03*
X73250000Y-43750000D03*
X47800000Y-91200000D03*
D11*
X45260000Y-91200000D03*
D10*
X47400000Y-47000000D03*
D11*
X44860000Y-47000000D03*
D10*
X47400000Y-36000000D03*
D11*
X44860000Y-36000000D03*
D12*
X34780000Y-43700000D03*
X29700000Y-43700000D03*
G36*
G01*
X25991600Y-42430000D02*
X25991600Y-44970000D01*
G75*
G02*
X25890000Y-45071600I-101600J0D01*
G01*
X23350000Y-45071600D01*
G75*
G02*
X23248400Y-44970000I0J101600D01*
G01*
X23248400Y-42430000D01*
G75*
G02*
X23350000Y-42328400I101600J0D01*
G01*
X25890000Y-42328400D01*
G75*
G02*
X25991600Y-42430000I0J-101600D01*
G01*
G37*
D13*
X57000000Y-84000000D03*
D14*
X67160000Y-76380000D03*
X57000000Y-81460000D03*
X67160000Y-78920000D03*
X57000000Y-78920000D03*
X67160000Y-81460000D03*
X57000000Y-76380000D03*
X67160000Y-84000000D03*
G36*
G01*
X58991600Y-67830000D02*
X58991600Y-70370000D01*
G75*
G02*
X58890000Y-70471600I-101600J0D01*
G01*
X56350000Y-70471600D01*
G75*
G02*
X56248400Y-70370000I0J101600D01*
G01*
X56248400Y-67830000D01*
G75*
G02*
X56350000Y-67728400I101600J0D01*
G01*
X58890000Y-67728400D01*
G75*
G02*
X58991600Y-67830000I0J-101600D01*
G01*
G37*
D12*
X62700000Y-69100000D03*
X67780000Y-69100000D03*
D15*
X22200000Y-92000000D03*
X19660000Y-89460000D03*
X22200000Y-86920000D03*
D16*
X28500000Y-106550000D03*
D14*
X28500000Y-98930000D03*
X72020000Y-90800000D03*
D16*
X64400000Y-90800000D03*
D17*
X70810000Y-72800000D03*
X63190000Y-72800000D03*
D16*
X27600000Y-64200000D03*
D14*
X19980000Y-64200000D03*
X38020000Y-64200000D03*
D16*
X30400000Y-64200000D03*
D17*
X64390000Y-87800000D03*
X72010000Y-87800000D03*
D14*
X19980000Y-57400000D03*
D16*
X27600000Y-57400000D03*
X31900000Y-98950000D03*
D14*
X31900000Y-106570000D03*
X73000000Y-55220000D03*
D16*
X73000000Y-47600000D03*
D17*
X38010000Y-48400000D03*
X30390000Y-48400000D03*
D14*
X19980000Y-47200000D03*
D16*
X27600000Y-47200000D03*
X26800000Y-74600000D03*
D14*
X34420000Y-74600000D03*
X19580000Y-94900000D03*
D16*
X27200000Y-94900000D03*
D17*
X26990000Y-77600000D03*
X34610000Y-77600000D03*
D14*
X19980000Y-50600000D03*
D16*
X27600000Y-50600000D03*
D14*
X65620000Y-62800000D03*
D16*
X58000000Y-62800000D03*
D17*
X34200000Y-53590000D03*
X34200000Y-61210000D03*
X72600000Y-69410000D03*
X72600000Y-61790000D03*
X57990000Y-56200000D03*
X65610000Y-56200000D03*
D14*
X65620000Y-59400000D03*
D16*
X58000000Y-59400000D03*
D17*
X23590000Y-39000000D03*
X31210000Y-39000000D03*
D14*
X31220000Y-35800000D03*
D16*
X23600000Y-35800000D03*
X40000000Y-35800000D03*
D14*
X40000000Y-43420000D03*
G36*
G01*
X58991600Y-42430000D02*
X58991600Y-44970000D01*
G75*
G02*
X58890000Y-45071600I-101600J0D01*
G01*
X56350000Y-45071600D01*
G75*
G02*
X56248400Y-44970000I0J101600D01*
G01*
X56248400Y-42430000D01*
G75*
G02*
X56350000Y-42328400I101600J0D01*
G01*
X58890000Y-42328400D01*
G75*
G02*
X58991600Y-42430000I0J-101600D01*
G01*
G37*
D12*
X62700000Y-43700000D03*
X67780000Y-43700000D03*
D14*
X65980000Y-36200000D03*
D13*
X73600000Y-36200000D03*
D14*
X73620000Y-39000000D03*
D13*
X66000000Y-39000000D03*
D18*
X65500000Y-105800000D03*
D19*
X65500000Y-95640000D03*
D18*
X52200000Y-51200000D03*
D19*
X52200000Y-41040000D03*
D18*
X62800000Y-37000000D03*
D19*
X52640000Y-37000000D03*
D16*
X22400000Y-75400000D03*
D13*
X22400000Y-73400000D03*
D16*
X71000000Y-97600000D03*
D13*
X71000000Y-99600000D03*
D16*
X39400000Y-80000000D03*
X39400000Y-85000000D03*
X20200000Y-60800000D03*
X25200000Y-60800000D03*
D13*
X32600000Y-83400000D03*
D16*
X30100000Y-83400000D03*
X22600000Y-82600000D03*
D13*
X22600000Y-80600000D03*
D16*
X52600000Y-71200000D03*
X52600000Y-66200000D03*
X42000000Y-62500000D03*
X47000000Y-62500000D03*
X24800000Y-105500000D03*
X19800000Y-105500000D03*
X52800000Y-87200000D03*
X47800000Y-87200000D03*
X24800000Y-99500000D03*
X19800000Y-99500000D03*
X41600000Y-66600000D03*
X41600000Y-71600000D03*
X51600000Y-78300000D03*
D13*
X51600000Y-75800000D03*
D16*
X53200000Y-62800000D03*
D13*
X53200000Y-60800000D03*
D20*
X38800000Y-58000000D03*
X38800000Y-55500000D03*
D16*
X52000000Y-54200000D03*
X52000000Y-56700000D03*
X60000000Y-90250000D03*
D13*
X58000000Y-90250000D03*
D16*
X25200000Y-54000000D03*
X20200000Y-54000000D03*
X31200000Y-56000000D03*
X31200000Y-61000000D03*
X68400000Y-48000000D03*
X68400000Y-53000000D03*
X57000000Y-49400000D03*
X62000000Y-49400000D03*
X71800000Y-80800000D03*
D13*
X71800000Y-82800000D03*
D16*
X29750000Y-91250000D03*
D13*
X31750000Y-91250000D03*
D16*
X20000000Y-43800000D03*
X20000000Y-38800000D03*
X41000000Y-46400000D03*
X41000000Y-51400000D03*
G36*
G01*
X25991600Y-67830000D02*
X25991600Y-70370000D01*
G75*
G02*
X25890000Y-70471600I-101600J0D01*
G01*
X23350000Y-70471600D01*
G75*
G02*
X23248400Y-70370000I0J101600D01*
G01*
X23248400Y-67830000D01*
G75*
G02*
X23350000Y-67728400I101600J0D01*
G01*
X25890000Y-67728400D01*
G75*
G02*
X25991600Y-67830000I0J-101600D01*
G01*
G37*
D12*
X29700000Y-69100000D03*
X34780000Y-69100000D03*
D21*
X47470000Y-41790000D03*
D22*
X44930000Y-41790000D03*
M02*
