G04 #@! TF.GenerationSoftware,KiCad,Pcbnew,(6.0.4)*
G04 #@! TF.CreationDate,2022-04-21T02:31:35-04:00*
G04 #@! TF.ProjectId,malice-striker-v2-2,6d616c69-6365-42d7-9374-72696b65722d,rev?*
G04 #@! TF.SameCoordinates,Original*
G04 #@! TF.FileFunction,Soldermask,Top*
G04 #@! TF.FilePolarity,Negative*
%FSLAX46Y46*%
G04 Gerber Fmt 4.6, Leading zero omitted, Abs format (unit mm)*
G04 Created by KiCad (PCBNEW (6.0.4)) date 2022-04-21 02:31:35*
%MOMM*%
%LPD*%
G01*
G04 APERTURE LIST*
G04 Aperture macros list*
%AMRoundRect*
0 Rectangle with rounded corners*
0 $1 Rounding radius*
0 $2 $3 $4 $5 $6 $7 $8 $9 X,Y pos of 4 corners*
0 Add a 4 corners polygon primitive as box body*
4,1,4,$2,$3,$4,$5,$6,$7,$8,$9,$2,$3,0*
0 Add four circle primitives for the rounded corners*
1,1,$1+$1,$2,$3*
1,1,$1+$1,$4,$5*
1,1,$1+$1,$6,$7*
1,1,$1+$1,$8,$9*
0 Add four rect primitives between the rounded corners*
20,1,$1+$1,$2,$3,$4,$5,0*
20,1,$1+$1,$4,$5,$6,$7,0*
20,1,$1+$1,$6,$7,$8,$9,0*
20,1,$1+$1,$8,$9,$2,$3,0*%
G04 Aperture macros list end*
%ADD10R,1.800000X1.800000*%
%ADD11C,1.800000*%
%ADD12RoundRect,0.101600X1.270000X1.270000X-1.270000X1.270000X-1.270000X-1.270000X1.270000X-1.270000X0*%
%ADD13C,2.743200*%
%ADD14RoundRect,0.101600X-0.599440X0.398780X-0.599440X-0.398780X0.599440X-0.398780X0.599440X0.398780X0*%
%ADD15RoundRect,0.101600X-0.798830X-0.899160X0.798830X-0.899160X0.798830X0.899160X-0.798830X0.899160X0*%
%ADD16RoundRect,0.101600X0.899160X-0.798830X0.899160X0.798830X-0.899160X0.798830X-0.899160X-0.798830X0*%
%ADD17RoundRect,0.101600X0.424180X0.449580X-0.424180X0.449580X-0.424180X-0.449580X0.424180X-0.449580X0*%
%ADD18RoundRect,0.101600X-0.398780X-0.599440X0.398780X-0.599440X0.398780X0.599440X-0.398780X0.599440X0*%
%ADD19RoundRect,0.101600X0.549910X0.499110X-0.549910X0.499110X-0.549910X-0.499110X0.549910X-0.499110X0*%
%ADD20RoundRect,0.101600X-0.499110X0.549910X-0.499110X-0.549910X0.499110X-0.549910X0.499110X0.549910X0*%
%ADD21RoundRect,0.101600X0.499110X-0.549910X0.499110X0.549910X-0.499110X0.549910X-0.499110X-0.549910X0*%
%ADD22RoundRect,0.101600X0.398780X0.599440X-0.398780X0.599440X-0.398780X-0.599440X0.398780X-0.599440X0*%
%ADD23RoundRect,0.101600X-0.424180X-0.449580X0.424180X-0.449580X0.424180X0.449580X-0.424180X0.449580X0*%
%ADD24R,1.200000X0.900000*%
%ADD25R,0.500000X0.500000*%
%ADD26RoundRect,0.250000X0.312500X0.625000X-0.312500X0.625000X-0.312500X-0.625000X0.312500X-0.625000X0*%
%ADD27RoundRect,0.250000X1.075000X-0.312500X1.075000X0.312500X-1.075000X0.312500X-1.075000X-0.312500X0*%
%ADD28RoundRect,0.250000X-0.312500X-0.625000X0.312500X-0.625000X0.312500X0.625000X-0.312500X0.625000X0*%
%ADD29RoundRect,0.250000X0.262500X0.450000X-0.262500X0.450000X-0.262500X-0.450000X0.262500X-0.450000X0*%
%ADD30RoundRect,0.250000X-0.625000X0.312500X-0.625000X-0.312500X0.625000X-0.312500X0.625000X0.312500X0*%
%ADD31RoundRect,0.250000X-0.262500X-0.450000X0.262500X-0.450000X0.262500X0.450000X-0.262500X0.450000X0*%
%ADD32RoundRect,0.150000X-0.825000X-0.150000X0.825000X-0.150000X0.825000X0.150000X-0.825000X0.150000X0*%
%ADD33R,2.290000X3.000000*%
%ADD34R,1.600000X1.600000*%
%ADD35C,1.600000*%
%ADD36R,1.700000X1.700000*%
%ADD37O,1.700000X1.700000*%
%ADD38C,2.400000*%
%ADD39O,2.400000X2.400000*%
%ADD40O,1.600000X1.600000*%
%ADD41C,1.440000*%
G04 APERTURE END LIST*
D10*
X44930000Y-41790000D03*
D11*
X47470000Y-41790000D03*
D12*
X24620000Y-69100000D03*
D13*
X29700000Y-69100000D03*
X34780000Y-69100000D03*
D14*
X72500000Y-97100840D03*
X72500000Y-98899160D03*
D15*
X35600460Y-81000000D03*
X38399540Y-81000000D03*
D16*
X72500000Y-81899540D03*
X72500000Y-79100460D03*
D17*
X33579120Y-84000000D03*
X32420880Y-84000000D03*
D18*
X31100840Y-98000000D03*
X32899160Y-98000000D03*
D14*
X61000000Y-93600840D03*
X61000000Y-95399160D03*
D16*
X20500000Y-62399540D03*
X20500000Y-59600460D03*
D19*
X47348360Y-61250000D03*
X45651640Y-61250000D03*
D20*
X52000000Y-59151640D03*
X52000000Y-60848360D03*
D14*
X52500000Y-64100840D03*
X52500000Y-65899160D03*
D21*
X20500000Y-88946720D03*
X20500000Y-87250000D03*
D14*
X52500000Y-73600840D03*
X52500000Y-75399160D03*
D22*
X50899160Y-92000000D03*
X49100840Y-92000000D03*
D14*
X52500000Y-52600840D03*
X52500000Y-54399160D03*
D21*
X53500000Y-49696720D03*
X53500000Y-48000000D03*
D15*
X26100460Y-72500000D03*
X28899540Y-72500000D03*
D23*
X39920880Y-69500000D03*
X41079120Y-69500000D03*
D24*
X72500000Y-76300000D03*
X72500000Y-73000000D03*
X63500000Y-58850000D03*
X63500000Y-62150000D03*
X66500000Y-89650000D03*
X66500000Y-86350000D03*
D25*
X38900000Y-90000000D03*
X41100000Y-90000000D03*
X41100000Y-86500000D03*
X38900000Y-86500000D03*
D12*
X57620000Y-43700000D03*
D13*
X62700000Y-43700000D03*
X67780000Y-43700000D03*
D26*
X67462500Y-99000000D03*
X64537500Y-99000000D03*
X52962500Y-87000000D03*
X50037500Y-87000000D03*
X33462500Y-90000000D03*
X30537500Y-90000000D03*
D27*
X46000000Y-87962500D03*
X46000000Y-85037500D03*
D28*
X32537500Y-73000000D03*
X35462500Y-73000000D03*
D26*
X30962500Y-81500000D03*
X28037500Y-81500000D03*
X51462500Y-82500000D03*
X48537500Y-82500000D03*
X43462500Y-82000000D03*
X40537500Y-82000000D03*
X28462500Y-90000000D03*
X25537500Y-90000000D03*
X30462500Y-77000000D03*
X27537500Y-77000000D03*
D28*
X35537500Y-77500000D03*
X38462500Y-77500000D03*
D29*
X26912500Y-52500000D03*
X25087500Y-52500000D03*
D30*
X58000000Y-59037500D03*
X58000000Y-61962500D03*
D31*
X43087500Y-92000000D03*
X44912500Y-92000000D03*
D29*
X27912500Y-95000000D03*
X26087500Y-95000000D03*
D30*
X56500000Y-72537500D03*
X56500000Y-75462500D03*
D26*
X53962500Y-69000000D03*
X51037500Y-69000000D03*
D12*
X57620000Y-69100000D03*
D13*
X62700000Y-69100000D03*
X67780000Y-69100000D03*
D32*
X43525000Y-52595000D03*
X43525000Y-53865000D03*
X43525000Y-55135000D03*
X43525000Y-56405000D03*
X48475000Y-56405000D03*
X48475000Y-55135000D03*
X48475000Y-53865000D03*
X48475000Y-52595000D03*
D33*
X46000000Y-54500000D03*
D32*
X43525000Y-62995000D03*
X43525000Y-64265000D03*
X43525000Y-65535000D03*
X43525000Y-66805000D03*
X48475000Y-66805000D03*
X48475000Y-65535000D03*
X48475000Y-64265000D03*
X48475000Y-62995000D03*
D33*
X46000000Y-64900000D03*
D32*
X43525000Y-73395000D03*
X43525000Y-74665000D03*
X43525000Y-75935000D03*
X43525000Y-77205000D03*
X48475000Y-77205000D03*
X48475000Y-75935000D03*
X48475000Y-74665000D03*
X48475000Y-73395000D03*
D33*
X46000000Y-75300000D03*
D12*
X24620000Y-43700000D03*
D13*
X29700000Y-43700000D03*
X34780000Y-43700000D03*
D34*
X21500000Y-83250000D03*
D35*
X21500000Y-81250000D03*
D34*
X54500000Y-78500000D03*
D35*
X56500000Y-78500000D03*
D34*
X72000000Y-56000000D03*
D35*
X72000000Y-58000000D03*
D34*
X62000000Y-86000000D03*
D35*
X62000000Y-88500000D03*
D34*
X25000000Y-57500000D03*
D35*
X25000000Y-59500000D03*
D34*
X23000000Y-75000000D03*
D35*
X20500000Y-75000000D03*
D34*
X34500000Y-57500000D03*
D35*
X34500000Y-55500000D03*
D34*
X72000000Y-87000000D03*
D35*
X72000000Y-89000000D03*
D36*
X47400000Y-36000000D03*
D37*
X44860000Y-36000000D03*
D36*
X47400000Y-47000000D03*
D37*
X44860000Y-47000000D03*
D36*
X68500000Y-95000000D03*
D37*
X65960000Y-95000000D03*
D38*
X36000000Y-85500000D03*
D39*
X56320000Y-85500000D03*
D35*
X21000000Y-92000000D03*
D40*
X21000000Y-107240000D03*
D38*
X30500000Y-86500000D03*
D39*
X30500000Y-106820000D03*
D38*
X36000000Y-90500000D03*
D39*
X56320000Y-90500000D03*
D38*
X25500000Y-86500000D03*
D39*
X25500000Y-106820000D03*
D41*
X70500000Y-107500000D03*
X67960000Y-104960000D03*
X70500000Y-102420000D03*
D34*
X61000000Y-81500000D03*
D40*
X61000000Y-78960000D03*
X61000000Y-76420000D03*
X61000000Y-73880000D03*
X68620000Y-73880000D03*
X68620000Y-76420000D03*
X68620000Y-78960000D03*
X68620000Y-81500000D03*
D36*
X73250000Y-43750000D03*
X61000000Y-99000000D03*
X61000000Y-102750000D03*
X61000000Y-106500000D03*
M02*
