M48
; DRILL file {KiCad (6.0.4)} date Thu Apr 21 02:31:54 2022
; FORMAT={-:-/ absolute / metric / decimal}
; #@! TF.CreationDate,2022-04-21T02:31:54-04:00
; #@! TF.GenerationSoftware,Kicad,Pcbnew,(6.0.4)
; #@! TF.FileFunction,Plated,1,4,PTH
FMAT,2
METRIC
; #@! TA.AperFunction,Plated,PTH,ViaDrill
T1C0.400
; #@! TA.AperFunction,Plated,PTH,ComponentDrill
T2C0.800
; #@! TA.AperFunction,Plated,PTH,ComponentDrill
T3C0.900
; #@! TA.AperFunction,Plated,PTH,ComponentDrill
T4C1.000
; #@! TA.AperFunction,Plated,PTH,ComponentDrill
T5C1.200
; #@! TA.AperFunction,Plated,PTH,ComponentDrill
T6C1.400
%
G90
G05
T1
X23.0Y-88.5
X23.5Y-95.0
X24.5Y-78.0
X26.0Y-82.5
X27.5Y-63.0
X28.0Y-79.5
X28.5Y-56.0
X30.0Y-95.0
X30.7Y-75.0
X31.0Y-84.4
X31.25Y-52.5
X32.4Y-74.659
X32.75Y-70.5
X34.5Y-79.0
X37.5Y-64.5
X38.4Y-82.9
X38.5Y-75.5
X39.75Y-51.75
X41.0Y-64.5
X41.0Y-65.75
X41.0Y-75.935
X41.5Y-84.0
X41.635Y-53.865
X41.75Y-57.75
X42.0Y-60.0
X43.0Y-86.0
X43.25Y-68.5
X43.525Y-78.975
X45.0Y-82.0
X45.5Y-71.0
X46.0Y-58.0
X46.0Y-90.0
X47.0Y-82.5
X48.25Y-68.5
X48.475Y-71.525
X48.5Y-90.0
X49.0Y-79.5
X50.0Y-50.0
X50.5Y-90.0
X50.565Y-75.935
X50.75Y-54.0
X50.835Y-74.665
X50.851Y-62.851
X51.0Y-65.0
X51.5Y-57.0
X52.475Y-92.025
X52.5Y-51.4
X52.53Y-70.875
X54.5Y-53.5
X54.648Y-59.152
X56.0Y-63.5
X56.05Y-50.25
X63.0Y-96.0
X63.5Y-56.5
X66.5Y-91.5
T2
X20.5Y-75.0
X21.0Y-92.0
X21.0Y-107.24
X21.5Y-81.25
X21.5Y-83.25
X23.0Y-75.0
X25.0Y-57.5
X25.0Y-59.5
X34.5Y-55.5
X34.5Y-57.5
X54.5Y-78.5
X56.5Y-78.5
X61.0Y-73.88
X61.0Y-76.42
X61.0Y-78.96
X61.0Y-81.5
X62.0Y-86.0
X62.0Y-88.5
X67.96Y-104.96
X68.62Y-73.88
X68.62Y-76.42
X68.62Y-78.96
X68.62Y-81.5
X70.5Y-102.42
X70.5Y-107.5
X72.0Y-56.0
X72.0Y-58.0
X72.0Y-87.0
X72.0Y-89.0
T3
X44.93Y-41.79
X47.47Y-41.79
T4
X44.86Y-36.0
X44.86Y-47.0
X47.4Y-36.0
X47.4Y-47.0
X61.0Y-99.0
X61.0Y-102.75
X61.0Y-106.5
X65.96Y-95.0
X68.5Y-95.0
X73.25Y-43.75
T5
X25.5Y-86.5
X25.5Y-106.82
X30.5Y-86.5
X30.5Y-106.82
X36.0Y-85.5
X36.0Y-90.5
X56.32Y-85.5
X56.32Y-90.5
T6
X24.62Y-43.7
X24.62Y-69.1
X29.7Y-43.7
X29.7Y-69.1
X34.78Y-43.7
X34.78Y-69.1
X57.62Y-43.7
X57.62Y-69.1
X62.7Y-43.7
X62.7Y-69.1
X67.78Y-43.7
X67.78Y-69.1
T0
M30
