%FSLAX45Y45*%
G04 Gerber Fmt 4.5, Leading zero omitted, Abs format (unit mm)*
G04 Created by KiCad (PCBNEW (6.0.4)) date 2022-04-21 02:31:55*
%MOMM*%
%LPD*%
G01*
G04 APERTURE LIST*
%TA.AperFunction,Profile*%
%ADD10C,0.100000*%
%TD*%
%ADD11C,0.200000*%
%ADD12C,0.040000*%
%ADD13C,0.080000*%
%ADD14C,0.090000*%
%ADD15C,0.100000*%
%ADD16C,0.120000*%
%ADD17C,0.140000*%
G04 APERTURE END LIST*
D10*
X5850000Y-9400000D02*
X3450000Y-9400000D01*
X1800000Y-10900000D02*
X1800000Y-3420000D01*
X7500000Y-3420000D02*
X7500000Y-10900000D01*
X1800000Y-3420000D02*
X7500000Y-3420000D01*
X1800000Y-10900000D02*
X3450000Y-10900000D01*
X3450000Y-10900000D02*
X3450000Y-9400000D01*
X5850000Y-10900000D02*
X5850000Y-9400000D01*
X7500000Y-10900000D02*
X5850000Y-10900000D01*
D11*
D12*
X2280000Y-8830000D02*
X2320000Y-8870000D01*
X2320000Y-8830000D02*
X2280000Y-8870000D01*
X2330000Y-9480000D02*
X2370000Y-9520000D01*
X2370000Y-9480000D02*
X2330000Y-9520000D01*
X2430000Y-7780000D02*
X2470000Y-7820000D01*
X2470000Y-7780000D02*
X2430000Y-7820000D01*
X2580000Y-8230000D02*
X2620000Y-8270000D01*
X2620000Y-8230000D02*
X2580000Y-8270000D01*
X2730000Y-6280000D02*
X2770000Y-6320000D01*
X2770000Y-6280000D02*
X2730000Y-6320000D01*
X2780000Y-7930000D02*
X2820000Y-7970000D01*
X2820000Y-7930000D02*
X2780000Y-7970000D01*
X2830000Y-5580000D02*
X2870000Y-5620000D01*
X2870000Y-5580000D02*
X2830000Y-5620000D01*
X2980000Y-9480000D02*
X3020000Y-9520000D01*
X3020000Y-9480000D02*
X2980000Y-9520000D01*
X3050000Y-7480000D02*
X3090000Y-7520000D01*
X3090000Y-7480000D02*
X3050000Y-7520000D01*
X3080000Y-8420000D02*
X3120000Y-8460000D01*
X3120000Y-8420000D02*
X3080000Y-8460000D01*
X3105000Y-5230000D02*
X3145000Y-5270000D01*
X3145000Y-5230000D02*
X3105000Y-5270000D01*
X3220000Y-7445912D02*
X3260000Y-7485912D01*
X3260000Y-7445912D02*
X3220000Y-7485912D01*
X3255000Y-7030000D02*
X3295000Y-7070000D01*
X3295000Y-7030000D02*
X3255000Y-7070000D01*
X3430000Y-7880000D02*
X3470000Y-7920000D01*
X3470000Y-7880000D02*
X3430000Y-7920000D01*
X3730000Y-6430000D02*
X3770000Y-6470000D01*
X3770000Y-6430000D02*
X3730000Y-6470000D01*
X3819954Y-8269954D02*
X3859954Y-8309954D01*
X3859954Y-8269954D02*
X3819954Y-8309954D01*
X3830000Y-7530000D02*
X3870000Y-7570000D01*
X3870000Y-7530000D02*
X3830000Y-7570000D01*
X3955000Y-5155000D02*
X3995000Y-5195000D01*
X3995000Y-5155000D02*
X3955000Y-5195000D01*
X4080000Y-6430000D02*
X4120000Y-6470000D01*
X4120000Y-6430000D02*
X4080000Y-6470000D01*
X4080000Y-6555000D02*
X4120000Y-6595000D01*
X4120000Y-6555000D02*
X4080000Y-6595000D01*
X4080000Y-7573500D02*
X4120000Y-7613500D01*
X4120000Y-7573500D02*
X4080000Y-7613500D01*
X4130000Y-8380000D02*
X4170000Y-8420000D01*
X4170000Y-8380000D02*
X4130000Y-8420000D01*
X4143500Y-5366500D02*
X4183500Y-5406500D01*
X4183500Y-5366500D02*
X4143500Y-5406500D01*
X4155000Y-5755000D02*
X4195000Y-5795000D01*
X4195000Y-5755000D02*
X4155000Y-5795000D01*
X4180000Y-5980000D02*
X4220000Y-6020000D01*
X4220000Y-5980000D02*
X4180000Y-6020000D01*
X4280000Y-8580000D02*
X4320000Y-8620000D01*
X4320000Y-8580000D02*
X4280000Y-8620000D01*
X4305000Y-6830000D02*
X4345000Y-6870000D01*
X4345000Y-6830000D02*
X4305000Y-6870000D01*
X4332500Y-7877500D02*
X4372500Y-7917500D01*
X4372500Y-7877500D02*
X4332500Y-7917500D01*
X4480000Y-8180000D02*
X4520000Y-8220000D01*
X4520000Y-8180000D02*
X4480000Y-8220000D01*
X4530000Y-7080000D02*
X4570000Y-7120000D01*
X4570000Y-7080000D02*
X4530000Y-7120000D01*
X4580000Y-5780000D02*
X4620000Y-5820000D01*
X4620000Y-5780000D02*
X4580000Y-5820000D01*
X4580000Y-8980000D02*
X4620000Y-9020000D01*
X4620000Y-8980000D02*
X4580000Y-9020000D01*
X4680000Y-8230000D02*
X4720000Y-8270000D01*
X4720000Y-8230000D02*
X4680000Y-8270000D01*
X4805000Y-6830000D02*
X4845000Y-6870000D01*
X4845000Y-6830000D02*
X4805000Y-6870000D01*
X4827500Y-7132500D02*
X4867500Y-7172500D01*
X4867500Y-7132500D02*
X4827500Y-7172500D01*
X4830000Y-8980000D02*
X4870000Y-9020000D01*
X4870000Y-8980000D02*
X4830000Y-9020000D01*
X4880000Y-7930000D02*
X4920000Y-7970000D01*
X4920000Y-7930000D02*
X4880000Y-7970000D01*
X4980000Y-4980000D02*
X5020000Y-5020000D01*
X5020000Y-4980000D02*
X4980000Y-5020000D01*
X5030000Y-8980000D02*
X5070000Y-9020000D01*
X5070000Y-8980000D02*
X5030000Y-9020000D01*
X5036500Y-7573500D02*
X5076500Y-7613500D01*
X5076500Y-7573500D02*
X5036500Y-7613500D01*
X5055000Y-5380000D02*
X5095000Y-5420000D01*
X5095000Y-5380000D02*
X5055000Y-5420000D01*
X5063500Y-7446500D02*
X5103500Y-7486500D01*
X5103500Y-7446500D02*
X5063500Y-7486500D01*
X5065084Y-6265084D02*
X5105084Y-6305084D01*
X5105084Y-6265084D02*
X5065084Y-6305084D01*
X5080000Y-6480000D02*
X5120000Y-6520000D01*
X5120000Y-6480000D02*
X5080000Y-6520000D01*
X5130000Y-5680000D02*
X5170000Y-5720000D01*
X5170000Y-5680000D02*
X5130000Y-5720000D01*
X5227500Y-9182500D02*
X5267500Y-9222500D01*
X5267500Y-9182500D02*
X5227500Y-9222500D01*
X5230000Y-5120000D02*
X5270000Y-5160000D01*
X5270000Y-5120000D02*
X5230000Y-5160000D01*
X5232951Y-7067499D02*
X5272951Y-7107499D01*
X5272951Y-7067499D02*
X5232951Y-7107499D01*
X5430000Y-5330000D02*
X5470000Y-5370000D01*
X5470000Y-5330000D02*
X5430000Y-5370000D01*
X5444836Y-5895164D02*
X5484836Y-5935164D01*
X5484836Y-5895164D02*
X5444836Y-5935164D01*
X5580000Y-6330000D02*
X5620000Y-6370000D01*
X5620000Y-6330000D02*
X5580000Y-6370000D01*
X5585000Y-5005000D02*
X5625000Y-5045000D01*
X5625000Y-5005000D02*
X5585000Y-5045000D01*
X6280000Y-9580000D02*
X6320000Y-9620000D01*
X6320000Y-9580000D02*
X6280000Y-9620000D01*
X6330000Y-5630000D02*
X6370000Y-5670000D01*
X6370000Y-5630000D02*
X6330000Y-5670000D01*
X6630000Y-9130000D02*
X6670000Y-9170000D01*
X6670000Y-9130000D02*
X6630000Y-9170000D01*
D13*
X2090000Y-7500000D02*
G75*
G03*
X2090000Y-7500000I-40000J0D01*
G01*
X2140000Y-9200000D02*
G75*
G03*
X2140000Y-9200000I-40000J0D01*
G01*
X2140000Y-10724000D02*
G75*
G03*
X2140000Y-10724000I-40000J0D01*
G01*
X2190000Y-8125000D02*
G75*
G03*
X2190000Y-8125000I-40000J0D01*
G01*
X2190000Y-8325000D02*
G75*
G03*
X2190000Y-8325000I-40000J0D01*
G01*
X2340000Y-7500000D02*
G75*
G03*
X2340000Y-7500000I-40000J0D01*
G01*
X2540000Y-5750000D02*
G75*
G03*
X2540000Y-5750000I-40000J0D01*
G01*
X2540000Y-5950000D02*
G75*
G03*
X2540000Y-5950000I-40000J0D01*
G01*
X3490000Y-5550000D02*
G75*
G03*
X3490000Y-5550000I-40000J0D01*
G01*
X3490000Y-5750000D02*
G75*
G03*
X3490000Y-5750000I-40000J0D01*
G01*
X5490000Y-7850000D02*
G75*
G03*
X5490000Y-7850000I-40000J0D01*
G01*
X5690000Y-7850000D02*
G75*
G03*
X5690000Y-7850000I-40000J0D01*
G01*
X6140000Y-7388000D02*
G75*
G03*
X6140000Y-7388000I-40000J0D01*
G01*
X6140000Y-7642000D02*
G75*
G03*
X6140000Y-7642000I-40000J0D01*
G01*
X6140000Y-7896000D02*
G75*
G03*
X6140000Y-7896000I-40000J0D01*
G01*
X6140000Y-8150000D02*
G75*
G03*
X6140000Y-8150000I-40000J0D01*
G01*
X6240000Y-8600000D02*
G75*
G03*
X6240000Y-8600000I-40000J0D01*
G01*
X6240000Y-8850000D02*
G75*
G03*
X6240000Y-8850000I-40000J0D01*
G01*
X6836000Y-10496000D02*
G75*
G03*
X6836000Y-10496000I-40000J0D01*
G01*
X6902000Y-7388000D02*
G75*
G03*
X6902000Y-7388000I-40000J0D01*
G01*
X6902000Y-7642000D02*
G75*
G03*
X6902000Y-7642000I-40000J0D01*
G01*
X6902000Y-7896000D02*
G75*
G03*
X6902000Y-7896000I-40000J0D01*
G01*
X6902000Y-8150000D02*
G75*
G03*
X6902000Y-8150000I-40000J0D01*
G01*
X7090000Y-10242000D02*
G75*
G03*
X7090000Y-10242000I-40000J0D01*
G01*
X7090000Y-10750000D02*
G75*
G03*
X7090000Y-10750000I-40000J0D01*
G01*
X7240000Y-5600000D02*
G75*
G03*
X7240000Y-5600000I-40000J0D01*
G01*
X7240000Y-5800000D02*
G75*
G03*
X7240000Y-5800000I-40000J0D01*
G01*
X7240000Y-8700000D02*
G75*
G03*
X7240000Y-8700000I-40000J0D01*
G01*
X7240000Y-8900000D02*
G75*
G03*
X7240000Y-8900000I-40000J0D01*
G01*
D14*
X4493000Y-4134000D02*
X4493000Y-4224000D01*
X4448000Y-4179000D02*
X4538000Y-4179000D01*
X4747000Y-4134000D02*
X4747000Y-4224000D01*
X4702000Y-4179000D02*
X4792000Y-4179000D01*
D15*
X4521356Y-3635356D02*
X4521356Y-3564644D01*
X4450644Y-3564644D01*
X4450644Y-3635356D01*
X4521356Y-3635356D01*
X4521356Y-4735356D02*
X4521356Y-4664644D01*
X4450644Y-4664644D01*
X4450644Y-4735356D01*
X4521356Y-4735356D01*
X4775356Y-3635356D02*
X4775356Y-3564644D01*
X4704644Y-3564644D01*
X4704644Y-3635356D01*
X4775356Y-3635356D01*
X4775356Y-4735356D02*
X4775356Y-4664644D01*
X4704644Y-4664644D01*
X4704644Y-4735356D01*
X4775356Y-4735356D01*
X6135356Y-9935356D02*
X6135356Y-9864644D01*
X6064644Y-9864644D01*
X6064644Y-9935356D01*
X6135356Y-9935356D01*
X6135356Y-10310356D02*
X6135356Y-10239644D01*
X6064644Y-10239644D01*
X6064644Y-10310356D01*
X6135356Y-10310356D01*
X6135356Y-10685356D02*
X6135356Y-10614644D01*
X6064644Y-10614644D01*
X6064644Y-10685356D01*
X6135356Y-10685356D01*
X6631356Y-9535356D02*
X6631356Y-9464644D01*
X6560644Y-9464644D01*
X6560644Y-9535356D01*
X6631356Y-9535356D01*
X6885356Y-9535356D02*
X6885356Y-9464644D01*
X6814644Y-9464644D01*
X6814644Y-9535356D01*
X6885356Y-9535356D01*
X7360356Y-4410356D02*
X7360356Y-4339644D01*
X7289644Y-4339644D01*
X7289644Y-4410356D01*
X7360356Y-4410356D01*
D16*
X2550000Y-8710000D02*
X2610000Y-8650000D01*
X2550000Y-8590000D01*
X2490000Y-8650000D01*
X2550000Y-8710000D01*
X2550000Y-10742000D02*
X2610000Y-10682000D01*
X2550000Y-10622000D01*
X2490000Y-10682000D01*
X2550000Y-10742000D01*
X3050000Y-8710000D02*
X3110000Y-8650000D01*
X3050000Y-8590000D01*
X2990000Y-8650000D01*
X3050000Y-8710000D01*
X3050000Y-10742000D02*
X3110000Y-10682000D01*
X3050000Y-10622000D01*
X2990000Y-10682000D01*
X3050000Y-10742000D01*
X3600000Y-8610000D02*
X3660000Y-8550000D01*
X3600000Y-8490000D01*
X3540000Y-8550000D01*
X3600000Y-8610000D01*
X3600000Y-9110000D02*
X3660000Y-9050000D01*
X3600000Y-8990000D01*
X3540000Y-9050000D01*
X3600000Y-9110000D01*
X5632000Y-8610000D02*
X5692000Y-8550000D01*
X5632000Y-8490000D01*
X5572000Y-8550000D01*
X5632000Y-8610000D01*
X5632000Y-9110000D02*
X5692000Y-9050000D01*
X5632000Y-8990000D01*
X5572000Y-9050000D01*
X5632000Y-9110000D01*
D17*
X2392000Y-4300000D02*
X2532000Y-4440000D01*
X2532000Y-4300000D02*
X2392000Y-4440000D01*
X2532000Y-4370000D02*
G75*
G03*
X2532000Y-4370000I-70000J0D01*
G01*
X2392000Y-6840000D02*
X2532000Y-6980000D01*
X2532000Y-6840000D02*
X2392000Y-6980000D01*
X2532000Y-6910000D02*
G75*
G03*
X2532000Y-6910000I-70000J0D01*
G01*
X2900000Y-4300000D02*
X3040000Y-4440000D01*
X3040000Y-4300000D02*
X2900000Y-4440000D01*
X3040000Y-4370000D02*
G75*
G03*
X3040000Y-4370000I-70000J0D01*
G01*
X2900000Y-6840000D02*
X3040000Y-6980000D01*
X3040000Y-6840000D02*
X2900000Y-6980000D01*
X3040000Y-6910000D02*
G75*
G03*
X3040000Y-6910000I-70000J0D01*
G01*
X3408000Y-4300000D02*
X3548000Y-4440000D01*
X3548000Y-4300000D02*
X3408000Y-4440000D01*
X3548000Y-4370000D02*
G75*
G03*
X3548000Y-4370000I-70000J0D01*
G01*
X3408000Y-6840000D02*
X3548000Y-6980000D01*
X3548000Y-6840000D02*
X3408000Y-6980000D01*
X3548000Y-6910000D02*
G75*
G03*
X3548000Y-6910000I-70000J0D01*
G01*
X5692000Y-4300000D02*
X5832000Y-4440000D01*
X5832000Y-4300000D02*
X5692000Y-4440000D01*
X5832000Y-4370000D02*
G75*
G03*
X5832000Y-4370000I-70000J0D01*
G01*
X5692000Y-6840000D02*
X5832000Y-6980000D01*
X5832000Y-6840000D02*
X5692000Y-6980000D01*
X5832000Y-6910000D02*
G75*
G03*
X5832000Y-6910000I-70000J0D01*
G01*
X6200000Y-4300000D02*
X6340000Y-4440000D01*
X6340000Y-4300000D02*
X6200000Y-4440000D01*
X6340000Y-4370000D02*
G75*
G03*
X6340000Y-4370000I-70000J0D01*
G01*
X6200000Y-6840000D02*
X6340000Y-6980000D01*
X6340000Y-6840000D02*
X6200000Y-6980000D01*
X6340000Y-6910000D02*
G75*
G03*
X6340000Y-6910000I-70000J0D01*
G01*
X6708000Y-4300000D02*
X6848000Y-4440000D01*
X6848000Y-4300000D02*
X6708000Y-4440000D01*
X6848000Y-4370000D02*
G75*
G03*
X6848000Y-4370000I-70000J0D01*
G01*
X6708000Y-6840000D02*
X6848000Y-6980000D01*
X6848000Y-6840000D02*
X6708000Y-6980000D01*
X6848000Y-6910000D02*
G75*
G03*
X6848000Y-6910000I-70000J0D01*
G01*
D11*
X2052619Y-11215476D02*
X2052619Y-11015476D01*
X2100238Y-11015476D01*
X2128810Y-11025000D01*
X2147857Y-11044048D01*
X2157381Y-11063095D01*
X2166905Y-11101190D01*
X2166905Y-11129762D01*
X2157381Y-11167857D01*
X2147857Y-11186905D01*
X2128810Y-11205952D01*
X2100238Y-11215476D01*
X2052619Y-11215476D01*
X2252619Y-11215476D02*
X2252619Y-11082143D01*
X2252619Y-11120238D02*
X2262143Y-11101190D01*
X2271667Y-11091667D01*
X2290714Y-11082143D01*
X2309762Y-11082143D01*
X2376429Y-11215476D02*
X2376429Y-11082143D01*
X2376429Y-11015476D02*
X2366905Y-11025000D01*
X2376429Y-11034524D01*
X2385952Y-11025000D01*
X2376429Y-11015476D01*
X2376429Y-11034524D01*
X2500238Y-11215476D02*
X2481190Y-11205952D01*
X2471667Y-11186905D01*
X2471667Y-11015476D01*
X2605000Y-11215476D02*
X2585952Y-11205952D01*
X2576429Y-11186905D01*
X2576429Y-11015476D01*
X2833571Y-11215476D02*
X2833571Y-11015476D01*
X2900238Y-11158333D01*
X2966905Y-11015476D01*
X2966905Y-11215476D01*
X3147857Y-11215476D02*
X3147857Y-11110714D01*
X3138333Y-11091667D01*
X3119286Y-11082143D01*
X3081190Y-11082143D01*
X3062143Y-11091667D01*
X3147857Y-11205952D02*
X3128809Y-11215476D01*
X3081190Y-11215476D01*
X3062143Y-11205952D01*
X3052619Y-11186905D01*
X3052619Y-11167857D01*
X3062143Y-11148810D01*
X3081190Y-11139286D01*
X3128809Y-11139286D01*
X3147857Y-11129762D01*
X3243095Y-11082143D02*
X3243095Y-11282143D01*
X3243095Y-11091667D02*
X3262143Y-11082143D01*
X3300238Y-11082143D01*
X3319286Y-11091667D01*
X3328809Y-11101190D01*
X3338333Y-11120238D01*
X3338333Y-11177381D01*
X3328809Y-11196428D01*
X3319286Y-11205952D01*
X3300238Y-11215476D01*
X3262143Y-11215476D01*
X3243095Y-11205952D01*
X3424048Y-11196428D02*
X3433571Y-11205952D01*
X3424048Y-11215476D01*
X3414524Y-11205952D01*
X3424048Y-11196428D01*
X3424048Y-11215476D01*
X3424048Y-11091667D02*
X3433571Y-11101190D01*
X3424048Y-11110714D01*
X3414524Y-11101190D01*
X3424048Y-11091667D01*
X3424048Y-11110714D01*
D12*
X1755000Y-11525000D02*
X1795000Y-11565000D01*
X1795000Y-11525000D02*
X1755000Y-11565000D01*
D11*
X2090714Y-11435476D02*
X2109762Y-11435476D01*
X2128810Y-11445000D01*
X2138333Y-11454524D01*
X2147857Y-11473571D01*
X2157381Y-11511667D01*
X2157381Y-11559286D01*
X2147857Y-11597381D01*
X2138333Y-11616428D01*
X2128810Y-11625952D01*
X2109762Y-11635476D01*
X2090714Y-11635476D01*
X2071667Y-11625952D01*
X2062143Y-11616428D01*
X2052619Y-11597381D01*
X2043095Y-11559286D01*
X2043095Y-11511667D01*
X2052619Y-11473571D01*
X2062143Y-11454524D01*
X2071667Y-11445000D01*
X2090714Y-11435476D01*
X2243095Y-11616428D02*
X2252619Y-11625952D01*
X2243095Y-11635476D01*
X2233571Y-11625952D01*
X2243095Y-11616428D01*
X2243095Y-11635476D01*
X2424048Y-11502143D02*
X2424048Y-11635476D01*
X2376429Y-11425952D02*
X2328810Y-11568809D01*
X2452619Y-11568809D01*
X2566905Y-11435476D02*
X2585952Y-11435476D01*
X2605000Y-11445000D01*
X2614524Y-11454524D01*
X2624048Y-11473571D01*
X2633571Y-11511667D01*
X2633571Y-11559286D01*
X2624048Y-11597381D01*
X2614524Y-11616428D01*
X2605000Y-11625952D01*
X2585952Y-11635476D01*
X2566905Y-11635476D01*
X2547857Y-11625952D01*
X2538333Y-11616428D01*
X2528810Y-11597381D01*
X2519286Y-11559286D01*
X2519286Y-11511667D01*
X2528810Y-11473571D01*
X2538333Y-11454524D01*
X2547857Y-11445000D01*
X2566905Y-11435476D01*
X2757381Y-11435476D02*
X2776429Y-11435476D01*
X2795476Y-11445000D01*
X2805000Y-11454524D01*
X2814524Y-11473571D01*
X2824048Y-11511667D01*
X2824048Y-11559286D01*
X2814524Y-11597381D01*
X2805000Y-11616428D01*
X2795476Y-11625952D01*
X2776429Y-11635476D01*
X2757381Y-11635476D01*
X2738333Y-11625952D01*
X2728810Y-11616428D01*
X2719286Y-11597381D01*
X2709762Y-11559286D01*
X2709762Y-11511667D01*
X2719286Y-11473571D01*
X2728810Y-11454524D01*
X2738333Y-11445000D01*
X2757381Y-11435476D01*
X2909762Y-11635476D02*
X2909762Y-11502143D01*
X2909762Y-11521190D02*
X2919286Y-11511667D01*
X2938333Y-11502143D01*
X2966905Y-11502143D01*
X2985952Y-11511667D01*
X2995476Y-11530714D01*
X2995476Y-11635476D01*
X2995476Y-11530714D02*
X3005000Y-11511667D01*
X3024048Y-11502143D01*
X3052619Y-11502143D01*
X3071667Y-11511667D01*
X3081190Y-11530714D01*
X3081190Y-11635476D01*
X3176428Y-11635476D02*
X3176428Y-11502143D01*
X3176428Y-11521190D02*
X3185952Y-11511667D01*
X3205000Y-11502143D01*
X3233571Y-11502143D01*
X3252619Y-11511667D01*
X3262143Y-11530714D01*
X3262143Y-11635476D01*
X3262143Y-11530714D02*
X3271667Y-11511667D01*
X3290714Y-11502143D01*
X3319286Y-11502143D01*
X3338333Y-11511667D01*
X3347857Y-11530714D01*
X3347857Y-11635476D01*
X3738333Y-11425952D02*
X3566905Y-11683095D01*
X3995476Y-11435476D02*
X4014524Y-11435476D01*
X4033571Y-11445000D01*
X4043095Y-11454524D01*
X4052619Y-11473571D01*
X4062143Y-11511667D01*
X4062143Y-11559286D01*
X4052619Y-11597381D01*
X4043095Y-11616428D01*
X4033571Y-11625952D01*
X4014524Y-11635476D01*
X3995476Y-11635476D01*
X3976428Y-11625952D01*
X3966905Y-11616428D01*
X3957381Y-11597381D01*
X3947857Y-11559286D01*
X3947857Y-11511667D01*
X3957381Y-11473571D01*
X3966905Y-11454524D01*
X3976428Y-11445000D01*
X3995476Y-11435476D01*
X4147857Y-11616428D02*
X4157381Y-11625952D01*
X4147857Y-11635476D01*
X4138333Y-11625952D01*
X4147857Y-11616428D01*
X4147857Y-11635476D01*
X4281190Y-11435476D02*
X4300238Y-11435476D01*
X4319286Y-11445000D01*
X4328810Y-11454524D01*
X4338333Y-11473571D01*
X4347857Y-11511667D01*
X4347857Y-11559286D01*
X4338333Y-11597381D01*
X4328810Y-11616428D01*
X4319286Y-11625952D01*
X4300238Y-11635476D01*
X4281190Y-11635476D01*
X4262143Y-11625952D01*
X4252619Y-11616428D01*
X4243095Y-11597381D01*
X4233571Y-11559286D01*
X4233571Y-11511667D01*
X4243095Y-11473571D01*
X4252619Y-11454524D01*
X4262143Y-11445000D01*
X4281190Y-11435476D01*
X4538333Y-11635476D02*
X4424048Y-11635476D01*
X4481190Y-11635476D02*
X4481190Y-11435476D01*
X4462143Y-11464048D01*
X4443095Y-11483095D01*
X4424048Y-11492619D01*
X4719286Y-11435476D02*
X4624048Y-11435476D01*
X4614524Y-11530714D01*
X4624048Y-11521190D01*
X4643095Y-11511667D01*
X4690714Y-11511667D01*
X4709762Y-11521190D01*
X4719286Y-11530714D01*
X4728810Y-11549762D01*
X4728810Y-11597381D01*
X4719286Y-11616428D01*
X4709762Y-11625952D01*
X4690714Y-11635476D01*
X4643095Y-11635476D01*
X4624048Y-11625952D01*
X4614524Y-11616428D01*
X4795476Y-11435476D02*
X4928810Y-11435476D01*
X4843095Y-11635476D01*
X4995476Y-11435476D02*
X4995476Y-11473571D01*
X5071667Y-11435476D02*
X5071667Y-11473571D01*
X5366905Y-11711667D02*
X5357381Y-11702143D01*
X5338333Y-11673571D01*
X5328810Y-11654524D01*
X5319286Y-11625952D01*
X5309762Y-11578333D01*
X5309762Y-11540238D01*
X5319286Y-11492619D01*
X5328810Y-11464048D01*
X5338333Y-11445000D01*
X5357381Y-11416428D01*
X5366905Y-11406905D01*
X5538333Y-11435476D02*
X5443095Y-11435476D01*
X5433571Y-11530714D01*
X5443095Y-11521190D01*
X5462143Y-11511667D01*
X5509762Y-11511667D01*
X5528810Y-11521190D01*
X5538333Y-11530714D01*
X5547857Y-11549762D01*
X5547857Y-11597381D01*
X5538333Y-11616428D01*
X5528810Y-11625952D01*
X5509762Y-11635476D01*
X5462143Y-11635476D01*
X5443095Y-11625952D01*
X5433571Y-11616428D01*
X5728809Y-11435476D02*
X5633571Y-11435476D01*
X5624048Y-11530714D01*
X5633571Y-11521190D01*
X5652619Y-11511667D01*
X5700238Y-11511667D01*
X5719286Y-11521190D01*
X5728809Y-11530714D01*
X5738333Y-11549762D01*
X5738333Y-11597381D01*
X5728809Y-11616428D01*
X5719286Y-11625952D01*
X5700238Y-11635476D01*
X5652619Y-11635476D01*
X5633571Y-11625952D01*
X5624048Y-11616428D01*
X5976428Y-11635476D02*
X5976428Y-11435476D01*
X6062143Y-11635476D02*
X6062143Y-11530714D01*
X6052619Y-11511667D01*
X6033571Y-11502143D01*
X6005000Y-11502143D01*
X5985952Y-11511667D01*
X5976428Y-11521190D01*
X6185952Y-11635476D02*
X6166905Y-11625952D01*
X6157381Y-11616428D01*
X6147857Y-11597381D01*
X6147857Y-11540238D01*
X6157381Y-11521190D01*
X6166905Y-11511667D01*
X6185952Y-11502143D01*
X6214524Y-11502143D01*
X6233571Y-11511667D01*
X6243095Y-11521190D01*
X6252619Y-11540238D01*
X6252619Y-11597381D01*
X6243095Y-11616428D01*
X6233571Y-11625952D01*
X6214524Y-11635476D01*
X6185952Y-11635476D01*
X6366905Y-11635476D02*
X6347857Y-11625952D01*
X6338333Y-11606905D01*
X6338333Y-11435476D01*
X6519286Y-11625952D02*
X6500238Y-11635476D01*
X6462143Y-11635476D01*
X6443095Y-11625952D01*
X6433571Y-11606905D01*
X6433571Y-11530714D01*
X6443095Y-11511667D01*
X6462143Y-11502143D01*
X6500238Y-11502143D01*
X6519286Y-11511667D01*
X6528809Y-11530714D01*
X6528809Y-11549762D01*
X6433571Y-11568809D01*
X6605000Y-11625952D02*
X6624048Y-11635476D01*
X6662143Y-11635476D01*
X6681190Y-11625952D01*
X6690714Y-11606905D01*
X6690714Y-11597381D01*
X6681190Y-11578333D01*
X6662143Y-11568809D01*
X6633571Y-11568809D01*
X6614524Y-11559286D01*
X6605000Y-11540238D01*
X6605000Y-11530714D01*
X6614524Y-11511667D01*
X6633571Y-11502143D01*
X6662143Y-11502143D01*
X6681190Y-11511667D01*
X6757381Y-11711667D02*
X6766905Y-11702143D01*
X6785952Y-11673571D01*
X6795476Y-11654524D01*
X6805000Y-11625952D01*
X6814524Y-11578333D01*
X6814524Y-11540238D01*
X6805000Y-11492619D01*
X6795476Y-11464048D01*
X6785952Y-11445000D01*
X6766905Y-11416428D01*
X6757381Y-11406905D01*
D13*
X1795000Y-11809000D02*
G75*
G03*
X1795000Y-11809000I-40000J0D01*
G01*
D11*
X2090714Y-11699476D02*
X2109762Y-11699476D01*
X2128810Y-11709000D01*
X2138333Y-11718524D01*
X2147857Y-11737571D01*
X2157381Y-11775667D01*
X2157381Y-11823286D01*
X2147857Y-11861381D01*
X2138333Y-11880428D01*
X2128810Y-11889952D01*
X2109762Y-11899476D01*
X2090714Y-11899476D01*
X2071667Y-11889952D01*
X2062143Y-11880428D01*
X2052619Y-11861381D01*
X2043095Y-11823286D01*
X2043095Y-11775667D01*
X2052619Y-11737571D01*
X2062143Y-11718524D01*
X2071667Y-11709000D01*
X2090714Y-11699476D01*
X2243095Y-11880428D02*
X2252619Y-11889952D01*
X2243095Y-11899476D01*
X2233571Y-11889952D01*
X2243095Y-11880428D01*
X2243095Y-11899476D01*
X2366905Y-11785190D02*
X2347857Y-11775667D01*
X2338333Y-11766143D01*
X2328810Y-11747095D01*
X2328810Y-11737571D01*
X2338333Y-11718524D01*
X2347857Y-11709000D01*
X2366905Y-11699476D01*
X2405000Y-11699476D01*
X2424048Y-11709000D01*
X2433571Y-11718524D01*
X2443095Y-11737571D01*
X2443095Y-11747095D01*
X2433571Y-11766143D01*
X2424048Y-11775667D01*
X2405000Y-11785190D01*
X2366905Y-11785190D01*
X2347857Y-11794714D01*
X2338333Y-11804238D01*
X2328810Y-11823286D01*
X2328810Y-11861381D01*
X2338333Y-11880428D01*
X2347857Y-11889952D01*
X2366905Y-11899476D01*
X2405000Y-11899476D01*
X2424048Y-11889952D01*
X2433571Y-11880428D01*
X2443095Y-11861381D01*
X2443095Y-11823286D01*
X2433571Y-11804238D01*
X2424048Y-11794714D01*
X2405000Y-11785190D01*
X2566905Y-11699476D02*
X2585952Y-11699476D01*
X2605000Y-11709000D01*
X2614524Y-11718524D01*
X2624048Y-11737571D01*
X2633571Y-11775667D01*
X2633571Y-11823286D01*
X2624048Y-11861381D01*
X2614524Y-11880428D01*
X2605000Y-11889952D01*
X2585952Y-11899476D01*
X2566905Y-11899476D01*
X2547857Y-11889952D01*
X2538333Y-11880428D01*
X2528810Y-11861381D01*
X2519286Y-11823286D01*
X2519286Y-11775667D01*
X2528810Y-11737571D01*
X2538333Y-11718524D01*
X2547857Y-11709000D01*
X2566905Y-11699476D01*
X2757381Y-11699476D02*
X2776429Y-11699476D01*
X2795476Y-11709000D01*
X2805000Y-11718524D01*
X2814524Y-11737571D01*
X2824048Y-11775667D01*
X2824048Y-11823286D01*
X2814524Y-11861381D01*
X2805000Y-11880428D01*
X2795476Y-11889952D01*
X2776429Y-11899476D01*
X2757381Y-11899476D01*
X2738333Y-11889952D01*
X2728810Y-11880428D01*
X2719286Y-11861381D01*
X2709762Y-11823286D01*
X2709762Y-11775667D01*
X2719286Y-11737571D01*
X2728810Y-11718524D01*
X2738333Y-11709000D01*
X2757381Y-11699476D01*
X2909762Y-11899476D02*
X2909762Y-11766143D01*
X2909762Y-11785190D02*
X2919286Y-11775667D01*
X2938333Y-11766143D01*
X2966905Y-11766143D01*
X2985952Y-11775667D01*
X2995476Y-11794714D01*
X2995476Y-11899476D01*
X2995476Y-11794714D02*
X3005000Y-11775667D01*
X3024048Y-11766143D01*
X3052619Y-11766143D01*
X3071667Y-11775667D01*
X3081190Y-11794714D01*
X3081190Y-11899476D01*
X3176428Y-11899476D02*
X3176428Y-11766143D01*
X3176428Y-11785190D02*
X3185952Y-11775667D01*
X3205000Y-11766143D01*
X3233571Y-11766143D01*
X3252619Y-11775667D01*
X3262143Y-11794714D01*
X3262143Y-11899476D01*
X3262143Y-11794714D02*
X3271667Y-11775667D01*
X3290714Y-11766143D01*
X3319286Y-11766143D01*
X3338333Y-11775667D01*
X3347857Y-11794714D01*
X3347857Y-11899476D01*
X3738333Y-11689952D02*
X3566905Y-11947095D01*
X3995476Y-11699476D02*
X4014524Y-11699476D01*
X4033571Y-11709000D01*
X4043095Y-11718524D01*
X4052619Y-11737571D01*
X4062143Y-11775667D01*
X4062143Y-11823286D01*
X4052619Y-11861381D01*
X4043095Y-11880428D01*
X4033571Y-11889952D01*
X4014524Y-11899476D01*
X3995476Y-11899476D01*
X3976428Y-11889952D01*
X3966905Y-11880428D01*
X3957381Y-11861381D01*
X3947857Y-11823286D01*
X3947857Y-11775667D01*
X3957381Y-11737571D01*
X3966905Y-11718524D01*
X3976428Y-11709000D01*
X3995476Y-11699476D01*
X4147857Y-11880428D02*
X4157381Y-11889952D01*
X4147857Y-11899476D01*
X4138333Y-11889952D01*
X4147857Y-11880428D01*
X4147857Y-11899476D01*
X4281190Y-11699476D02*
X4300238Y-11699476D01*
X4319286Y-11709000D01*
X4328810Y-11718524D01*
X4338333Y-11737571D01*
X4347857Y-11775667D01*
X4347857Y-11823286D01*
X4338333Y-11861381D01*
X4328810Y-11880428D01*
X4319286Y-11889952D01*
X4300238Y-11899476D01*
X4281190Y-11899476D01*
X4262143Y-11889952D01*
X4252619Y-11880428D01*
X4243095Y-11861381D01*
X4233571Y-11823286D01*
X4233571Y-11775667D01*
X4243095Y-11737571D01*
X4252619Y-11718524D01*
X4262143Y-11709000D01*
X4281190Y-11699476D01*
X4414524Y-11699476D02*
X4538333Y-11699476D01*
X4471667Y-11775667D01*
X4500238Y-11775667D01*
X4519286Y-11785190D01*
X4528810Y-11794714D01*
X4538333Y-11813762D01*
X4538333Y-11861381D01*
X4528810Y-11880428D01*
X4519286Y-11889952D01*
X4500238Y-11899476D01*
X4443095Y-11899476D01*
X4424048Y-11889952D01*
X4414524Y-11880428D01*
X4728810Y-11899476D02*
X4614524Y-11899476D01*
X4671667Y-11899476D02*
X4671667Y-11699476D01*
X4652619Y-11728048D01*
X4633571Y-11747095D01*
X4614524Y-11756619D01*
X4909762Y-11699476D02*
X4814524Y-11699476D01*
X4805000Y-11794714D01*
X4814524Y-11785190D01*
X4833571Y-11775667D01*
X4881190Y-11775667D01*
X4900238Y-11785190D01*
X4909762Y-11794714D01*
X4919286Y-11813762D01*
X4919286Y-11861381D01*
X4909762Y-11880428D01*
X4900238Y-11889952D01*
X4881190Y-11899476D01*
X4833571Y-11899476D01*
X4814524Y-11889952D01*
X4805000Y-11880428D01*
X4995476Y-11699476D02*
X4995476Y-11737571D01*
X5071667Y-11699476D02*
X5071667Y-11737571D01*
X5366905Y-11975667D02*
X5357381Y-11966143D01*
X5338333Y-11937571D01*
X5328810Y-11918524D01*
X5319286Y-11889952D01*
X5309762Y-11842333D01*
X5309762Y-11804238D01*
X5319286Y-11756619D01*
X5328810Y-11728048D01*
X5338333Y-11709000D01*
X5357381Y-11680428D01*
X5366905Y-11670905D01*
X5433571Y-11718524D02*
X5443095Y-11709000D01*
X5462143Y-11699476D01*
X5509762Y-11699476D01*
X5528810Y-11709000D01*
X5538333Y-11718524D01*
X5547857Y-11737571D01*
X5547857Y-11756619D01*
X5538333Y-11785190D01*
X5424048Y-11899476D01*
X5547857Y-11899476D01*
X5643095Y-11899476D02*
X5681190Y-11899476D01*
X5700238Y-11889952D01*
X5709762Y-11880428D01*
X5728809Y-11851857D01*
X5738333Y-11813762D01*
X5738333Y-11737571D01*
X5728809Y-11718524D01*
X5719286Y-11709000D01*
X5700238Y-11699476D01*
X5662143Y-11699476D01*
X5643095Y-11709000D01*
X5633571Y-11718524D01*
X5624048Y-11737571D01*
X5624048Y-11785190D01*
X5633571Y-11804238D01*
X5643095Y-11813762D01*
X5662143Y-11823286D01*
X5700238Y-11823286D01*
X5719286Y-11813762D01*
X5728809Y-11804238D01*
X5738333Y-11785190D01*
X5976428Y-11899476D02*
X5976428Y-11699476D01*
X6062143Y-11899476D02*
X6062143Y-11794714D01*
X6052619Y-11775667D01*
X6033571Y-11766143D01*
X6005000Y-11766143D01*
X5985952Y-11775667D01*
X5976428Y-11785190D01*
X6185952Y-11899476D02*
X6166905Y-11889952D01*
X6157381Y-11880428D01*
X6147857Y-11861381D01*
X6147857Y-11804238D01*
X6157381Y-11785190D01*
X6166905Y-11775667D01*
X6185952Y-11766143D01*
X6214524Y-11766143D01*
X6233571Y-11775667D01*
X6243095Y-11785190D01*
X6252619Y-11804238D01*
X6252619Y-11861381D01*
X6243095Y-11880428D01*
X6233571Y-11889952D01*
X6214524Y-11899476D01*
X6185952Y-11899476D01*
X6366905Y-11899476D02*
X6347857Y-11889952D01*
X6338333Y-11870905D01*
X6338333Y-11699476D01*
X6519286Y-11889952D02*
X6500238Y-11899476D01*
X6462143Y-11899476D01*
X6443095Y-11889952D01*
X6433571Y-11870905D01*
X6433571Y-11794714D01*
X6443095Y-11775667D01*
X6462143Y-11766143D01*
X6500238Y-11766143D01*
X6519286Y-11775667D01*
X6528809Y-11794714D01*
X6528809Y-11813762D01*
X6433571Y-11832809D01*
X6605000Y-11889952D02*
X6624048Y-11899476D01*
X6662143Y-11899476D01*
X6681190Y-11889952D01*
X6690714Y-11870905D01*
X6690714Y-11861381D01*
X6681190Y-11842333D01*
X6662143Y-11832809D01*
X6633571Y-11832809D01*
X6614524Y-11823286D01*
X6605000Y-11804238D01*
X6605000Y-11794714D01*
X6614524Y-11775667D01*
X6633571Y-11766143D01*
X6662143Y-11766143D01*
X6681190Y-11775667D01*
X6757381Y-11975667D02*
X6766905Y-11966143D01*
X6785952Y-11937571D01*
X6795476Y-11918524D01*
X6805000Y-11889952D01*
X6814524Y-11842333D01*
X6814524Y-11804238D01*
X6805000Y-11756619D01*
X6795476Y-11728048D01*
X6785952Y-11709000D01*
X6766905Y-11680428D01*
X6757381Y-11670905D01*
D14*
X1750000Y-12028000D02*
X1750000Y-12118000D01*
X1705000Y-12073000D02*
X1795000Y-12073000D01*
D11*
X2090714Y-11963476D02*
X2109762Y-11963476D01*
X2128810Y-11973000D01*
X2138333Y-11982524D01*
X2147857Y-12001571D01*
X2157381Y-12039667D01*
X2157381Y-12087286D01*
X2147857Y-12125381D01*
X2138333Y-12144428D01*
X2128810Y-12153952D01*
X2109762Y-12163476D01*
X2090714Y-12163476D01*
X2071667Y-12153952D01*
X2062143Y-12144428D01*
X2052619Y-12125381D01*
X2043095Y-12087286D01*
X2043095Y-12039667D01*
X2052619Y-12001571D01*
X2062143Y-11982524D01*
X2071667Y-11973000D01*
X2090714Y-11963476D01*
X2243095Y-12144428D02*
X2252619Y-12153952D01*
X2243095Y-12163476D01*
X2233571Y-12153952D01*
X2243095Y-12144428D01*
X2243095Y-12163476D01*
X2347857Y-12163476D02*
X2385952Y-12163476D01*
X2405000Y-12153952D01*
X2414524Y-12144428D01*
X2433571Y-12115857D01*
X2443095Y-12077762D01*
X2443095Y-12001571D01*
X2433571Y-11982524D01*
X2424048Y-11973000D01*
X2405000Y-11963476D01*
X2366905Y-11963476D01*
X2347857Y-11973000D01*
X2338333Y-11982524D01*
X2328810Y-12001571D01*
X2328810Y-12049190D01*
X2338333Y-12068238D01*
X2347857Y-12077762D01*
X2366905Y-12087286D01*
X2405000Y-12087286D01*
X2424048Y-12077762D01*
X2433571Y-12068238D01*
X2443095Y-12049190D01*
X2566905Y-11963476D02*
X2585952Y-11963476D01*
X2605000Y-11973000D01*
X2614524Y-11982524D01*
X2624048Y-12001571D01*
X2633571Y-12039667D01*
X2633571Y-12087286D01*
X2624048Y-12125381D01*
X2614524Y-12144428D01*
X2605000Y-12153952D01*
X2585952Y-12163476D01*
X2566905Y-12163476D01*
X2547857Y-12153952D01*
X2538333Y-12144428D01*
X2528810Y-12125381D01*
X2519286Y-12087286D01*
X2519286Y-12039667D01*
X2528810Y-12001571D01*
X2538333Y-11982524D01*
X2547857Y-11973000D01*
X2566905Y-11963476D01*
X2757381Y-11963476D02*
X2776429Y-11963476D01*
X2795476Y-11973000D01*
X2805000Y-11982524D01*
X2814524Y-12001571D01*
X2824048Y-12039667D01*
X2824048Y-12087286D01*
X2814524Y-12125381D01*
X2805000Y-12144428D01*
X2795476Y-12153952D01*
X2776429Y-12163476D01*
X2757381Y-12163476D01*
X2738333Y-12153952D01*
X2728810Y-12144428D01*
X2719286Y-12125381D01*
X2709762Y-12087286D01*
X2709762Y-12039667D01*
X2719286Y-12001571D01*
X2728810Y-11982524D01*
X2738333Y-11973000D01*
X2757381Y-11963476D01*
X2909762Y-12163476D02*
X2909762Y-12030143D01*
X2909762Y-12049190D02*
X2919286Y-12039667D01*
X2938333Y-12030143D01*
X2966905Y-12030143D01*
X2985952Y-12039667D01*
X2995476Y-12058714D01*
X2995476Y-12163476D01*
X2995476Y-12058714D02*
X3005000Y-12039667D01*
X3024048Y-12030143D01*
X3052619Y-12030143D01*
X3071667Y-12039667D01*
X3081190Y-12058714D01*
X3081190Y-12163476D01*
X3176428Y-12163476D02*
X3176428Y-12030143D01*
X3176428Y-12049190D02*
X3185952Y-12039667D01*
X3205000Y-12030143D01*
X3233571Y-12030143D01*
X3252619Y-12039667D01*
X3262143Y-12058714D01*
X3262143Y-12163476D01*
X3262143Y-12058714D02*
X3271667Y-12039667D01*
X3290714Y-12030143D01*
X3319286Y-12030143D01*
X3338333Y-12039667D01*
X3347857Y-12058714D01*
X3347857Y-12163476D01*
X3738333Y-11953952D02*
X3566905Y-12211095D01*
X3995476Y-11963476D02*
X4014524Y-11963476D01*
X4033571Y-11973000D01*
X4043095Y-11982524D01*
X4052619Y-12001571D01*
X4062143Y-12039667D01*
X4062143Y-12087286D01*
X4052619Y-12125381D01*
X4043095Y-12144428D01*
X4033571Y-12153952D01*
X4014524Y-12163476D01*
X3995476Y-12163476D01*
X3976428Y-12153952D01*
X3966905Y-12144428D01*
X3957381Y-12125381D01*
X3947857Y-12087286D01*
X3947857Y-12039667D01*
X3957381Y-12001571D01*
X3966905Y-11982524D01*
X3976428Y-11973000D01*
X3995476Y-11963476D01*
X4147857Y-12144428D02*
X4157381Y-12153952D01*
X4147857Y-12163476D01*
X4138333Y-12153952D01*
X4147857Y-12144428D01*
X4147857Y-12163476D01*
X4281190Y-11963476D02*
X4300238Y-11963476D01*
X4319286Y-11973000D01*
X4328810Y-11982524D01*
X4338333Y-12001571D01*
X4347857Y-12039667D01*
X4347857Y-12087286D01*
X4338333Y-12125381D01*
X4328810Y-12144428D01*
X4319286Y-12153952D01*
X4300238Y-12163476D01*
X4281190Y-12163476D01*
X4262143Y-12153952D01*
X4252619Y-12144428D01*
X4243095Y-12125381D01*
X4233571Y-12087286D01*
X4233571Y-12039667D01*
X4243095Y-12001571D01*
X4252619Y-11982524D01*
X4262143Y-11973000D01*
X4281190Y-11963476D01*
X4414524Y-11963476D02*
X4538333Y-11963476D01*
X4471667Y-12039667D01*
X4500238Y-12039667D01*
X4519286Y-12049190D01*
X4528810Y-12058714D01*
X4538333Y-12077762D01*
X4538333Y-12125381D01*
X4528810Y-12144428D01*
X4519286Y-12153952D01*
X4500238Y-12163476D01*
X4443095Y-12163476D01*
X4424048Y-12153952D01*
X4414524Y-12144428D01*
X4719286Y-11963476D02*
X4624048Y-11963476D01*
X4614524Y-12058714D01*
X4624048Y-12049190D01*
X4643095Y-12039667D01*
X4690714Y-12039667D01*
X4709762Y-12049190D01*
X4719286Y-12058714D01*
X4728810Y-12077762D01*
X4728810Y-12125381D01*
X4719286Y-12144428D01*
X4709762Y-12153952D01*
X4690714Y-12163476D01*
X4643095Y-12163476D01*
X4624048Y-12153952D01*
X4614524Y-12144428D01*
X4900238Y-12030143D02*
X4900238Y-12163476D01*
X4852619Y-11953952D02*
X4805000Y-12096809D01*
X4928810Y-12096809D01*
X4995476Y-11963476D02*
X4995476Y-12001571D01*
X5071667Y-11963476D02*
X5071667Y-12001571D01*
X5366905Y-12239667D02*
X5357381Y-12230143D01*
X5338333Y-12201571D01*
X5328810Y-12182524D01*
X5319286Y-12153952D01*
X5309762Y-12106333D01*
X5309762Y-12068238D01*
X5319286Y-12020619D01*
X5328810Y-11992048D01*
X5338333Y-11973000D01*
X5357381Y-11944428D01*
X5366905Y-11934905D01*
X5433571Y-11982524D02*
X5443095Y-11973000D01*
X5462143Y-11963476D01*
X5509762Y-11963476D01*
X5528810Y-11973000D01*
X5538333Y-11982524D01*
X5547857Y-12001571D01*
X5547857Y-12020619D01*
X5538333Y-12049190D01*
X5424048Y-12163476D01*
X5547857Y-12163476D01*
X5785952Y-12163476D02*
X5785952Y-11963476D01*
X5871667Y-12163476D02*
X5871667Y-12058714D01*
X5862143Y-12039667D01*
X5843095Y-12030143D01*
X5814524Y-12030143D01*
X5795476Y-12039667D01*
X5785952Y-12049190D01*
X5995476Y-12163476D02*
X5976428Y-12153952D01*
X5966905Y-12144428D01*
X5957381Y-12125381D01*
X5957381Y-12068238D01*
X5966905Y-12049190D01*
X5976428Y-12039667D01*
X5995476Y-12030143D01*
X6024048Y-12030143D01*
X6043095Y-12039667D01*
X6052619Y-12049190D01*
X6062143Y-12068238D01*
X6062143Y-12125381D01*
X6052619Y-12144428D01*
X6043095Y-12153952D01*
X6024048Y-12163476D01*
X5995476Y-12163476D01*
X6176428Y-12163476D02*
X6157381Y-12153952D01*
X6147857Y-12134905D01*
X6147857Y-11963476D01*
X6328809Y-12153952D02*
X6309762Y-12163476D01*
X6271667Y-12163476D01*
X6252619Y-12153952D01*
X6243095Y-12134905D01*
X6243095Y-12058714D01*
X6252619Y-12039667D01*
X6271667Y-12030143D01*
X6309762Y-12030143D01*
X6328809Y-12039667D01*
X6338333Y-12058714D01*
X6338333Y-12077762D01*
X6243095Y-12096809D01*
X6414524Y-12153952D02*
X6433571Y-12163476D01*
X6471667Y-12163476D01*
X6490714Y-12153952D01*
X6500238Y-12134905D01*
X6500238Y-12125381D01*
X6490714Y-12106333D01*
X6471667Y-12096809D01*
X6443095Y-12096809D01*
X6424048Y-12087286D01*
X6414524Y-12068238D01*
X6414524Y-12058714D01*
X6424048Y-12039667D01*
X6443095Y-12030143D01*
X6471667Y-12030143D01*
X6490714Y-12039667D01*
X6566905Y-12239667D02*
X6576428Y-12230143D01*
X6595476Y-12201571D01*
X6605000Y-12182524D01*
X6614524Y-12153952D01*
X6624048Y-12106333D01*
X6624048Y-12068238D01*
X6614524Y-12020619D01*
X6605000Y-11992048D01*
X6595476Y-11973000D01*
X6576428Y-11944428D01*
X6566905Y-11934905D01*
D15*
X1780356Y-12372356D02*
X1780356Y-12301644D01*
X1709644Y-12301644D01*
X1709644Y-12372356D01*
X1780356Y-12372356D01*
D11*
X2157381Y-12427476D02*
X2043095Y-12427476D01*
X2100238Y-12427476D02*
X2100238Y-12227476D01*
X2081190Y-12256048D01*
X2062143Y-12275095D01*
X2043095Y-12284619D01*
X2243095Y-12408428D02*
X2252619Y-12417952D01*
X2243095Y-12427476D01*
X2233571Y-12417952D01*
X2243095Y-12408428D01*
X2243095Y-12427476D01*
X2376429Y-12227476D02*
X2395476Y-12227476D01*
X2414524Y-12237000D01*
X2424048Y-12246524D01*
X2433571Y-12265571D01*
X2443095Y-12303667D01*
X2443095Y-12351286D01*
X2433571Y-12389381D01*
X2424048Y-12408428D01*
X2414524Y-12417952D01*
X2395476Y-12427476D01*
X2376429Y-12427476D01*
X2357381Y-12417952D01*
X2347857Y-12408428D01*
X2338333Y-12389381D01*
X2328810Y-12351286D01*
X2328810Y-12303667D01*
X2338333Y-12265571D01*
X2347857Y-12246524D01*
X2357381Y-12237000D01*
X2376429Y-12227476D01*
X2566905Y-12227476D02*
X2585952Y-12227476D01*
X2605000Y-12237000D01*
X2614524Y-12246524D01*
X2624048Y-12265571D01*
X2633571Y-12303667D01*
X2633571Y-12351286D01*
X2624048Y-12389381D01*
X2614524Y-12408428D01*
X2605000Y-12417952D01*
X2585952Y-12427476D01*
X2566905Y-12427476D01*
X2547857Y-12417952D01*
X2538333Y-12408428D01*
X2528810Y-12389381D01*
X2519286Y-12351286D01*
X2519286Y-12303667D01*
X2528810Y-12265571D01*
X2538333Y-12246524D01*
X2547857Y-12237000D01*
X2566905Y-12227476D01*
X2757381Y-12227476D02*
X2776429Y-12227476D01*
X2795476Y-12237000D01*
X2805000Y-12246524D01*
X2814524Y-12265571D01*
X2824048Y-12303667D01*
X2824048Y-12351286D01*
X2814524Y-12389381D01*
X2805000Y-12408428D01*
X2795476Y-12417952D01*
X2776429Y-12427476D01*
X2757381Y-12427476D01*
X2738333Y-12417952D01*
X2728810Y-12408428D01*
X2719286Y-12389381D01*
X2709762Y-12351286D01*
X2709762Y-12303667D01*
X2719286Y-12265571D01*
X2728810Y-12246524D01*
X2738333Y-12237000D01*
X2757381Y-12227476D01*
X2909762Y-12427476D02*
X2909762Y-12294143D01*
X2909762Y-12313190D02*
X2919286Y-12303667D01*
X2938333Y-12294143D01*
X2966905Y-12294143D01*
X2985952Y-12303667D01*
X2995476Y-12322714D01*
X2995476Y-12427476D01*
X2995476Y-12322714D02*
X3005000Y-12303667D01*
X3024048Y-12294143D01*
X3052619Y-12294143D01*
X3071667Y-12303667D01*
X3081190Y-12322714D01*
X3081190Y-12427476D01*
X3176428Y-12427476D02*
X3176428Y-12294143D01*
X3176428Y-12313190D02*
X3185952Y-12303667D01*
X3205000Y-12294143D01*
X3233571Y-12294143D01*
X3252619Y-12303667D01*
X3262143Y-12322714D01*
X3262143Y-12427476D01*
X3262143Y-12322714D02*
X3271667Y-12303667D01*
X3290714Y-12294143D01*
X3319286Y-12294143D01*
X3338333Y-12303667D01*
X3347857Y-12322714D01*
X3347857Y-12427476D01*
X3738333Y-12217952D02*
X3566905Y-12475095D01*
X3995476Y-12227476D02*
X4014524Y-12227476D01*
X4033571Y-12237000D01*
X4043095Y-12246524D01*
X4052619Y-12265571D01*
X4062143Y-12303667D01*
X4062143Y-12351286D01*
X4052619Y-12389381D01*
X4043095Y-12408428D01*
X4033571Y-12417952D01*
X4014524Y-12427476D01*
X3995476Y-12427476D01*
X3976428Y-12417952D01*
X3966905Y-12408428D01*
X3957381Y-12389381D01*
X3947857Y-12351286D01*
X3947857Y-12303667D01*
X3957381Y-12265571D01*
X3966905Y-12246524D01*
X3976428Y-12237000D01*
X3995476Y-12227476D01*
X4147857Y-12408428D02*
X4157381Y-12417952D01*
X4147857Y-12427476D01*
X4138333Y-12417952D01*
X4147857Y-12408428D01*
X4147857Y-12427476D01*
X4281190Y-12227476D02*
X4300238Y-12227476D01*
X4319286Y-12237000D01*
X4328810Y-12246524D01*
X4338333Y-12265571D01*
X4347857Y-12303667D01*
X4347857Y-12351286D01*
X4338333Y-12389381D01*
X4328810Y-12408428D01*
X4319286Y-12417952D01*
X4300238Y-12427476D01*
X4281190Y-12427476D01*
X4262143Y-12417952D01*
X4252619Y-12408428D01*
X4243095Y-12389381D01*
X4233571Y-12351286D01*
X4233571Y-12303667D01*
X4243095Y-12265571D01*
X4252619Y-12246524D01*
X4262143Y-12237000D01*
X4281190Y-12227476D01*
X4414524Y-12227476D02*
X4538333Y-12227476D01*
X4471667Y-12303667D01*
X4500238Y-12303667D01*
X4519286Y-12313190D01*
X4528810Y-12322714D01*
X4538333Y-12341762D01*
X4538333Y-12389381D01*
X4528810Y-12408428D01*
X4519286Y-12417952D01*
X4500238Y-12427476D01*
X4443095Y-12427476D01*
X4424048Y-12417952D01*
X4414524Y-12408428D01*
X4633571Y-12427476D02*
X4671667Y-12427476D01*
X4690714Y-12417952D01*
X4700238Y-12408428D01*
X4719286Y-12379857D01*
X4728810Y-12341762D01*
X4728810Y-12265571D01*
X4719286Y-12246524D01*
X4709762Y-12237000D01*
X4690714Y-12227476D01*
X4652619Y-12227476D01*
X4633571Y-12237000D01*
X4624048Y-12246524D01*
X4614524Y-12265571D01*
X4614524Y-12313190D01*
X4624048Y-12332238D01*
X4633571Y-12341762D01*
X4652619Y-12351286D01*
X4690714Y-12351286D01*
X4709762Y-12341762D01*
X4719286Y-12332238D01*
X4728810Y-12313190D01*
X4900238Y-12294143D02*
X4900238Y-12427476D01*
X4852619Y-12217952D02*
X4805000Y-12360809D01*
X4928810Y-12360809D01*
X4995476Y-12227476D02*
X4995476Y-12265571D01*
X5071667Y-12227476D02*
X5071667Y-12265571D01*
X5366905Y-12503667D02*
X5357381Y-12494143D01*
X5338333Y-12465571D01*
X5328810Y-12446524D01*
X5319286Y-12417952D01*
X5309762Y-12370333D01*
X5309762Y-12332238D01*
X5319286Y-12284619D01*
X5328810Y-12256048D01*
X5338333Y-12237000D01*
X5357381Y-12208428D01*
X5366905Y-12198905D01*
X5547857Y-12427476D02*
X5433571Y-12427476D01*
X5490714Y-12427476D02*
X5490714Y-12227476D01*
X5471667Y-12256048D01*
X5452619Y-12275095D01*
X5433571Y-12284619D01*
X5671667Y-12227476D02*
X5690714Y-12227476D01*
X5709762Y-12237000D01*
X5719286Y-12246524D01*
X5728809Y-12265571D01*
X5738333Y-12303667D01*
X5738333Y-12351286D01*
X5728809Y-12389381D01*
X5719286Y-12408428D01*
X5709762Y-12417952D01*
X5690714Y-12427476D01*
X5671667Y-12427476D01*
X5652619Y-12417952D01*
X5643095Y-12408428D01*
X5633571Y-12389381D01*
X5624048Y-12351286D01*
X5624048Y-12303667D01*
X5633571Y-12265571D01*
X5643095Y-12246524D01*
X5652619Y-12237000D01*
X5671667Y-12227476D01*
X5976428Y-12427476D02*
X5976428Y-12227476D01*
X6062143Y-12427476D02*
X6062143Y-12322714D01*
X6052619Y-12303667D01*
X6033571Y-12294143D01*
X6005000Y-12294143D01*
X5985952Y-12303667D01*
X5976428Y-12313190D01*
X6185952Y-12427476D02*
X6166905Y-12417952D01*
X6157381Y-12408428D01*
X6147857Y-12389381D01*
X6147857Y-12332238D01*
X6157381Y-12313190D01*
X6166905Y-12303667D01*
X6185952Y-12294143D01*
X6214524Y-12294143D01*
X6233571Y-12303667D01*
X6243095Y-12313190D01*
X6252619Y-12332238D01*
X6252619Y-12389381D01*
X6243095Y-12408428D01*
X6233571Y-12417952D01*
X6214524Y-12427476D01*
X6185952Y-12427476D01*
X6366905Y-12427476D02*
X6347857Y-12417952D01*
X6338333Y-12398905D01*
X6338333Y-12227476D01*
X6519286Y-12417952D02*
X6500238Y-12427476D01*
X6462143Y-12427476D01*
X6443095Y-12417952D01*
X6433571Y-12398905D01*
X6433571Y-12322714D01*
X6443095Y-12303667D01*
X6462143Y-12294143D01*
X6500238Y-12294143D01*
X6519286Y-12303667D01*
X6528809Y-12322714D01*
X6528809Y-12341762D01*
X6433571Y-12360809D01*
X6605000Y-12417952D02*
X6624048Y-12427476D01*
X6662143Y-12427476D01*
X6681190Y-12417952D01*
X6690714Y-12398905D01*
X6690714Y-12389381D01*
X6681190Y-12370333D01*
X6662143Y-12360809D01*
X6633571Y-12360809D01*
X6614524Y-12351286D01*
X6605000Y-12332238D01*
X6605000Y-12322714D01*
X6614524Y-12303667D01*
X6633571Y-12294143D01*
X6662143Y-12294143D01*
X6681190Y-12303667D01*
X6757381Y-12503667D02*
X6766905Y-12494143D01*
X6785952Y-12465571D01*
X6795476Y-12446524D01*
X6805000Y-12417952D01*
X6814524Y-12370333D01*
X6814524Y-12332238D01*
X6805000Y-12284619D01*
X6795476Y-12256048D01*
X6785952Y-12237000D01*
X6766905Y-12208428D01*
X6757381Y-12198905D01*
D16*
X1735000Y-12661000D02*
X1795000Y-12601000D01*
X1735000Y-12541000D01*
X1675000Y-12601000D01*
X1735000Y-12661000D01*
D11*
X2157381Y-12691476D02*
X2043095Y-12691476D01*
X2100238Y-12691476D02*
X2100238Y-12491476D01*
X2081190Y-12520048D01*
X2062143Y-12539095D01*
X2043095Y-12548619D01*
X2243095Y-12672428D02*
X2252619Y-12681952D01*
X2243095Y-12691476D01*
X2233571Y-12681952D01*
X2243095Y-12672428D01*
X2243095Y-12691476D01*
X2328810Y-12510524D02*
X2338333Y-12501000D01*
X2357381Y-12491476D01*
X2405000Y-12491476D01*
X2424048Y-12501000D01*
X2433571Y-12510524D01*
X2443095Y-12529571D01*
X2443095Y-12548619D01*
X2433571Y-12577190D01*
X2319286Y-12691476D01*
X2443095Y-12691476D01*
X2566905Y-12491476D02*
X2585952Y-12491476D01*
X2605000Y-12501000D01*
X2614524Y-12510524D01*
X2624048Y-12529571D01*
X2633571Y-12567667D01*
X2633571Y-12615286D01*
X2624048Y-12653381D01*
X2614524Y-12672428D01*
X2605000Y-12681952D01*
X2585952Y-12691476D01*
X2566905Y-12691476D01*
X2547857Y-12681952D01*
X2538333Y-12672428D01*
X2528810Y-12653381D01*
X2519286Y-12615286D01*
X2519286Y-12567667D01*
X2528810Y-12529571D01*
X2538333Y-12510524D01*
X2547857Y-12501000D01*
X2566905Y-12491476D01*
X2757381Y-12491476D02*
X2776429Y-12491476D01*
X2795476Y-12501000D01*
X2805000Y-12510524D01*
X2814524Y-12529571D01*
X2824048Y-12567667D01*
X2824048Y-12615286D01*
X2814524Y-12653381D01*
X2805000Y-12672428D01*
X2795476Y-12681952D01*
X2776429Y-12691476D01*
X2757381Y-12691476D01*
X2738333Y-12681952D01*
X2728810Y-12672428D01*
X2719286Y-12653381D01*
X2709762Y-12615286D01*
X2709762Y-12567667D01*
X2719286Y-12529571D01*
X2728810Y-12510524D01*
X2738333Y-12501000D01*
X2757381Y-12491476D01*
X2909762Y-12691476D02*
X2909762Y-12558143D01*
X2909762Y-12577190D02*
X2919286Y-12567667D01*
X2938333Y-12558143D01*
X2966905Y-12558143D01*
X2985952Y-12567667D01*
X2995476Y-12586714D01*
X2995476Y-12691476D01*
X2995476Y-12586714D02*
X3005000Y-12567667D01*
X3024048Y-12558143D01*
X3052619Y-12558143D01*
X3071667Y-12567667D01*
X3081190Y-12586714D01*
X3081190Y-12691476D01*
X3176428Y-12691476D02*
X3176428Y-12558143D01*
X3176428Y-12577190D02*
X3185952Y-12567667D01*
X3205000Y-12558143D01*
X3233571Y-12558143D01*
X3252619Y-12567667D01*
X3262143Y-12586714D01*
X3262143Y-12691476D01*
X3262143Y-12586714D02*
X3271667Y-12567667D01*
X3290714Y-12558143D01*
X3319286Y-12558143D01*
X3338333Y-12567667D01*
X3347857Y-12586714D01*
X3347857Y-12691476D01*
X3738333Y-12481952D02*
X3566905Y-12739095D01*
X3995476Y-12491476D02*
X4014524Y-12491476D01*
X4033571Y-12501000D01*
X4043095Y-12510524D01*
X4052619Y-12529571D01*
X4062143Y-12567667D01*
X4062143Y-12615286D01*
X4052619Y-12653381D01*
X4043095Y-12672428D01*
X4033571Y-12681952D01*
X4014524Y-12691476D01*
X3995476Y-12691476D01*
X3976428Y-12681952D01*
X3966905Y-12672428D01*
X3957381Y-12653381D01*
X3947857Y-12615286D01*
X3947857Y-12567667D01*
X3957381Y-12529571D01*
X3966905Y-12510524D01*
X3976428Y-12501000D01*
X3995476Y-12491476D01*
X4147857Y-12672428D02*
X4157381Y-12681952D01*
X4147857Y-12691476D01*
X4138333Y-12681952D01*
X4147857Y-12672428D01*
X4147857Y-12691476D01*
X4281190Y-12491476D02*
X4300238Y-12491476D01*
X4319286Y-12501000D01*
X4328810Y-12510524D01*
X4338333Y-12529571D01*
X4347857Y-12567667D01*
X4347857Y-12615286D01*
X4338333Y-12653381D01*
X4328810Y-12672428D01*
X4319286Y-12681952D01*
X4300238Y-12691476D01*
X4281190Y-12691476D01*
X4262143Y-12681952D01*
X4252619Y-12672428D01*
X4243095Y-12653381D01*
X4233571Y-12615286D01*
X4233571Y-12567667D01*
X4243095Y-12529571D01*
X4252619Y-12510524D01*
X4262143Y-12501000D01*
X4281190Y-12491476D01*
X4519286Y-12558143D02*
X4519286Y-12691476D01*
X4471667Y-12481952D02*
X4424048Y-12624809D01*
X4547857Y-12624809D01*
X4605000Y-12491476D02*
X4738333Y-12491476D01*
X4652619Y-12691476D01*
X4805000Y-12510524D02*
X4814524Y-12501000D01*
X4833571Y-12491476D01*
X4881190Y-12491476D01*
X4900238Y-12501000D01*
X4909762Y-12510524D01*
X4919286Y-12529571D01*
X4919286Y-12548619D01*
X4909762Y-12577190D01*
X4795476Y-12691476D01*
X4919286Y-12691476D01*
X4995476Y-12491476D02*
X4995476Y-12529571D01*
X5071667Y-12491476D02*
X5071667Y-12529571D01*
X5366905Y-12767667D02*
X5357381Y-12758143D01*
X5338333Y-12729571D01*
X5328810Y-12710524D01*
X5319286Y-12681952D01*
X5309762Y-12634333D01*
X5309762Y-12596238D01*
X5319286Y-12548619D01*
X5328810Y-12520048D01*
X5338333Y-12501000D01*
X5357381Y-12472428D01*
X5366905Y-12462905D01*
X5471667Y-12577190D02*
X5452619Y-12567667D01*
X5443095Y-12558143D01*
X5433571Y-12539095D01*
X5433571Y-12529571D01*
X5443095Y-12510524D01*
X5452619Y-12501000D01*
X5471667Y-12491476D01*
X5509762Y-12491476D01*
X5528810Y-12501000D01*
X5538333Y-12510524D01*
X5547857Y-12529571D01*
X5547857Y-12539095D01*
X5538333Y-12558143D01*
X5528810Y-12567667D01*
X5509762Y-12577190D01*
X5471667Y-12577190D01*
X5452619Y-12586714D01*
X5443095Y-12596238D01*
X5433571Y-12615286D01*
X5433571Y-12653381D01*
X5443095Y-12672428D01*
X5452619Y-12681952D01*
X5471667Y-12691476D01*
X5509762Y-12691476D01*
X5528810Y-12681952D01*
X5538333Y-12672428D01*
X5547857Y-12653381D01*
X5547857Y-12615286D01*
X5538333Y-12596238D01*
X5528810Y-12586714D01*
X5509762Y-12577190D01*
X5785952Y-12691476D02*
X5785952Y-12491476D01*
X5871667Y-12691476D02*
X5871667Y-12586714D01*
X5862143Y-12567667D01*
X5843095Y-12558143D01*
X5814524Y-12558143D01*
X5795476Y-12567667D01*
X5785952Y-12577190D01*
X5995476Y-12691476D02*
X5976428Y-12681952D01*
X5966905Y-12672428D01*
X5957381Y-12653381D01*
X5957381Y-12596238D01*
X5966905Y-12577190D01*
X5976428Y-12567667D01*
X5995476Y-12558143D01*
X6024048Y-12558143D01*
X6043095Y-12567667D01*
X6052619Y-12577190D01*
X6062143Y-12596238D01*
X6062143Y-12653381D01*
X6052619Y-12672428D01*
X6043095Y-12681952D01*
X6024048Y-12691476D01*
X5995476Y-12691476D01*
X6176428Y-12691476D02*
X6157381Y-12681952D01*
X6147857Y-12662905D01*
X6147857Y-12491476D01*
X6328809Y-12681952D02*
X6309762Y-12691476D01*
X6271667Y-12691476D01*
X6252619Y-12681952D01*
X6243095Y-12662905D01*
X6243095Y-12586714D01*
X6252619Y-12567667D01*
X6271667Y-12558143D01*
X6309762Y-12558143D01*
X6328809Y-12567667D01*
X6338333Y-12586714D01*
X6338333Y-12605762D01*
X6243095Y-12624809D01*
X6414524Y-12681952D02*
X6433571Y-12691476D01*
X6471667Y-12691476D01*
X6490714Y-12681952D01*
X6500238Y-12662905D01*
X6500238Y-12653381D01*
X6490714Y-12634333D01*
X6471667Y-12624809D01*
X6443095Y-12624809D01*
X6424048Y-12615286D01*
X6414524Y-12596238D01*
X6414524Y-12586714D01*
X6424048Y-12567667D01*
X6443095Y-12558143D01*
X6471667Y-12558143D01*
X6490714Y-12567667D01*
X6566905Y-12767667D02*
X6576428Y-12758143D01*
X6595476Y-12729571D01*
X6605000Y-12710524D01*
X6614524Y-12681952D01*
X6624048Y-12634333D01*
X6624048Y-12596238D01*
X6614524Y-12548619D01*
X6605000Y-12520048D01*
X6595476Y-12501000D01*
X6576428Y-12472428D01*
X6566905Y-12462905D01*
D17*
X1655000Y-12795000D02*
X1795000Y-12935000D01*
X1795000Y-12795000D02*
X1655000Y-12935000D01*
X1795000Y-12865000D02*
G75*
G03*
X1795000Y-12865000I-70000J0D01*
G01*
D11*
X2157381Y-12955476D02*
X2043095Y-12955476D01*
X2100238Y-12955476D02*
X2100238Y-12755476D01*
X2081190Y-12784048D01*
X2062143Y-12803095D01*
X2043095Y-12812619D01*
X2243095Y-12936428D02*
X2252619Y-12945952D01*
X2243095Y-12955476D01*
X2233571Y-12945952D01*
X2243095Y-12936428D01*
X2243095Y-12955476D01*
X2424048Y-12822143D02*
X2424048Y-12955476D01*
X2376429Y-12745952D02*
X2328810Y-12888809D01*
X2452619Y-12888809D01*
X2566905Y-12755476D02*
X2585952Y-12755476D01*
X2605000Y-12765000D01*
X2614524Y-12774524D01*
X2624048Y-12793571D01*
X2633571Y-12831667D01*
X2633571Y-12879286D01*
X2624048Y-12917381D01*
X2614524Y-12936428D01*
X2605000Y-12945952D01*
X2585952Y-12955476D01*
X2566905Y-12955476D01*
X2547857Y-12945952D01*
X2538333Y-12936428D01*
X2528810Y-12917381D01*
X2519286Y-12879286D01*
X2519286Y-12831667D01*
X2528810Y-12793571D01*
X2538333Y-12774524D01*
X2547857Y-12765000D01*
X2566905Y-12755476D01*
X2757381Y-12755476D02*
X2776429Y-12755476D01*
X2795476Y-12765000D01*
X2805000Y-12774524D01*
X2814524Y-12793571D01*
X2824048Y-12831667D01*
X2824048Y-12879286D01*
X2814524Y-12917381D01*
X2805000Y-12936428D01*
X2795476Y-12945952D01*
X2776429Y-12955476D01*
X2757381Y-12955476D01*
X2738333Y-12945952D01*
X2728810Y-12936428D01*
X2719286Y-12917381D01*
X2709762Y-12879286D01*
X2709762Y-12831667D01*
X2719286Y-12793571D01*
X2728810Y-12774524D01*
X2738333Y-12765000D01*
X2757381Y-12755476D01*
X2909762Y-12955476D02*
X2909762Y-12822143D01*
X2909762Y-12841190D02*
X2919286Y-12831667D01*
X2938333Y-12822143D01*
X2966905Y-12822143D01*
X2985952Y-12831667D01*
X2995476Y-12850714D01*
X2995476Y-12955476D01*
X2995476Y-12850714D02*
X3005000Y-12831667D01*
X3024048Y-12822143D01*
X3052619Y-12822143D01*
X3071667Y-12831667D01*
X3081190Y-12850714D01*
X3081190Y-12955476D01*
X3176428Y-12955476D02*
X3176428Y-12822143D01*
X3176428Y-12841190D02*
X3185952Y-12831667D01*
X3205000Y-12822143D01*
X3233571Y-12822143D01*
X3252619Y-12831667D01*
X3262143Y-12850714D01*
X3262143Y-12955476D01*
X3262143Y-12850714D02*
X3271667Y-12831667D01*
X3290714Y-12822143D01*
X3319286Y-12822143D01*
X3338333Y-12831667D01*
X3347857Y-12850714D01*
X3347857Y-12955476D01*
X3738333Y-12745952D02*
X3566905Y-13003095D01*
X3995476Y-12755476D02*
X4014524Y-12755476D01*
X4033571Y-12765000D01*
X4043095Y-12774524D01*
X4052619Y-12793571D01*
X4062143Y-12831667D01*
X4062143Y-12879286D01*
X4052619Y-12917381D01*
X4043095Y-12936428D01*
X4033571Y-12945952D01*
X4014524Y-12955476D01*
X3995476Y-12955476D01*
X3976428Y-12945952D01*
X3966905Y-12936428D01*
X3957381Y-12917381D01*
X3947857Y-12879286D01*
X3947857Y-12831667D01*
X3957381Y-12793571D01*
X3966905Y-12774524D01*
X3976428Y-12765000D01*
X3995476Y-12755476D01*
X4147857Y-12936428D02*
X4157381Y-12945952D01*
X4147857Y-12955476D01*
X4138333Y-12945952D01*
X4147857Y-12936428D01*
X4147857Y-12955476D01*
X4281190Y-12755476D02*
X4300238Y-12755476D01*
X4319286Y-12765000D01*
X4328810Y-12774524D01*
X4338333Y-12793571D01*
X4347857Y-12831667D01*
X4347857Y-12879286D01*
X4338333Y-12917381D01*
X4328810Y-12936428D01*
X4319286Y-12945952D01*
X4300238Y-12955476D01*
X4281190Y-12955476D01*
X4262143Y-12945952D01*
X4252619Y-12936428D01*
X4243095Y-12917381D01*
X4233571Y-12879286D01*
X4233571Y-12831667D01*
X4243095Y-12793571D01*
X4252619Y-12774524D01*
X4262143Y-12765000D01*
X4281190Y-12755476D01*
X4528810Y-12755476D02*
X4433571Y-12755476D01*
X4424048Y-12850714D01*
X4433571Y-12841190D01*
X4452619Y-12831667D01*
X4500238Y-12831667D01*
X4519286Y-12841190D01*
X4528810Y-12850714D01*
X4538333Y-12869762D01*
X4538333Y-12917381D01*
X4528810Y-12936428D01*
X4519286Y-12945952D01*
X4500238Y-12955476D01*
X4452619Y-12955476D01*
X4433571Y-12945952D01*
X4424048Y-12936428D01*
X4719286Y-12755476D02*
X4624048Y-12755476D01*
X4614524Y-12850714D01*
X4624048Y-12841190D01*
X4643095Y-12831667D01*
X4690714Y-12831667D01*
X4709762Y-12841190D01*
X4719286Y-12850714D01*
X4728810Y-12869762D01*
X4728810Y-12917381D01*
X4719286Y-12936428D01*
X4709762Y-12945952D01*
X4690714Y-12955476D01*
X4643095Y-12955476D01*
X4624048Y-12945952D01*
X4614524Y-12936428D01*
X4919286Y-12955476D02*
X4805000Y-12955476D01*
X4862143Y-12955476D02*
X4862143Y-12755476D01*
X4843095Y-12784048D01*
X4824048Y-12803095D01*
X4805000Y-12812619D01*
X4995476Y-12755476D02*
X4995476Y-12793571D01*
X5071667Y-12755476D02*
X5071667Y-12793571D01*
X5366905Y-13031667D02*
X5357381Y-13022143D01*
X5338333Y-12993571D01*
X5328810Y-12974524D01*
X5319286Y-12945952D01*
X5309762Y-12898333D01*
X5309762Y-12860238D01*
X5319286Y-12812619D01*
X5328810Y-12784048D01*
X5338333Y-12765000D01*
X5357381Y-12736428D01*
X5366905Y-12726905D01*
X5547857Y-12955476D02*
X5433571Y-12955476D01*
X5490714Y-12955476D02*
X5490714Y-12755476D01*
X5471667Y-12784048D01*
X5452619Y-12803095D01*
X5433571Y-12812619D01*
X5624048Y-12774524D02*
X5633571Y-12765000D01*
X5652619Y-12755476D01*
X5700238Y-12755476D01*
X5719286Y-12765000D01*
X5728809Y-12774524D01*
X5738333Y-12793571D01*
X5738333Y-12812619D01*
X5728809Y-12841190D01*
X5614524Y-12955476D01*
X5738333Y-12955476D01*
X5976428Y-12955476D02*
X5976428Y-12755476D01*
X6062143Y-12955476D02*
X6062143Y-12850714D01*
X6052619Y-12831667D01*
X6033571Y-12822143D01*
X6005000Y-12822143D01*
X5985952Y-12831667D01*
X5976428Y-12841190D01*
X6185952Y-12955476D02*
X6166905Y-12945952D01*
X6157381Y-12936428D01*
X6147857Y-12917381D01*
X6147857Y-12860238D01*
X6157381Y-12841190D01*
X6166905Y-12831667D01*
X6185952Y-12822143D01*
X6214524Y-12822143D01*
X6233571Y-12831667D01*
X6243095Y-12841190D01*
X6252619Y-12860238D01*
X6252619Y-12917381D01*
X6243095Y-12936428D01*
X6233571Y-12945952D01*
X6214524Y-12955476D01*
X6185952Y-12955476D01*
X6366905Y-12955476D02*
X6347857Y-12945952D01*
X6338333Y-12926905D01*
X6338333Y-12755476D01*
X6519286Y-12945952D02*
X6500238Y-12955476D01*
X6462143Y-12955476D01*
X6443095Y-12945952D01*
X6433571Y-12926905D01*
X6433571Y-12850714D01*
X6443095Y-12831667D01*
X6462143Y-12822143D01*
X6500238Y-12822143D01*
X6519286Y-12831667D01*
X6528809Y-12850714D01*
X6528809Y-12869762D01*
X6433571Y-12888809D01*
X6605000Y-12945952D02*
X6624048Y-12955476D01*
X6662143Y-12955476D01*
X6681190Y-12945952D01*
X6690714Y-12926905D01*
X6690714Y-12917381D01*
X6681190Y-12898333D01*
X6662143Y-12888809D01*
X6633571Y-12888809D01*
X6614524Y-12879286D01*
X6605000Y-12860238D01*
X6605000Y-12850714D01*
X6614524Y-12831667D01*
X6633571Y-12822143D01*
X6662143Y-12822143D01*
X6681190Y-12831667D01*
X6757381Y-13031667D02*
X6766905Y-13022143D01*
X6785952Y-12993571D01*
X6795476Y-12974524D01*
X6805000Y-12945952D01*
X6814524Y-12898333D01*
X6814524Y-12860238D01*
X6805000Y-12812619D01*
X6795476Y-12784048D01*
X6785952Y-12765000D01*
X6766905Y-12736428D01*
X6757381Y-12726905D01*
M02*
