%FSLAX45Y45*%
G04 Gerber Fmt 4.5, Leading zero omitted, Abs format (unit mm)*
G04 Created by KiCad (PCBNEW (6.0.4)) date 2022-04-21 02:31:55*
%MOMM*%
%LPD*%
G01*
G04 APERTURE LIST*
%TA.AperFunction,Profile*%
%ADD10C,0.100000*%
%TD*%
%ADD11C,0.200000*%
G04 APERTURE END LIST*
D10*
X5850000Y-9400000D02*
X3450000Y-9400000D01*
X1800000Y-10900000D02*
X1800000Y-3420000D01*
X7500000Y-3420000D02*
X7500000Y-10900000D01*
X1800000Y-3420000D02*
X7500000Y-3420000D01*
X1800000Y-10900000D02*
X3450000Y-10900000D01*
X3450000Y-10900000D02*
X3450000Y-9400000D01*
X5850000Y-10900000D02*
X5850000Y-9400000D01*
X7500000Y-10900000D02*
X5850000Y-10900000D01*
D11*
X2052619Y-11215476D02*
X2052619Y-11015476D01*
X2100238Y-11015476D01*
X2128810Y-11025000D01*
X2147857Y-11044048D01*
X2157381Y-11063095D01*
X2166905Y-11101190D01*
X2166905Y-11129762D01*
X2157381Y-11167857D01*
X2147857Y-11186905D01*
X2128810Y-11205952D01*
X2100238Y-11215476D01*
X2052619Y-11215476D01*
X2252619Y-11215476D02*
X2252619Y-11082143D01*
X2252619Y-11120238D02*
X2262143Y-11101190D01*
X2271667Y-11091667D01*
X2290714Y-11082143D01*
X2309762Y-11082143D01*
X2376429Y-11215476D02*
X2376429Y-11082143D01*
X2376429Y-11015476D02*
X2366905Y-11025000D01*
X2376429Y-11034524D01*
X2385952Y-11025000D01*
X2376429Y-11015476D01*
X2376429Y-11034524D01*
X2500238Y-11215476D02*
X2481190Y-11205952D01*
X2471667Y-11186905D01*
X2471667Y-11015476D01*
X2605000Y-11215476D02*
X2585952Y-11205952D01*
X2576429Y-11186905D01*
X2576429Y-11015476D01*
X2833571Y-11215476D02*
X2833571Y-11015476D01*
X2900238Y-11158333D01*
X2966905Y-11015476D01*
X2966905Y-11215476D01*
X3147857Y-11215476D02*
X3147857Y-11110714D01*
X3138333Y-11091667D01*
X3119286Y-11082143D01*
X3081190Y-11082143D01*
X3062143Y-11091667D01*
X3147857Y-11205952D02*
X3128809Y-11215476D01*
X3081190Y-11215476D01*
X3062143Y-11205952D01*
X3052619Y-11186905D01*
X3052619Y-11167857D01*
X3062143Y-11148810D01*
X3081190Y-11139286D01*
X3128809Y-11139286D01*
X3147857Y-11129762D01*
X3243095Y-11082143D02*
X3243095Y-11282143D01*
X3243095Y-11091667D02*
X3262143Y-11082143D01*
X3300238Y-11082143D01*
X3319286Y-11091667D01*
X3328809Y-11101190D01*
X3338333Y-11120238D01*
X3338333Y-11177381D01*
X3328809Y-11196428D01*
X3319286Y-11205952D01*
X3300238Y-11215476D01*
X3262143Y-11215476D01*
X3243095Y-11205952D01*
X3424048Y-11196428D02*
X3433571Y-11205952D01*
X3424048Y-11215476D01*
X3414524Y-11205952D01*
X3424048Y-11196428D01*
X3424048Y-11215476D01*
X3424048Y-11091667D02*
X3433571Y-11101190D01*
X3424048Y-11110714D01*
X3414524Y-11101190D01*
X3424048Y-11091667D01*
X3424048Y-11110714D01*
M02*
