G04 #@! TF.GenerationSoftware,KiCad,Pcbnew,(6.0.4)*
G04 #@! TF.CreationDate,2022-04-21T02:31:35-04:00*
G04 #@! TF.ProjectId,malice-striker-v2-2,6d616c69-6365-42d7-9374-72696b65722d,rev?*
G04 #@! TF.SameCoordinates,Original*
G04 #@! TF.FileFunction,Legend,Top*
G04 #@! TF.FilePolarity,Positive*
%FSLAX46Y46*%
G04 Gerber Fmt 4.6, Leading zero omitted, Abs format (unit mm)*
G04 Created by KiCad (PCBNEW (6.0.4)) date 2022-04-21 02:31:35*
%MOMM*%
%LPD*%
G01*
G04 APERTURE LIST*
G04 Aperture macros list*
%AMRoundRect*
0 Rectangle with rounded corners*
0 $1 Rounding radius*
0 $2 $3 $4 $5 $6 $7 $8 $9 X,Y pos of 4 corners*
0 Add a 4 corners polygon primitive as box body*
4,1,4,$2,$3,$4,$5,$6,$7,$8,$9,$2,$3,0*
0 Add four circle primitives for the rounded corners*
1,1,$1+$1,$2,$3*
1,1,$1+$1,$4,$5*
1,1,$1+$1,$6,$7*
1,1,$1+$1,$8,$9*
0 Add four rect primitives between the rounded corners*
20,1,$1+$1,$2,$3,$4,$5,0*
20,1,$1+$1,$4,$5,$6,$7,0*
20,1,$1+$1,$6,$7,$8,$9,0*
20,1,$1+$1,$8,$9,$2,$3,0*%
G04 Aperture macros list end*
%ADD10C,0.150000*%
%ADD11C,0.152400*%
%ADD12C,0.121920*%
%ADD13C,0.127000*%
%ADD14C,0.120000*%
%ADD15C,0.066040*%
%ADD16R,1.800000X1.800000*%
%ADD17C,1.800000*%
%ADD18RoundRect,0.101600X1.270000X1.270000X-1.270000X1.270000X-1.270000X-1.270000X1.270000X-1.270000X0*%
%ADD19C,2.743200*%
%ADD20RoundRect,0.101600X-0.599440X0.398780X-0.599440X-0.398780X0.599440X-0.398780X0.599440X0.398780X0*%
%ADD21RoundRect,0.101600X-0.798830X-0.899160X0.798830X-0.899160X0.798830X0.899160X-0.798830X0.899160X0*%
%ADD22RoundRect,0.101600X0.899160X-0.798830X0.899160X0.798830X-0.899160X0.798830X-0.899160X-0.798830X0*%
%ADD23RoundRect,0.101600X0.424180X0.449580X-0.424180X0.449580X-0.424180X-0.449580X0.424180X-0.449580X0*%
%ADD24RoundRect,0.101600X-0.398780X-0.599440X0.398780X-0.599440X0.398780X0.599440X-0.398780X0.599440X0*%
%ADD25RoundRect,0.101600X0.549910X0.499110X-0.549910X0.499110X-0.549910X-0.499110X0.549910X-0.499110X0*%
%ADD26RoundRect,0.101600X-0.499110X0.549910X-0.499110X-0.549910X0.499110X-0.549910X0.499110X0.549910X0*%
%ADD27RoundRect,0.101600X0.499110X-0.549910X0.499110X0.549910X-0.499110X0.549910X-0.499110X-0.549910X0*%
%ADD28RoundRect,0.101600X0.398780X0.599440X-0.398780X0.599440X-0.398780X-0.599440X0.398780X-0.599440X0*%
%ADD29RoundRect,0.101600X-0.424180X-0.449580X0.424180X-0.449580X0.424180X0.449580X-0.424180X0.449580X0*%
%ADD30R,1.200000X0.900000*%
%ADD31R,0.500000X0.500000*%
%ADD32RoundRect,0.250000X0.312500X0.625000X-0.312500X0.625000X-0.312500X-0.625000X0.312500X-0.625000X0*%
%ADD33RoundRect,0.250000X1.075000X-0.312500X1.075000X0.312500X-1.075000X0.312500X-1.075000X-0.312500X0*%
%ADD34RoundRect,0.250000X-0.312500X-0.625000X0.312500X-0.625000X0.312500X0.625000X-0.312500X0.625000X0*%
%ADD35RoundRect,0.250000X0.262500X0.450000X-0.262500X0.450000X-0.262500X-0.450000X0.262500X-0.450000X0*%
%ADD36RoundRect,0.250000X-0.625000X0.312500X-0.625000X-0.312500X0.625000X-0.312500X0.625000X0.312500X0*%
%ADD37RoundRect,0.250000X-0.262500X-0.450000X0.262500X-0.450000X0.262500X0.450000X-0.262500X0.450000X0*%
%ADD38RoundRect,0.150000X-0.825000X-0.150000X0.825000X-0.150000X0.825000X0.150000X-0.825000X0.150000X0*%
%ADD39R,2.290000X3.000000*%
%ADD40R,1.600000X1.600000*%
%ADD41C,1.600000*%
%ADD42R,1.700000X1.700000*%
%ADD43O,1.700000X1.700000*%
%ADD44C,2.400000*%
%ADD45O,2.400000X2.400000*%
%ADD46O,1.600000X1.600000*%
%ADD47C,1.440000*%
G04 APERTURE END LIST*
D10*
X57033333Y-46732380D02*
X57033333Y-45732380D01*
X57366666Y-46446666D01*
X57700000Y-45732380D01*
X57700000Y-46732380D01*
X58128571Y-46446666D02*
X58604761Y-46446666D01*
X58033333Y-46732380D02*
X58366666Y-45732380D01*
X58700000Y-46732380D01*
X59509523Y-46732380D02*
X59033333Y-46732380D01*
X59033333Y-45732380D01*
X59842857Y-46732380D02*
X59842857Y-45732380D01*
X60890476Y-46637142D02*
X60842857Y-46684761D01*
X60700000Y-46732380D01*
X60604761Y-46732380D01*
X60461904Y-46684761D01*
X60366666Y-46589523D01*
X60319047Y-46494285D01*
X60271428Y-46303809D01*
X60271428Y-46160952D01*
X60319047Y-45970476D01*
X60366666Y-45875238D01*
X60461904Y-45780000D01*
X60604761Y-45732380D01*
X60700000Y-45732380D01*
X60842857Y-45780000D01*
X60890476Y-45827619D01*
X61319047Y-46208571D02*
X61652380Y-46208571D01*
X61795238Y-46732380D02*
X61319047Y-46732380D01*
X61319047Y-45732380D01*
X61795238Y-45732380D01*
X62938095Y-46684761D02*
X63080952Y-46732380D01*
X63319047Y-46732380D01*
X63414285Y-46684761D01*
X63461904Y-46637142D01*
X63509523Y-46541904D01*
X63509523Y-46446666D01*
X63461904Y-46351428D01*
X63414285Y-46303809D01*
X63319047Y-46256190D01*
X63128571Y-46208571D01*
X63033333Y-46160952D01*
X62985714Y-46113333D01*
X62938095Y-46018095D01*
X62938095Y-45922857D01*
X62985714Y-45827619D01*
X63033333Y-45780000D01*
X63128571Y-45732380D01*
X63366666Y-45732380D01*
X63509523Y-45780000D01*
X63795238Y-45732380D02*
X64366666Y-45732380D01*
X64080952Y-46732380D02*
X64080952Y-45732380D01*
X65271428Y-46732380D02*
X64938095Y-46256190D01*
X64700000Y-46732380D02*
X64700000Y-45732380D01*
X65080952Y-45732380D01*
X65176190Y-45780000D01*
X65223809Y-45827619D01*
X65271428Y-45922857D01*
X65271428Y-46065714D01*
X65223809Y-46160952D01*
X65176190Y-46208571D01*
X65080952Y-46256190D01*
X64700000Y-46256190D01*
X65700000Y-46732380D02*
X65700000Y-45732380D01*
X66176190Y-46732380D02*
X66176190Y-45732380D01*
X66747619Y-46732380D02*
X66319047Y-46160952D01*
X66747619Y-45732380D02*
X66176190Y-46303809D01*
X67176190Y-46208571D02*
X67509523Y-46208571D01*
X67652380Y-46732380D02*
X67176190Y-46732380D01*
X67176190Y-45732380D01*
X67652380Y-45732380D01*
X68652380Y-46732380D02*
X68319047Y-46256190D01*
X68080952Y-46732380D02*
X68080952Y-45732380D01*
X68461904Y-45732380D01*
X68557142Y-45780000D01*
X68604761Y-45827619D01*
X68652380Y-45922857D01*
X68652380Y-46065714D01*
X68604761Y-46160952D01*
X68557142Y-46208571D01*
X68461904Y-46256190D01*
X68080952Y-46256190D01*
X59152380Y-48342380D02*
X59152380Y-47342380D01*
X59390476Y-47342380D01*
X59533333Y-47390000D01*
X59628571Y-47485238D01*
X59676190Y-47580476D01*
X59723809Y-47770952D01*
X59723809Y-47913809D01*
X59676190Y-48104285D01*
X59628571Y-48199523D01*
X59533333Y-48294761D01*
X59390476Y-48342380D01*
X59152380Y-48342380D01*
X60152380Y-48342380D02*
X60152380Y-47342380D01*
X60580952Y-48294761D02*
X60723809Y-48342380D01*
X60961904Y-48342380D01*
X61057142Y-48294761D01*
X61104761Y-48247142D01*
X61152380Y-48151904D01*
X61152380Y-48056666D01*
X61104761Y-47961428D01*
X61057142Y-47913809D01*
X60961904Y-47866190D01*
X60771428Y-47818571D01*
X60676190Y-47770952D01*
X60628571Y-47723333D01*
X60580952Y-47628095D01*
X60580952Y-47532857D01*
X60628571Y-47437619D01*
X60676190Y-47390000D01*
X60771428Y-47342380D01*
X61009523Y-47342380D01*
X61152380Y-47390000D01*
X61438095Y-47342380D02*
X62009523Y-47342380D01*
X61723809Y-48342380D02*
X61723809Y-47342380D01*
X62533333Y-47342380D02*
X62723809Y-47342380D01*
X62819047Y-47390000D01*
X62914285Y-47485238D01*
X62961904Y-47675714D01*
X62961904Y-48009047D01*
X62914285Y-48199523D01*
X62819047Y-48294761D01*
X62723809Y-48342380D01*
X62533333Y-48342380D01*
X62438095Y-48294761D01*
X62342857Y-48199523D01*
X62295238Y-48009047D01*
X62295238Y-47675714D01*
X62342857Y-47485238D01*
X62438095Y-47390000D01*
X62533333Y-47342380D01*
X63961904Y-48342380D02*
X63628571Y-47866190D01*
X63390476Y-48342380D02*
X63390476Y-47342380D01*
X63771428Y-47342380D01*
X63866666Y-47390000D01*
X63914285Y-47437619D01*
X63961904Y-47532857D01*
X63961904Y-47675714D01*
X63914285Y-47770952D01*
X63866666Y-47818571D01*
X63771428Y-47866190D01*
X63390476Y-47866190D01*
X64247619Y-47342380D02*
X64819047Y-47342380D01*
X64533333Y-48342380D02*
X64533333Y-47342380D01*
X65152380Y-48342380D02*
X65152380Y-47342380D01*
X65819047Y-47342380D02*
X66009523Y-47342380D01*
X66104761Y-47390000D01*
X66200000Y-47485238D01*
X66247619Y-47675714D01*
X66247619Y-48009047D01*
X66200000Y-48199523D01*
X66104761Y-48294761D01*
X66009523Y-48342380D01*
X65819047Y-48342380D01*
X65723809Y-48294761D01*
X65628571Y-48199523D01*
X65580952Y-48009047D01*
X65580952Y-47675714D01*
X65628571Y-47485238D01*
X65723809Y-47390000D01*
X65819047Y-47342380D01*
X66676190Y-48342380D02*
X66676190Y-47342380D01*
X67247619Y-48342380D01*
X67247619Y-47342380D01*
X61057142Y-49952380D02*
X60723809Y-49476190D01*
X60485714Y-49952380D02*
X60485714Y-48952380D01*
X60866666Y-48952380D01*
X60961904Y-49000000D01*
X61009523Y-49047619D01*
X61057142Y-49142857D01*
X61057142Y-49285714D01*
X61009523Y-49380952D01*
X60961904Y-49428571D01*
X60866666Y-49476190D01*
X60485714Y-49476190D01*
X61485714Y-49428571D02*
X61819047Y-49428571D01*
X61961904Y-49952380D02*
X61485714Y-49952380D01*
X61485714Y-48952380D01*
X61961904Y-48952380D01*
X62247619Y-48952380D02*
X62580952Y-49952380D01*
X62914285Y-48952380D01*
X63961904Y-49047619D02*
X64009523Y-49000000D01*
X64104761Y-48952380D01*
X64342857Y-48952380D01*
X64438095Y-49000000D01*
X64485714Y-49047619D01*
X64533333Y-49142857D01*
X64533333Y-49238095D01*
X64485714Y-49380952D01*
X63914285Y-49952380D01*
X64533333Y-49952380D01*
X64961904Y-49857142D02*
X65009523Y-49904761D01*
X64961904Y-49952380D01*
X64914285Y-49904761D01*
X64961904Y-49857142D01*
X64961904Y-49952380D01*
X65628571Y-48952380D02*
X65723809Y-48952380D01*
X65819047Y-49000000D01*
X65866666Y-49047619D01*
X65914285Y-49142857D01*
X65961904Y-49333333D01*
X65961904Y-49571428D01*
X65914285Y-49761904D01*
X65866666Y-49857142D01*
X65819047Y-49904761D01*
X65723809Y-49952380D01*
X65628571Y-49952380D01*
X65533333Y-49904761D01*
X65485714Y-49857142D01*
X65438095Y-49761904D01*
X65390476Y-49571428D01*
X65390476Y-49333333D01*
X65438095Y-49142857D01*
X65485714Y-49047619D01*
X65533333Y-49000000D01*
X65628571Y-48952380D01*
X55699999Y-50562380D02*
X55890476Y-50562380D01*
X55985714Y-50610000D01*
X56080952Y-50705238D01*
X56128571Y-50895714D01*
X56128571Y-51229047D01*
X56080952Y-51419523D01*
X55985714Y-51514761D01*
X55890476Y-51562380D01*
X55699999Y-51562380D01*
X55604761Y-51514761D01*
X55509523Y-51419523D01*
X55461904Y-51229047D01*
X55461904Y-50895714D01*
X55509523Y-50705238D01*
X55604761Y-50610000D01*
X55699999Y-50562380D01*
X56890476Y-51038571D02*
X56557142Y-51038571D01*
X56557142Y-51562380D02*
X56557142Y-50562380D01*
X57033333Y-50562380D01*
X57747619Y-51038571D02*
X57414285Y-51038571D01*
X57414285Y-51562380D02*
X57414285Y-50562380D01*
X57890476Y-50562380D01*
X58176190Y-50562380D02*
X58414285Y-51562380D01*
X58604761Y-50848095D01*
X58795238Y-51562380D01*
X59033333Y-50562380D01*
X59604761Y-50562380D02*
X59795238Y-50562380D01*
X59890476Y-50610000D01*
X59985714Y-50705238D01*
X60033333Y-50895714D01*
X60033333Y-51229047D01*
X59985714Y-51419523D01*
X59890476Y-51514761D01*
X59795238Y-51562380D01*
X59604761Y-51562380D01*
X59509523Y-51514761D01*
X59414285Y-51419523D01*
X59366666Y-51229047D01*
X59366666Y-50895714D01*
X59414285Y-50705238D01*
X59509523Y-50610000D01*
X59604761Y-50562380D01*
X61033333Y-51562380D02*
X60699999Y-51086190D01*
X60461904Y-51562380D02*
X60461904Y-50562380D01*
X60842857Y-50562380D01*
X60938095Y-50610000D01*
X60985714Y-50657619D01*
X61033333Y-50752857D01*
X61033333Y-50895714D01*
X60985714Y-50990952D01*
X60938095Y-51038571D01*
X60842857Y-51086190D01*
X60461904Y-51086190D01*
X61938095Y-51562380D02*
X61461904Y-51562380D01*
X61461904Y-50562380D01*
X62271428Y-51562380D02*
X62271428Y-50562380D01*
X62509523Y-50562380D01*
X62652380Y-50610000D01*
X62747619Y-50705238D01*
X62795238Y-50800476D01*
X62842857Y-50990952D01*
X62842857Y-51133809D01*
X62795238Y-51324285D01*
X62747619Y-51419523D01*
X62652380Y-51514761D01*
X62509523Y-51562380D01*
X62271428Y-51562380D01*
X63985714Y-51514761D02*
X64128571Y-51562380D01*
X64366666Y-51562380D01*
X64461904Y-51514761D01*
X64509523Y-51467142D01*
X64557142Y-51371904D01*
X64557142Y-51276666D01*
X64509523Y-51181428D01*
X64461904Y-51133809D01*
X64366666Y-51086190D01*
X64176190Y-51038571D01*
X64080952Y-50990952D01*
X64033333Y-50943333D01*
X63985714Y-50848095D01*
X63985714Y-50752857D01*
X64033333Y-50657619D01*
X64080952Y-50610000D01*
X64176190Y-50562380D01*
X64414285Y-50562380D01*
X64557142Y-50610000D01*
X64985714Y-51038571D02*
X65319047Y-51038571D01*
X65461904Y-51562380D02*
X64985714Y-51562380D01*
X64985714Y-50562380D01*
X65461904Y-50562380D01*
X66461904Y-51562380D02*
X66128571Y-51086190D01*
X65890476Y-51562380D02*
X65890476Y-50562380D01*
X66271428Y-50562380D01*
X66366666Y-50610000D01*
X66414285Y-50657619D01*
X66461904Y-50752857D01*
X66461904Y-50895714D01*
X66414285Y-50990952D01*
X66366666Y-51038571D01*
X66271428Y-51086190D01*
X65890476Y-51086190D01*
X66890476Y-51562380D02*
X66890476Y-50562380D01*
X67271428Y-50562380D01*
X67366666Y-50610000D01*
X67414285Y-50657619D01*
X67461904Y-50752857D01*
X67461904Y-50895714D01*
X67414285Y-50990952D01*
X67366666Y-51038571D01*
X67271428Y-51086190D01*
X66890476Y-51086190D01*
X67890476Y-51038571D02*
X68223809Y-51038571D01*
X68366666Y-51562380D02*
X67890476Y-51562380D01*
X67890476Y-50562380D01*
X68366666Y-50562380D01*
X68795238Y-51562380D02*
X68795238Y-50562380D01*
X69366666Y-51562380D01*
X69366666Y-50562380D01*
X69700000Y-50562380D02*
X70271428Y-50562380D01*
X69985714Y-51562380D02*
X69985714Y-50562380D01*
X60390476Y-53172380D02*
X60390476Y-52172380D01*
X60628571Y-52172380D01*
X60771428Y-52220000D01*
X60866666Y-52315238D01*
X60914285Y-52410476D01*
X60961904Y-52600952D01*
X60961904Y-52743809D01*
X60914285Y-52934285D01*
X60866666Y-53029523D01*
X60771428Y-53124761D01*
X60628571Y-53172380D01*
X60390476Y-53172380D01*
X61390476Y-52648571D02*
X61723809Y-52648571D01*
X61866666Y-53172380D02*
X61390476Y-53172380D01*
X61390476Y-52172380D01*
X61866666Y-52172380D01*
X62152380Y-52172380D02*
X62485714Y-53172380D01*
X62819047Y-52172380D01*
X63152380Y-53172380D02*
X63152380Y-52172380D01*
X64200000Y-53077142D02*
X64152380Y-53124761D01*
X64009523Y-53172380D01*
X63914285Y-53172380D01*
X63771428Y-53124761D01*
X63676190Y-53029523D01*
X63628571Y-52934285D01*
X63580952Y-52743809D01*
X63580952Y-52600952D01*
X63628571Y-52410476D01*
X63676190Y-52315238D01*
X63771428Y-52220000D01*
X63914285Y-52172380D01*
X64009523Y-52172380D01*
X64152380Y-52220000D01*
X64200000Y-52267619D01*
X64628571Y-52648571D02*
X64961904Y-52648571D01*
X65104761Y-53172380D02*
X64628571Y-53172380D01*
X64628571Y-52172380D01*
X65104761Y-52172380D01*
X65485714Y-53124761D02*
X65628571Y-53172380D01*
X65866666Y-53172380D01*
X65961904Y-53124761D01*
X66009523Y-53077142D01*
X66057142Y-52981904D01*
X66057142Y-52886666D01*
X66009523Y-52791428D01*
X65961904Y-52743809D01*
X65866666Y-52696190D01*
X65676190Y-52648571D01*
X65580952Y-52600952D01*
X65533333Y-52553333D01*
X65485714Y-52458095D01*
X65485714Y-52362857D01*
X65533333Y-52267619D01*
X65580952Y-52220000D01*
X65676190Y-52172380D01*
X65914285Y-52172380D01*
X66057142Y-52220000D01*
X21979136Y-49171190D02*
X21919613Y-49647380D01*
X21711279Y-48647380D02*
X21979136Y-49171190D01*
X22377946Y-48647380D01*
X22729136Y-49647380D02*
X22639851Y-49599761D01*
X22598184Y-49552142D01*
X22562470Y-49456904D01*
X22598184Y-49171190D01*
X22657708Y-49075952D01*
X22711279Y-49028333D01*
X22812470Y-48980714D01*
X22955327Y-48980714D01*
X23044613Y-49028333D01*
X23086279Y-49075952D01*
X23121994Y-49171190D01*
X23086279Y-49456904D01*
X23026755Y-49552142D01*
X22973184Y-49599761D01*
X22871994Y-49647380D01*
X22729136Y-49647380D01*
X24002946Y-48980714D02*
X23919613Y-49647380D01*
X23574374Y-48980714D02*
X23508898Y-49504523D01*
X23544613Y-49599761D01*
X23633898Y-49647380D01*
X23776755Y-49647380D01*
X23877946Y-49599761D01*
X23931517Y-49552142D01*
X25300565Y-49647380D02*
X25211279Y-49599761D01*
X25175565Y-49504523D01*
X25282708Y-48647380D01*
X25681517Y-49647380D02*
X25764851Y-48980714D01*
X25806517Y-48647380D02*
X25752946Y-48695000D01*
X25794613Y-48742619D01*
X25848184Y-48695000D01*
X25806517Y-48647380D01*
X25794613Y-48742619D01*
X26145803Y-48980714D02*
X26300565Y-49647380D01*
X26621994Y-48980714D01*
X27306517Y-49599761D02*
X27205327Y-49647380D01*
X27014851Y-49647380D01*
X26925565Y-49599761D01*
X26889851Y-49504523D01*
X26937470Y-49123571D01*
X26996994Y-49028333D01*
X27098184Y-48980714D01*
X27288660Y-48980714D01*
X27377946Y-49028333D01*
X27413660Y-49123571D01*
X27401755Y-49218809D01*
X26913660Y-49314047D01*
X28538660Y-49647380D02*
X28663660Y-48647380D01*
X28616041Y-49028333D02*
X28717232Y-48980714D01*
X28907708Y-48980714D01*
X28996994Y-49028333D01*
X29038660Y-49075952D01*
X29074375Y-49171190D01*
X29038660Y-49456904D01*
X28979136Y-49552142D01*
X28925565Y-49599761D01*
X28824374Y-49647380D01*
X28633898Y-49647380D01*
X28544613Y-49599761D01*
X29431517Y-48980714D02*
X29586279Y-49647380D01*
X29907708Y-48980714D02*
X29586279Y-49647380D01*
X29461279Y-49885476D01*
X29407708Y-49933095D01*
X29306517Y-49980714D01*
X30907708Y-48980714D02*
X31288660Y-48980714D01*
X31092232Y-48647380D02*
X30985089Y-49504523D01*
X31020803Y-49599761D01*
X31110089Y-49647380D01*
X31205327Y-49647380D01*
X31538660Y-49647380D02*
X31663660Y-48647380D01*
X31967232Y-49647380D02*
X32032708Y-49123571D01*
X31996994Y-49028333D01*
X31907708Y-48980714D01*
X31764851Y-48980714D01*
X31663660Y-49028333D01*
X31610089Y-49075952D01*
X32830327Y-49599761D02*
X32729136Y-49647380D01*
X32538660Y-49647380D01*
X32449374Y-49599761D01*
X32413660Y-49504523D01*
X32461279Y-49123571D01*
X32520803Y-49028333D01*
X32621994Y-48980714D01*
X32812470Y-48980714D01*
X32901755Y-49028333D01*
X32937470Y-49123571D01*
X32925565Y-49218809D01*
X32437470Y-49314047D01*
X34574374Y-48980714D02*
X34473184Y-49790238D01*
X34413660Y-49885476D01*
X34360089Y-49933095D01*
X34258898Y-49980714D01*
X34116041Y-49980714D01*
X34026755Y-49933095D01*
X34496994Y-49599761D02*
X34395803Y-49647380D01*
X34205327Y-49647380D01*
X34116041Y-49599761D01*
X34074375Y-49552142D01*
X34038660Y-49456904D01*
X34074374Y-49171190D01*
X34133898Y-49075952D01*
X34187470Y-49028333D01*
X34288660Y-48980714D01*
X34479136Y-48980714D01*
X34568422Y-49028333D01*
X34967232Y-49647380D02*
X35092232Y-48647380D01*
X35395803Y-49647380D02*
X35461279Y-49123571D01*
X35425565Y-49028333D01*
X35336279Y-48980714D01*
X35193422Y-48980714D01*
X35092232Y-49028333D01*
X35038660Y-49075952D01*
X36014851Y-49647380D02*
X35925565Y-49599761D01*
X35883898Y-49552142D01*
X35848184Y-49456904D01*
X35883898Y-49171190D01*
X35943422Y-49075952D01*
X35996994Y-49028333D01*
X36098184Y-48980714D01*
X36241041Y-48980714D01*
X36330327Y-49028333D01*
X36371994Y-49075952D01*
X36407708Y-49171190D01*
X36371994Y-49456904D01*
X36312470Y-49552142D01*
X36258898Y-49599761D01*
X36157708Y-49647380D01*
X36014851Y-49647380D01*
X36735089Y-49599761D02*
X36824374Y-49647380D01*
X37014851Y-49647380D01*
X37116041Y-49599761D01*
X37175565Y-49504523D01*
X37181517Y-49456904D01*
X37145803Y-49361666D01*
X37056517Y-49314047D01*
X36913660Y-49314047D01*
X36824375Y-49266428D01*
X36788660Y-49171190D01*
X36794613Y-49123571D01*
X36854136Y-49028333D01*
X36955327Y-48980714D01*
X37098184Y-48980714D01*
X37187470Y-49028333D01*
X37526755Y-48980714D02*
X37907708Y-48980714D01*
X37711279Y-48647380D02*
X37604136Y-49504523D01*
X37639851Y-49599761D01*
X37729136Y-49647380D01*
X37824374Y-49647380D01*
X22169613Y-50781190D02*
X22110089Y-51257380D01*
X21901755Y-50257380D02*
X22169613Y-50781190D01*
X22568422Y-50257380D01*
X22919613Y-51257380D02*
X22830327Y-51209761D01*
X22788660Y-51162142D01*
X22752946Y-51066904D01*
X22788660Y-50781190D01*
X22848184Y-50685952D01*
X22901755Y-50638333D01*
X23002946Y-50590714D01*
X23145803Y-50590714D01*
X23235089Y-50638333D01*
X23276755Y-50685952D01*
X23312470Y-50781190D01*
X23276755Y-51066904D01*
X23217232Y-51162142D01*
X23163660Y-51209761D01*
X23062470Y-51257380D01*
X22919613Y-51257380D01*
X24193422Y-50590714D02*
X24110089Y-51257380D01*
X23764851Y-50590714D02*
X23699374Y-51114523D01*
X23735089Y-51209761D01*
X23824374Y-51257380D01*
X23967232Y-51257380D01*
X24068422Y-51209761D01*
X24121994Y-51162142D01*
X25776755Y-51257380D02*
X25901755Y-50257380D01*
X25782708Y-51209761D02*
X25681517Y-51257380D01*
X25491041Y-51257380D01*
X25401755Y-51209761D01*
X25360089Y-51162142D01*
X25324374Y-51066904D01*
X25360089Y-50781190D01*
X25419613Y-50685952D01*
X25473184Y-50638333D01*
X25574374Y-50590714D01*
X25764851Y-50590714D01*
X25854136Y-50638333D01*
X26252946Y-51257380D02*
X26336279Y-50590714D01*
X26377946Y-50257380D02*
X26324374Y-50305000D01*
X26366041Y-50352619D01*
X26419613Y-50305000D01*
X26377946Y-50257380D01*
X26366041Y-50352619D01*
X27116041Y-51209761D02*
X27014851Y-51257380D01*
X26824374Y-51257380D01*
X26735089Y-51209761D01*
X26699374Y-51114523D01*
X26746994Y-50733571D01*
X26806517Y-50638333D01*
X26907708Y-50590714D01*
X27098184Y-50590714D01*
X27187470Y-50638333D01*
X27223184Y-50733571D01*
X27211279Y-50828809D01*
X26723184Y-50924047D01*
X28348184Y-51257380D02*
X28473184Y-50257380D01*
X28425565Y-50638333D02*
X28526755Y-50590714D01*
X28717232Y-50590714D01*
X28806517Y-50638333D01*
X28848184Y-50685952D01*
X28883898Y-50781190D01*
X28848184Y-51066904D01*
X28788660Y-51162142D01*
X28735089Y-51209761D01*
X28633898Y-51257380D01*
X28443422Y-51257380D01*
X28354136Y-51209761D01*
X29241041Y-50590714D02*
X29395803Y-51257380D01*
X29717232Y-50590714D02*
X29395803Y-51257380D01*
X29270803Y-51495476D01*
X29217232Y-51543095D01*
X29116041Y-51590714D01*
X30717232Y-50590714D02*
X31098184Y-50590714D01*
X30901755Y-50257380D02*
X30794613Y-51114523D01*
X30830327Y-51209761D01*
X30919613Y-51257380D01*
X31014851Y-51257380D01*
X31348184Y-51257380D02*
X31473184Y-50257380D01*
X31776755Y-51257380D02*
X31842232Y-50733571D01*
X31806517Y-50638333D01*
X31717232Y-50590714D01*
X31574374Y-50590714D01*
X31473184Y-50638333D01*
X31419613Y-50685952D01*
X32639851Y-51209761D02*
X32538660Y-51257380D01*
X32348184Y-51257380D01*
X32258898Y-51209761D01*
X32223184Y-51114523D01*
X32270803Y-50733571D01*
X32330327Y-50638333D01*
X32431517Y-50590714D01*
X32621994Y-50590714D01*
X32711279Y-50638333D01*
X32746994Y-50733571D01*
X32735089Y-50828809D01*
X32246994Y-50924047D01*
X34383898Y-50590714D02*
X34282708Y-51400238D01*
X34223184Y-51495476D01*
X34169613Y-51543095D01*
X34068422Y-51590714D01*
X33925565Y-51590714D01*
X33836279Y-51543095D01*
X34306517Y-51209761D02*
X34205327Y-51257380D01*
X34014851Y-51257380D01*
X33925565Y-51209761D01*
X33883898Y-51162142D01*
X33848184Y-51066904D01*
X33883898Y-50781190D01*
X33943422Y-50685952D01*
X33996994Y-50638333D01*
X34098184Y-50590714D01*
X34288660Y-50590714D01*
X34377946Y-50638333D01*
X34776755Y-51257380D02*
X34901755Y-50257380D01*
X35205327Y-51257380D02*
X35270803Y-50733571D01*
X35235089Y-50638333D01*
X35145803Y-50590714D01*
X35002946Y-50590714D01*
X34901755Y-50638333D01*
X34848184Y-50685952D01*
X35824374Y-51257380D02*
X35735089Y-51209761D01*
X35693422Y-51162142D01*
X35657708Y-51066904D01*
X35693422Y-50781190D01*
X35752946Y-50685952D01*
X35806517Y-50638333D01*
X35907708Y-50590714D01*
X36050565Y-50590714D01*
X36139851Y-50638333D01*
X36181517Y-50685952D01*
X36217232Y-50781190D01*
X36181517Y-51066904D01*
X36121994Y-51162142D01*
X36068422Y-51209761D01*
X35967232Y-51257380D01*
X35824374Y-51257380D01*
X36544613Y-51209761D02*
X36633898Y-51257380D01*
X36824374Y-51257380D01*
X36925565Y-51209761D01*
X36985089Y-51114523D01*
X36991041Y-51066904D01*
X36955327Y-50971666D01*
X36866041Y-50924047D01*
X36723184Y-50924047D01*
X36633898Y-50876428D01*
X36598184Y-50781190D01*
X36604136Y-50733571D01*
X36663660Y-50638333D01*
X36764851Y-50590714D01*
X36907708Y-50590714D01*
X36996994Y-50638333D01*
X37336279Y-50590714D02*
X37717232Y-50590714D01*
X37520803Y-50257380D02*
X37413660Y-51114523D01*
X37449374Y-51209761D01*
X37538660Y-51257380D01*
X37633898Y-51257380D01*
X45461904Y-38282380D02*
X45461904Y-37282380D01*
X45700000Y-37282380D01*
X45842857Y-37330000D01*
X45938095Y-37425238D01*
X45985714Y-37520476D01*
X46033333Y-37710952D01*
X46033333Y-37853809D01*
X45985714Y-38044285D01*
X45938095Y-38139523D01*
X45842857Y-38234761D01*
X45700000Y-38282380D01*
X45461904Y-38282380D01*
X46414285Y-37377619D02*
X46461904Y-37330000D01*
X46557142Y-37282380D01*
X46795238Y-37282380D01*
X46890476Y-37330000D01*
X46938095Y-37377619D01*
X46985714Y-37472857D01*
X46985714Y-37568095D01*
X46938095Y-37710952D01*
X46366666Y-38282380D01*
X46985714Y-38282380D01*
D11*
X28120059Y-66473821D02*
X28292416Y-66531273D01*
X28349869Y-66588726D01*
X28407321Y-66703630D01*
X28407321Y-66875988D01*
X28349869Y-66990892D01*
X28292416Y-67048345D01*
X28177511Y-67105797D01*
X27717892Y-67105797D01*
X27717892Y-65899297D01*
X28120059Y-65899297D01*
X28234964Y-65956750D01*
X28292416Y-66014202D01*
X28349869Y-66129107D01*
X28349869Y-66244011D01*
X28292416Y-66358916D01*
X28234964Y-66416369D01*
X28120059Y-66473821D01*
X27717892Y-66473821D01*
X28866940Y-66761083D02*
X29441464Y-66761083D01*
X28752035Y-67105797D02*
X29154202Y-65899297D01*
X29556369Y-67105797D01*
X29901083Y-67048345D02*
X30073440Y-67105797D01*
X30360702Y-67105797D01*
X30475607Y-67048345D01*
X30533059Y-66990892D01*
X30590511Y-66875988D01*
X30590511Y-66761083D01*
X30533059Y-66646178D01*
X30475607Y-66588726D01*
X30360702Y-66531273D01*
X30130892Y-66473821D01*
X30015988Y-66416369D01*
X29958535Y-66358916D01*
X29901083Y-66244011D01*
X29901083Y-66129107D01*
X29958535Y-66014202D01*
X30015988Y-65956750D01*
X30130892Y-65899297D01*
X30418154Y-65899297D01*
X30590511Y-65956750D01*
X31050130Y-67048345D02*
X31222488Y-67105797D01*
X31509750Y-67105797D01*
X31624654Y-67048345D01*
X31682107Y-66990892D01*
X31739559Y-66875988D01*
X31739559Y-66761083D01*
X31682107Y-66646178D01*
X31624654Y-66588726D01*
X31509750Y-66531273D01*
X31279940Y-66473821D01*
X31165035Y-66416369D01*
X31107583Y-66358916D01*
X31050130Y-66244011D01*
X31050130Y-66129107D01*
X31107583Y-66014202D01*
X31165035Y-65956750D01*
X31279940Y-65899297D01*
X31567202Y-65899297D01*
X31739559Y-65956750D01*
D12*
X23213904Y-67276038D02*
X22662361Y-67276038D01*
X22938132Y-67276038D02*
X22938132Y-66310838D01*
X22846209Y-66448723D01*
X22754285Y-66540647D01*
X22662361Y-66586609D01*
D13*
X73987714Y-98101600D02*
X74016742Y-98130628D01*
X74045771Y-98217714D01*
X74045771Y-98275771D01*
X74016742Y-98362857D01*
X73958685Y-98420914D01*
X73900628Y-98449942D01*
X73784514Y-98478971D01*
X73697428Y-98478971D01*
X73581314Y-98449942D01*
X73523257Y-98420914D01*
X73465200Y-98362857D01*
X73436171Y-98275771D01*
X73436171Y-98217714D01*
X73465200Y-98130628D01*
X73494228Y-98101600D01*
X74045771Y-97521028D02*
X74045771Y-97869371D01*
X74045771Y-97695200D02*
X73436171Y-97695200D01*
X73523257Y-97753257D01*
X73581314Y-97811314D01*
X73610342Y-97869371D01*
X71505771Y-98653142D02*
X71505771Y-99001485D01*
X71505771Y-98827314D02*
X70896171Y-98827314D01*
X70983257Y-98885371D01*
X71041314Y-98943428D01*
X71070342Y-99001485D01*
X70896171Y-98275771D02*
X70896171Y-98217714D01*
X70925200Y-98159657D01*
X70954228Y-98130628D01*
X71012285Y-98101600D01*
X71128400Y-98072571D01*
X71273542Y-98072571D01*
X71389657Y-98101600D01*
X71447714Y-98130628D01*
X71476742Y-98159657D01*
X71505771Y-98217714D01*
X71505771Y-98275771D01*
X71476742Y-98333828D01*
X71447714Y-98362857D01*
X71389657Y-98391885D01*
X71273542Y-98420914D01*
X71128400Y-98420914D01*
X71012285Y-98391885D01*
X70954228Y-98362857D01*
X70925200Y-98333828D01*
X70896171Y-98275771D01*
X71099371Y-97811314D02*
X71505771Y-97811314D01*
X71157428Y-97811314D02*
X71128400Y-97782285D01*
X71099371Y-97724228D01*
X71099371Y-97637142D01*
X71128400Y-97579085D01*
X71186457Y-97550057D01*
X71505771Y-97550057D01*
X71186457Y-97056571D02*
X71186457Y-97259771D01*
X71505771Y-97259771D02*
X70896171Y-97259771D01*
X70896171Y-96969485D01*
X36898400Y-79693714D02*
X36869371Y-79722742D01*
X36782285Y-79751771D01*
X36724228Y-79751771D01*
X36637142Y-79722742D01*
X36579085Y-79664685D01*
X36550057Y-79606628D01*
X36521028Y-79490514D01*
X36521028Y-79403428D01*
X36550057Y-79287314D01*
X36579085Y-79229257D01*
X36637142Y-79171200D01*
X36724228Y-79142171D01*
X36782285Y-79142171D01*
X36869371Y-79171200D01*
X36898400Y-79200228D01*
X37130628Y-79200228D02*
X37159657Y-79171200D01*
X37217714Y-79142171D01*
X37362857Y-79142171D01*
X37420914Y-79171200D01*
X37449942Y-79200228D01*
X37478971Y-79258285D01*
X37478971Y-79316342D01*
X37449942Y-79403428D01*
X37101600Y-79751771D01*
X37478971Y-79751771D01*
X36143657Y-82393371D02*
X36143657Y-82799771D01*
X35998514Y-82161142D02*
X35853371Y-82596571D01*
X36230742Y-82596571D01*
X36462971Y-82741714D02*
X36492000Y-82770742D01*
X36462971Y-82799771D01*
X36433942Y-82770742D01*
X36462971Y-82741714D01*
X36462971Y-82799771D01*
X36695200Y-82190171D02*
X37101600Y-82190171D01*
X36840342Y-82799771D01*
X37333828Y-82393371D02*
X37333828Y-82799771D01*
X37333828Y-82451428D02*
X37362857Y-82422400D01*
X37420914Y-82393371D01*
X37508000Y-82393371D01*
X37566057Y-82422400D01*
X37595085Y-82480457D01*
X37595085Y-82799771D01*
X38088571Y-82480457D02*
X37885371Y-82480457D01*
X37885371Y-82799771D02*
X37885371Y-82190171D01*
X38175657Y-82190171D01*
X71193714Y-80601600D02*
X71222742Y-80630628D01*
X71251771Y-80717714D01*
X71251771Y-80775771D01*
X71222742Y-80862857D01*
X71164685Y-80920914D01*
X71106628Y-80949942D01*
X70990514Y-80978971D01*
X70903428Y-80978971D01*
X70787314Y-80949942D01*
X70729257Y-80920914D01*
X70671200Y-80862857D01*
X70642171Y-80775771D01*
X70642171Y-80717714D01*
X70671200Y-80630628D01*
X70700228Y-80601600D01*
X70845371Y-80079085D02*
X71251771Y-80079085D01*
X70613142Y-80224228D02*
X71048571Y-80369371D01*
X71048571Y-79992000D01*
X73748228Y-81646628D02*
X73719200Y-81617600D01*
X73690171Y-81559542D01*
X73690171Y-81414400D01*
X73719200Y-81356342D01*
X73748228Y-81327314D01*
X73806285Y-81298285D01*
X73864342Y-81298285D01*
X73951428Y-81327314D01*
X74299771Y-81675657D01*
X74299771Y-81298285D01*
X74241714Y-81037028D02*
X74270742Y-81008000D01*
X74299771Y-81037028D01*
X74270742Y-81066057D01*
X74241714Y-81037028D01*
X74299771Y-81037028D01*
X73748228Y-80775771D02*
X73719200Y-80746742D01*
X73690171Y-80688685D01*
X73690171Y-80543542D01*
X73719200Y-80485485D01*
X73748228Y-80456457D01*
X73806285Y-80427428D01*
X73864342Y-80427428D01*
X73951428Y-80456457D01*
X74299771Y-80804800D01*
X74299771Y-80427428D01*
X73893371Y-79904914D02*
X74299771Y-79904914D01*
X73893371Y-80166171D02*
X74212685Y-80166171D01*
X74270742Y-80137142D01*
X74299771Y-80079085D01*
X74299771Y-79992000D01*
X74270742Y-79933942D01*
X74241714Y-79904914D01*
X73980457Y-79411428D02*
X73980457Y-79614628D01*
X74299771Y-79614628D02*
X73690171Y-79614628D01*
X73690171Y-79324342D01*
X32898400Y-85487714D02*
X32869371Y-85516742D01*
X32782285Y-85545771D01*
X32724228Y-85545771D01*
X32637142Y-85516742D01*
X32579085Y-85458685D01*
X32550057Y-85400628D01*
X32521028Y-85284514D01*
X32521028Y-85197428D01*
X32550057Y-85081314D01*
X32579085Y-85023257D01*
X32637142Y-84965200D01*
X32724228Y-84936171D01*
X32782285Y-84936171D01*
X32869371Y-84965200D01*
X32898400Y-84994228D01*
X33449942Y-84936171D02*
X33159657Y-84936171D01*
X33130628Y-85226457D01*
X33159657Y-85197428D01*
X33217714Y-85168400D01*
X33362857Y-85168400D01*
X33420914Y-85197428D01*
X33449942Y-85226457D01*
X33478971Y-85284514D01*
X33478971Y-85429657D01*
X33449942Y-85487714D01*
X33420914Y-85516742D01*
X33362857Y-85545771D01*
X33217714Y-85545771D01*
X33159657Y-85516742D01*
X33130628Y-85487714D01*
X32027542Y-82396171D02*
X31737257Y-82396171D01*
X31708228Y-82686457D01*
X31737257Y-82657428D01*
X31795314Y-82628400D01*
X31940457Y-82628400D01*
X31998514Y-82657428D01*
X32027542Y-82686457D01*
X32056571Y-82744514D01*
X32056571Y-82889657D01*
X32027542Y-82947714D01*
X31998514Y-82976742D01*
X31940457Y-83005771D01*
X31795314Y-83005771D01*
X31737257Y-82976742D01*
X31708228Y-82947714D01*
X32579085Y-82396171D02*
X32462971Y-82396171D01*
X32404914Y-82425200D01*
X32375885Y-82454228D01*
X32317828Y-82541314D01*
X32288800Y-82657428D01*
X32288800Y-82889657D01*
X32317828Y-82947714D01*
X32346857Y-82976742D01*
X32404914Y-83005771D01*
X32521028Y-83005771D01*
X32579085Y-82976742D01*
X32608114Y-82947714D01*
X32637142Y-82889657D01*
X32637142Y-82744514D01*
X32608114Y-82686457D01*
X32579085Y-82657428D01*
X32521028Y-82628400D01*
X32404914Y-82628400D01*
X32346857Y-82657428D01*
X32317828Y-82686457D01*
X32288800Y-82744514D01*
X33014514Y-82396171D02*
X33072571Y-82396171D01*
X33130628Y-82425200D01*
X33159657Y-82454228D01*
X33188685Y-82512285D01*
X33217714Y-82628400D01*
X33217714Y-82773542D01*
X33188685Y-82889657D01*
X33159657Y-82947714D01*
X33130628Y-82976742D01*
X33072571Y-83005771D01*
X33014514Y-83005771D01*
X32956457Y-82976742D01*
X32927428Y-82947714D01*
X32898400Y-82889657D01*
X32869371Y-82773542D01*
X32869371Y-82628400D01*
X32898400Y-82512285D01*
X32927428Y-82454228D01*
X32956457Y-82425200D01*
X33014514Y-82396171D01*
X33478971Y-82599371D02*
X33478971Y-83208971D01*
X33478971Y-82628400D02*
X33537028Y-82599371D01*
X33653142Y-82599371D01*
X33711200Y-82628400D01*
X33740228Y-82657428D01*
X33769257Y-82715485D01*
X33769257Y-82889657D01*
X33740228Y-82947714D01*
X33711200Y-82976742D01*
X33653142Y-83005771D01*
X33537028Y-83005771D01*
X33478971Y-82976742D01*
X34233714Y-82686457D02*
X34030514Y-82686457D01*
X34030514Y-83005771D02*
X34030514Y-82396171D01*
X34320800Y-82396171D01*
X31898400Y-96947714D02*
X31869371Y-96976742D01*
X31782285Y-97005771D01*
X31724228Y-97005771D01*
X31637142Y-96976742D01*
X31579085Y-96918685D01*
X31550057Y-96860628D01*
X31521028Y-96744514D01*
X31521028Y-96657428D01*
X31550057Y-96541314D01*
X31579085Y-96483257D01*
X31637142Y-96425200D01*
X31724228Y-96396171D01*
X31782285Y-96396171D01*
X31869371Y-96425200D01*
X31898400Y-96454228D01*
X32420914Y-96396171D02*
X32304800Y-96396171D01*
X32246742Y-96425200D01*
X32217714Y-96454228D01*
X32159657Y-96541314D01*
X32130628Y-96657428D01*
X32130628Y-96889657D01*
X32159657Y-96947714D01*
X32188685Y-96976742D01*
X32246742Y-97005771D01*
X32362857Y-97005771D01*
X32420914Y-96976742D01*
X32449942Y-96947714D01*
X32478971Y-96889657D01*
X32478971Y-96744514D01*
X32449942Y-96686457D01*
X32420914Y-96657428D01*
X32362857Y-96628400D01*
X32246742Y-96628400D01*
X32188685Y-96657428D01*
X32159657Y-96686457D01*
X32130628Y-96744514D01*
X30998514Y-98994228D02*
X31027542Y-98965200D01*
X31085600Y-98936171D01*
X31230742Y-98936171D01*
X31288800Y-98965200D01*
X31317828Y-98994228D01*
X31346857Y-99052285D01*
X31346857Y-99110342D01*
X31317828Y-99197428D01*
X30969485Y-99545771D01*
X31346857Y-99545771D01*
X31579085Y-98994228D02*
X31608114Y-98965200D01*
X31666171Y-98936171D01*
X31811314Y-98936171D01*
X31869371Y-98965200D01*
X31898400Y-98994228D01*
X31927428Y-99052285D01*
X31927428Y-99110342D01*
X31898400Y-99197428D01*
X31550057Y-99545771D01*
X31927428Y-99545771D01*
X32188685Y-99139371D02*
X32188685Y-99545771D01*
X32188685Y-99197428D02*
X32217714Y-99168400D01*
X32275771Y-99139371D01*
X32362857Y-99139371D01*
X32420914Y-99168400D01*
X32449942Y-99226457D01*
X32449942Y-99545771D01*
X32943428Y-99226457D02*
X32740228Y-99226457D01*
X32740228Y-99545771D02*
X32740228Y-98936171D01*
X33030514Y-98936171D01*
X62487714Y-94601600D02*
X62516742Y-94630628D01*
X62545771Y-94717714D01*
X62545771Y-94775771D01*
X62516742Y-94862857D01*
X62458685Y-94920914D01*
X62400628Y-94949942D01*
X62284514Y-94978971D01*
X62197428Y-94978971D01*
X62081314Y-94949942D01*
X62023257Y-94920914D01*
X61965200Y-94862857D01*
X61936171Y-94775771D01*
X61936171Y-94717714D01*
X61965200Y-94630628D01*
X61994228Y-94601600D01*
X61936171Y-94398400D02*
X61936171Y-93992000D01*
X62545771Y-94253257D01*
X59454228Y-95501485D02*
X59425200Y-95472457D01*
X59396171Y-95414400D01*
X59396171Y-95269257D01*
X59425200Y-95211200D01*
X59454228Y-95182171D01*
X59512285Y-95153142D01*
X59570342Y-95153142D01*
X59657428Y-95182171D01*
X60005771Y-95530514D01*
X60005771Y-95153142D01*
X59454228Y-94920914D02*
X59425200Y-94891885D01*
X59396171Y-94833828D01*
X59396171Y-94688685D01*
X59425200Y-94630628D01*
X59454228Y-94601600D01*
X59512285Y-94572571D01*
X59570342Y-94572571D01*
X59657428Y-94601600D01*
X60005771Y-94949942D01*
X60005771Y-94572571D01*
X59599371Y-94311314D02*
X60005771Y-94311314D01*
X59657428Y-94311314D02*
X59628400Y-94282285D01*
X59599371Y-94224228D01*
X59599371Y-94137142D01*
X59628400Y-94079085D01*
X59686457Y-94050057D01*
X60005771Y-94050057D01*
X59686457Y-93556571D02*
X59686457Y-93759771D01*
X60005771Y-93759771D02*
X59396171Y-93759771D01*
X59396171Y-93469485D01*
X19193714Y-61101600D02*
X19222742Y-61130628D01*
X19251771Y-61217714D01*
X19251771Y-61275771D01*
X19222742Y-61362857D01*
X19164685Y-61420914D01*
X19106628Y-61449942D01*
X18990514Y-61478971D01*
X18903428Y-61478971D01*
X18787314Y-61449942D01*
X18729257Y-61420914D01*
X18671200Y-61362857D01*
X18642171Y-61275771D01*
X18642171Y-61217714D01*
X18671200Y-61130628D01*
X18700228Y-61101600D01*
X18903428Y-60753257D02*
X18874400Y-60811314D01*
X18845371Y-60840342D01*
X18787314Y-60869371D01*
X18758285Y-60869371D01*
X18700228Y-60840342D01*
X18671200Y-60811314D01*
X18642171Y-60753257D01*
X18642171Y-60637142D01*
X18671200Y-60579085D01*
X18700228Y-60550057D01*
X18758285Y-60521028D01*
X18787314Y-60521028D01*
X18845371Y-60550057D01*
X18874400Y-60579085D01*
X18903428Y-60637142D01*
X18903428Y-60753257D01*
X18932457Y-60811314D01*
X18961485Y-60840342D01*
X19019542Y-60869371D01*
X19135657Y-60869371D01*
X19193714Y-60840342D01*
X19222742Y-60811314D01*
X19251771Y-60753257D01*
X19251771Y-60637142D01*
X19222742Y-60579085D01*
X19193714Y-60550057D01*
X19135657Y-60521028D01*
X19019542Y-60521028D01*
X18961485Y-60550057D01*
X18932457Y-60579085D01*
X18903428Y-60637142D01*
X21893371Y-61711200D02*
X22299771Y-61711200D01*
X21661142Y-61856342D02*
X22096571Y-62001485D01*
X22096571Y-61624114D01*
X21690171Y-61449942D02*
X21690171Y-61043542D01*
X22299771Y-61304800D01*
X21893371Y-60811314D02*
X22299771Y-60811314D01*
X21951428Y-60811314D02*
X21922400Y-60782285D01*
X21893371Y-60724228D01*
X21893371Y-60637142D01*
X21922400Y-60579085D01*
X21980457Y-60550057D01*
X22299771Y-60550057D01*
X21980457Y-60056571D02*
X21980457Y-60259771D01*
X22299771Y-60259771D02*
X21690171Y-60259771D01*
X21690171Y-59969485D01*
X43358114Y-61217714D02*
X43329085Y-61246742D01*
X43242000Y-61275771D01*
X43183942Y-61275771D01*
X43096857Y-61246742D01*
X43038800Y-61188685D01*
X43009771Y-61130628D01*
X42980742Y-61014514D01*
X42980742Y-60927428D01*
X43009771Y-60811314D01*
X43038800Y-60753257D01*
X43096857Y-60695200D01*
X43183942Y-60666171D01*
X43242000Y-60666171D01*
X43329085Y-60695200D01*
X43358114Y-60724228D01*
X43938685Y-61275771D02*
X43590342Y-61275771D01*
X43764514Y-61275771D02*
X43764514Y-60666171D01*
X43706457Y-60753257D01*
X43648400Y-60811314D01*
X43590342Y-60840342D01*
X44316057Y-60666171D02*
X44374114Y-60666171D01*
X44432171Y-60695200D01*
X44461200Y-60724228D01*
X44490228Y-60782285D01*
X44519257Y-60898400D01*
X44519257Y-61043542D01*
X44490228Y-61159657D01*
X44461200Y-61217714D01*
X44432171Y-61246742D01*
X44374114Y-61275771D01*
X44316057Y-61275771D01*
X44258000Y-61246742D01*
X44228971Y-61217714D01*
X44199942Y-61159657D01*
X44170914Y-61043542D01*
X44170914Y-60898400D01*
X44199942Y-60782285D01*
X44228971Y-60724228D01*
X44258000Y-60695200D01*
X44316057Y-60666171D01*
X45469485Y-59646171D02*
X45846857Y-59646171D01*
X45643657Y-59878400D01*
X45730742Y-59878400D01*
X45788800Y-59907428D01*
X45817828Y-59936457D01*
X45846857Y-59994514D01*
X45846857Y-60139657D01*
X45817828Y-60197714D01*
X45788800Y-60226742D01*
X45730742Y-60255771D01*
X45556571Y-60255771D01*
X45498514Y-60226742D01*
X45469485Y-60197714D01*
X46224228Y-59646171D02*
X46282285Y-59646171D01*
X46340342Y-59675200D01*
X46369371Y-59704228D01*
X46398400Y-59762285D01*
X46427428Y-59878400D01*
X46427428Y-60023542D01*
X46398400Y-60139657D01*
X46369371Y-60197714D01*
X46340342Y-60226742D01*
X46282285Y-60255771D01*
X46224228Y-60255771D01*
X46166171Y-60226742D01*
X46137142Y-60197714D01*
X46108114Y-60139657D01*
X46079085Y-60023542D01*
X46079085Y-59878400D01*
X46108114Y-59762285D01*
X46137142Y-59704228D01*
X46166171Y-59675200D01*
X46224228Y-59646171D01*
X46688685Y-59849371D02*
X46688685Y-60458971D01*
X46688685Y-59878400D02*
X46746742Y-59849371D01*
X46862857Y-59849371D01*
X46920914Y-59878400D01*
X46949942Y-59907428D01*
X46978971Y-59965485D01*
X46978971Y-60139657D01*
X46949942Y-60197714D01*
X46920914Y-60226742D01*
X46862857Y-60255771D01*
X46746742Y-60255771D01*
X46688685Y-60226742D01*
X47443428Y-59936457D02*
X47240228Y-59936457D01*
X47240228Y-60255771D02*
X47240228Y-59646171D01*
X47530514Y-59646171D01*
X53487714Y-60391885D02*
X53516742Y-60420914D01*
X53545771Y-60508000D01*
X53545771Y-60566057D01*
X53516742Y-60653142D01*
X53458685Y-60711200D01*
X53400628Y-60740228D01*
X53284514Y-60769257D01*
X53197428Y-60769257D01*
X53081314Y-60740228D01*
X53023257Y-60711200D01*
X52965200Y-60653142D01*
X52936171Y-60566057D01*
X52936171Y-60508000D01*
X52965200Y-60420914D01*
X52994228Y-60391885D01*
X53545771Y-59811314D02*
X53545771Y-60159657D01*
X53545771Y-59985485D02*
X52936171Y-59985485D01*
X53023257Y-60043542D01*
X53081314Y-60101600D01*
X53110342Y-60159657D01*
X53545771Y-59230742D02*
X53545771Y-59579085D01*
X53545771Y-59404914D02*
X52936171Y-59404914D01*
X53023257Y-59462971D01*
X53081314Y-59521028D01*
X53110342Y-59579085D01*
X51005771Y-60943428D02*
X51005771Y-61291771D01*
X51005771Y-61117600D02*
X50396171Y-61117600D01*
X50483257Y-61175657D01*
X50541314Y-61233714D01*
X50570342Y-61291771D01*
X50396171Y-60566057D02*
X50396171Y-60508000D01*
X50425200Y-60449942D01*
X50454228Y-60420914D01*
X50512285Y-60391885D01*
X50628400Y-60362857D01*
X50773542Y-60362857D01*
X50889657Y-60391885D01*
X50947714Y-60420914D01*
X50976742Y-60449942D01*
X51005771Y-60508000D01*
X51005771Y-60566057D01*
X50976742Y-60624114D01*
X50947714Y-60653142D01*
X50889657Y-60682171D01*
X50773542Y-60711200D01*
X50628400Y-60711200D01*
X50512285Y-60682171D01*
X50454228Y-60653142D01*
X50425200Y-60624114D01*
X50396171Y-60566057D01*
X50396171Y-59985485D02*
X50396171Y-59927428D01*
X50425200Y-59869371D01*
X50454228Y-59840342D01*
X50512285Y-59811314D01*
X50628400Y-59782285D01*
X50773542Y-59782285D01*
X50889657Y-59811314D01*
X50947714Y-59840342D01*
X50976742Y-59869371D01*
X51005771Y-59927428D01*
X51005771Y-59985485D01*
X50976742Y-60043542D01*
X50947714Y-60072571D01*
X50889657Y-60101600D01*
X50773542Y-60130628D01*
X50628400Y-60130628D01*
X50512285Y-60101600D01*
X50454228Y-60072571D01*
X50425200Y-60043542D01*
X50396171Y-59985485D01*
X50599371Y-59521028D02*
X51208971Y-59521028D01*
X50628400Y-59521028D02*
X50599371Y-59462971D01*
X50599371Y-59346857D01*
X50628400Y-59288800D01*
X50657428Y-59259771D01*
X50715485Y-59230742D01*
X50889657Y-59230742D01*
X50947714Y-59259771D01*
X50976742Y-59288800D01*
X51005771Y-59346857D01*
X51005771Y-59462971D01*
X50976742Y-59521028D01*
X50686457Y-58766285D02*
X50686457Y-58969485D01*
X51005771Y-58969485D02*
X50396171Y-58969485D01*
X50396171Y-58679200D01*
X53987714Y-65391885D02*
X54016742Y-65420914D01*
X54045771Y-65508000D01*
X54045771Y-65566057D01*
X54016742Y-65653142D01*
X53958685Y-65711200D01*
X53900628Y-65740228D01*
X53784514Y-65769257D01*
X53697428Y-65769257D01*
X53581314Y-65740228D01*
X53523257Y-65711200D01*
X53465200Y-65653142D01*
X53436171Y-65566057D01*
X53436171Y-65508000D01*
X53465200Y-65420914D01*
X53494228Y-65391885D01*
X54045771Y-64811314D02*
X54045771Y-65159657D01*
X54045771Y-64985485D02*
X53436171Y-64985485D01*
X53523257Y-65043542D01*
X53581314Y-65101600D01*
X53610342Y-65159657D01*
X53639371Y-64288800D02*
X54045771Y-64288800D01*
X53407142Y-64433942D02*
X53842571Y-64579085D01*
X53842571Y-64201714D01*
X51505771Y-65653142D02*
X51505771Y-66001485D01*
X51505771Y-65827314D02*
X50896171Y-65827314D01*
X50983257Y-65885371D01*
X51041314Y-65943428D01*
X51070342Y-66001485D01*
X50896171Y-65275771D02*
X50896171Y-65217714D01*
X50925200Y-65159657D01*
X50954228Y-65130628D01*
X51012285Y-65101600D01*
X51128400Y-65072571D01*
X51273542Y-65072571D01*
X51389657Y-65101600D01*
X51447714Y-65130628D01*
X51476742Y-65159657D01*
X51505771Y-65217714D01*
X51505771Y-65275771D01*
X51476742Y-65333828D01*
X51447714Y-65362857D01*
X51389657Y-65391885D01*
X51273542Y-65420914D01*
X51128400Y-65420914D01*
X51012285Y-65391885D01*
X50954228Y-65362857D01*
X50925200Y-65333828D01*
X50896171Y-65275771D01*
X51099371Y-64811314D02*
X51505771Y-64811314D01*
X51157428Y-64811314D02*
X51128400Y-64782285D01*
X51099371Y-64724228D01*
X51099371Y-64637142D01*
X51128400Y-64579085D01*
X51186457Y-64550057D01*
X51505771Y-64550057D01*
X51186457Y-64056571D02*
X51186457Y-64259771D01*
X51505771Y-64259771D02*
X50896171Y-64259771D01*
X50896171Y-63969485D01*
X19447714Y-88490245D02*
X19476742Y-88519274D01*
X19505771Y-88606360D01*
X19505771Y-88664417D01*
X19476742Y-88751502D01*
X19418685Y-88809560D01*
X19360628Y-88838588D01*
X19244514Y-88867617D01*
X19157428Y-88867617D01*
X19041314Y-88838588D01*
X18983257Y-88809560D01*
X18925200Y-88751502D01*
X18896171Y-88664417D01*
X18896171Y-88606360D01*
X18925200Y-88519274D01*
X18954228Y-88490245D01*
X19505771Y-87909674D02*
X19505771Y-88258017D01*
X19505771Y-88083845D02*
X18896171Y-88083845D01*
X18983257Y-88141902D01*
X19041314Y-88199960D01*
X19070342Y-88258017D01*
X18896171Y-87358131D02*
X18896171Y-87648417D01*
X19186457Y-87677445D01*
X19157428Y-87648417D01*
X19128400Y-87590360D01*
X19128400Y-87445217D01*
X19157428Y-87387160D01*
X19186457Y-87358131D01*
X19244514Y-87329102D01*
X19389657Y-87329102D01*
X19447714Y-87358131D01*
X19476742Y-87387160D01*
X19505771Y-87445217D01*
X19505771Y-87590360D01*
X19476742Y-87648417D01*
X19447714Y-87677445D01*
X21436171Y-89274017D02*
X21436171Y-88896645D01*
X21668400Y-89099845D01*
X21668400Y-89012760D01*
X21697428Y-88954702D01*
X21726457Y-88925674D01*
X21784514Y-88896645D01*
X21929657Y-88896645D01*
X21987714Y-88925674D01*
X22016742Y-88954702D01*
X22045771Y-89012760D01*
X22045771Y-89186931D01*
X22016742Y-89244988D01*
X21987714Y-89274017D01*
X21987714Y-88635388D02*
X22016742Y-88606360D01*
X22045771Y-88635388D01*
X22016742Y-88664417D01*
X21987714Y-88635388D01*
X22045771Y-88635388D01*
X21436171Y-88403160D02*
X21436171Y-88025788D01*
X21668400Y-88228988D01*
X21668400Y-88141902D01*
X21697428Y-88083845D01*
X21726457Y-88054817D01*
X21784514Y-88025788D01*
X21929657Y-88025788D01*
X21987714Y-88054817D01*
X22016742Y-88083845D01*
X22045771Y-88141902D01*
X22045771Y-88316074D01*
X22016742Y-88374131D01*
X21987714Y-88403160D01*
X21639371Y-87764531D02*
X22045771Y-87764531D01*
X21697428Y-87764531D02*
X21668400Y-87735502D01*
X21639371Y-87677445D01*
X21639371Y-87590360D01*
X21668400Y-87532302D01*
X21726457Y-87503274D01*
X22045771Y-87503274D01*
X21726457Y-87009788D02*
X21726457Y-87212988D01*
X22045771Y-87212988D02*
X21436171Y-87212988D01*
X21436171Y-86922702D01*
X53987714Y-74891885D02*
X54016742Y-74920914D01*
X54045771Y-75008000D01*
X54045771Y-75066057D01*
X54016742Y-75153142D01*
X53958685Y-75211200D01*
X53900628Y-75240228D01*
X53784514Y-75269257D01*
X53697428Y-75269257D01*
X53581314Y-75240228D01*
X53523257Y-75211200D01*
X53465200Y-75153142D01*
X53436171Y-75066057D01*
X53436171Y-75008000D01*
X53465200Y-74920914D01*
X53494228Y-74891885D01*
X54045771Y-74311314D02*
X54045771Y-74659657D01*
X54045771Y-74485485D02*
X53436171Y-74485485D01*
X53523257Y-74543542D01*
X53581314Y-74601600D01*
X53610342Y-74659657D01*
X53436171Y-73788800D02*
X53436171Y-73904914D01*
X53465200Y-73962971D01*
X53494228Y-73992000D01*
X53581314Y-74050057D01*
X53697428Y-74079085D01*
X53929657Y-74079085D01*
X53987714Y-74050057D01*
X54016742Y-74021028D01*
X54045771Y-73962971D01*
X54045771Y-73846857D01*
X54016742Y-73788800D01*
X53987714Y-73759771D01*
X53929657Y-73730742D01*
X53784514Y-73730742D01*
X53726457Y-73759771D01*
X53697428Y-73788800D01*
X53668400Y-73846857D01*
X53668400Y-73962971D01*
X53697428Y-74021028D01*
X53726457Y-74050057D01*
X53784514Y-74079085D01*
X51505771Y-75153142D02*
X51505771Y-75501485D01*
X51505771Y-75327314D02*
X50896171Y-75327314D01*
X50983257Y-75385371D01*
X51041314Y-75443428D01*
X51070342Y-75501485D01*
X50896171Y-74775771D02*
X50896171Y-74717714D01*
X50925200Y-74659657D01*
X50954228Y-74630628D01*
X51012285Y-74601600D01*
X51128400Y-74572571D01*
X51273542Y-74572571D01*
X51389657Y-74601600D01*
X51447714Y-74630628D01*
X51476742Y-74659657D01*
X51505771Y-74717714D01*
X51505771Y-74775771D01*
X51476742Y-74833828D01*
X51447714Y-74862857D01*
X51389657Y-74891885D01*
X51273542Y-74920914D01*
X51128400Y-74920914D01*
X51012285Y-74891885D01*
X50954228Y-74862857D01*
X50925200Y-74833828D01*
X50896171Y-74775771D01*
X51099371Y-74311314D02*
X51505771Y-74311314D01*
X51157428Y-74311314D02*
X51128400Y-74282285D01*
X51099371Y-74224228D01*
X51099371Y-74137142D01*
X51128400Y-74079085D01*
X51186457Y-74050057D01*
X51505771Y-74050057D01*
X51186457Y-73556571D02*
X51186457Y-73759771D01*
X51505771Y-73759771D02*
X50896171Y-73759771D01*
X50896171Y-73469485D01*
X49608114Y-93487714D02*
X49579085Y-93516742D01*
X49492000Y-93545771D01*
X49433942Y-93545771D01*
X49346857Y-93516742D01*
X49288800Y-93458685D01*
X49259771Y-93400628D01*
X49230742Y-93284514D01*
X49230742Y-93197428D01*
X49259771Y-93081314D01*
X49288800Y-93023257D01*
X49346857Y-92965200D01*
X49433942Y-92936171D01*
X49492000Y-92936171D01*
X49579085Y-92965200D01*
X49608114Y-92994228D01*
X50188685Y-93545771D02*
X49840342Y-93545771D01*
X50014514Y-93545771D02*
X50014514Y-92936171D01*
X49956457Y-93023257D01*
X49898400Y-93081314D01*
X49840342Y-93110342D01*
X50391885Y-92936171D02*
X50798285Y-92936171D01*
X50537028Y-93545771D01*
X48998514Y-90454228D02*
X49027542Y-90425200D01*
X49085600Y-90396171D01*
X49230742Y-90396171D01*
X49288800Y-90425200D01*
X49317828Y-90454228D01*
X49346857Y-90512285D01*
X49346857Y-90570342D01*
X49317828Y-90657428D01*
X48969485Y-91005771D01*
X49346857Y-91005771D01*
X49579085Y-90454228D02*
X49608114Y-90425200D01*
X49666171Y-90396171D01*
X49811314Y-90396171D01*
X49869371Y-90425200D01*
X49898400Y-90454228D01*
X49927428Y-90512285D01*
X49927428Y-90570342D01*
X49898400Y-90657428D01*
X49550057Y-91005771D01*
X49927428Y-91005771D01*
X50188685Y-90599371D02*
X50188685Y-91005771D01*
X50188685Y-90657428D02*
X50217714Y-90628400D01*
X50275771Y-90599371D01*
X50362857Y-90599371D01*
X50420914Y-90628400D01*
X50449942Y-90686457D01*
X50449942Y-91005771D01*
X50943428Y-90686457D02*
X50740228Y-90686457D01*
X50740228Y-91005771D02*
X50740228Y-90396171D01*
X51030514Y-90396171D01*
X53987714Y-53891885D02*
X54016742Y-53920914D01*
X54045771Y-54008000D01*
X54045771Y-54066057D01*
X54016742Y-54153142D01*
X53958685Y-54211200D01*
X53900628Y-54240228D01*
X53784514Y-54269257D01*
X53697428Y-54269257D01*
X53581314Y-54240228D01*
X53523257Y-54211200D01*
X53465200Y-54153142D01*
X53436171Y-54066057D01*
X53436171Y-54008000D01*
X53465200Y-53920914D01*
X53494228Y-53891885D01*
X54045771Y-53311314D02*
X54045771Y-53659657D01*
X54045771Y-53485485D02*
X53436171Y-53485485D01*
X53523257Y-53543542D01*
X53581314Y-53601600D01*
X53610342Y-53659657D01*
X53697428Y-52962971D02*
X53668400Y-53021028D01*
X53639371Y-53050057D01*
X53581314Y-53079085D01*
X53552285Y-53079085D01*
X53494228Y-53050057D01*
X53465200Y-53021028D01*
X53436171Y-52962971D01*
X53436171Y-52846857D01*
X53465200Y-52788800D01*
X53494228Y-52759771D01*
X53552285Y-52730742D01*
X53581314Y-52730742D01*
X53639371Y-52759771D01*
X53668400Y-52788800D01*
X53697428Y-52846857D01*
X53697428Y-52962971D01*
X53726457Y-53021028D01*
X53755485Y-53050057D01*
X53813542Y-53079085D01*
X53929657Y-53079085D01*
X53987714Y-53050057D01*
X54016742Y-53021028D01*
X54045771Y-52962971D01*
X54045771Y-52846857D01*
X54016742Y-52788800D01*
X53987714Y-52759771D01*
X53929657Y-52730742D01*
X53813542Y-52730742D01*
X53755485Y-52759771D01*
X53726457Y-52788800D01*
X53697428Y-52846857D01*
X51505771Y-54153142D02*
X51505771Y-54501485D01*
X51505771Y-54327314D02*
X50896171Y-54327314D01*
X50983257Y-54385371D01*
X51041314Y-54443428D01*
X51070342Y-54501485D01*
X50896171Y-53775771D02*
X50896171Y-53717714D01*
X50925200Y-53659657D01*
X50954228Y-53630628D01*
X51012285Y-53601600D01*
X51128400Y-53572571D01*
X51273542Y-53572571D01*
X51389657Y-53601600D01*
X51447714Y-53630628D01*
X51476742Y-53659657D01*
X51505771Y-53717714D01*
X51505771Y-53775771D01*
X51476742Y-53833828D01*
X51447714Y-53862857D01*
X51389657Y-53891885D01*
X51273542Y-53920914D01*
X51128400Y-53920914D01*
X51012285Y-53891885D01*
X50954228Y-53862857D01*
X50925200Y-53833828D01*
X50896171Y-53775771D01*
X51099371Y-53311314D02*
X51505771Y-53311314D01*
X51157428Y-53311314D02*
X51128400Y-53282285D01*
X51099371Y-53224228D01*
X51099371Y-53137142D01*
X51128400Y-53079085D01*
X51186457Y-53050057D01*
X51505771Y-53050057D01*
X51186457Y-52556571D02*
X51186457Y-52759771D01*
X51505771Y-52759771D02*
X50896171Y-52759771D01*
X50896171Y-52469485D01*
X52447714Y-49240245D02*
X52476742Y-49269274D01*
X52505771Y-49356360D01*
X52505771Y-49414417D01*
X52476742Y-49501502D01*
X52418685Y-49559560D01*
X52360628Y-49588588D01*
X52244514Y-49617617D01*
X52157428Y-49617617D01*
X52041314Y-49588588D01*
X51983257Y-49559560D01*
X51925200Y-49501502D01*
X51896171Y-49414417D01*
X51896171Y-49356360D01*
X51925200Y-49269274D01*
X51954228Y-49240245D01*
X52505771Y-48659674D02*
X52505771Y-49008017D01*
X52505771Y-48833845D02*
X51896171Y-48833845D01*
X51983257Y-48891902D01*
X52041314Y-48949960D01*
X52070342Y-49008017D01*
X52505771Y-48369388D02*
X52505771Y-48253274D01*
X52476742Y-48195217D01*
X52447714Y-48166188D01*
X52360628Y-48108131D01*
X52244514Y-48079102D01*
X52012285Y-48079102D01*
X51954228Y-48108131D01*
X51925200Y-48137160D01*
X51896171Y-48195217D01*
X51896171Y-48311331D01*
X51925200Y-48369388D01*
X51954228Y-48398417D01*
X52012285Y-48427445D01*
X52157428Y-48427445D01*
X52215485Y-48398417D01*
X52244514Y-48369388D01*
X52273542Y-48311331D01*
X52273542Y-48195217D01*
X52244514Y-48137160D01*
X52215485Y-48108131D01*
X52157428Y-48079102D01*
X54436171Y-50024017D02*
X54436171Y-49646645D01*
X54668400Y-49849845D01*
X54668400Y-49762760D01*
X54697428Y-49704702D01*
X54726457Y-49675674D01*
X54784514Y-49646645D01*
X54929657Y-49646645D01*
X54987714Y-49675674D01*
X55016742Y-49704702D01*
X55045771Y-49762760D01*
X55045771Y-49936931D01*
X55016742Y-49994988D01*
X54987714Y-50024017D01*
X54987714Y-49385388D02*
X55016742Y-49356360D01*
X55045771Y-49385388D01*
X55016742Y-49414417D01*
X54987714Y-49385388D01*
X55045771Y-49385388D01*
X54436171Y-49153160D02*
X54436171Y-48775788D01*
X54668400Y-48978988D01*
X54668400Y-48891902D01*
X54697428Y-48833845D01*
X54726457Y-48804817D01*
X54784514Y-48775788D01*
X54929657Y-48775788D01*
X54987714Y-48804817D01*
X55016742Y-48833845D01*
X55045771Y-48891902D01*
X55045771Y-49066074D01*
X55016742Y-49124131D01*
X54987714Y-49153160D01*
X54639371Y-48514531D02*
X55045771Y-48514531D01*
X54697428Y-48514531D02*
X54668400Y-48485502D01*
X54639371Y-48427445D01*
X54639371Y-48340360D01*
X54668400Y-48282302D01*
X54726457Y-48253274D01*
X55045771Y-48253274D01*
X54726457Y-47759788D02*
X54726457Y-47962988D01*
X55045771Y-47962988D02*
X54436171Y-47962988D01*
X54436171Y-47672702D01*
X27108114Y-71467714D02*
X27079085Y-71496742D01*
X26992000Y-71525771D01*
X26933942Y-71525771D01*
X26846857Y-71496742D01*
X26788800Y-71438685D01*
X26759771Y-71380628D01*
X26730742Y-71264514D01*
X26730742Y-71177428D01*
X26759771Y-71061314D01*
X26788800Y-71003257D01*
X26846857Y-70945200D01*
X26933942Y-70916171D01*
X26992000Y-70916171D01*
X27079085Y-70945200D01*
X27108114Y-70974228D01*
X27340342Y-70974228D02*
X27369371Y-70945200D01*
X27427428Y-70916171D01*
X27572571Y-70916171D01*
X27630628Y-70945200D01*
X27659657Y-70974228D01*
X27688685Y-71032285D01*
X27688685Y-71090342D01*
X27659657Y-71177428D01*
X27311314Y-71525771D01*
X27688685Y-71525771D01*
X27920914Y-70974228D02*
X27949942Y-70945200D01*
X28008000Y-70916171D01*
X28153142Y-70916171D01*
X28211200Y-70945200D01*
X28240228Y-70974228D01*
X28269257Y-71032285D01*
X28269257Y-71090342D01*
X28240228Y-71177428D01*
X27891885Y-71525771D01*
X28269257Y-71525771D01*
X26788800Y-73893371D02*
X26788800Y-74299771D01*
X26643657Y-73661142D02*
X26498514Y-74096571D01*
X26875885Y-74096571D01*
X27050057Y-73690171D02*
X27456457Y-73690171D01*
X27195200Y-74299771D01*
X27688685Y-73893371D02*
X27688685Y-74299771D01*
X27688685Y-73951428D02*
X27717714Y-73922400D01*
X27775771Y-73893371D01*
X27862857Y-73893371D01*
X27920914Y-73922400D01*
X27949942Y-73980457D01*
X27949942Y-74299771D01*
X28443428Y-73980457D02*
X28240228Y-73980457D01*
X28240228Y-74299771D02*
X28240228Y-73690171D01*
X28530514Y-73690171D01*
X40108114Y-68447714D02*
X40079085Y-68476742D01*
X39992000Y-68505771D01*
X39933942Y-68505771D01*
X39846857Y-68476742D01*
X39788800Y-68418685D01*
X39759771Y-68360628D01*
X39730742Y-68244514D01*
X39730742Y-68157428D01*
X39759771Y-68041314D01*
X39788800Y-67983257D01*
X39846857Y-67925200D01*
X39933942Y-67896171D01*
X39992000Y-67896171D01*
X40079085Y-67925200D01*
X40108114Y-67954228D01*
X40340342Y-67954228D02*
X40369371Y-67925200D01*
X40427428Y-67896171D01*
X40572571Y-67896171D01*
X40630628Y-67925200D01*
X40659657Y-67954228D01*
X40688685Y-68012285D01*
X40688685Y-68070342D01*
X40659657Y-68157428D01*
X40311314Y-68505771D01*
X40688685Y-68505771D01*
X40891885Y-67896171D02*
X41269257Y-67896171D01*
X41066057Y-68128400D01*
X41153142Y-68128400D01*
X41211200Y-68157428D01*
X41240228Y-68186457D01*
X41269257Y-68244514D01*
X41269257Y-68389657D01*
X41240228Y-68447714D01*
X41211200Y-68476742D01*
X41153142Y-68505771D01*
X40978971Y-68505771D01*
X40920914Y-68476742D01*
X40891885Y-68447714D01*
X39527542Y-70436171D02*
X39237257Y-70436171D01*
X39208228Y-70726457D01*
X39237257Y-70697428D01*
X39295314Y-70668400D01*
X39440457Y-70668400D01*
X39498514Y-70697428D01*
X39527542Y-70726457D01*
X39556571Y-70784514D01*
X39556571Y-70929657D01*
X39527542Y-70987714D01*
X39498514Y-71016742D01*
X39440457Y-71045771D01*
X39295314Y-71045771D01*
X39237257Y-71016742D01*
X39208228Y-70987714D01*
X40079085Y-70436171D02*
X39962971Y-70436171D01*
X39904914Y-70465200D01*
X39875885Y-70494228D01*
X39817828Y-70581314D01*
X39788800Y-70697428D01*
X39788800Y-70929657D01*
X39817828Y-70987714D01*
X39846857Y-71016742D01*
X39904914Y-71045771D01*
X40021028Y-71045771D01*
X40079085Y-71016742D01*
X40108114Y-70987714D01*
X40137142Y-70929657D01*
X40137142Y-70784514D01*
X40108114Y-70726457D01*
X40079085Y-70697428D01*
X40021028Y-70668400D01*
X39904914Y-70668400D01*
X39846857Y-70697428D01*
X39817828Y-70726457D01*
X39788800Y-70784514D01*
X40514514Y-70436171D02*
X40572571Y-70436171D01*
X40630628Y-70465200D01*
X40659657Y-70494228D01*
X40688685Y-70552285D01*
X40717714Y-70668400D01*
X40717714Y-70813542D01*
X40688685Y-70929657D01*
X40659657Y-70987714D01*
X40630628Y-71016742D01*
X40572571Y-71045771D01*
X40514514Y-71045771D01*
X40456457Y-71016742D01*
X40427428Y-70987714D01*
X40398400Y-70929657D01*
X40369371Y-70813542D01*
X40369371Y-70668400D01*
X40398400Y-70552285D01*
X40427428Y-70494228D01*
X40456457Y-70465200D01*
X40514514Y-70436171D01*
X40978971Y-70639371D02*
X40978971Y-71248971D01*
X40978971Y-70668400D02*
X41037028Y-70639371D01*
X41153142Y-70639371D01*
X41211200Y-70668400D01*
X41240228Y-70697428D01*
X41269257Y-70755485D01*
X41269257Y-70929657D01*
X41240228Y-70987714D01*
X41211200Y-71016742D01*
X41153142Y-71045771D01*
X41037028Y-71045771D01*
X40978971Y-71016742D01*
X41733714Y-70726457D02*
X41530514Y-70726457D01*
X41530514Y-71045771D02*
X41530514Y-70436171D01*
X41820800Y-70436171D01*
D10*
X70952380Y-75388095D02*
X69952380Y-75388095D01*
X69952380Y-75150000D01*
X70000000Y-75007142D01*
X70095238Y-74911904D01*
X70190476Y-74864285D01*
X70380952Y-74816666D01*
X70523809Y-74816666D01*
X70714285Y-74864285D01*
X70809523Y-74911904D01*
X70904761Y-75007142D01*
X70952380Y-75150000D01*
X70952380Y-75388095D01*
X70952380Y-73864285D02*
X70952380Y-74435714D01*
X70952380Y-74150000D02*
X69952380Y-74150000D01*
X70095238Y-74245238D01*
X70190476Y-74340476D01*
X70238095Y-74435714D01*
X65952380Y-61238095D02*
X64952380Y-61238095D01*
X64952380Y-61000000D01*
X65000000Y-60857142D01*
X65095238Y-60761904D01*
X65190476Y-60714285D01*
X65380952Y-60666666D01*
X65523809Y-60666666D01*
X65714285Y-60714285D01*
X65809523Y-60761904D01*
X65904761Y-60857142D01*
X65952380Y-61000000D01*
X65952380Y-61238095D01*
X64952380Y-60333333D02*
X64952380Y-59714285D01*
X65333333Y-60047619D01*
X65333333Y-59904761D01*
X65380952Y-59809523D01*
X65428571Y-59761904D01*
X65523809Y-59714285D01*
X65761904Y-59714285D01*
X65857142Y-59761904D01*
X65904761Y-59809523D01*
X65952380Y-59904761D01*
X65952380Y-60190476D01*
X65904761Y-60285714D01*
X65857142Y-60333333D01*
X64952380Y-88738095D02*
X63952380Y-88738095D01*
X63952380Y-88500000D01*
X64000000Y-88357142D01*
X64095238Y-88261904D01*
X64190476Y-88214285D01*
X64380952Y-88166666D01*
X64523809Y-88166666D01*
X64714285Y-88214285D01*
X64809523Y-88261904D01*
X64904761Y-88357142D01*
X64952380Y-88500000D01*
X64952380Y-88738095D01*
X64285714Y-87309523D02*
X64952380Y-87309523D01*
X63904761Y-87547619D02*
X64619047Y-87785714D01*
X64619047Y-87166666D01*
X37952380Y-88238095D02*
X36952380Y-88238095D01*
X36952380Y-88000000D01*
X37000000Y-87857142D01*
X37095238Y-87761904D01*
X37190476Y-87714285D01*
X37380952Y-87666666D01*
X37523809Y-87666666D01*
X37714285Y-87714285D01*
X37809523Y-87761904D01*
X37904761Y-87857142D01*
X37952380Y-88000000D01*
X37952380Y-88238095D01*
X36952380Y-86761904D02*
X36952380Y-87238095D01*
X37428571Y-87285714D01*
X37380952Y-87238095D01*
X37333333Y-87142857D01*
X37333333Y-86904761D01*
X37380952Y-86809523D01*
X37428571Y-86761904D01*
X37523809Y-86714285D01*
X37761904Y-86714285D01*
X37857142Y-86761904D01*
X37904761Y-86809523D01*
X37952380Y-86904761D01*
X37952380Y-87142857D01*
X37904761Y-87238095D01*
X37857142Y-87285714D01*
X42452380Y-90738095D02*
X41452380Y-90738095D01*
X41452380Y-90500000D01*
X41500000Y-90357142D01*
X41595238Y-90261904D01*
X41690476Y-90214285D01*
X41880952Y-90166666D01*
X42023809Y-90166666D01*
X42214285Y-90214285D01*
X42309523Y-90261904D01*
X42404761Y-90357142D01*
X42452380Y-90500000D01*
X42452380Y-90738095D01*
X41452380Y-89309523D02*
X41452380Y-89500000D01*
X41500000Y-89595238D01*
X41547619Y-89642857D01*
X41690476Y-89738095D01*
X41880952Y-89785714D01*
X42261904Y-89785714D01*
X42357142Y-89738095D01*
X42404761Y-89690476D01*
X42452380Y-89595238D01*
X42452380Y-89404761D01*
X42404761Y-89309523D01*
X42357142Y-89261904D01*
X42261904Y-89214285D01*
X42023809Y-89214285D01*
X41928571Y-89261904D01*
X41880952Y-89309523D01*
X41833333Y-89404761D01*
X41833333Y-89595238D01*
X41880952Y-89690476D01*
X41928571Y-89738095D01*
X42023809Y-89785714D01*
D11*
X61579678Y-40556750D02*
X61464773Y-40499297D01*
X61292416Y-40499297D01*
X61120059Y-40556750D01*
X61005154Y-40671654D01*
X60947702Y-40786559D01*
X60890250Y-41016369D01*
X60890250Y-41188726D01*
X60947702Y-41418535D01*
X61005154Y-41533440D01*
X61120059Y-41648345D01*
X61292416Y-41705797D01*
X61407321Y-41705797D01*
X61579678Y-41648345D01*
X61637130Y-41590892D01*
X61637130Y-41188726D01*
X61407321Y-41188726D01*
X62096750Y-41361083D02*
X62671273Y-41361083D01*
X61981845Y-41705797D02*
X62384011Y-40499297D01*
X62786178Y-41705797D01*
X63188345Y-41705797D02*
X63188345Y-40499297D01*
X63762869Y-41705797D02*
X63762869Y-40499297D01*
X64452297Y-41705797D01*
X64452297Y-40499297D01*
D12*
X56213904Y-41876038D02*
X55662361Y-41876038D01*
X55938132Y-41876038D02*
X55938132Y-40910838D01*
X55846209Y-41048723D01*
X55754285Y-41140647D01*
X55662361Y-41186609D01*
D10*
X65833333Y-101272380D02*
X65500000Y-100796190D01*
X65261904Y-101272380D02*
X65261904Y-100272380D01*
X65642857Y-100272380D01*
X65738095Y-100320000D01*
X65785714Y-100367619D01*
X65833333Y-100462857D01*
X65833333Y-100605714D01*
X65785714Y-100700952D01*
X65738095Y-100748571D01*
X65642857Y-100796190D01*
X65261904Y-100796190D01*
X66785714Y-101272380D02*
X66214285Y-101272380D01*
X66500000Y-101272380D02*
X66500000Y-100272380D01*
X66404761Y-100415238D01*
X66309523Y-100510476D01*
X66214285Y-100558095D01*
X51333333Y-89272380D02*
X51000000Y-88796190D01*
X50761904Y-89272380D02*
X50761904Y-88272380D01*
X51142857Y-88272380D01*
X51238095Y-88320000D01*
X51285714Y-88367619D01*
X51333333Y-88462857D01*
X51333333Y-88605714D01*
X51285714Y-88700952D01*
X51238095Y-88748571D01*
X51142857Y-88796190D01*
X50761904Y-88796190D01*
X51714285Y-88367619D02*
X51761904Y-88320000D01*
X51857142Y-88272380D01*
X52095238Y-88272380D01*
X52190476Y-88320000D01*
X52238095Y-88367619D01*
X52285714Y-88462857D01*
X52285714Y-88558095D01*
X52238095Y-88700952D01*
X51666666Y-89272380D01*
X52285714Y-89272380D01*
X31833333Y-92272380D02*
X31500000Y-91796190D01*
X31261904Y-92272380D02*
X31261904Y-91272380D01*
X31642857Y-91272380D01*
X31738095Y-91320000D01*
X31785714Y-91367619D01*
X31833333Y-91462857D01*
X31833333Y-91605714D01*
X31785714Y-91700952D01*
X31738095Y-91748571D01*
X31642857Y-91796190D01*
X31261904Y-91796190D01*
X32738095Y-91272380D02*
X32261904Y-91272380D01*
X32214285Y-91748571D01*
X32261904Y-91700952D01*
X32357142Y-91653333D01*
X32595238Y-91653333D01*
X32690476Y-91700952D01*
X32738095Y-91748571D01*
X32785714Y-91843809D01*
X32785714Y-92081904D01*
X32738095Y-92177142D01*
X32690476Y-92224761D01*
X32595238Y-92272380D01*
X32357142Y-92272380D01*
X32261904Y-92224761D01*
X32214285Y-92177142D01*
X44172380Y-86666666D02*
X43696190Y-87000000D01*
X44172380Y-87238095D02*
X43172380Y-87238095D01*
X43172380Y-86857142D01*
X43220000Y-86761904D01*
X43267619Y-86714285D01*
X43362857Y-86666666D01*
X43505714Y-86666666D01*
X43600952Y-86714285D01*
X43648571Y-86761904D01*
X43696190Y-86857142D01*
X43696190Y-87238095D01*
X43172380Y-86333333D02*
X43172380Y-85666666D01*
X44172380Y-86095238D01*
X33833333Y-71952380D02*
X33500000Y-71476190D01*
X33261904Y-71952380D02*
X33261904Y-70952380D01*
X33642857Y-70952380D01*
X33738095Y-71000000D01*
X33785714Y-71047619D01*
X33833333Y-71142857D01*
X33833333Y-71285714D01*
X33785714Y-71380952D01*
X33738095Y-71428571D01*
X33642857Y-71476190D01*
X33261904Y-71476190D01*
X34404761Y-71380952D02*
X34309523Y-71333333D01*
X34261904Y-71285714D01*
X34214285Y-71190476D01*
X34214285Y-71142857D01*
X34261904Y-71047619D01*
X34309523Y-71000000D01*
X34404761Y-70952380D01*
X34595238Y-70952380D01*
X34690476Y-71000000D01*
X34738095Y-71047619D01*
X34785714Y-71142857D01*
X34785714Y-71190476D01*
X34738095Y-71285714D01*
X34690476Y-71333333D01*
X34595238Y-71380952D01*
X34404761Y-71380952D01*
X34309523Y-71428571D01*
X34261904Y-71476190D01*
X34214285Y-71571428D01*
X34214285Y-71761904D01*
X34261904Y-71857142D01*
X34309523Y-71904761D01*
X34404761Y-71952380D01*
X34595238Y-71952380D01*
X34690476Y-71904761D01*
X34738095Y-71857142D01*
X34785714Y-71761904D01*
X34785714Y-71571428D01*
X34738095Y-71476190D01*
X34690476Y-71428571D01*
X34595238Y-71380952D01*
X29333333Y-83772380D02*
X29000000Y-83296190D01*
X28761904Y-83772380D02*
X28761904Y-82772380D01*
X29142857Y-82772380D01*
X29238095Y-82820000D01*
X29285714Y-82867619D01*
X29333333Y-82962857D01*
X29333333Y-83105714D01*
X29285714Y-83200952D01*
X29238095Y-83248571D01*
X29142857Y-83296190D01*
X28761904Y-83296190D01*
X29809523Y-83772380D02*
X30000000Y-83772380D01*
X30095238Y-83724761D01*
X30142857Y-83677142D01*
X30238095Y-83534285D01*
X30285714Y-83343809D01*
X30285714Y-82962857D01*
X30238095Y-82867619D01*
X30190476Y-82820000D01*
X30095238Y-82772380D01*
X29904761Y-82772380D01*
X29809523Y-82820000D01*
X29761904Y-82867619D01*
X29714285Y-82962857D01*
X29714285Y-83200952D01*
X29761904Y-83296190D01*
X29809523Y-83343809D01*
X29904761Y-83391428D01*
X30095238Y-83391428D01*
X30190476Y-83343809D01*
X30238095Y-83296190D01*
X30285714Y-83200952D01*
X49357142Y-84772380D02*
X49023809Y-84296190D01*
X48785714Y-84772380D02*
X48785714Y-83772380D01*
X49166666Y-83772380D01*
X49261904Y-83820000D01*
X49309523Y-83867619D01*
X49357142Y-83962857D01*
X49357142Y-84105714D01*
X49309523Y-84200952D01*
X49261904Y-84248571D01*
X49166666Y-84296190D01*
X48785714Y-84296190D01*
X50309523Y-84772380D02*
X49738095Y-84772380D01*
X50023809Y-84772380D02*
X50023809Y-83772380D01*
X49928571Y-83915238D01*
X49833333Y-84010476D01*
X49738095Y-84058095D01*
X50690476Y-83867619D02*
X50738095Y-83820000D01*
X50833333Y-83772380D01*
X51071428Y-83772380D01*
X51166666Y-83820000D01*
X51214285Y-83867619D01*
X51261904Y-83962857D01*
X51261904Y-84058095D01*
X51214285Y-84200952D01*
X50642857Y-84772380D01*
X51261904Y-84772380D01*
X41357142Y-84272380D02*
X41023809Y-83796190D01*
X40785714Y-84272380D02*
X40785714Y-83272380D01*
X41166666Y-83272380D01*
X41261904Y-83320000D01*
X41309523Y-83367619D01*
X41357142Y-83462857D01*
X41357142Y-83605714D01*
X41309523Y-83700952D01*
X41261904Y-83748571D01*
X41166666Y-83796190D01*
X40785714Y-83796190D01*
X42309523Y-84272380D02*
X41738095Y-84272380D01*
X42023809Y-84272380D02*
X42023809Y-83272380D01*
X41928571Y-83415238D01*
X41833333Y-83510476D01*
X41738095Y-83558095D01*
X42642857Y-83272380D02*
X43261904Y-83272380D01*
X42928571Y-83653333D01*
X43071428Y-83653333D01*
X43166666Y-83700952D01*
X43214285Y-83748571D01*
X43261904Y-83843809D01*
X43261904Y-84081904D01*
X43214285Y-84177142D01*
X43166666Y-84224761D01*
X43071428Y-84272380D01*
X42785714Y-84272380D01*
X42690476Y-84224761D01*
X42642857Y-84177142D01*
X26357142Y-92272380D02*
X26023809Y-91796190D01*
X25785714Y-92272380D02*
X25785714Y-91272380D01*
X26166666Y-91272380D01*
X26261904Y-91320000D01*
X26309523Y-91367619D01*
X26357142Y-91462857D01*
X26357142Y-91605714D01*
X26309523Y-91700952D01*
X26261904Y-91748571D01*
X26166666Y-91796190D01*
X25785714Y-91796190D01*
X27309523Y-92272380D02*
X26738095Y-92272380D01*
X27023809Y-92272380D02*
X27023809Y-91272380D01*
X26928571Y-91415238D01*
X26833333Y-91510476D01*
X26738095Y-91558095D01*
X28166666Y-91605714D02*
X28166666Y-92272380D01*
X27928571Y-91224761D02*
X27690476Y-91939047D01*
X28309523Y-91939047D01*
X28357142Y-79272380D02*
X28023809Y-78796190D01*
X27785714Y-79272380D02*
X27785714Y-78272380D01*
X28166666Y-78272380D01*
X28261904Y-78320000D01*
X28309523Y-78367619D01*
X28357142Y-78462857D01*
X28357142Y-78605714D01*
X28309523Y-78700952D01*
X28261904Y-78748571D01*
X28166666Y-78796190D01*
X27785714Y-78796190D01*
X29309523Y-79272380D02*
X28738095Y-79272380D01*
X29023809Y-79272380D02*
X29023809Y-78272380D01*
X28928571Y-78415238D01*
X28833333Y-78510476D01*
X28738095Y-78558095D01*
X30214285Y-78272380D02*
X29738095Y-78272380D01*
X29690476Y-78748571D01*
X29738095Y-78700952D01*
X29833333Y-78653333D01*
X30071428Y-78653333D01*
X30166666Y-78700952D01*
X30214285Y-78748571D01*
X30261904Y-78843809D01*
X30261904Y-79081904D01*
X30214285Y-79177142D01*
X30166666Y-79224761D01*
X30071428Y-79272380D01*
X29833333Y-79272380D01*
X29738095Y-79224761D01*
X29690476Y-79177142D01*
X36357142Y-76132380D02*
X36023809Y-75656190D01*
X35785714Y-76132380D02*
X35785714Y-75132380D01*
X36166666Y-75132380D01*
X36261904Y-75180000D01*
X36309523Y-75227619D01*
X36357142Y-75322857D01*
X36357142Y-75465714D01*
X36309523Y-75560952D01*
X36261904Y-75608571D01*
X36166666Y-75656190D01*
X35785714Y-75656190D01*
X37309523Y-76132380D02*
X36738095Y-76132380D01*
X37023809Y-76132380D02*
X37023809Y-75132380D01*
X36928571Y-75275238D01*
X36833333Y-75370476D01*
X36738095Y-75418095D01*
X38166666Y-75132380D02*
X37976190Y-75132380D01*
X37880952Y-75180000D01*
X37833333Y-75227619D01*
X37738095Y-75370476D01*
X37690476Y-75560952D01*
X37690476Y-75941904D01*
X37738095Y-76037142D01*
X37785714Y-76084761D01*
X37880952Y-76132380D01*
X38071428Y-76132380D01*
X38166666Y-76084761D01*
X38214285Y-76037142D01*
X38261904Y-75941904D01*
X38261904Y-75703809D01*
X38214285Y-75608571D01*
X38166666Y-75560952D01*
X38071428Y-75513333D01*
X37880952Y-75513333D01*
X37785714Y-75560952D01*
X37738095Y-75608571D01*
X37690476Y-75703809D01*
X25357142Y-54602380D02*
X25023809Y-54126190D01*
X24785714Y-54602380D02*
X24785714Y-53602380D01*
X25166666Y-53602380D01*
X25261904Y-53650000D01*
X25309523Y-53697619D01*
X25357142Y-53792857D01*
X25357142Y-53935714D01*
X25309523Y-54030952D01*
X25261904Y-54078571D01*
X25166666Y-54126190D01*
X24785714Y-54126190D01*
X26309523Y-54602380D02*
X25738095Y-54602380D01*
X26023809Y-54602380D02*
X26023809Y-53602380D01*
X25928571Y-53745238D01*
X25833333Y-53840476D01*
X25738095Y-53888095D01*
X26642857Y-53602380D02*
X27309523Y-53602380D01*
X26880952Y-54602380D01*
X60272380Y-61142857D02*
X59796190Y-61476190D01*
X60272380Y-61714285D02*
X59272380Y-61714285D01*
X59272380Y-61333333D01*
X59320000Y-61238095D01*
X59367619Y-61190476D01*
X59462857Y-61142857D01*
X59605714Y-61142857D01*
X59700952Y-61190476D01*
X59748571Y-61238095D01*
X59796190Y-61333333D01*
X59796190Y-61714285D01*
X60272380Y-60190476D02*
X60272380Y-60761904D01*
X60272380Y-60476190D02*
X59272380Y-60476190D01*
X59415238Y-60571428D01*
X59510476Y-60666666D01*
X59558095Y-60761904D01*
X59700952Y-59619047D02*
X59653333Y-59714285D01*
X59605714Y-59761904D01*
X59510476Y-59809523D01*
X59462857Y-59809523D01*
X59367619Y-59761904D01*
X59320000Y-59714285D01*
X59272380Y-59619047D01*
X59272380Y-59428571D01*
X59320000Y-59333333D01*
X59367619Y-59285714D01*
X59462857Y-59238095D01*
X59510476Y-59238095D01*
X59605714Y-59285714D01*
X59653333Y-59333333D01*
X59700952Y-59428571D01*
X59700952Y-59619047D01*
X59748571Y-59714285D01*
X59796190Y-59761904D01*
X59891428Y-59809523D01*
X60081904Y-59809523D01*
X60177142Y-59761904D01*
X60224761Y-59714285D01*
X60272380Y-59619047D01*
X60272380Y-59428571D01*
X60224761Y-59333333D01*
X60177142Y-59285714D01*
X60081904Y-59238095D01*
X59891428Y-59238095D01*
X59796190Y-59285714D01*
X59748571Y-59333333D01*
X59700952Y-59428571D01*
X43607142Y-90952380D02*
X43273809Y-90476190D01*
X43035714Y-90952380D02*
X43035714Y-89952380D01*
X43416666Y-89952380D01*
X43511904Y-90000000D01*
X43559523Y-90047619D01*
X43607142Y-90142857D01*
X43607142Y-90285714D01*
X43559523Y-90380952D01*
X43511904Y-90428571D01*
X43416666Y-90476190D01*
X43035714Y-90476190D01*
X44559523Y-90952380D02*
X43988095Y-90952380D01*
X44273809Y-90952380D02*
X44273809Y-89952380D01*
X44178571Y-90095238D01*
X44083333Y-90190476D01*
X43988095Y-90238095D01*
X45035714Y-90952380D02*
X45226190Y-90952380D01*
X45321428Y-90904761D01*
X45369047Y-90857142D01*
X45464285Y-90714285D01*
X45511904Y-90523809D01*
X45511904Y-90142857D01*
X45464285Y-90047619D01*
X45416666Y-90000000D01*
X45321428Y-89952380D01*
X45130952Y-89952380D01*
X45035714Y-90000000D01*
X44988095Y-90047619D01*
X44940476Y-90142857D01*
X44940476Y-90380952D01*
X44988095Y-90476190D01*
X45035714Y-90523809D01*
X45130952Y-90571428D01*
X45321428Y-90571428D01*
X45416666Y-90523809D01*
X45464285Y-90476190D01*
X45511904Y-90380952D01*
X26357142Y-97102380D02*
X26023809Y-96626190D01*
X25785714Y-97102380D02*
X25785714Y-96102380D01*
X26166666Y-96102380D01*
X26261904Y-96150000D01*
X26309523Y-96197619D01*
X26357142Y-96292857D01*
X26357142Y-96435714D01*
X26309523Y-96530952D01*
X26261904Y-96578571D01*
X26166666Y-96626190D01*
X25785714Y-96626190D01*
X26738095Y-96197619D02*
X26785714Y-96150000D01*
X26880952Y-96102380D01*
X27119047Y-96102380D01*
X27214285Y-96150000D01*
X27261904Y-96197619D01*
X27309523Y-96292857D01*
X27309523Y-96388095D01*
X27261904Y-96530952D01*
X26690476Y-97102380D01*
X27309523Y-97102380D01*
X27928571Y-96102380D02*
X28023809Y-96102380D01*
X28119047Y-96150000D01*
X28166666Y-96197619D01*
X28214285Y-96292857D01*
X28261904Y-96483333D01*
X28261904Y-96721428D01*
X28214285Y-96911904D01*
X28166666Y-97007142D01*
X28119047Y-97054761D01*
X28023809Y-97102380D01*
X27928571Y-97102380D01*
X27833333Y-97054761D01*
X27785714Y-97007142D01*
X27738095Y-96911904D01*
X27690476Y-96721428D01*
X27690476Y-96483333D01*
X27738095Y-96292857D01*
X27785714Y-96197619D01*
X27833333Y-96150000D01*
X27928571Y-96102380D01*
X58772380Y-74642857D02*
X58296190Y-74976190D01*
X58772380Y-75214285D02*
X57772380Y-75214285D01*
X57772380Y-74833333D01*
X57820000Y-74738095D01*
X57867619Y-74690476D01*
X57962857Y-74642857D01*
X58105714Y-74642857D01*
X58200952Y-74690476D01*
X58248571Y-74738095D01*
X58296190Y-74833333D01*
X58296190Y-75214285D01*
X57867619Y-74261904D02*
X57820000Y-74214285D01*
X57772380Y-74119047D01*
X57772380Y-73880952D01*
X57820000Y-73785714D01*
X57867619Y-73738095D01*
X57962857Y-73690476D01*
X58058095Y-73690476D01*
X58200952Y-73738095D01*
X58772380Y-74309523D01*
X58772380Y-73690476D01*
X58772380Y-72738095D02*
X58772380Y-73309523D01*
X58772380Y-73023809D02*
X57772380Y-73023809D01*
X57915238Y-73119047D01*
X58010476Y-73214285D01*
X58058095Y-73309523D01*
X51857142Y-71272380D02*
X51523809Y-70796190D01*
X51285714Y-71272380D02*
X51285714Y-70272380D01*
X51666666Y-70272380D01*
X51761904Y-70320000D01*
X51809523Y-70367619D01*
X51857142Y-70462857D01*
X51857142Y-70605714D01*
X51809523Y-70700952D01*
X51761904Y-70748571D01*
X51666666Y-70796190D01*
X51285714Y-70796190D01*
X52238095Y-70367619D02*
X52285714Y-70320000D01*
X52380952Y-70272380D01*
X52619047Y-70272380D01*
X52714285Y-70320000D01*
X52761904Y-70367619D01*
X52809523Y-70462857D01*
X52809523Y-70558095D01*
X52761904Y-70700952D01*
X52190476Y-71272380D01*
X52809523Y-71272380D01*
X53190476Y-70367619D02*
X53238095Y-70320000D01*
X53333333Y-70272380D01*
X53571428Y-70272380D01*
X53666666Y-70320000D01*
X53714285Y-70367619D01*
X53761904Y-70462857D01*
X53761904Y-70558095D01*
X53714285Y-70700952D01*
X53142857Y-71272380D01*
X53761904Y-71272380D01*
D11*
X59568845Y-65899297D02*
X60258273Y-65899297D01*
X59913559Y-67105797D02*
X59913559Y-65899297D01*
X61349869Y-67105797D02*
X60947702Y-66531273D01*
X60660440Y-67105797D02*
X60660440Y-65899297D01*
X61120059Y-65899297D01*
X61234964Y-65956750D01*
X61292416Y-66014202D01*
X61349869Y-66129107D01*
X61349869Y-66301464D01*
X61292416Y-66416369D01*
X61234964Y-66473821D01*
X61120059Y-66531273D01*
X60660440Y-66531273D01*
X61866940Y-66473821D02*
X62269107Y-66473821D01*
X62441464Y-67105797D02*
X61866940Y-67105797D01*
X61866940Y-65899297D01*
X62441464Y-65899297D01*
X63360702Y-66473821D02*
X63533059Y-66531273D01*
X63590511Y-66588726D01*
X63647964Y-66703630D01*
X63647964Y-66875988D01*
X63590511Y-66990892D01*
X63533059Y-67048345D01*
X63418154Y-67105797D01*
X62958535Y-67105797D01*
X62958535Y-65899297D01*
X63360702Y-65899297D01*
X63475607Y-65956750D01*
X63533059Y-66014202D01*
X63590511Y-66129107D01*
X63590511Y-66244011D01*
X63533059Y-66358916D01*
X63475607Y-66416369D01*
X63360702Y-66473821D01*
X62958535Y-66473821D01*
X64739559Y-67105797D02*
X64165035Y-67105797D01*
X64165035Y-65899297D01*
X65141726Y-66473821D02*
X65543892Y-66473821D01*
X65716250Y-67105797D02*
X65141726Y-67105797D01*
X65141726Y-65899297D01*
X65716250Y-65899297D01*
D12*
X56213904Y-67276038D02*
X55662361Y-67276038D01*
X55938132Y-67276038D02*
X55938132Y-66310838D01*
X55846209Y-66448723D01*
X55754285Y-66540647D01*
X55662361Y-66586609D01*
D10*
X45238095Y-50552380D02*
X45238095Y-51361904D01*
X45285714Y-51457142D01*
X45333333Y-51504761D01*
X45428571Y-51552380D01*
X45619047Y-51552380D01*
X45714285Y-51504761D01*
X45761904Y-51457142D01*
X45809523Y-51361904D01*
X45809523Y-50552380D01*
X46809523Y-51552380D02*
X46238095Y-51552380D01*
X46523809Y-51552380D02*
X46523809Y-50552380D01*
X46428571Y-50695238D01*
X46333333Y-50790476D01*
X46238095Y-50838095D01*
X48488095Y-61452380D02*
X48488095Y-62261904D01*
X48535714Y-62357142D01*
X48583333Y-62404761D01*
X48678571Y-62452380D01*
X48869047Y-62452380D01*
X48964285Y-62404761D01*
X49011904Y-62357142D01*
X49059523Y-62261904D01*
X49059523Y-61452380D01*
X49440476Y-61452380D02*
X50059523Y-61452380D01*
X49726190Y-61833333D01*
X49869047Y-61833333D01*
X49964285Y-61880952D01*
X50011904Y-61928571D01*
X50059523Y-62023809D01*
X50059523Y-62261904D01*
X50011904Y-62357142D01*
X49964285Y-62404761D01*
X49869047Y-62452380D01*
X49583333Y-62452380D01*
X49488095Y-62404761D01*
X49440476Y-62357142D01*
X45238095Y-71352380D02*
X45238095Y-72161904D01*
X45285714Y-72257142D01*
X45333333Y-72304761D01*
X45428571Y-72352380D01*
X45619047Y-72352380D01*
X45714285Y-72304761D01*
X45761904Y-72257142D01*
X45809523Y-72161904D01*
X45809523Y-71352380D01*
X46714285Y-71685714D02*
X46714285Y-72352380D01*
X46476190Y-71304761D02*
X46238095Y-72019047D01*
X46857142Y-72019047D01*
D11*
X26310309Y-40499297D02*
X26712476Y-41705797D01*
X27114642Y-40499297D01*
X27746619Y-40499297D02*
X27976428Y-40499297D01*
X28091333Y-40556750D01*
X28206238Y-40671654D01*
X28263690Y-40901464D01*
X28263690Y-41303630D01*
X28206238Y-41533440D01*
X28091333Y-41648345D01*
X27976428Y-41705797D01*
X27746619Y-41705797D01*
X27631714Y-41648345D01*
X27516809Y-41533440D01*
X27459357Y-41303630D01*
X27459357Y-40901464D01*
X27516809Y-40671654D01*
X27631714Y-40556750D01*
X27746619Y-40499297D01*
X29355285Y-41705797D02*
X28780761Y-41705797D01*
X28780761Y-40499297D01*
X29757452Y-40499297D02*
X29757452Y-41475988D01*
X29814904Y-41590892D01*
X29872357Y-41648345D01*
X29987261Y-41705797D01*
X30217071Y-41705797D01*
X30331976Y-41648345D01*
X30389428Y-41590892D01*
X30446880Y-41475988D01*
X30446880Y-40499297D01*
X31021404Y-41705797D02*
X31021404Y-40499297D01*
X31423571Y-41361083D01*
X31825738Y-40499297D01*
X31825738Y-41705797D01*
X32400261Y-41073821D02*
X32802428Y-41073821D01*
X32974785Y-41705797D02*
X32400261Y-41705797D01*
X32400261Y-40499297D01*
X32974785Y-40499297D01*
D12*
X23213904Y-41876038D02*
X22662361Y-41876038D01*
X22938132Y-41876038D02*
X22938132Y-40910838D01*
X22846209Y-41048723D01*
X22754285Y-41140647D01*
X22662361Y-41186609D01*
D14*
X43640000Y-40245000D02*
X43640000Y-43335000D01*
X49190000Y-41790462D02*
G75*
G03*
X43640000Y-40245170I-2990000J462D01*
G01*
X43640000Y-43334830D02*
G75*
G03*
X49190000Y-41789538I2560000J1544830D01*
G01*
X48700000Y-41790000D02*
G75*
G03*
X48700000Y-41790000I-2500000J0D01*
G01*
D13*
X28176000Y-67576000D02*
X31224000Y-67576000D01*
X33256000Y-67576000D02*
X36304000Y-67576000D01*
X23096000Y-67576000D02*
X26144000Y-67576000D01*
X33256000Y-67576000D02*
X33256000Y-70624000D01*
X29065000Y-54495000D02*
X30335000Y-54495000D01*
X23096000Y-67576000D02*
X23096000Y-70624000D01*
X37320000Y-67449000D02*
X37320000Y-58940000D01*
X29700000Y-53860000D02*
X29700000Y-55130000D01*
X31224000Y-70624000D02*
X31224000Y-67576000D01*
X22080000Y-67449000D02*
X37320000Y-67449000D01*
X36304000Y-70624000D02*
X36304000Y-67576000D01*
X23096000Y-70624000D02*
X26144000Y-70624000D01*
X22080000Y-58940000D02*
X22080000Y-67449000D01*
X33256000Y-70624000D02*
X36304000Y-70624000D01*
X28176000Y-67576000D02*
X28176000Y-70624000D01*
X26144000Y-70624000D02*
X26144000Y-67576000D01*
X28176000Y-70624000D02*
X31224000Y-70624000D01*
X20810000Y-54495000D02*
G75*
G03*
X29700000Y-63385000I8890000J0D01*
G01*
X29700002Y-45605000D02*
G75*
G03*
X20810000Y-54495000I-102J-8889900D01*
G01*
X38590000Y-54495002D02*
G75*
G03*
X29700000Y-45605000I-8889900J102D01*
G01*
X29700000Y-63385000D02*
G75*
G03*
X38590000Y-54495000I-1J8890001D01*
G01*
X30335000Y-54495000D02*
G75*
G03*
X30335000Y-54495000I-635000J0D01*
G01*
D15*
X36801880Y-80601220D02*
X37198120Y-80601220D01*
X36801880Y-81398780D02*
X36801880Y-80601220D01*
X37198120Y-81398780D02*
X37198120Y-80601220D01*
X36801880Y-81398780D02*
X37198120Y-81398780D01*
X72898780Y-80698120D02*
X72101220Y-80698120D01*
X72898780Y-80301880D02*
X72101220Y-80301880D01*
X72898780Y-80698120D02*
X72898780Y-80301880D01*
X72101220Y-80698120D02*
X72101220Y-80301880D01*
X32801880Y-83700280D02*
X32801880Y-84299720D01*
X33198120Y-83700280D02*
X32801880Y-83700280D01*
X33198120Y-83700280D02*
X33198120Y-84299720D01*
X33198120Y-84299720D02*
X32801880Y-84299720D01*
X20898780Y-61198120D02*
X20898780Y-60801880D01*
X20101220Y-61198120D02*
X20101220Y-60801880D01*
X20898780Y-60801880D02*
X20101220Y-60801880D01*
X20898780Y-61198120D02*
X20101220Y-61198120D01*
X46698120Y-60950280D02*
X46301880Y-60950280D01*
X46698120Y-60950280D02*
X46698120Y-61549720D01*
X46698120Y-61549720D02*
X46301880Y-61549720D01*
X46301880Y-60950280D02*
X46301880Y-61549720D01*
X51700280Y-60198120D02*
X52299720Y-60198120D01*
X52299720Y-59801880D02*
X52299720Y-60198120D01*
X51700280Y-59801880D02*
X51700280Y-60198120D01*
X51700280Y-59801880D02*
X52299720Y-59801880D01*
X20799720Y-88296480D02*
X20799720Y-87900240D01*
X20799720Y-88296480D02*
X20200280Y-88296480D01*
X20799720Y-87900240D02*
X20200280Y-87900240D01*
X20200280Y-88296480D02*
X20200280Y-87900240D01*
X53799720Y-48650240D02*
X53200280Y-48650240D01*
X53799720Y-49046480D02*
X53799720Y-48650240D01*
X53799720Y-49046480D02*
X53200280Y-49046480D01*
X53200280Y-49046480D02*
X53200280Y-48650240D01*
X27301880Y-72101220D02*
X27698120Y-72101220D01*
X27698120Y-72898780D02*
X27698120Y-72101220D01*
X27301880Y-72898780D02*
X27301880Y-72101220D01*
X27301880Y-72898780D02*
X27698120Y-72898780D01*
X40301880Y-69799720D02*
X40301880Y-69200280D01*
X40698120Y-69799720D02*
X40698120Y-69200280D01*
X40301880Y-69200280D02*
X40698120Y-69200280D01*
X40301880Y-69799720D02*
X40698120Y-69799720D01*
D14*
X73500000Y-76900000D02*
X73500000Y-73000000D01*
X71500000Y-76900000D02*
X71500000Y-73000000D01*
X71500000Y-76900000D02*
X73500000Y-76900000D01*
X64500000Y-58250000D02*
X64500000Y-62150000D01*
X64500000Y-58250000D02*
X62500000Y-58250000D01*
X62500000Y-58250000D02*
X62500000Y-62150000D01*
X65500000Y-90250000D02*
X67500000Y-90250000D01*
X67500000Y-90250000D02*
X67500000Y-86350000D01*
X65500000Y-90250000D02*
X65500000Y-86350000D01*
X38500000Y-90850000D02*
X41050000Y-90850000D01*
X38500000Y-89150000D02*
X41050000Y-89150000D01*
X38500000Y-89150000D02*
X38500000Y-90850000D01*
X41500000Y-87350000D02*
X38950000Y-87350000D01*
X41500000Y-87350000D02*
X41500000Y-85650000D01*
X41500000Y-85650000D02*
X38950000Y-85650000D01*
D13*
X62700000Y-28460000D02*
X62700000Y-29730000D01*
X56096000Y-42176000D02*
X56096000Y-45224000D01*
X59144000Y-45224000D02*
X59144000Y-42176000D01*
X62065000Y-29095000D02*
X63335000Y-29095000D01*
X61176000Y-42176000D02*
X64224000Y-42176000D01*
X66256000Y-45224000D02*
X69304000Y-45224000D01*
X64224000Y-45224000D02*
X64224000Y-42176000D01*
X56096000Y-42176000D02*
X59144000Y-42176000D01*
X66256000Y-42176000D02*
X69304000Y-42176000D01*
X55080000Y-42049000D02*
X70320000Y-42049000D01*
X69304000Y-45224000D02*
X69304000Y-42176000D01*
X61176000Y-42176000D02*
X61176000Y-45224000D01*
X56096000Y-45224000D02*
X59144000Y-45224000D01*
X70320000Y-42049000D02*
X70320000Y-33540000D01*
X66256000Y-42176000D02*
X66256000Y-45224000D01*
X61176000Y-45224000D02*
X64224000Y-45224000D01*
X55080000Y-33540000D02*
X55080000Y-42049000D01*
X62700000Y-37985000D02*
G75*
G03*
X71590000Y-29095000I-1J8890001D01*
G01*
X71590000Y-29095002D02*
G75*
G03*
X62700000Y-20205000I-8889900J102D01*
G01*
X62700002Y-20205000D02*
G75*
G03*
X53810000Y-29095000I-102J-8889900D01*
G01*
X53810000Y-29095000D02*
G75*
G03*
X62700000Y-37985000I8890000J0D01*
G01*
X63335000Y-29095000D02*
G75*
G03*
X63335000Y-29095000I-635000J0D01*
G01*
D14*
X66727064Y-98090000D02*
X65272936Y-98090000D01*
X66727064Y-99910000D02*
X65272936Y-99910000D01*
X52227064Y-86090000D02*
X50772936Y-86090000D01*
X52227064Y-87910000D02*
X50772936Y-87910000D01*
X32727064Y-90910000D02*
X31272936Y-90910000D01*
X32727064Y-89090000D02*
X31272936Y-89090000D01*
X47355000Y-87223737D02*
X47355000Y-85776263D01*
X44645000Y-87223737D02*
X44645000Y-85776263D01*
X33272936Y-73910000D02*
X34727064Y-73910000D01*
X33272936Y-72090000D02*
X34727064Y-72090000D01*
X30227064Y-82410000D02*
X28772936Y-82410000D01*
X30227064Y-80590000D02*
X28772936Y-80590000D01*
X50727064Y-83410000D02*
X49272936Y-83410000D01*
X50727064Y-81590000D02*
X49272936Y-81590000D01*
X42727064Y-81090000D02*
X41272936Y-81090000D01*
X42727064Y-82910000D02*
X41272936Y-82910000D01*
X27727064Y-89090000D02*
X26272936Y-89090000D01*
X27727064Y-90910000D02*
X26272936Y-90910000D01*
X29727064Y-76090000D02*
X28272936Y-76090000D01*
X29727064Y-77910000D02*
X28272936Y-77910000D01*
X36272936Y-78410000D02*
X37727064Y-78410000D01*
X36272936Y-76590000D02*
X37727064Y-76590000D01*
X26227064Y-51765000D02*
X25772936Y-51765000D01*
X26227064Y-53235000D02*
X25772936Y-53235000D01*
X58910000Y-59772936D02*
X58910000Y-61227064D01*
X57090000Y-59772936D02*
X57090000Y-61227064D01*
X43772936Y-91265000D02*
X44227064Y-91265000D01*
X43772936Y-92735000D02*
X44227064Y-92735000D01*
X27227064Y-95735000D02*
X26772936Y-95735000D01*
X27227064Y-94265000D02*
X26772936Y-94265000D01*
X57410000Y-73272936D02*
X57410000Y-74727064D01*
X55590000Y-73272936D02*
X55590000Y-74727064D01*
X53227064Y-68090000D02*
X51772936Y-68090000D01*
X53227064Y-69910000D02*
X51772936Y-69910000D01*
D13*
X61176000Y-67576000D02*
X61176000Y-70624000D01*
X69304000Y-70624000D02*
X69304000Y-67576000D01*
X61176000Y-67576000D02*
X64224000Y-67576000D01*
X66256000Y-70624000D02*
X69304000Y-70624000D01*
X66256000Y-67576000D02*
X66256000Y-70624000D01*
X55080000Y-58940000D02*
X55080000Y-67449000D01*
X70320000Y-67449000D02*
X70320000Y-58940000D01*
X62065000Y-54495000D02*
X63335000Y-54495000D01*
X66256000Y-67576000D02*
X69304000Y-67576000D01*
X56096000Y-67576000D02*
X59144000Y-67576000D01*
X62700000Y-53860000D02*
X62700000Y-55130000D01*
X56096000Y-67576000D02*
X56096000Y-70624000D01*
X55080000Y-67449000D02*
X70320000Y-67449000D01*
X56096000Y-70624000D02*
X59144000Y-70624000D01*
X59144000Y-70624000D02*
X59144000Y-67576000D01*
X64224000Y-70624000D02*
X64224000Y-67576000D01*
X61176000Y-70624000D02*
X64224000Y-70624000D01*
X53810000Y-54495000D02*
G75*
G03*
X62700000Y-63385000I8890000J0D01*
G01*
X62700000Y-63385000D02*
G75*
G03*
X71590000Y-54495000I-1J8890001D01*
G01*
X62700002Y-45605000D02*
G75*
G03*
X53810000Y-54495000I-102J-8889900D01*
G01*
X71590000Y-54495002D02*
G75*
G03*
X62700000Y-45605000I-8889900J102D01*
G01*
X63335000Y-54495000D02*
G75*
G03*
X63335000Y-54495000I-635000J0D01*
G01*
D14*
X46000000Y-51940000D02*
X47950000Y-51940000D01*
X46000000Y-51940000D02*
X42550000Y-51940000D01*
X46000000Y-57060000D02*
X44050000Y-57060000D01*
X46000000Y-57060000D02*
X47950000Y-57060000D01*
X46000000Y-62340000D02*
X42550000Y-62340000D01*
X46000000Y-62340000D02*
X47950000Y-62340000D01*
X46000000Y-67460000D02*
X44050000Y-67460000D01*
X46000000Y-67460000D02*
X47950000Y-67460000D01*
X46000000Y-77860000D02*
X47950000Y-77860000D01*
X46000000Y-72740000D02*
X47950000Y-72740000D01*
X46000000Y-72740000D02*
X42550000Y-72740000D01*
X46000000Y-77860000D02*
X44050000Y-77860000D01*
D13*
X23096000Y-42176000D02*
X23096000Y-45224000D01*
X28176000Y-45224000D02*
X31224000Y-45224000D01*
X36304000Y-45224000D02*
X36304000Y-42176000D01*
X33256000Y-42176000D02*
X36304000Y-42176000D01*
X28176000Y-42176000D02*
X31224000Y-42176000D01*
X23096000Y-42176000D02*
X26144000Y-42176000D01*
X37320000Y-42049000D02*
X37320000Y-33540000D01*
X29065000Y-29095000D02*
X30335000Y-29095000D01*
X26144000Y-45224000D02*
X26144000Y-42176000D01*
X33256000Y-42176000D02*
X33256000Y-45224000D01*
X28176000Y-42176000D02*
X28176000Y-45224000D01*
X29700000Y-28460000D02*
X29700000Y-29730000D01*
X33256000Y-45224000D02*
X36304000Y-45224000D01*
X31224000Y-45224000D02*
X31224000Y-42176000D01*
X22080000Y-42049000D02*
X37320000Y-42049000D01*
X22080000Y-33540000D02*
X22080000Y-42049000D01*
X23096000Y-45224000D02*
X26144000Y-45224000D01*
X29700000Y-37985000D02*
G75*
G03*
X38590000Y-29095000I-1J8890001D01*
G01*
X20810000Y-29095000D02*
G75*
G03*
X29700000Y-37985000I8890000J0D01*
G01*
X38590000Y-29095002D02*
G75*
G03*
X29700000Y-20205000I-8889900J102D01*
G01*
X29700002Y-20205000D02*
G75*
G03*
X20810000Y-29095000I-102J-8889900D01*
G01*
X30335000Y-29095000D02*
G75*
G03*
X30335000Y-29095000I-635000J0D01*
G01*
%LPC*%
D16*
X44930000Y-41790000D03*
D17*
X47470000Y-41790000D03*
D18*
X24620000Y-69100000D03*
D19*
X29700000Y-69100000D03*
X34780000Y-69100000D03*
D20*
X72500000Y-97100840D03*
X72500000Y-98899160D03*
D21*
X35600460Y-81000000D03*
X38399540Y-81000000D03*
D22*
X72500000Y-81899540D03*
X72500000Y-79100460D03*
D23*
X33579120Y-84000000D03*
X32420880Y-84000000D03*
D24*
X31100840Y-98000000D03*
X32899160Y-98000000D03*
D20*
X61000000Y-93600840D03*
X61000000Y-95399160D03*
D22*
X20500000Y-62399540D03*
X20500000Y-59600460D03*
D25*
X47348360Y-61250000D03*
X45651640Y-61250000D03*
D26*
X52000000Y-59151640D03*
X52000000Y-60848360D03*
D20*
X52500000Y-64100840D03*
X52500000Y-65899160D03*
D27*
X20500000Y-88946720D03*
X20500000Y-87250000D03*
D20*
X52500000Y-73600840D03*
X52500000Y-75399160D03*
D28*
X50899160Y-92000000D03*
X49100840Y-92000000D03*
D20*
X52500000Y-52600840D03*
X52500000Y-54399160D03*
D27*
X53500000Y-49696720D03*
X53500000Y-48000000D03*
D21*
X26100460Y-72500000D03*
X28899540Y-72500000D03*
D29*
X39920880Y-69500000D03*
X41079120Y-69500000D03*
D30*
X72500000Y-76300000D03*
X72500000Y-73000000D03*
X63500000Y-58850000D03*
X63500000Y-62150000D03*
X66500000Y-89650000D03*
X66500000Y-86350000D03*
D31*
X38900000Y-90000000D03*
X41100000Y-90000000D03*
X41100000Y-86500000D03*
X38900000Y-86500000D03*
D18*
X57620000Y-43700000D03*
D19*
X62700000Y-43700000D03*
X67780000Y-43700000D03*
D32*
X67462500Y-99000000D03*
X64537500Y-99000000D03*
X52962500Y-87000000D03*
X50037500Y-87000000D03*
X33462500Y-90000000D03*
X30537500Y-90000000D03*
D33*
X46000000Y-87962500D03*
X46000000Y-85037500D03*
D34*
X32537500Y-73000000D03*
X35462500Y-73000000D03*
D32*
X30962500Y-81500000D03*
X28037500Y-81500000D03*
X51462500Y-82500000D03*
X48537500Y-82500000D03*
X43462500Y-82000000D03*
X40537500Y-82000000D03*
X28462500Y-90000000D03*
X25537500Y-90000000D03*
X30462500Y-77000000D03*
X27537500Y-77000000D03*
D34*
X35537500Y-77500000D03*
X38462500Y-77500000D03*
D35*
X26912500Y-52500000D03*
X25087500Y-52500000D03*
D36*
X58000000Y-59037500D03*
X58000000Y-61962500D03*
D37*
X43087500Y-92000000D03*
X44912500Y-92000000D03*
D35*
X27912500Y-95000000D03*
X26087500Y-95000000D03*
D36*
X56500000Y-72537500D03*
X56500000Y-75462500D03*
D32*
X53962500Y-69000000D03*
X51037500Y-69000000D03*
D18*
X57620000Y-69100000D03*
D19*
X62700000Y-69100000D03*
X67780000Y-69100000D03*
D38*
X43525000Y-52595000D03*
X43525000Y-53865000D03*
X43525000Y-55135000D03*
X43525000Y-56405000D03*
X48475000Y-56405000D03*
X48475000Y-55135000D03*
X48475000Y-53865000D03*
X48475000Y-52595000D03*
D39*
X46000000Y-54500000D03*
D38*
X43525000Y-62995000D03*
X43525000Y-64265000D03*
X43525000Y-65535000D03*
X43525000Y-66805000D03*
X48475000Y-66805000D03*
X48475000Y-65535000D03*
X48475000Y-64265000D03*
X48475000Y-62995000D03*
D39*
X46000000Y-64900000D03*
D38*
X43525000Y-73395000D03*
X43525000Y-74665000D03*
X43525000Y-75935000D03*
X43525000Y-77205000D03*
X48475000Y-77205000D03*
X48475000Y-75935000D03*
X48475000Y-74665000D03*
X48475000Y-73395000D03*
D39*
X46000000Y-75300000D03*
D18*
X24620000Y-43700000D03*
D19*
X29700000Y-43700000D03*
X34780000Y-43700000D03*
D40*
X21500000Y-83250000D03*
D41*
X21500000Y-81250000D03*
D40*
X54500000Y-78500000D03*
D41*
X56500000Y-78500000D03*
D40*
X72000000Y-56000000D03*
D41*
X72000000Y-58000000D03*
D40*
X62000000Y-86000000D03*
D41*
X62000000Y-88500000D03*
D40*
X25000000Y-57500000D03*
D41*
X25000000Y-59500000D03*
D40*
X23000000Y-75000000D03*
D41*
X20500000Y-75000000D03*
D40*
X34500000Y-57500000D03*
D41*
X34500000Y-55500000D03*
D40*
X72000000Y-87000000D03*
D41*
X72000000Y-89000000D03*
D42*
X47400000Y-36000000D03*
D43*
X44860000Y-36000000D03*
D42*
X47400000Y-47000000D03*
D43*
X44860000Y-47000000D03*
D42*
X68500000Y-95000000D03*
D43*
X65960000Y-95000000D03*
D44*
X36000000Y-85500000D03*
D45*
X56320000Y-85500000D03*
D41*
X21000000Y-92000000D03*
D46*
X21000000Y-107240000D03*
D44*
X30500000Y-86500000D03*
D45*
X30500000Y-106820000D03*
D44*
X36000000Y-90500000D03*
D45*
X56320000Y-90500000D03*
D44*
X25500000Y-86500000D03*
D45*
X25500000Y-106820000D03*
D47*
X70500000Y-107500000D03*
X67960000Y-104960000D03*
X70500000Y-102420000D03*
D40*
X61000000Y-81500000D03*
D46*
X61000000Y-78960000D03*
X61000000Y-76420000D03*
X61000000Y-73880000D03*
X68620000Y-73880000D03*
X68620000Y-76420000D03*
X68620000Y-78960000D03*
X68620000Y-81500000D03*
D42*
X73250000Y-43750000D03*
X61000000Y-99000000D03*
X61000000Y-102750000D03*
X61000000Y-106500000D03*
M02*
