G04 #@! TF.GenerationSoftware,KiCad,Pcbnew,(6.0.4)*
G04 #@! TF.CreationDate,2022-04-21T02:31:35-04:00*
G04 #@! TF.ProjectId,malice-striker-v2-2,6d616c69-6365-42d7-9374-72696b65722d,rev?*
G04 #@! TF.SameCoordinates,Original*
G04 #@! TF.FileFunction,Soldermask,Bot*
G04 #@! TF.FilePolarity,Negative*
%FSLAX46Y46*%
G04 Gerber Fmt 4.6, Leading zero omitted, Abs format (unit mm)*
G04 Created by KiCad (PCBNEW (6.0.4)) date 2022-04-21 02:31:35*
%MOMM*%
%LPD*%
G01*
G04 APERTURE LIST*
G04 Aperture macros list*
%AMRoundRect*
0 Rectangle with rounded corners*
0 $1 Rounding radius*
0 $2 $3 $4 $5 $6 $7 $8 $9 X,Y pos of 4 corners*
0 Add a 4 corners polygon primitive as box body*
4,1,4,$2,$3,$4,$5,$6,$7,$8,$9,$2,$3,0*
0 Add four circle primitives for the rounded corners*
1,1,$1+$1,$2,$3*
1,1,$1+$1,$4,$5*
1,1,$1+$1,$6,$7*
1,1,$1+$1,$8,$9*
0 Add four rect primitives between the rounded corners*
20,1,$1+$1,$2,$3,$4,$5,0*
20,1,$1+$1,$4,$5,$6,$7,0*
20,1,$1+$1,$6,$7,$8,$9,0*
20,1,$1+$1,$8,$9,$2,$3,0*%
G04 Aperture macros list end*
%ADD10R,1.800000X1.800000*%
%ADD11C,1.800000*%
%ADD12RoundRect,0.101600X1.270000X1.270000X-1.270000X1.270000X-1.270000X-1.270000X1.270000X-1.270000X0*%
%ADD13C,2.743200*%
%ADD14R,1.600000X1.600000*%
%ADD15C,1.600000*%
%ADD16R,1.700000X1.700000*%
%ADD17O,1.700000X1.700000*%
%ADD18C,2.400000*%
%ADD19O,2.400000X2.400000*%
%ADD20O,1.600000X1.600000*%
%ADD21C,1.440000*%
G04 APERTURE END LIST*
D10*
X44930000Y-41790000D03*
D11*
X47470000Y-41790000D03*
D12*
X24620000Y-69100000D03*
D13*
X29700000Y-69100000D03*
X34780000Y-69100000D03*
D12*
X57620000Y-43700000D03*
D13*
X62700000Y-43700000D03*
X67780000Y-43700000D03*
D12*
X57620000Y-69100000D03*
D13*
X62700000Y-69100000D03*
X67780000Y-69100000D03*
D12*
X24620000Y-43700000D03*
D13*
X29700000Y-43700000D03*
X34780000Y-43700000D03*
D14*
X21500000Y-83250000D03*
D15*
X21500000Y-81250000D03*
D14*
X54500000Y-78500000D03*
D15*
X56500000Y-78500000D03*
D14*
X72000000Y-56000000D03*
D15*
X72000000Y-58000000D03*
D14*
X62000000Y-86000000D03*
D15*
X62000000Y-88500000D03*
D14*
X25000000Y-57500000D03*
D15*
X25000000Y-59500000D03*
D14*
X23000000Y-75000000D03*
D15*
X20500000Y-75000000D03*
D14*
X34500000Y-57500000D03*
D15*
X34500000Y-55500000D03*
D14*
X72000000Y-87000000D03*
D15*
X72000000Y-89000000D03*
D16*
X47400000Y-36000000D03*
D17*
X44860000Y-36000000D03*
D16*
X47400000Y-47000000D03*
D17*
X44860000Y-47000000D03*
D16*
X68500000Y-95000000D03*
D17*
X65960000Y-95000000D03*
D18*
X36000000Y-85500000D03*
D19*
X56320000Y-85500000D03*
D15*
X21000000Y-92000000D03*
D20*
X21000000Y-107240000D03*
D18*
X30500000Y-86500000D03*
D19*
X30500000Y-106820000D03*
D18*
X36000000Y-90500000D03*
D19*
X56320000Y-90500000D03*
D18*
X25500000Y-86500000D03*
D19*
X25500000Y-106820000D03*
D21*
X70500000Y-107500000D03*
X67960000Y-104960000D03*
X70500000Y-102420000D03*
D14*
X61000000Y-81500000D03*
D20*
X61000000Y-78960000D03*
X61000000Y-76420000D03*
X61000000Y-73880000D03*
X68620000Y-73880000D03*
X68620000Y-76420000D03*
X68620000Y-78960000D03*
X68620000Y-81500000D03*
D16*
X73250000Y-43750000D03*
X61000000Y-99000000D03*
X61000000Y-102750000D03*
X61000000Y-106500000D03*
M02*
